<?xml version="1.0" encoding="UTF-8"?>
<svg data-bbox="0 -0.01 774.216 258.751" viewBox="0 0 774.22 258.75" xmlns="http://www.w3.org/2000/svg" data-type="color">
    <g>
        <defs>
            <clipPath id="187e58ce-3bae-44c0-90cf-8e39397b07aa">
                <path d="M774.22 0v258.74H0V0h774.22z"/>
            </clipPath>
        </defs>
        <path d="m131.19 0 46.39 149.31h-76.81l23.2-88.43H57.26L0 258.73h72.48l13.04-50.03h108.72l15.22 50.03h83.35L207.29 0h-76.1Z" fill="#123356" data-color="1"/>
        <g clip-path="url(#187e58ce-3bae-44c0-90cf-8e39397b07aa)">
            <path d="m329.77 253.68-19.56-60.14c21.73-7.97 60.14-23.2 51.45-83.35-8.68-60.15-93.49-50.74-93.49-50.74L250.05 0c82.37 0 97.12 8.7 97.12 8.7 41.95 10.49 73.61 45 80.45 87.7 14.49 141.33-97.84 157.28-97.84 157.28" fill="#123356" data-color="1"/>
            <path d="M601.57 0v258.73h-79v-95.65h-75.38s10.86-24.88 2.65-63.06h72.96L522.56-.01h79Z" fill="#123356" data-color="1"/>
            <path d="M774.05 129.37c-5.8 131.06-141.09 129.37-141.09 129.37l.97-60.39s73.92 2.42 78.28-71.51c4.36-73.92-81.17-67.15-81.17-67.15V0s148.82-1.69 143.01 129.37" fill="#123356" data-color="1"/>
        </g>
    </g>
</svg>
