<?xml version="1.0" encoding="UTF-8"?><svg id="Lag_1" xmlns="http://www.w3.org/2000/svg" xmlns:xlink="http://www.w3.org/1999/xlink" viewBox="0 0 245 115.01"><defs><style>.cls-1{isolation:isolate;}.cls-1,.cls-2,.cls-3{fill:none;}.cls-4{fill:#ef8f42;}.cls-3{clip-path:url(#clippath);}</style><clipPath id="clippath"><rect class="cls-2" y="0" width="245" height="73.91"/></clipPath></defs><g id="ADHD-foreningen" class="cls-1"><g class="cls-1"><path class="cls-4" d="m21.58,109h-4.06l-1.43-4.16h-6.71l-1.48,4.16H3.87l7.33-19.21h3.15l7.23,19.21Zm-6.58-7.59l-2.24-6.4-2.29,6.4h4.52Z"/><path class="cls-4" d="m31.28,109h-7.36v-19.21h7.51c2.89,0,5.16.87,6.79,2.6,1.65,1.73,2.47,4.08,2.47,7.05s-.84,5.3-2.52,6.99c-1.66,1.72-3.96,2.57-6.89,2.57Zm-3.51-15.52v11.83h3.69c1.65,0,2.93-.56,3.85-1.69.92-1.13,1.38-2.55,1.38-4.26s-.46-3.06-1.38-4.19c-.92-1.13-2.2-1.69-3.85-1.69h-3.69Z"/><path class="cls-4" d="m47.79,109h-3.85v-19.21h3.85v7.67h8.06v-7.67h3.85v19.21h-3.85v-7.83h-8.06v7.83Z"/><path class="cls-4" d="m71.32,109h-7.36v-19.21h7.51c2.89,0,5.16.87,6.79,2.6,1.65,1.73,2.47,4.08,2.47,7.05s-.84,5.3-2.52,6.99c-1.66,1.72-3.96,2.57-6.89,2.57Zm-3.51-15.52v11.83h3.69c1.65,0,2.93-.56,3.85-1.69.92-1.13,1.38-2.55,1.38-4.26s-.46-3.06-1.38-4.19c-.92-1.13-2.2-1.69-3.85-1.69h-3.69Z"/><path class="cls-4" d="m94.09,103.51h-10.69v-3.43h10.69v3.43Z"/><path class="cls-4" d="m104.52,91.87c-.85,0-1.5.21-1.95.64s-.68,1.04-.68,1.83v.49h4.39v3.07h-4.39v11.1h-3.67v-11.1h-2.18v-3.07h2.18v-.57c0-1.84.53-3.23,1.59-4.19,1.07-.97,2.46-1.46,4.16-1.46,1.4,0,2.75.35,4.03,1.04l-1.2,2.81c-.9-.4-1.66-.6-2.29-.6Z"/><path class="cls-4" d="m107.01,101.9c0-2.1.71-3.86,2.13-5.28,1.44-1.46,3.26-2.18,5.46-2.18s4.02.73,5.46,2.18c1.42,1.42,2.13,3.18,2.13,5.28s-.71,3.88-2.13,5.3c-1.44,1.44-3.26,2.16-5.46,2.16s-4.02-.72-5.46-2.16c-1.42-1.42-2.13-3.19-2.13-5.3Zm4.78,2.89c.75.78,1.68,1.17,2.81,1.17s2.02-.39,2.78-1.17c.76-.81,1.14-1.78,1.14-2.89s-.38-2.06-1.14-2.86c-.76-.78-1.69-1.17-2.78-1.17s-2.06.39-2.81,1.17c-.75.76-1.12,1.72-1.12,2.86s.37,2.09,1.12,2.89Z"/><path class="cls-4" d="m128.44,109h-3.67v-14.17h3.51v1.9c.85-1.52,2.15-2.29,3.9-2.29.57,0,1.14.1,1.72.31l-.31,3.51c-.62-.19-1.19-.29-1.69-.29-1.08,0-1.92.36-2.54,1.08-.62.72-.92,1.79-.92,3.21v6.73Z"/><path class="cls-4" d="m148.98,101.59c0,.43-.04.97-.13,1.61h-10.63c.52,2.01,1.9,3.02,4.13,3.02,1.65,0,3.17-.48,4.58-1.43l1.46,2.57c-1.8,1.3-3.87,1.95-6.19,1.95-2.48,0-4.38-.72-5.72-2.16-1.32-1.42-1.98-3.17-1.98-5.25s.68-3.94,2.05-5.33c1.37-1.4,3.15-2.11,5.33-2.11,2.06,0,3.76.64,5.1,1.92,1.33,1.28,2,3.02,2,5.2Zm-7.1-4.08c-.92,0-1.7.26-2.35.79-.65.53-1.09,1.25-1.31,2.17h7.2c-.17-.92-.57-1.64-1.2-2.17-.62-.53-1.4-.79-2.34-.79Z"/><path class="cls-4" d="m155.17,109h-3.67v-14.17h3.59v1.98c.38-.71.97-1.28,1.77-1.72.8-.43,1.69-.65,2.68-.65,1.54,0,2.85.51,3.93,1.53,1.07,1.02,1.61,2.48,1.61,4.37v8.66h-3.67v-7.67c0-1.11-.27-1.97-.81-2.59s-1.27-.92-2.18-.92c-.97,0-1.75.33-2.35,1-.6.67-.9,1.53-.9,2.59v7.59Z"/><path class="cls-4" d="m172.38,90.98c0,.64-.22,1.18-.65,1.61s-.97.65-1.61.65-1.18-.22-1.61-.65c-.43-.43-.65-.97-.65-1.61s.22-1.17.65-1.59c.43-.43.97-.65,1.61-.65s1.18.22,1.61.65c.43.42.65.94.65,1.59Zm-.44,3.85v14.17h-3.67v-14.17h3.67Z"/><path class="cls-4" d="m178.88,109h-3.67v-14.17h3.59v1.98c.38-.71.97-1.28,1.77-1.72.8-.43,1.69-.65,2.68-.65,1.54,0,2.85.51,3.93,1.53,1.08,1.02,1.61,2.48,1.61,4.37v8.66h-3.67v-7.67c0-1.11-.27-1.97-.81-2.59-.54-.62-1.27-.92-2.18-.92-.97,0-1.75.33-2.35,1-.6.67-.9,1.53-.9,2.59v7.59Z"/><path class="cls-4" d="m202.77,96.39v-1.56h3.38v12.77c0,2.29-.73,4.09-2.18,5.41-1.47,1.33-3.36,2-5.67,2-2.44,0-4.61-.68-6.5-2.05l1.43-2.76c1.63,1.11,3.29,1.66,4.97,1.66,1.37,0,2.45-.36,3.24-1.09.79-.73,1.18-1.67,1.18-2.83v-.73c-1.09,1.21-2.55,1.82-4.37,1.82-2.08,0-3.78-.68-5.1-2.05-1.32-1.37-1.98-3.1-1.98-5.2s.69-3.84,2.08-5.23,3.1-2.08,5.15-2.08c1.73,0,3.19.64,4.37,1.92Zm-7.9,5.41c0,1.18.37,2.14,1.12,2.89.76.76,1.7,1.14,2.81,1.14s2.04-.38,2.81-1.14c.75-.76,1.12-1.72,1.12-2.89s-.37-2.09-1.12-2.83-1.7-1.14-2.81-1.14-2.05.38-2.81,1.14c-.75.75-1.12,1.69-1.12,2.83Z"/><path class="cls-4" d="m223.23,101.59c0,.43-.04.97-.13,1.61h-10.63c.52,2.01,1.9,3.02,4.13,3.02,1.65,0,3.17-.48,4.58-1.43l1.46,2.57c-1.8,1.3-3.87,1.95-6.19,1.95-2.48,0-4.38-.72-5.72-2.16-1.32-1.42-1.98-3.17-1.98-5.25s.68-3.94,2.05-5.33c1.37-1.4,3.15-2.11,5.33-2.11,2.06,0,3.76.64,5.1,1.92,1.33,1.28,2,3.02,2,5.2Zm-7.1-4.08c-.92,0-1.7.26-2.35.79-.65.53-1.09,1.25-1.31,2.17h7.2c-.17-.92-.57-1.64-1.2-2.17-.62-.53-1.4-.79-2.34-.79Z"/><path class="cls-4" d="m229.42,109h-3.67v-14.17h3.59v1.98c.38-.71.97-1.28,1.77-1.72.8-.43,1.69-.65,2.68-.65,1.54,0,2.85.51,3.93,1.53,1.07,1.02,1.61,2.48,1.61,4.37v8.66h-3.67v-7.67c0-1.11-.27-1.97-.81-2.59s-1.27-.92-2.18-.92c-.97,0-1.75.33-2.35,1-.6.67-.9,1.53-.9,2.59v7.59Z"/></g></g><g id="Group_747"><g id="Path_1039"><path class="cls-4" d="m41.51,0l14.68,42.65h-24.31l7.34-25.26h-21.1L0,73.91h22.94l4.13-14.28h34.4l4.82,14.28h26.38L65.59,0h-24.08Z"/></g><g id="Group_287"><g class="cls-3"><g id="Group_286"><g id="Path_1040"><path class="cls-4" d="m104.35,72.46l-6.19-17.18c6.88-2.28,19.04-6.62,16.29-23.81s-29.59-14.49-29.59-14.49L79.13,0c26.07,0,30.73,2.48,30.73,2.48,23.16,5.73,25.46,25.05,25.46,25.05,4.59,40.37-30.96,44.92-30.96,44.92"/></g><g id="Path_1041"><path class="cls-4" d="m190.36,0v73.91h-25v-27.33h-23.85s3.44-7.11.84-18.01h23.09l-.07-28.57h25Z"/></g><g id="Path_1042"><path class="cls-4" d="m244.94,36.96c-1.83,37.44-44.65,36.96-44.65,36.96l.3-17.25s23.39.69,24.77-20.43-25.69-19.19-25.69-19.19V0s47.09-.48,45.26,36.96"/></g></g></g></g></g></svg>