<?xml version="1.0" encoding="UTF-8"?>
<svg data-bbox="0 0 941.07 400.5" viewBox="0 0 941.06 400.5" xmlns="http://www.w3.org/2000/svg" data-type="color">
    <g>
        <path d="M314.89 40.83c0 19.15-53.75 39.04-123.06 39.04S82.33 61.71 82.33 44.81c0-5.73 5.09-10.19 14.13-15.74C126.57 10.6 162.48 0 200.34 0s72.45 10.24 102.47 28.24c8.09 4.82 12.08 8.03 12.08 12.6Z" fill="#909fb0" data-color="1"/>
        <path d="M365.75 96.51c0 27.91-43.42 59.67-140.69 59.67-91.3 0-188.94-28.24-188.94-67.18 0-2.67 2.47-7.13 6.45-12.17a200.76 200.76 0 0 1 28.2-29.29c.36-.31.62-.15.31.26-5.67 6.99-8.25 13.85-8.25 20.58 0 18.78 14.92 48.34 94.57 48.34 108.39 0 176.5-39.36 176.5-61.62 0-1.89-.43-3.3-1.27-4.62-.21-.31 0-.53.31-.26 6.46 5.88 12.55 11.87 19 19.2 9.94 11.29 13.82 17.11 13.82 27.09Z" fill="#909fb0" data-color="1"/>
        <path d="M393.79 171.96c-11.14 39.65-79.84 61.39-168.3 61.39-145 0-207.16-41.72-219.44-67.79-1.53-3.25-1.9-5.35-1.04-9.71 1.93-10.18 8.45-29.85 14.32-41.51.16-.32.47-.26.37.11-.99 3.98-1.78 7.81-1.78 11.65 0 39.88 66.14 71.47 145.41 71.47 73.19 0 218.24-33.53 216.51-85.53-.06-.37.21-.42.37-.11 4.67 9.5 10.17 23.04 13.11 34.65 2.64 10.39 2.52 18.09.48 25.39Z" fill="#909fb0" data-color="1"/>
        <path d="M400.66 200.25c0 17.37-2.52 38.05-7.4 49.49-6.82 16-40.21 64.65-186.27 64.65-107.19 0-169.09-36.26-193.92-62.14-5.46-5.72-9.18-12.9-10.08-17.47C1.1 225.38 0 211.22 0 200.25c0-.43.31-.53.42-.06 8.78 32.59 57.12 80.34 159.65 80.34 107.83 0 232.62-52.05 239.91-91.2.11-.53.42-.48.42.06.16 3.29.26 6.65.26 10.85Z" fill="#909fb0" data-color="1"/>
        <path d="M386.76 273.71c-3.47 8.71-7.73 17.58-12.08 25.04-7.57 12.96-16.01 22.6-24.87 29.85-32.41 26.6-86.58 40.04-135.88 40.04-93.65 0-169.46-29.01-194.45-82.13-.16-.41.11-.57.37-.2 26.82 38.88 95.34 59.25 159.02 59.25 90.08 0 177.33-27.66 207.47-72 .32-.48.57-.26.43.16Z" fill="#909fb0" data-color="1"/>
        <path d="M332.31 350.86c-35.22 30.85-81.36 49.64-131.97 49.64-46.26 0-88.89-15.79-122.85-42.09-.31-.25-.16-.57.26-.37 22 12.29 60.95 26.03 122.59 26.03 70.92 0 115.96-23.03 131.77-33.59.42-.24.63 0 .2.38Z" fill="#909fb0" data-color="1"/>
        <path d="M941.06 138.25v17.81c0 2.59-1.79 4.39-4.4 4.39h-43.85v129.12c0 2.6-1.81 4.41-4.4 4.41h-20.23c-2.61 0-4.4-1.81-4.4-4.41V160.45h-43.86c-2.61 0-4.41-1.79-4.41-4.39v-17.81c0-2.61 1.8-4.41 4.41-4.41h116.75c2.61 0 4.4 1.8 4.4 4.41Z" fill="#123356" data-color="2"/>
        <path d="m836.53 288.38-33.86-36.63 22.44-38.44c2-3.4.19-5.6-3.02-5.6h-19.42c-3.2 0-5 1-6.61 3.6l-12.61 22.03-22.44-24.23c15.23-8.41 29.64-19.61 29.64-39.63 0-23.41-16.42-39.24-43.26-39.24s-43.65 17.01-43.65 41.85c0 9.8 4.2 21.02 13.42 31.63-18.82 10.41-31.26 22.82-31.26 46.05 0 30.22 23.04 47.84 52.28 47.84 23.63 0 37.85-10.2 48.06-23.82l15.22 16.82c2.2 2.6 4 3.41 7.41 3.41h25.43c3.22 0 4.81-2.81 2.21-5.61Zm-88.72-133.32c10.42 0 15.62 6.8 15.62 15.01 0 8.81-6.01 13.81-20.23 22.02-8.21-8.81-11.81-14.81-11.81-21.62 0-8.81 6-15.41 16.42-15.41Zm-9.01 117.31c-13.23 0-24.44-9.8-24.44-23.62s8.01-21.02 20.43-28.03l32.44 34.84c-7.01 10.61-15.63 16.81-28.44 16.81Z" fill="#123356" data-color="2"/>
        <path d="M689.34 138.25v17.81c0 2.6-1.8 4.39-4.4 4.39h-43.85v129.12c0 2.6-1.81 4.41-4.41 4.41h-20.24c-2.59 0-4.4-1.81-4.4-4.41V160.45h-43.85c-2.6 0-4.4-1.8-4.4-4.39v-17.81c0-2.61 1.8-4.41 4.4-4.41h116.76c2.6 0 4.4 1.8 4.4 4.41Z" fill="#123356" data-color="2"/>
        <path d="m583.23 288.77-54.27-150.93c-1-2.81-3-4-6.01-4h-26.83c-3 0-4.8 1.2-5.81 4l-54.27 150.93c-1 2.61.8 5.22 3.41 5.22h19.62c2.99 0 4.8-1.4 5.8-4.22l11.83-34.02h64.68l11.81 34.02c1 2.82 2.81 4.22 5.82 4.22h20.82c2.81 0 4.41-2.61 3.4-5.22Zm-97.32-59.25 23.24-66.06 23.02 66.06h-46.26Z" fill="#123356" data-color="2"/>
    </g>
</svg>
