<?xml version="1.0" encoding="UTF-8"?><svg id="Lag_1" xmlns="http://www.w3.org/2000/svg" viewBox="0 0 168.38 66.41"><defs><style>.cls-1{fill:#24618e;}</style></defs><path id="Path_2698" class="cls-1" d="m.25,66.41c3.7-2.67,7.1-5.17,10.56-7.57.64-.3,1.34-.42,2.04-.35,40.81-.01,81.63-.02,122.44-.01h32.36v7.92H.25Z"/><path id="Path_2699" class="cls-1" d="m49.76,23.33c1.53.35,2.76.54,3.92.92,4.31,1.41,7.32,4.2,8.11,8.92.88,5.2-.18,9.86-4.41,13.29-3.15,2.47-7.03,3.83-11.04,3.86-7.84.28-15.69.22-23.54.29-.07,0-.14-.09-.33-.22,3.33-2.4,6.61-4.79,9.93-7.12.47-.22.99-.31,1.51-.26,3.28-.05,6.56-.01,9.84-.12,1.19-.05,2.36-.25,3.5-.6,2.95-.66,5.05-3.28,5.04-6.3.17-3.29-1.27-5.78-4.41-6.92-2.02-.71-4.11-1.16-6.24-1.35-2.74-.26-5.51-.15-8.27-.2-.47,0-.94,0-1.66,0v3.12c0,2.74.02,5.48-.01,8.21,0,.45-.08,1.1-.37,1.31-2.95,2.2-5.94,4.33-9.26,6.72v-2.2c0-12.27-.03-24.55.03-36.82.13-2.05-.29-4.09-1.22-5.91-.2-.43-.37-.88-.5-1.33h8.11c5.66,0,11.32-.03,16.98.01,3.29-.02,6.46,1.2,8.89,3.42,3.08,2.63,4.44,6.75,3.54,10.69-.58,3.99-3.48,7.25-7.37,8.3-.17.06-.34.12-.78.27m-18.03-2.24c3.69-.17,7.19-.23,10.68-.54,1.18-.2,2.29-.67,3.26-1.36,2.45-1.51,3.57-4.5,2.71-7.25-.65-2.33-2.51-3.66-5.53-3.73-3.33-.08-6.66,0-9.99-.04-.89-.01-1.15.35-1.14,1.2.03,2.84.01,5.67.01,8.51v3.21"/><path id="Path_2700" class="cls-1" d="m142.59,51.3c-4.65-.09-9.22-1.22-13.37-3.33-8.23-4.3-12.08-11.5-12.39-20.73-.11-3.27.22-6.53.98-9.71,1.86-7.62,6.78-12.64,13.84-15.39,7.33-3,15.57-2.84,22.79.43,8.91,3.92,13.23,11.2,13.84,20.95.4,4.59-.31,9.22-2.08,13.48-3.32,7.58-9.36,11.58-16.99,13.36-2.16.5-4.41.64-6.62.95m15.85-25.57c-.31-2.19-.45-4.25-.9-6.23-1.61-6.99-6.83-11.44-14.04-12.11-6.48-.45-12.53,3.28-15.04,9.28-1.67,4.3-2.11,8.99-1.26,13.53,1.15,7.57,6.87,13.09,14.02,13.57,7.51.74,14.41-4.18,16.15-11.52.47-2.15.82-4.33,1.06-6.52"/><path id="Path_2701" class="cls-1" d="m78.25,7.9v2.41c0,9.39-.02,18.78.02,28.17.09.91-.34,1.8-1.12,2.28-2.8,1.93-5.54,3.96-8.61,6.17v-1.76c0-12.57-.02-25.14.02-37.7.12-1.9-.28-3.8-1.15-5.49-.2-.44-.37-.9-.51-1.36h1.94c6.37,0,12.75-.02,19.12,0,14.23.06,25.17,10.63,23.95,27.32-.19,2.77-.77,5.51-1.73,8.11-3.29,8.62-9.89,13.34-18.57,14.14-7.44.69-14.98.14-22.56.14,1.86-1.34,3.74-2.69,5.62-4.04,4.84-3.5,4.84-3.41,10.71-3.33,2.09.03,4.17-.25,6.18-.85,6.18-1.87,9.91-7.03,10.27-14.15.16-2.44.02-4.88-.4-7.28-1.26-6.47-5.3-10.48-11.47-11.79-3.73-.78-7.62-.68-11.72-1"/><path id="Path_2702" class="cls-1" d="m0,62.82V.71h9.25c.02.57.07,1.09.07,1.61,0,17.46.01,34.92.03,52.38.07.91-.39,1.79-1.17,2.25-2.68,1.85-5.3,3.79-8.18,5.86"/></svg>