<?xml version="1.0" encoding="UTF-8"?><svg id="Lag_1" xmlns="http://www.w3.org/2000/svg" viewBox="0 0 188.88 53.85"><defs><style>.cls-1{fill:#24618e;}</style></defs><path id="Path_2694" class="cls-1" d="m.37,53.17c-.1-.85-.21-1.4-.24-1.96q-.15-3.69,3.55-3.8c5.03-.15,6.85-1.62,6.95-6.71.19-9.36.19-18.73,0-28.11-.11-4.82-2.08-6.6-6.4-6.77C-.33,5.64-.53,5.34.53.19c.84-.05,1.74-.13,2.63-.13C22.87.06,42.59-.08,62.29.16c4.86.13,9.69.86,14.38,2.15,4.69,1.23,6.52,4.45,6.63,9.54.12,5.42-1.46,8.55-6.34,9.99-4.27,1.26-8.85,1.36-13.27,2.13-1.06.18-2.83.87-2.89,1.48-.23,2.23,1.73,1.56,2.97,1.75,4.08.6,8.26.78,12.22,1.84,5.38,1.43,7.72,4.9,7.84,10.26.15,6.38-1.87,10.24-7.28,11.88-4.13,1.26-8.42,1.93-12.73,2-20.53.22-41.07.14-61.62.15-.53,0-1.07-.09-1.84-.15m37.85-15.28c0,2.36-.11,4.73.07,7.08.05.68.93,1.85,1.43,1.84,3.57.13,7.14-.08,10.66-.63,3.73-.75,5.31-3.96,5.22-8.83-.08-4.37-1.88-7.38-5.54-8.01-3.36-.46-6.75-.62-10.13-.48-.57,0-1.55,1.22-1.62,1.95-.2,2.34-.08,4.72-.08,7.08m5.88-31.3q-5.89,0-5.89,6.15c0,.28-.01.57,0,.85.17,2.78-.65,6.65.79,8.03,1.51,1.45,5.19.64,7.92.61,5.07-.05,7.69-2.8,7.67-7.86s-2.65-7.71-7.74-7.78c-.92-.01-1.84,0-2.75,0"/><path id="Path_2695" class="cls-1" d="m154.81,6.48c-.05,1.28-.13,2.3-.14,3.32,0,7.95-.02,15.9,0,23.85.03,9.35,3.15,12.81,12.2,13.62,1.91.1,3.38,1.74,3.28,3.65-.03.58-.21,1.15-.52,1.65-.39.47-.97.74-1.59.74-18.96.03-37.93.03-57.38.03-.11-1.5-.08-3.01.08-4.5.12-.61,1.14-1.28,1.86-1.46,1.95-.48,4-.58,5.94-1.09,4.04-.87,6.87-4.5,6.75-8.63.24-10.12.09-20.25.09-30.37-.07-.31-.19-.61-.35-.89-3.54.28-6.48,1.98-9.2,4.11-5.84,4.58-9.27,10.87-11.8,17.82-.41,1.01-1.22,1.81-2.23,2.2-2.18.59-3.3-.21-3.24-2.91.16-8.23.11-16.47.02-24.7C98.56.76,99.12,0,101.37,0c25.87.08,51.75.09,77.62.04,1.59,0,2.86-.05,2.85,2.26-.07,8.8,0,17.6.01,26.4-.05.54-.14,1.07-.28,1.59-4.44.76-4.39.72-5.9-3.3-3.35-8.95-8.32-16.44-17.52-19.98-.6-.23-1.22-.4-1.85-.53-.5-.05-1.01-.05-1.51-.01"/><path id="Path_2696" class="cls-1" d="m183.62,53.84c-1.44-1.67-3.01-3.5-4.78-5.55,1.58-1.51,3.35-3.2,5.32-5.09l4.72,5.44-5.26,5.2"/><path id="Path_2697" class="cls-1" d="m101.45,48.95c-1.58,1.45-3.35,3.07-5.35,4.9-1.59-1.71-3.26-3.51-5.06-5.45,1.79-1.7,3.52-3.35,5.54-5.27,1.43,1.71,2.97,3.54,4.87,5.81"/></svg>