<?xml version="1.0" encoding="UTF-8"?>
<svg data-bbox="0 0 685.32 433.28" viewBox="0 0 685.32 433.28" xmlns="http://www.w3.org/2000/svg" data-type="color">
    <g>
        <path d="M326.34 164.4c0 90.11-73.06 163.17-163.17 163.17S0 254.51 0 164.4 73.06 1.22 163.18 1.22 326.35 74.28 326.35 164.4Z" fill="#123356" data-color="1"/>
        <path fill="#94a3b3" d="M685.32 163.17c0 90.116-73.054 163.17-163.17 163.17-90.116 0-163.17-73.054-163.17-163.17C358.98 73.054 432.034 0 522.15 0c90.116 0 163.17 73.054 163.17 163.17z" data-color="2"/>
        <path d="M521.33 229.2c-5.15 0-9.33-4.18-9.33-9.33V103.2c0-5.15 4.18-9.33 9.33-9.33s9.33 4.18 9.33 9.33v116.67c0 5.15-4.18 9.33-9.33 9.33Z" fill="#ffffff" data-color="3"/>
        <path d="M164.31 87.5h-43.03c-5.29 0-9.57 4.29-9.57 9.57v128.52c0 5.29 4.29 9.57 9.57 9.57h43.03c39.66 0 71.81-32.15 71.81-71.81v-4.05c0-39.66-32.15-71.81-71.81-71.81Zm39.38 77.19c0 22.74-18.43 41.17-41.17 41.17h-20.83v-90.29h20.83c22.74 0 41.17 18.43 41.17 41.17v7.94Z" fill="#ffffff" data-color="3"/>
        <path d="M84.14 402.27c0 18.32-12.59 30.22-31.96 30.22H30.99v-60.62h21.19c19.37 0 31.96 11.98 31.96 30.4Zm-32.39 19.89c12.77 0 19.97-7.29 19.97-19.89s-7.21-20.15-19.97-20.15h-8.6v40.03h8.6Z" fill="#123356" data-color="1"/>
        <path d="M112.1 383.6c7.73 0 13.03 3.65 15.89 7.64v-6.86h12.24v48.11h-12.24v-7.03c-2.87 4.17-8.34 7.82-15.98 7.82-12.16 0-21.88-9.99-21.88-25.01s9.73-24.66 21.97-24.66Zm3.13 10.68c-6.51 0-12.68 4.86-12.68 13.98s6.17 14.33 12.68 14.33S128 417.55 128 408.43s-6.08-14.16-12.77-14.16Z" fill="#123356" data-color="1"/>
        <path d="M185.83 405.92c0-7.73-4.26-11.9-10.68-11.9s-10.85 4.17-10.85 11.9v26.57h-12.16v-48.11h12.16v5.99c3.13-4.08 8.34-6.69 14.5-6.69 11.2 0 19.19 7.3 19.19 20.58v28.22h-12.16v-26.57Z" fill="#123356" data-color="1"/>
        <path d="M227.95 433.28c-12.07 0-20.5-7.03-21.02-15.98h12.25c.43 3.65 3.82 6.43 8.68 6.43s7.38-2.17 7.38-4.95c0-8.6-27.18-3.13-27.18-20.76 0-7.99 7.12-14.42 19.02-14.42s18.67 6.34 19.37 15.89h-11.64c-.35-3.73-3.3-6.25-8.08-6.25-4.52 0-6.86 1.82-6.86 4.6 0 8.77 26.66 3.3 27.01 20.93 0 8.25-7.21 14.5-18.93 14.5Z" fill="#123356" data-color="1"/>
        <path d="M256.86 368.23h12.16v36.56l16.15-20.41h15.81l-21.19 24.14 21.36 23.97h-15.81L269.01 412v20.49h-12.16v-64.26Z" fill="#123356" data-color="1"/>
        <path d="M328.25 371.88h12.16v60.62h-12.16v-60.62Z" fill="#123356" data-color="1"/>
        <path d="M386.08 405.92c0-7.73-4.26-11.9-10.68-11.9s-10.85 4.17-10.85 11.9v26.57h-12.16v-48.11h12.16v5.99c3.13-4.08 8.34-6.69 14.5-6.69 11.2 0 19.19 7.3 19.19 20.58v28.22h-12.16v-26.57Z" fill="#123356" data-color="1"/>
        <path d="M428.72 383.6c6.34 0 12.42 2.95 15.72 7.47v-22.84h12.33v64.26h-12.33v-7.12c-2.87 4.43-8.25 7.9-15.81 7.9-12.24 0-21.97-9.99-21.97-25.01s9.73-24.66 22.06-24.66Zm3.04 10.68c-6.51 0-12.68 4.86-12.68 13.98s6.17 14.33 12.68 14.33 12.77-5.04 12.77-14.16-6.08-14.16-12.77-14.16Z" fill="#123356" data-color="1"/>
        <path d="M514.09 432.49h-12.25v-6.08c-3.04 4.08-8.34 6.69-14.33 6.69-11.2 0-19.28-7.29-19.28-20.49v-28.22h12.16v26.49c0 7.73 4.26 11.9 10.68 11.9s10.77-4.17 10.77-11.9v-26.49h12.25v48.11Z" fill="#123356" data-color="1"/>
        <path d="M544.48 433.28c-12.07 0-20.5-7.03-21.02-15.98h12.25c.43 3.65 3.82 6.43 8.68 6.43s7.38-2.17 7.38-4.95c0-8.6-27.18-3.13-27.18-20.76 0-7.99 7.12-14.42 19.02-14.42s18.67 6.34 19.37 15.89h-11.64c-.35-3.73-3.3-6.25-8.08-6.25-4.52 0-6.86 1.82-6.86 4.6 0 8.77 26.66 3.3 27.01 20.93 0 8.25-7.21 14.5-18.93 14.5Z" fill="#123356" data-color="1"/>
        <path d="M575.31 394.37h-5.73v-9.99h5.73v-11.9h12.24v11.9h10.77v9.99h-10.77v23.27c0 3.21 1.3 4.6 5.12 4.6h5.64v10.25h-7.64c-9.21 0-15.37-3.91-15.37-14.94v-23.19Z" fill="#123356" data-color="1"/>
        <path d="M619.25 432.49h-12.16v-48.11h12.16v7.47c3.04-4.95 8.08-8.16 14.76-8.16v12.77h-3.21c-7.21 0-11.55 2.78-11.55 12.07v23.97Z" fill="#123356" data-color="1"/>
        <path d="M640.87 371.53c0-3.99 3.13-7.12 7.47-7.12s7.47 3.13 7.47 7.12-3.21 7.12-7.47 7.12-7.47-3.13-7.47-7.12Zm1.3 12.85h12.16v48.11h-12.16v-48.11Z" fill="#123356" data-color="1"/>
    </g>
</svg>
