<?xml version="1.0" encoding="UTF-8"?>
<svg data-bbox="0 0 1567.59 396.06" viewBox="0 0 1567.59 396.06" xmlns="http://www.w3.org/2000/svg" data-type="color">
    <g>
        <path d="M464.74 98.14c-15.81 5.25-29.89 24.16-42.14 55.71-11.33-1.07-24.38-14.72-24.43-25.71 0-1.71.57-3.45 1.04-5.12 6.08-21.35 19.24-37.34 39.16-46.4 41.82-19.02 83.4-17.64 122.51 7.1 25.54 16.15 38.72 41.03 38.8 71.21.16 60.1-26.18 105.63-79.06 134.53-25.78 14.09-53.62 16.64-81.91 7.63-16.03-5.1-27.8-15.61-35.67-30.53-1.42-2.69-1.4-4.86-.27-7.75 20.21-51.79 40.26-103.63 60.33-155.47.56-1.46.95-2.99 1.64-5.21Zm-24.4 170.78c2.96.59 4.64 1.06 6.35 1.24 19.34 2.04 37.72-.95 55.16-9.86 46.13-23.58 70.85-77.31 67.38-124.21-1.24-16.79-8.25-30.69-22.59-40.07-15.49-10.14-32.75-12.4-50.79-10.07-2.55.33-5.03 1.29-8.05 2.1 7.25 4.17 13.81 7.67 20.08 11.62 7.17 4.52 7.06 4.7 2.73 11.7-.38.62-.77 1.24-1.13 1.88-24.1 42.79-45.04 87.06-62.23 133.07-2.68 7.18-4.51 14.67-6.91 22.61Z" fill="#123356" data-color="1"/>
        <path d="M1104.26 64.42c2.66.17 4.88.04 6.98.48 13.22 2.77 25.81 7.39 37.7 13.78 6.65 3.57 6.42 4.9 5.14 12.13-2.94 16.63-6.14 33.32-7.46 50.12-2.87 36.55-3.09 73.2-.56 109.81.1 1.38.36 2.75 1.62 4.38.69-1.78 1.4-3.56 2.05-5.35 17.8-48.58 38.17-96.01 64.11-140.87 5.9-10.21 13.04-19.7 19.63-29.51.49-.72 1.07-1.39 1.66-2.04 11.08-12.17 14.82-13.91 30.17-2.39 5.29 3.97 9.37 9.11 11.38 15.82-20.43 8.09-31.62 25.58-42.97 42.43-28.06 41.63-48.72 87.02-65.6 134.17-3.19 8.91-5.35 18.18-8.21 27.22-.5 1.6-1.89 3.79-3.23 4.09-5.74 1.29-11.71 3.11-17.42 2.63-9.49-.81-18.65-3.87-26.1-10.25-1.92-1.65-3.63-4.34-4.06-6.8-6.32-36.07-8.24-72.42-6.98-109 .82-23.92 1.01-47.86 1.43-71.79.2-11.67.25-23.35.4-35.03.01-1.14.18-2.28.32-4.02Z" fill="#123356" data-color="1"/>
        <path d="M1348.44 260.53c2.37-1.6 4.84-3.08 7.11-4.82 29.26-22.37 50.27-51.01 63.93-85.07 1.62-4.04 3.68-5.34 7.39-4.22 6.64 2 13.24 4.16 19.76 6.54 1.99.73 2.87 2.36 1.84 4.95-14.78 37.15-29.15 74.47-44.23 111.5-10.73 26.34-23.91 51.44-43.78 72.27-20.45 21.44-51.74 30.81-82.4 14.5-3.93-2.09-7.64-4.92-10.83-8.04-5.25-5.14-5-8.63.12-13.8.9-.91 1.9-1.71 2.95-2.65.78.55 1.47.86 1.93 1.38 8.87 10.07 19.9 10.29 31.73 7.04 13.16-3.62 23.44-11.58 32.41-21.46 16.2-17.86 26.24-39.17 34.32-61.56 1.77-4.9 3.36-9.86 5.4-15.86-5.61 3.87-10.19 7.15-14.89 10.23-3.42 2.24-7.11 4.05-10.5 6.33-5.79 3.89-11.12 2.49-16.18-1.23-11.08-8.14-15.64-19.67-16.38-32.93-.77-13.81 3.4-26.54 9.45-38.69 14.08-28.29 34.86-49.85 64.03-62.72 9.21-4.06 18.85-5.98 29.02-4.44 8.88 1.34 14.56 6.32 17.3 14.69 1.26 3.84 2.12 7.81 3.31 12.3-1.23-.32-1.83-.31-2.21-.59-7.89-5.83-15.62-4.06-23.31.42-13.45 7.84-24.23 18.69-34.14 30.48-13.53 16.1-25.01 33.44-31.68 53.58-1.2 3.62-1.75 7.46-2.59 11.2.37.23.75.47 1.12.7Z" fill="#123356" data-color="1"/>
        <path d="M830.3 61.42c18.47 2.48 31.25 12.81 40.9 27.65.56.87.53 2.54.1 3.57-14.35 34.79-28.96 69.49-43.14 104.35-8.69 21.35-16.78 42.95-25.07 64.46-.93 2.41-1.44 4.98-2.51 8.79 7.91-1.39 14.99-2.21 21.84-3.92 16.45-4.09 32.95-7.73 49.95-8.41 1.47-.06 3.75.47 4.37 1.49 6.64 11.01 9.82 22.71 6.01 35.54-.2.67-.52 1.31-.52 1.31-8.21 0-15.93.25-23.62-.05-22.93-.87-45.46 2.37-67.9 6.39-4.71.84-8.58-.04-12.41-2.53-8.93-5.82-15.1-14.12-20.38-23.11-.77-1.31-.06-3.9.65-5.61 11-26.24 22.78-52.18 33.04-78.71 15.96-41.29 28.88-83.56 37.56-127.05.25-1.27.69-2.51 1.15-4.17Z" fill="#123356" data-color="1"/>
        <path d="M1537.31 166.49c.43-.61.72-.93.93-1.31 3.75-6.82 4.42-7.46 11.75-4.93 4.87 1.68 9.55 4.31 13.8 7.25 4.44 3.08 4.66 5.73 2.35 10.61-9.83 20.76-18.52 41.94-22.7 64.66-1.02 5.55-1.28 11.29-1.42 16.95-.18 7.48 1.22 14.39 10.25 17.77-10.24 7.09-20.43 10.77-31.83 7.39-7.8-2.31-10.71-9.16-11.3-16.7-.46-5.92-.09-11.9-.09-18.31-1.01 1.28-1.93 2.62-3.03 3.8-7.24 7.78-14.32 15.71-21.87 23.17-2.84 2.8-6.64 4.78-10.27 6.6-10.93 5.49-21.34 2.79-28.43-7.23-7.75-10.96-8.87-23.48-6.98-36.11 5.19-34.69 22.17-62.93 48.67-85.58 5.71-4.88 12.33-8.25 19.81-9.84 4.74-1.01 9.29-.69 12.78 2.59 5.48 5.15 10.49 10.8 15.65 16.28.75.8 1.23 1.86 1.93 2.94Zm-66.62 96.61c1.9-.92 3.7-1.36 4.91-2.45 4.64-4.18 9.63-8.15 13.53-12.97 15.61-19.26 27.27-41.04 39.04-62.73 1.92-3.54 3.7-7.15 5.71-11.03-28.97 2.4-69.1 61.18-63.2 89.17Z" fill="#123356" data-color="1"/>
        <path d="M999.84 277.5c-8.89 6.81-18.27 9.45-28.51 8.27-7.53-.87-12.83-6.79-14.04-15.3-.63-4.43-.43-9-.45-13.5-.01-2.1.34-4.2-.39-6.6-.94 1.19-1.92 2.36-2.83 3.58-6.81 9.19-14.29 17.72-23.63 24.48-19.79 14.33-38.18 7.22-43.1-16.9-2.94-14.4-.73-28.47 4.03-42.2 8.48-24.48 21.89-45.73 41.53-62.83 6.34-5.53 13.41-9.72 21.75-11.72 5.44-1.3 10.37-.52 14.34 3.12 5.93 5.46 11.4 11.42 17.2 17.31.02-.04.89-.87 1.16-1.85 1.14-4.3 4.14-4.74 7.79-4 6.56 1.34 12.49 3.96 17.46 8.56 3.15 2.91 3.93 5.86 1.9 10.08-10.46 21.76-19.29 44.12-23.44 68.05-.55 3.15-1.03 6.38-1 9.56.08 8.63-.51 17.68 10.23 21.88Zm-18.36-104.76c-4.48 1.8-8.66 2.61-11.77 4.89-7.73 5.66-15.81 11.22-22.25 18.2-15.7 17.03-27.16 36.53-29.76 60.18-.24 2.17.16 4.41.31 7.52 2.73-1.46 4.75-2.11 6.2-3.4 4.22-3.79 8.67-7.46 12.22-11.83 18.05-22.24 31.08-47.61 44.48-72.73.24-.46.23-1.05.58-2.83Z" fill="#123356" data-color="1"/>
        <path d="M1306.86 237.07c.75.24.91.25 1.01.33q9.71 7.57 1.95 16.85c-12.56 14.98-27.29 27.09-45.53 34.68-5.94 2.47-11.71 2.71-17.9 1.1-24.19-6.3-38.52-26.42-35.83-51.39 3.68-34.25 19.75-61.9 46.12-83.64 8.87-7.31 19-12.39 30.55-14.44 7.93-1.41 14.6 1 21.02 5.29 11.07 7.41 15.25 16.58 12.02 30.43-5.08 21.71-15.9 38.91-34.82 50.35-11.56 6.99-23.99 12.57-36.19 18.46-2.66 1.29-4.11 2.72-3.78 5.48.58 4.75.96 9.6 2.29 14.15 1.41 4.86 4.47 6.78 9.37 5.8 5.36-1.07 11.06-2.26 15.65-5 7.46-4.46 14.35-9.97 21.06-15.53 4.69-3.88 8.7-8.59 13.01-12.93Zm-55.85-11.21c18.54-5.43 44-35.24 43.27-50.33-14.79 1.89-38.47 29.25-43.27 50.33Z" fill="#123356" data-color="1"/>
        <path d="M689 236.86c10.77 7.22 10.96 8.3 3.24 17.29-13.4 15.61-28.66 28.79-48.46 35.56-3.66 1.25-8.1 1.5-11.91.79-25.56-4.79-40.97-23.73-38.91-49.54 3.13-39.3 21.97-69.84 54.6-91.78 4.41-2.97 9.61-4.87 14.63-6.8 13.31-5.13 24.38-1.12 34.32 8.41 5.95 5.71 8.01 11.74 6.79 20.19-3.47 23.91-14.67 42.76-35.16 55.36-11.5 7.07-23.93 12.69-36.14 18.53-3.36 1.6-4.91 3.4-4.36 6.89.69 4.44 1.17 8.98 2.46 13.25 1.27 4.21 4.59 6.02 9.2 5.7 8.99-.62 16.72-4.52 23.49-9.85 8.12-6.38 15.52-13.67 23.19-20.6 1.07-.97 1.93-2.17 3.03-3.41Zm-55.53-10.77c21.05-8.98 44.48-36.69 43.06-50.63-15.4 2.38-40.53 31.74-43.06 50.63Z" fill="#123356" data-color="1"/>
        <path fill="#415c78" d="M125.6 132.02v218.92L0 132.24l125.6-.22z" data-color="2"/>
        <path fill="#8697a9" d="M252.52 67.12v153.94l-101 175-25.92-45.12V67.12h126.92z" data-color="3"/>
        <path fill="#d9dee4" d="m380.12 0-127.6 221.06V0h127.6z" data-color="4"/>
        <path d="M347.08 352.31h-8.46c-1.68-3.1-4.73-4.73-8.62-4.73-6.57 0-11.14 4.68-11.14 11.98s4.62 12.08 11.45 12.08c5.67 0 9.3-3.26 10.4-8.46H328.1v-5.62h19.86v6.41c-1.47 7.46-8.14 14.29-17.91 14.29-10.66 0-18.75-7.72-18.75-18.7s8.09-18.75 18.7-18.75c8.19 0 14.71 4.15 17.07 11.5Z" fill="#123356" data-color="1"/>
        <path d="M360.79 341.27v30.84h12.08v5.83h-19.44v-36.67h7.35Z" fill="#123356" data-color="1"/>
        <path d="M394.57 378.31c-10.35 0-18.81-7.77-18.81-18.81s8.46-18.75 18.81-18.75 18.75 7.77 18.75 18.75-8.35 18.81-18.75 18.81Zm0-6.57c6.62 0 11.19-4.78 11.19-12.24s-4.57-12.14-11.19-12.14-11.24 4.68-11.24 12.14 4.57 12.24 11.24 12.24Z" fill="#123356" data-color="1"/>
        <path d="M434.6 377.94h-15.81v-36.67h15.13c7.67 0 11.92 3.99 11.92 9.46 0 4.47-2.68 7.25-6.25 8.4 4.15.74 7.09 4.57 7.09 8.88 0 5.83-4.47 9.93-12.08 9.93Zm-1.73-30.73h-6.72v9.19h6.72c3.47 0 5.46-1.58 5.46-4.57s-2-4.62-5.46-4.62Zm.53 14.87h-7.25v9.88h7.41c3.57 0 5.67-1.73 5.67-4.83s-2.26-5.04-5.83-5.04Z" fill="#123356" data-color="1"/>
        <path d="M475.05 370.96h-14.6l-2.42 6.99h-7.72l13.19-36.72h8.56l13.19 36.72h-7.77l-2.42-6.99Zm-7.3-21.22-5.31 15.34h10.61l-5.31-15.34Z" fill="#123356" data-color="1"/>
        <path d="M497.53 341.27v30.84h12.08v5.83h-19.44v-36.67h7.35Z" fill="#123356" data-color="1"/>
        <path d="M548.06 347.21h-13.92v9.19h12.35v5.83h-12.35v9.72h13.92v5.99h-21.28v-36.72h21.28v5.99Z" fill="#123356" data-color="1"/>
        <path d="M586.09 341.22v36.72h-7.35l-16.65-25.16v25.16h-7.35v-36.72h7.35l16.65 25.22v-25.22h7.35Z" fill="#123356" data-color="1"/>
        <path d="M591.4 341.27h26.9v5.94h-9.77v30.73h-7.35v-30.73h-9.77v-5.94Z" fill="#123356" data-color="1"/>
        <path d="M637.42 341.27c8.83 0 13.24 5.1 13.24 11.24 0 4.47-2.47 8.98-8.35 10.56l8.77 14.87h-8.51l-8.09-14.29h-3.47v14.29h-7.35v-36.67h13.76Zm-.26 6.09h-6.15v10.77h6.15c4.1 0 5.94-2.15 5.94-5.46s-1.84-5.31-5.94-5.31Z" fill="#123356" data-color="1"/>
        <path d="M678.6 347.21h-13.92v9.19h12.34v5.83h-12.34v9.72h13.92v5.99h-21.28v-36.72h21.28v5.99Z" fill="#123356" data-color="1"/>
        <path d="M698.77 363.86h-6.15v14.08h-7.36v-36.67h13.5c8.83 0 13.24 4.99 13.24 11.35 0 5.57-3.78 11.24-13.24 11.24Zm-.32-5.94c4.15 0 5.99-2.05 5.99-5.31s-1.84-5.36-5.99-5.36h-5.83v10.66h5.83Z" fill="#123356" data-color="1"/>
        <path d="M730.97 341.27c8.83 0 13.24 5.1 13.24 11.24 0 4.47-2.47 8.98-8.35 10.56l8.77 14.87h-8.51l-8.09-14.29h-3.47v14.29h-7.36v-36.67h13.76Zm-.26 6.09h-6.15v10.77h6.15c4.1 0 5.94-2.15 5.94-5.46s-1.84-5.31-5.94-5.31Z" fill="#123356" data-color="1"/>
        <path d="M772.16 347.21h-13.92v9.19h12.34v5.83h-12.34v9.72h13.92v5.99h-21.28v-36.72h21.28v5.99Z" fill="#123356" data-color="1"/>
        <path d="M810.19 341.22v36.72h-7.36l-16.65-25.16v25.16h-7.36v-36.72h7.36l16.65 25.22v-25.22h7.36Z" fill="#123356" data-color="1"/>
        <path d="M838.71 347.21h-13.92v9.19h12.34v5.83h-12.34v9.72h13.92v5.99h-21.28v-36.72h21.28v5.99Z" fill="#123356" data-color="1"/>
        <path d="M845.28 341.27h7.35v22.69c0 5.04 2.73 7.67 7.41 7.67s7.46-2.63 7.46-7.67v-22.69h7.41v22.64c0 9.67-6.93 14.39-14.97 14.39s-14.66-4.73-14.66-14.39v-22.64Z" fill="#123356" data-color="1"/>
        <path d="M895.76 341.27c8.83 0 13.24 5.1 13.24 11.24 0 4.47-2.47 8.98-8.35 10.56l8.77 14.87h-8.51l-8.09-14.29h-3.47v14.29H882v-36.67h13.76Zm-.26 6.09h-6.15v10.77h6.15c4.1 0 5.94-2.15 5.94-5.46s-1.84-5.31-5.94-5.31Z" fill="#123356" data-color="1"/>
        <path d="M928.33 378.31c-7.62 0-13.5-3.99-13.61-10.93h7.88c.21 2.94 2.15 4.89 5.57 4.89s5.52-1.84 5.52-4.47c0-7.93-18.91-3.15-18.86-16.44 0-6.62 5.36-10.61 12.92-10.61s12.66 3.83 13.13 10.45h-8.09c-.16-2.42-2.1-4.31-5.25-4.36-2.89-.11-5.04 1.31-5.04 4.31 0 7.35 18.81 3.26 18.81 16.18 0 5.78-4.62 10.98-12.98 10.98Z" fill="#123356" data-color="1"/>
        <path d="M970.72 362.34h-15.71v15.6h-7.35v-36.67h7.35v15.08h15.71v-15.08h7.35v36.67h-7.35v-15.6Z" fill="#123356" data-color="1"/>
        <path d="M985.32 341.27h7.35v36.67h-7.35v-36.67Z" fill="#123356" data-color="1"/>
        <path d="M1013.43 363.86h-6.15v14.08h-7.35v-36.67h13.5c8.83 0 13.24 4.99 13.24 11.35 0 5.57-3.78 11.24-13.24 11.24Zm-.32-5.94c4.15 0 5.99-2.05 5.99-5.31s-1.84-5.36-5.99-5.36h-5.83v10.66h5.83Z" fill="#123356" data-color="1"/>
        <path d="M1066.85 370.96h-14.6l-2.42 6.99h-7.72l13.19-36.72h8.56l13.19 36.72h-7.78l-2.42-6.99Zm-7.3-21.22-5.31 15.34h10.61l-5.31-15.34Z" fill="#123356" data-color="1"/>
        <path d="M1079.51 341.27h7.88l6.46 28.47 7.46-28.47h8.19l7.04 28.32 6.51-28.32h7.93l-10.24 36.67h-8.67l-6.88-26.11-7.2 26.11-8.62.05-9.88-36.72Z" fill="#123356" data-color="1"/>
        <path d="M1158.25 370.96h-14.6l-2.42 6.99h-7.72l13.19-36.72h8.56l13.19 36.72h-7.78l-2.42-6.99Zm-7.3-21.22-5.31 15.34h10.61l-5.31-15.34Z" fill="#123356" data-color="1"/>
        <path d="M1187.14 341.27c8.83 0 13.24 5.1 13.24 11.24 0 4.47-2.47 8.98-8.35 10.56l8.77 14.87h-8.51l-8.09-14.29h-3.47v14.29h-7.35v-36.67h13.76Zm-.26 6.09h-6.15v10.77h6.15c4.1 0 5.94-2.15 5.94-5.46s-1.84-5.31-5.94-5.31Z" fill="#123356" data-color="1"/>
        <path d="M1239.2 359.66c0 11.08-7.62 18.28-19.33 18.28h-12.82v-36.67h12.82c11.71 0 19.33 7.25 19.33 18.39Zm-19.59 12.03c7.72 0 12.08-4.41 12.08-12.03s-4.36-12.19-12.08-12.19h-5.2v24.22h5.2Z" fill="#123356" data-color="1"/>
    </g>
</svg>
