<?xml version="1.0" encoding="UTF-8"?><svg id="Lag_1" xmlns="http://www.w3.org/2000/svg" xmlns:xlink="http://www.w3.org/1999/xlink" viewBox="0 0 219.33 50.34"><defs><style>.cls-1,.cls-2{fill:none;}.cls-2{clip-path:url(#clippath);}.cls-3{fill:#24618e;}</style><clipPath id="clippath"><rect class="cls-1" x="0" y="0" width="219.32" height="50.32"/></clipPath></defs><g class="cls-2"><g id="Group_669"><path id="Path_2723" class="cls-3" d="m38.22.02C50.49.02,62.75-.02,75.02.06c3.12-.02,6.24.25,9.32.8,3.65.57,7.16,1.77,10.39,3.56,4.82,2.81,8.14,7.62,9.06,13.12.58,2.77.84,5.61.76,8.44,0,3.81-.74,7.58-2.15,11.11-2.16,4.91-6.27,8.7-11.33,10.46-3,1.09-6.12,1.83-9.3,2.19-4.6.5-9.23.68-13.86.57-22.02.02-44.04.02-66.06,0-.27,0-.55,0-.82,0-.52.05-.97-.33-1.02-.84,0-.06,0-.12,0-.18V1.5C0,1.2.01.9.05.6.04.28.3.02.62.02c.02,0,.04,0,.06,0,.3,0,.6-.01.9-.01,12.21,0,24.42,0,36.63,0v.02Zm-7.27,25.1v14.67c0,1.24,0,1.25,1.22,1.25h20.98c3.33.1,6.66-.19,9.92-.86,4.23-.99,7.39-3.26,8.86-7.51.58-1.92.91-3.9.97-5.91.14-2.15.04-4.3-.31-6.43-.8-5.12-3.53-8.56-8.62-10-2.93-.75-5.96-1.11-8.98-1.07-7.62-.08-15.24-.03-22.86-.03-1.12,0-1.18.05-1.18,1.23v14.67"/><path id="Path_2724" class="cls-3" d="m157.28.02c13.33,0,26.66-.07,39.99.04,4.32.03,8.55.84,12.2,3.42,3.49,2.41,5.68,6.29,5.94,10.52.21,1.62.23,3.26.05,4.88-1.02,6.91-5.02,11.09-12.06,12.78-1.55.37-3.14.38-4.69.66-.66.12-1.34.18-2.01.16-.13,0-.28-.03-.34.14-.06.16-.01.34.12.44.34.27.68.54,1.04.79,6.73,4.75,13.46,9.5,20.19,14.25.42.3.83.62,1.23.96.29.18.43.53.34.86-.13.34-.46.35-.76.38-.22.02-.44.02-.65.01-11.67,0-23.33,0-34.99,0-.99.02-1.95-.32-2.69-.97-4.52-3.78-9.08-7.52-13.61-11.31-.74-.65-1.7-1-2.68-.97-5.27.04-10.55.02-15.82.02-1.16,0-1.22.06-1.22,1.19,0,3.55,0,7.1,0,10.65,0,1.12-.24,1.38-1.31,1.38-9.42,0-18.85,0-28.27,0-1.04,0-1.27-.26-1.27-1.33V1.28c0-1.12.16-1.28,1.28-1.28h39.99v.02Zm4.02,28.07h10.82c1.81.01,3.62-.11,5.41-.37,3.82-.56,6.31-2.71,6.97-6.25.29-1.63.33-3.28.12-4.92-.41-3.54-2.02-5.67-5.45-6.61-2.02-.51-4.09-.75-6.17-.71-8.28-.03-16.56-.02-24.84-.01-1.17,0-1.25.08-1.25,1.26v16.31c0,1.26.04,1.31,1.27,1.31h13.11"/></g></g></svg>