<?xml version="1.0" encoding="UTF-8"?>
<svg data-bbox="0 0 1551.092 365.67" viewBox="0 0 1551.07 365.67" xmlns="http://www.w3.org/2000/svg" data-type="color">
    <g>
        <path d="M816.97 249.94c.14 25.59-12.27 39.49-33.99 38.28-5.62-.31-10.79-1.77-15.22-5.44-1.65-1.37-3.01-4.16-5.51-3.06-2.98 1.31-1.67 4.54-1.73 6.94-.19 6.45-.3 12.93-.01 19.37.24 5.29-1.62 7.33-7.14 7.59-16.25.77-16.32.94-16.32-15.04 0-25.84-.07-51.67.09-77.51.02-3.75-1.86-9.87 4.65-9.58 5.72.25 14.31-5.1 16.42 5.92.76 3.98 2.74 5.3 5.72 1.87 9.99-11.47 22.34-12.3 35.24-6.96 13.41 5.55 16.98 17.61 17.78 30.85.14 2.25.02 4.52.02 6.78Zm-56.66-.99c-.11 12.51 5.63 19.71 15.98 20.04 10.57.34 16.92-6.62 17.19-18.85.29-12.86-5.8-20.94-16-21.23-10.54-.3-17.06 7.3-17.17 20.04Z" fill="#123356" data-color="1"/>
        <path d="M688.9 120.86c0 12.59.09 25.19-.06 37.78-.04 3.56 1.23 9.04-4.8 8.46-5.58-.54-13.54 4.68-16.21-5.16-1.16-4.29-2-6.49-6.72-2.25-18.94 16.99-45.36 9.02-50.96-15.65-2.57-11.3-2.95-23.16 1.35-34.39 7.45-19.45 30.32-26.11 47.16-13.94 1.72 1.24 2.99 4.16 5.57 2.67 2.23-1.3 1.16-4.09 1.34-6.24.13-1.6.03-3.23.03-4.84.03-14.36 5.21-18.14 19.21-14.6 4.65 1.17 3.99 4.47 4.01 7.51.1 13.56.04 27.12.06 40.68Zm-55.56 7.81c-.07 13.34 5.08 20.16 15.38 20.35 10.57.2 17.03-7.49 17.01-20.25-.02-12.17-6.39-19.98-16.34-20.02-10.15-.04-15.98 7.2-16.05 19.92Z" fill="#123356" data-color="1"/>
        <path d="M1470.48 239.67c0-12.92.32-25.85-.09-38.76-.38-11.89 8.2-7.81 14.16-8.6 6.87-.9 10.61 1.43 9.51 9.01-.23 1.58-.03 3.23-.03 4.84q.02 13.28 11.06 6.94c16.17-9.29 37.94-.9 43.28 16.98 3.79 12.7 3.61 25.65-.47 38.22-6.76 20.82-32.22 27.35-48.75 12.63-3.62-3.23-5.26-5.49-7.36 1.46-2.56 8.5-10.35 3.38-15.75 4.06-5.72.72-5.49-4.14-5.51-8.03-.05-12.92-.02-25.84-.04-38.76Zm23.29 7.52c-.46 12.95 5.3 20.97 15.51 21.59 10.46.63 17-6.29 17.52-18.52.55-12.96-5.27-21.16-15.4-21.7-10.1-.54-17.21 6.98-17.63 18.63Z" fill="#123356" data-color="1"/>
        <path d="M356.37 238.75c0-12.61.24-25.23-.1-37.84-.16-6.01 1.29-8.69 8.01-8.55 18.1.38 36.22.32 54.33-.11 7.53-.18 8.35 3.7 8.34 9.66-.02 6.09-.23 10.84-8.53 10.41-10-.51-20.05.13-30.07-.16-6.87-.2-8.94 2.88-8.87 9.38.08 6.44 2.88 8.49 8.9 8.32 9.05-.26 18.12.24 27.16-.12 6.97-.28 6.97 3.96 6.72 8.79-.24 4.58 1.58 10.27-6.43 10.11-9.37-.18-18.76.2-28.13-.03-6.59-.16-8.13 3.19-8.2 9.04-.07 6.16 2.16 8.85 8.47 8.72 10.99-.23 22 .27 32.98-.09 8.25-.27 7.38 5.11 7.38 10.34 0 5.22.92 10.38-7.39 10.22-19.07-.39-38.16-.31-57.24-.02-6.34.1-7.49-2.88-7.39-8.28.23-13.26.07-26.52.06-39.78Z" fill="#123356" data-color="1"/>
        <path d="M1080.8 298.78c-11.16.12-11.45-.02-6.98-9.41 2.13-4.47 1.72-7.25-1.52-11.12-12.34-14.79-12.13-31.98-5.41-48.43 6.52-15.98 21.33-20.61 37.57-20.39 5.58.08 9.38-.94 12.85-6.11 4.59-6.83 12.46-3.57 18.73-2.8 3.39.42.87 4.6-.34 6.32-4.39 6.25-3.11 10.65 1.45 16.92 10.31 14.17 10.45 30.44 3.38 46.06-6.51 14.39-19.69 18.72-34.47 18.82-6.36.04-12.06-.05-15.17 7.25-1.87 4.38-6.84 2.4-10.08 2.88Zm39.99-49.73c-.09-13.05-6.13-20.13-17.07-19.98-10.73.14-16.85 7.61-16.77 20.44.08 12.06 6.34 19.36 16.73 19.49 10.92.13 17.18-7.17 17.1-19.95Z" fill="#123356" data-color="1"/>
        <path d="M1375.4 212.36c-7.09 7.87-13.07 15-19.59 21.58-4.2 4.24-4.31 7.84-1.24 12.77 6.83 10.97 13.08 22.3 19.74 33.38 3 4.99 1.77 6.16-3.9 6.8-13.19 1.5-23.39-1.25-27.81-15.3-.67-2.12-1.86-4.18-3.21-5.95-2.59-3.4-3.28-10.9-8.02-9.39-5.77 1.84-10.54 7.29-10.73 14.66-.04 1.62-.26 3.27-.01 4.84 1.48 9.21-2.82 11.12-11.4 11.3-9.63.2-12.87-2.26-12.54-12.39.78-24.55.54-49.15.1-73.72-.15-8.11 3.7-9.29 10.11-8.45 5.88.77 14.54-3.49 13.82 8.65-.6 10.31-.13 20.69-.03 31.04.02 1.83-.31 4.12 1.95 5.02 2.33.93 3.48-1.13 4.73-2.45 3.13-3.27 6.72-6.31 9.05-10.09 8.93-14.52 22.13-15.81 38.97-12.3Z" fill="#123356" data-color="1"/>
        <path d="M739.71 169.39c-28.73-.21-42.42-14.78-40.95-42.75 1.28-24.37 19.35-39.37 44.9-37.27 23.6 1.94 37.19 15.79 37.47 37.59.08 6.25-1.96 8.75-8.31 8.63-13.58-.26-27.16-.14-40.74.03-2.98.04-7.11-1.16-8.23 3.04-.91 3.43 1.54 6.31 4.06 8.3 7.11 5.64 15.37 6.4 22.45 1.22 8.18-5.98 16.79-2.97 25.21-3.35 4.32-.2 3.03 3.25 1.94 5.57-4.3 9.12-11.91 14.31-21.32 16.92-5.6 1.55-11.4 2.4-16.49 2.07Zm.13-47.34c2.89 0 5.8.17 8.67-.05 2.68-.21 6.32 1.18 7.46-2.55 1.06-3.48-1.3-6.12-3.65-8.37-6.3-6.05-19.58-5.38-25.41 1.27-1.9 2.17-4.14 4.56-2.66 7.68 1.36 2.88 4.46 1.86 6.9 1.99 2.88.15 5.78.04 8.68.04Z" fill="#123356" data-color="1"/>
        <path d="M938.84 255.24c-7.43 0-14.85-.06-22.28.04-2.14.03-4.76-.57-6.02 1.97-1.34 2.72.22 5.01 1.67 7.14 5.03 7.36 17.13 9.45 25.13 3.23 8.04-6.26 16.72-2.7 25.11-3.4 2.28-.19 3.4 1.56 2.47 3.95-.47 1.2-.97 2.4-1.59 3.52-7.68 13.93-27.78 20.39-50.25 16.16-15.5-2.91-25.76-13.48-27.7-29.5-2-16.54.27-32.44 15.51-42.06 15.52-9.79 32.62-9.76 49.09-1.71 12.01 5.87 19 21.55 17.42 35.39-.49 4.29-2.48 5.33-6.29 5.26-7.42-.15-14.85-.04-22.28-.04v.05Zm-13.29-13.27v-.04c3.55 0 7.09.06 10.63-.02 2.23-.05 4.79.16 6.02-2.19 1.42-2.7-.33-4.98-1.77-7.05-4.58-6.59-15.98-8.29-23.65-3.51-3.67 2.29-7.46 5.47-6.33 9.92 1.08 4.27 5.96 2.53 9.3 2.86 1.91.19 3.86.03 5.8.03Z" fill="#123356" data-color="1"/>
        <path d="M1458.43 258.5c0 6.78.06 13.57-.02 20.35-.04 3.48.49 8.15-4.79 7.59-5.45-.58-13.33 4.35-15.84-4.27-2.48-8.55-4.83-5.51-9.12-1.53-11.31 10.47-24.75 9.9-38.17 5.54-6.61-2.15-9.97-7.89-10.57-14.95-.71-8.34 1.77-15.21 8.91-20.16 7.23-5 15.62-5.76 23.9-7.08 5.41-.86 10.81-1.82 16.14-3.07 2.99-.7 5.25-2.69 5.39-6.07.15-3.75-2.07-6.27-5.37-7.21-7.52-2.13-14.72-2.07-20.27 4.76-3.28 4.03-19.18 7.03-23.76 4.68-2.87-1.48-1.87-3.63-1.32-5.82 3.66-14.68 18.14-22.43 40.99-21.92 20.25.45 30.33 7.1 32.92 23.07 1.39 8.54.96 17.37 1.36 26.06-.12 0-.25.01-.37.02Zm-43.3 14.14c6.74.13 13.67-3.49 17.01-8.66 1.99-3.08 3.77-6.71 1.65-9.93-2.03-3.09-5.26-.41-7.95.15-4.41.92-8.89 1.57-13.21 2.8-4.49 1.28-7.31 4.36-6.51 9.33.86 5.32 5.25 5.88 9.01 6.31Z" fill="#123356" data-color="1"/>
        <path d="M698.58 255.23c-7.43 0-14.85.04-22.28-.01-7.52-.05-7.16 3.72-4.18 8.63 4.39 7.24 16.67 10.43 24.04 4.58 7.71-6.12 15.85-3.96 23.97-4.38 5.47-.28 5.83 2.69 3.63 6.81-4.18 7.81-10.62 12.93-18.98 15.5-11.05 3.39-22.38 3.35-33.53.96-14.32-3.07-23.2-12.64-25.1-27.22-2.12-16.24-1.48-32.27 13.57-42.79 14.96-10.45 31.59-10.49 48.08-3.91 13.2 5.27 21.76 22.53 19.7 36.83-.65 4.48-3.09 5-6.62 4.97-7.43-.05-14.85-.02-22.28-.02v.05Zm-12.14-13.29c2.91 0 5.82.08 8.72-.02 2.83-.1 6.56.59 7.51-2.85.9-3.26-1.3-6.16-3.77-8.45-5.39-4.99-16.35-5.62-22.63-1.1-3.18 2.29-6.66 5.3-5.72 9.4 1.07 4.67 5.85 2.6 9.11 3 2.23.27 4.52.05 6.78.03Z" fill="#123356" data-color="1"/>
        <path d="M471.59 169.37c-26.94 0-40.52-13.27-40.48-39.54.04-25.34 14.98-40.29 40.54-40.55 25.66-.26 41.39 15.3 41.28 40.84-.11 25.28-14.83 39.25-41.34 39.25Zm17.15-40.05c-.04-12.93-6.24-20.37-16.86-20.21-10.46.16-16.79 7.93-16.75 20.58.03 12.19 6.15 19.43 16.55 19.6 10.82.17 17.1-7.17 17.06-19.97Z" fill="#123356" data-color="1"/>
        <path d="M522.34 128.93c0-10.01.04-20.02-.02-30.02-.02-4.19.32-8.5 5.9-7.61 5.36.85 13.29-4.27 15.47 4.9 1.73 7.32 3.24 7.07 7.93 1.85 8.54-9.51 19.61-10.55 31.14-6.73 10.54 3.48 15.14 12.1 15.6 22.39.72 15.79.34 31.62.52 47.44.05 4.49-1.89 6.51-6.42 6.24-2.89-.17-5.84-.29-8.71.04-6.67.78-9.29-1.79-9.03-8.65.41-10.64.26-21.31 0-31.95-.27-11.4-4.63-16.88-12.93-17.04-8.6-.16-14.09 5.71-14.63 16.92-.52 10.95-.43 21.95-.16 32.92.14 5.82-1.85 8.38-7.81 7.8-3.2-.31-6.47-.26-9.68-.02-5.57.41-7.36-2.23-7.25-7.49.22-10.33.07-20.66.07-30.99Z" fill="#123356" data-color="1"/>
        <path d="M790.07 129.5c0-10.02-.02-20.04 0-30.05.01-3.85-.58-8.83 5.28-8.09 5.63.71 14.02-4.63 16.23 5.16 1.99 8.8 4.18 5.26 8 1.26 8.5-8.92 19.12-10.17 30.39-6.64 10.61 3.32 15.59 11.7 16.1 22.01.81 16.12.44 32.29.59 48.45.04 4.01-1.8 5.93-5.9 5.78-3.23-.12-6.49-.27-9.69.06-6.26.66-8.74-1.77-8.53-8.17.34-10.65.22-21.33 0-31.99-.24-11.58-4.35-17.08-12.52-17.46-8.96-.42-14.64 5.81-15.1 17.47-.41 10.33-.57 20.7-.02 31.01.4 7.4-2.32 10.08-9.44 9.13-2.22-.3-4.55-.28-6.77 0-6.9.87-9.07-2.15-8.75-8.85.46-9.67.12-19.38.12-29.08Z" fill="#123356" data-color="1"/>
        <path d="M438.42 248.56c0-9.69-.05-19.38.03-29.07.03-3.77-.7-8.87 5.2-8.17 5.39.64 13.15-4.41 15.69 4.48 2.15 7.52 3.95 6.13 8.31 1.47 8.14-8.7 18.65-9.49 29.58-6.58 10.4 2.77 15.22 10.64 16.68 20.5 2.47 16.68.7 33.52 1.05 50.29.08 3.72-2.05 4.75-5.44 5.24-17.02 2.44-18.97.88-18.99-15.87-.01-8.72.17-17.45-.19-26.16-.34-8.1-3.05-14.76-12.72-15.15-8.22-.34-13.82 4.9-14.46 14.84-.7 10.94-.68 21.96-.33 32.92.22 6.89-1.63 9.76-9.18 9.61-15.22-.29-15.24.14-15.25-15.1 0-7.75 0-15.5.01-23.25Z" fill="#123356" data-color="1"/>
        <path d="M977.06 248.66c0-9.7-.1-19.41.05-29.11.05-3.57-1.36-9 4.88-8.24 5.39.66 13.15-4.48 15.76 4.36 2.09 7.08 3.84 6.61 8.37 1.74 8.46-9.1 19.28-9.84 30.47-6.38 11.1 3.43 15.73 12.31 16.19 22.99.67 15.5.22 31.04.4 46.56.06 4.7-2.2 6.32-6.54 6.14-2.91-.12-5.85-.24-8.73.05-6.61.68-9.28-1.85-9-8.73.43-10.66.28-21.35-.02-32.02-.31-10.97-4.43-16.13-12.45-16.49-8.61-.39-13.88 4.58-14.74 15.58-.8 10.29-.98 20.71-.36 31.01.53 8.81-2.88 11.82-11.17 10.63-1.58-.23-3.25-.21-4.84 0-6.2.81-8.7-1.48-8.39-8.02.47-10.01.12-20.05.12-30.08Z" fill="#123356" data-color="1"/>
        <path d="M356.37 119.57c0-12.94.2-25.89-.09-38.83-.13-5.65 1.43-8.11 7.59-7.99 17.47.33 34.95.46 52.41-.05 7.92-.23 8.11 4.04 7.91 9.72-.2 5.77 1.24 12.07-8.28 11.52-9.03-.52-18.12.2-27.17-.16-7.43-.29-9.42 3.16-9.3 10 .12 6.44 1.15 10.63 9.01 10.21 8.39-.45 16.86.4 25.22-.22 7.83-.58 9.34 3.04 8.92 9.75-.36 5.87 1.05 12-8.49 11.17-7.71-.67-15.57.41-23.27-.26-9.28-.8-12.28 3.21-11.32 11.82.36 3.2-.35 6.52.12 9.69 1.44 9.68-2.93 11.83-11.97 11.74-8.58-.08-12.11-1.98-11.51-11.24.8-12.24.2-24.58.2-36.87Z" fill="#123356" data-color="1"/>
        <path d="M1252.09 288.84c-12.95.15-25.32-1.5-34.4-12.12-2.73-3.19-5.88-7.25-4.3-11.28 1.69-4.3 6.79-2.12 10.39-2.31 6.39-.34 12.4-.48 17.62 5.3 4.37 4.85 11.38 3.81 17.51 2.78 3.43-.57 6.1-2.72 6.2-6.45.1-3.92-2.91-5.73-6.23-6.3-7.32-1.26-14.71-2.12-22.06-3.18-14.07-2.02-21.48-8.37-22.11-18.92-.76-12.63 5.87-21.48 19.43-25.17 11.81-3.2 23.65-2.88 35.35.94 5.07 1.66 9.24 4.56 12.48 8.79 2.37 3.1 5.87 6.74 4.55 10.23-1.65 4.37-6.85 1.92-10.48 2.18-5.77.41-11.57.73-15.73-4.92-1.75-2.37-5.08-2.77-8.01-2.88-5.48-.22-12.49-1.2-13.84 5.58-1.51 7.61 6.09 6.79 10.74 7.81 7.88 1.72 15.91 2.72 23.78 4.49 7.69 1.72 13.99 5.66 15.4 14.14 1.52 9.1-.2 17.35-7.91 23.55-8.37 6.74-18.23 7.72-28.37 7.73Z" fill="#123356" data-color="1"/>
        <path d="M563.82 286.7c-21.8-.39-28.21-6.6-29.1-28.34-.21-5.17-.37-10.36-.1-15.52.36-7.01-.57-12.28-9.67-11.27-4.87.54-5.02-3.58-4.51-6.67.74-4.45-3.51-11.33 4.61-12.65 8.75-1.42 11.98-6.72 12.26-14.76.34-9.51 7.6-5.41 12.25-6.16 5.4-.87 7.95 1.8 7.2 7.19-1.37 9.73 2.56 13.98 12.42 12.56 9.37-1.35 8.17 5.09 8.45 11.03.32 6.58-.85 10.5-8.82 9.76-5.37-.5-11.8-2.12-12.15 7.58-.69 19.25 1.05 25.59 11.14 25.58 12.73-.01 9.43 8.21 9.69 15.03.37 9.66-7.07 5.77-11.73 6.65-.62.12-1.29.02-1.94 0Z" fill="#123356" data-color="1"/>
        <path d="M827.17 249.53c0-10.01.01-20.02 0-30.03 0-4.36-.15-9.14 6.21-8.29 5.06.67 12.28-3.68 14.25 5.4.53 2.44 0 5.95 2.96 6.62 3.3.75 3.49-3.19 4.96-5.08 5.12-6.56 12.32-7.74 19.89-8.09 3.75-.17 5.16 1.87 5.1 5.39-.06 3.55-.24 7.12.07 10.65.54 6.19-1.91 8.33-8.23 8.63-16.37.77-19.95 4.83-20.43 21.5-.21 7.42-.35 14.86-.03 22.27.27 6.38-2.41 8.84-8.59 8.25-2.56-.25-5.19-.26-7.74.01-6.21.66-8.95-1.77-8.47-8.18.36-4.82.05-9.68.05-14.52s0-9.69.02-14.53Z" fill="#123356" data-color="1"/>
        <path d="M1208.4 224.09c2.31 8.37-2.35 10.69-11.44 10.79-12.08.14-16.83 5.44-17.38 17.49-.39 8.72-.51 17.48-.12 26.2.28 6.49-2.35 8.82-8.52 8.2-2.56-.26-5.2-.28-7.76 0-6.3.68-8.58-1.92-8.5-8.26.27-19.73.08-39.47.1-59.2 0-3.88-.47-8.66 5.42-8.04 5.37.57 12.97-3.91 15.08 5.68.52 2.38-.14 5.89 3.14 6.36 2.62.38 3.23-2.77 4.33-4.64 2.32-3.9 5.99-5.79 10.06-7.11 12.6-4.07 15.6-1.93 15.58 12.51Z" fill="#123356" data-color="1"/>
        <path d="M587.37 247.88v-28.14c0-4.33-.22-9.07 6.14-8.55 5.5.45 13.01-3.23 14.65 6.42.35 2.04-.39 5.1 2.41 5.72 2.84.63 3.47-2.33 4.59-4.17 4.45-7.3 11.75-8.46 19.32-9.03 4.37-.33 6.72 1.58 6.64 6.15-.06 3.56-.18 7.13.05 10.67.34 5.27-1.73 7.27-7.2 7.69-19.13 1.45-21.78 4.58-21.94 24-.06 6.79-.28 13.6.03 20.38.27 5.89-2.04 8.33-7.93 7.74-2.88-.29-5.83-.25-8.73-.02-5.76.45-8.23-1.91-8.08-7.82.26-10.35.07-20.7.05-31.05Z" fill="#123356" data-color="1"/>
        <path d="M965.2 168.47c-18.46.13-27.55-8.25-27.85-25.67-.31-18.01 9.92-28.45 27.83-28.42 17.22.03 27.32 9.85 27.54 26.78.23 17.81-9.21 27.18-27.52 27.31Zm11.75-27.19c-.28-7.56-3.03-13.3-11.48-13.91-7.3-.52-12.31 5.44-12.2 14.17.09 7.61 2.94 13.29 11.45 13.81 7.49.45 12.33-5.34 12.24-14.07Z" fill="#123356" data-color="1"/>
        <path d="M913.94 167.26c-5.96 1.02-8.14-1.7-7.82-7.58.31-5.8.07-11.64.05-17.46-.02-4.55.31-8.63-5.94-10.42-4.65-1.33-4.69-11.01-.15-12.11 5.71-1.39 5.72-4.95 6.44-9.18 1.84-10.89 12.46-17.07 23.34-14.14 2.86.77 3.64 2.42 3.55 4.83-.09 2.71 1.04 6.23-3.19 6.98-3.99.7-8.17 1.45-8.24 6.47-.08 5.37 4.56 4.35 7.89 4.75 4.42.54 3.42 3.97 3.57 6.68.17 3.08-.21 6.17-4.32 6.07-7.55-.19-8.06 4.68-7.94 10.34.12 5.82-.14 11.65.05 17.46.16 5.15-1.42 8.24-7.28 7.32Z" fill="#123356" data-color="1"/>
        <path d="M1036.24 123.64c.4 3.99.09 7.96-6.75 7.73-8.93-.3-12.58 5.24-12.92 13.48-.18 4.51-.25 9.03-.09 13.53.19 5.4-.37 9.14-7.57 9.2-7.14.05-8.78-2.88-8.61-9.22.31-11.59 0-23.2.14-34.8.03-2.93-1.29-7.13 3.62-7.52 3.26-.26 7.48-1.78 9.17 2.88 1.99 5.49 4.04 4.4 7.19.82 1.59-1.8 4.21-2.98 6.59-3.75 7.48-2.44 9.17-1.1 9.23 7.66Z" fill="#123356" data-color="1"/>
        <path fill="#6c8196" d="M287.16 0 179.29 220.31 0 218.8 287.16 0z" data-color="2"/>
        <path fill="#b8c2cc" d="M287.16 0v365.67L179.29 220.31 287.16 0z" data-color="3"/>
    </g>
</svg>
