<?xml version="1.0" encoding="UTF-8"?><svg id="Lag_1" xmlns="http://www.w3.org/2000/svg" viewBox="0 0 227.35 46.76"><defs><style>.cls-1{fill:#24618e;}</style></defs><path id="Path_2688" class="cls-1" d="m73.84,13.69v23.15c0,1.77.89,2.94,2.55,3.05,2.07.13,2.47,1.24,2.28,3.05-.09.89-.02,1.79-.02,2.85h-16.84c0-1.56-.09-3.15.07-4.72.04-.38.83-.85,1.35-1,2.69-.77,3.22-1.26,3.23-3.94.04-8.63.01-17.25.01-25.89,0-1.82-.6-3.28-2.52-3.49s-2.41-1.19-2.2-2.97c.06-1.05.07-2.1.02-3.15h2.21c4.48,0,8.96.08,13.44-.05,1.45-.19,2.84.65,3.34,2.02,4.13,8.16,8.4,16.25,12.62,24.36.29.63.72,1.17,1.27,1.59v-4.33c0-4.74-.04-9.47,0-14.21.02-2.04-.88-3.23-2.83-3.4-1.53-.13-2.07-.83-1.91-2.37.07-1.15.07-2.31.02-3.46h16.78c.07,1.51.04,3.03-.06,4.53-.05.46-.83,1.02-1.38,1.18-2.8.82-3.16,1.18-3.17,4.15-.02,10.83-.02,21.66,0,32.5v2.78c-3.56,0-6.94.06-10.31-.07-.46-.01-1-.87-1.3-1.44-5.12-9.68-10.22-19.36-15.3-29.06-.32-.61-.67-1.19-1.01-1.79-.12.04-.23.09-.34.13"/><path id="Path_2689" class="cls-1" d="m166.61,40.54v5.28h-16.69c0-1.57-.09-3.11.06-4.63.04-.41.74-.95,1.23-1.09,3.08-.93,3.3-1.14,3.31-4.42.02-8.17.02-16.34,0-24.51,0-3.68-.02-3.68-3.59-4.72-.35-.13-.69-.27-1.02-.44,0-1.12,0-2.28,0-3.44,0-.57.06-1.14.1-1.95h4.19c3.85,0,7.7.07,11.54-.04,1.33-.18,2.61.59,3.09,1.84,4.17,8.21,8.45,16.36,12.7,24.53.3.66.76,1.23,1.32,1.67v-9.63c0-2.98-.01-5.97,0-8.95,0-1.99-.87-3.28-2.83-3.43-1.74-.14-2.22-1.02-2.04-2.66.06-1.07.07-2.14.02-3.21h16.78c.06,1.48.04,2.96-.06,4.43-.19.6-.66,1.07-1.25,1.28-2.93.89-3.29,1.29-3.29,4.48,0,11.09,0,22.18,0,33.27,0,.5-.05,1.01-.08,1.71-3.37,0-6.63.08-9.89-.07-.57-.03-1.26-.92-1.61-1.57-5.14-9.66-10.25-19.34-15.33-29.04-.29-.64-.75-1.19-1.34-1.58v19.89q0,5.21,4.7,6.97"/><path id="Path_2690" class="cls-1" d="m121.05,45.87h-16.46c0-1.63-.06-3.22.04-4.8.15-.46.51-.81.98-.94,2.73-.43,3.79-2.39,4.6-4.8,3.68-10.95,7.47-21.86,11.13-32.83.5-1.5,1.15-2.02,2.67-1.92,2.14.14,4.29.14,6.43,0,1.48-.1,2.06.5,2.51,1.88,3.49,10.74,7.07,21.46,10.58,32.19.86,2.63,1.88,4.97,4.94,5.52.34.06.77.8.81,1.25.11,1.41.04,2.83.04,4.38h-20.73c0-1.51-.08-2.99.05-4.44.15-.56.54-1.01,1.07-1.24,2.6-.91,2.97-1.48,2.32-4.2-.19-.81-.5-1.58-.77-2.44-4.06,0-8.03,0-12,.01-.35,0-.97.07-1.02.24-.52,1.36-.81,2.8-.85,4.26.06.72,1.31,1.6,2.19,1.94,1.05.4,1.57.82,1.49,2.03-.09,1.27-.02,2.55-.02,3.91m8.41-18.75c-1.5-5.08-2.93-9.93-4.36-14.78h-.4c-1.51,4.88-3.02,9.76-4.58,14.78h9.34Z"/><path id="Path_2691" class="cls-1" d="m21.88,40.4v5.41H.02v-5.38c.78-.17,1.63-.35,2.46-.55,1.61-.22,2.77-1.64,2.68-3.26.02-8.89.02-17.77,0-26.66.1-1.62-1.07-3.04-2.68-3.27-.79-.18-1.6-.33-2.48-.51V.78h36.26c.2,4.17.41,8.35.62,12.86-1.82,0-3.5.08-5.16-.06-.42-.04-.94-.75-1.13-1.27-1.74-4.78-1.31-5.44-7.66-5.31-2.13.05-4.26,0-6.5,0v12.79c1.11.15,2.24.12,3.34-.08.95-.34,1.71-1.07,2.07-2.02.44-2.24,1.51-3.05,3.63-2.65.61.06,1.22.07,1.83.02v15.36c-1.29.05-2.59.03-3.88-.05-.51-.16-.9-.56-1.05-1.07-.59-3.4-1.31-4-5.97-3.49,0,3.78-.08,7.58.03,11.38.04,1.65,1.26,2.44,2.76,2.72.86.17,1.73.31,2.68.48"/><path id="Path_2692" class="cls-1" d="m196.32,33.11c2.01,0,3.76-.08,5.5.06.4.03.94.76,1.09,1.27,1.55,5.26,6.21,7.35,11.07,4.92,1.55-.74,2.54-2.3,2.55-4.02.14-2.19-.53-4.08-2.49-5.06-2.83-1.41-5.76-2.6-8.66-3.85-4.68-2.01-7.97-5.23-8.52-10.67-.93-9.18,3.73-15.12,12.91-15.7,4.4-.28,8.88.63,13.32,1.04,1.06.09,1.6.65,1.63,1.9.08,3.03.34,6.06.55,9.39-1.97,0-3.78.07-5.58-.05-.37-.02-.89-.66-1.03-1.11-1.56-5.06-5.54-5.28-9.52-4.1-2.83.83-3.55,4.51-1.34,6.79,1.06.99,2.29,1.79,3.63,2.35,2.63,1.24,5.42,2.14,8,3.47,6.47,3.33,9.09,9.14,7.44,16.31-1.42,6.15-5.73,9.11-11.39,10.2-5.75.98-11.65.57-17.21-1.2-.55-.16-1.34-.78-1.38-1.24-.28-3.47-.4-6.95-.59-10.69"/><path id="Path_2693" class="cls-1" d="m38.36.69h21.67v5.42c-.67.16-1.44.35-2.21.52-2.14.48-2.91,1.36-2.91,3.62-.02,8.69-.02,17.38,0,26.07,0,2.26.77,3.15,2.91,3.62.73.17,1.47.31,2.28.49v5.38h-21.7c-.06-1.57-.04-3.15.07-4.72.04-.41.94-.89,1.51-1.02,3.15-.72,3.72-1.28,3.73-4.52.03-8.17.03-16.34,0-24.51-.01-3.19-.63-3.98-3.54-4.45-1.39-.22-1.97-.79-1.82-2.26.11-1.15.02-2.31.02-3.64"/></svg>