<?xml version="1.0" encoding="UTF-8"?><svg id="Lag_1" xmlns="http://www.w3.org/2000/svg" xmlns:xlink="http://www.w3.org/1999/xlink" viewBox="0 0 674.19 53.85"><defs><style>.cls-1,.cls-2{fill:none;}.cls-2{clip-path:url(#clippath);}.cls-3{fill:#24618e;}</style><clipPath id="clippath"><rect class="cls-1" y="0" width="674.19" height="53.85"/></clipPath></defs><g class="cls-2"><g id="Group_649"><path id="Path_2704" class="cls-3" d="m674.19,1.53v50.95c-4.05,0-8.12.16-12.18-.11-.96-.06-2.05-1.34-2.74-2.32-5.85-8.16-11.64-16.38-17.44-24.58-.72-1-1.5-1.95-2.26-2.92-.27.11-.52.23-.79.35v29.28h-11.84V1.3c3.99,0,7.94-.18,11.86.11,1.1.09,2.34,1.39,3.1,2.43,6.53,9.09,12.97,18.25,20.2,27.27V1.53h12.09Z"/><path id="Path_2705" class="cls-3" d="m589.42.84c-13.94-3.12-27.54,4.39-31.69,17.5-4.27,13.49,2.11,27.8,14.77,33.12,12.39,5.21,27.16.74,32.9-10.2-3.3-2-6.64-4.03-10.08-6.11-4.04,6.31-9.65,7.76-16.08,6.23-5.09-1.21-8.49-4.45-9.88-10.44h38.91c1.9-14.97-5.96-27.23-18.86-30.1m-19.55,20.59c.44-5.83,5.68-10.22,12.49-10.51,6.95-.29,12.53,3.95,13.58,10.51h-26.07Z"/><path id="Path_2706" class="cls-3" d="m275.05.87c-13.66-3.2-27.29,4.09-31.68,16.94-4.64,13.12,1.51,27.62,14.17,33.41,12.34,5.51,27.09,1.28,33.45-9.94-3.46-2.09-6.72-4.06-9.93-6-5.68,6.39-10.72,8.05-17.27,5.83-4.68-1.6-7.64-4.74-8.99-10.22h38.92c2.13-14.6-5.71-26.99-18.66-30.02m-19.85,20.54c1.11-6.3,6.2-10.37,12.91-10.5,6.83-.14,12.03,3.83,13.41,10.5h-26.31Z"/><path id="Path_2707" class="cls-3" d="m81.25.12c-14.66-.09-26.62,11.71-26.72,26.37-.39,14.54,11.09,26.65,25.63,27.03.23,0,.46,0,.69,0,15.1.18,26.92-11.29,27.07-26.26.38-14.61-11.15-26.76-25.76-27.15-.3,0-.6-.01-.9,0m.18,41.03c-7.74.1-14.09-6.08-14.2-13.82,0-.12,0-.25,0-.37-.23-7.75,5.88-14.22,13.63-14.45,7.75-.23,14.22,5.88,14.45,13.63,0,.15,0,.3,0,.45.24,7.79-5.88,14.31-13.67,14.55-.07,0-.14,0-.21,0"/><path id="Path_2708" class="cls-3" d="m460.36.11c-14.61-.08-26.52,11.71-26.59,26.32,0,.16,0,.33,0,.49.03,14.74,12,26.67,26.74,26.63,14.74-.03,26.67-12,26.63-26.74.05-14.69-11.82-26.65-26.51-26.7-.09,0-.19,0-.28,0m-.22,41.03c-7.73-.15-13.88-6.52-13.76-14.25-.16-7.73,5.98-14.13,13.71-14.29,7.73-.16,14.13,5.98,14.29,13.71,0,.24,0,.49,0,.73.11,7.68-6.04,14-13.72,14.1-.17,0-.34,0-.52,0"/><path id="Path_2709" class="cls-3" d="m208.77,27c7.32,8.34,14.5,16.57,22.19,25.34-5.87,0-10.84.12-15.8-.1-1.03-.05-2.17-1.19-2.96-2.1-5.37-6.26-10.66-12.58-15.99-18.87-.31-.36-.64-.71-.99-1.1v22.04h-12.41V1.58h12.06v22.63c.51-.55.94-1,1.34-1.48,5.33-6.3,10.62-12.61,15.99-18.87.79-.9,1.94-2.05,2.96-2.1,4.95-.22,9.93-.1,15.8-.1-7.68,8.77-14.87,16.99-22.19,25.34"/><path id="Path_2710" class="cls-3" d="m353.93,37.73c-.09,6.71-3.82,11.05-9.61,13.75-11.81,5.49-27.43,1.08-34.08-9.72,2.95-2.38,5.95-4.78,9.15-7.34,1.37,1.49,2.55,2.97,3.93,4.24,3.71,3.39,8.06,5.4,13.05,4.05,1.88-.51,4.43-2.53,4.65-4.13.2-1.49-1.95-4-3.67-4.9-2.79-1.45-6.17-1.76-9.15-2.93-3.44-1.35-7.08-2.65-9.98-4.83-6.38-4.82-6.76-13.98-1.28-19.83,8.68-9.27,28.09-7.76,35.58,3.15-2.92,2.66-5.65,5.16-8.53,7.79-3.27-4.66-7.51-7.22-12.98-6.27-2.14.44-3.99,1.78-5.07,3.68-1.09,2.59,1.32,4.2,3.61,5,3.02,1.06,6.16,1.83,9.23,2.79,1.98.55,3.91,1.25,5.79,2.07,5.63,2.68,9.44,6.78,9.36,13.42"/><path id="Path_2711" class="cls-3" d="m12.7,12.72v12.64h25.6v11.58H12.42c0,4.83-.09,8.95.04,13.06.06,2.17-.74,3-2.9,2.92-3.08-.12-6.16-.04-9.56-.04V1.12h41.78v11.6H12.7Z"/><path id="Path_2712" class="cls-3" d="m164.99,40.72v11.56h-38.91V1.63h12.34v39.09h26.57Z"/><path id="Path_2713" class="cls-3" d="m544.28,40.6v11.67h-38.94V1.49h12.21v39.11h26.73Z"/><path id="Path_2714" class="cls-3" d="m398.7,27c7.32,8.34,14.5,16.57,22.19,25.34-5.87,0-10.84.12-15.8-.1-1.02-.05-2.17-1.19-2.96-2.1-5.37-6.26-10.66-12.58-15.99-18.87-.3-.36-.63-.71-.99-1.1v22.04h-12.41V1.58h12.06v22.63c.51-.55.94-1,1.34-1.48,5.33-6.3,10.62-12.61,15.99-18.87.8-.9,1.94-2.05,2.96-2.1,4.96-.22,9.93-.1,15.8-.1-7.68,8.77-14.87,16.99-22.19,25.34"/></g></g></svg>