<?xml version="1.0" encoding="utf-8"?>
<!-- Generator: Adobe Illustrator 27.5.0, SVG Export Plug-In . SVG Version: 6.00 Build 0)  -->
<svg version="1.1" id="Lag_1" xmlns="http://www.w3.org/2000/svg" xmlns:xlink="http://www.w3.org/1999/xlink" x="0px" y="0px"
	 viewBox="0 0 1920 1920" style="enable-background:new 0 0 1920 1920;" xml:space="preserve">
<style type="text/css">
	.st0{fill:#FFFFFF;}
	.st1{opacity:0.24;}
	.st2{fill:url(#SVGID_1_);}
	.st3{fill:url(#SVGID_00000008141353257451274410000005929641753160766129_);}
	.st4{fill:url(#SVGID_00000087401489414444372600000002545403297314535563_);}
	.st5{fill:#F8FAFF;}
	.st6{fill:#78ACFF;}
	.st7{fill:#6666D8;}
	.st8{fill:none;}
	.st9{fill:none;stroke:#5454C6;stroke-width:2;stroke-linecap:round;stroke-miterlimit:10;}
	.st10{fill:#F4CAA6;}
	.st11{fill:#FFD9B6;}
	.st12{fill:#00214B;}
	.st13{opacity:0.4;}
	.st14{fill:url(#SVGID_00000103957937879116041680000013433830782260825498_);}
	.st15{fill:#C4C4C4;}
	.st16{fill:none;stroke:#E8B691;stroke-width:2;stroke-linecap:round;stroke-linejoin:round;stroke-miterlimit:10;}
	.st17{fill:#0097FF;}
	.st18{opacity:0.22;fill:#0097FF;}
	.st19{opacity:0.68;fill:#DBEBFE;}
	.st20{fill:#E9EFFF;}
	.st21{opacity:0.6;}
	.st22{fill:none;stroke:#0097FF;stroke-width:3;stroke-linecap:round;stroke-miterlimit:10;}
	.st23{fill:none;stroke:#0097FF;stroke-width:3;stroke-linecap:round;stroke-miterlimit:10;stroke-dasharray:0.1999,7.9974;}
	.st24{fill:none;stroke:#0B0754;stroke-miterlimit:10;}
	.st25{fill:#DBEBFE;}
	.st26{opacity:0.39;fill:#DBEBFE;}
	.st27{opacity:0.19;fill:#99AFC1;}
	.st28{fill:none;stroke:#0097FF;stroke-width:3;stroke-linecap:round;stroke-miterlimit:10;stroke-dasharray:0.2016,8.0634;}
	.st29{fill:none;stroke:#0097FF;stroke-width:3;stroke-linecap:round;stroke-miterlimit:10;stroke-dasharray:0.202,8.0818;}
	.st30{fill:none;stroke:#00214B;stroke-width:5;stroke-linecap:round;stroke-miterlimit:10;}
	.st31{fill:#3D5676;stroke:#3D5676;stroke-miterlimit:10;}
	.st32{fill:#0B0754;stroke:#0B0754;stroke-miterlimit:10;}
	.st33{fill:none;stroke:#3D5676;stroke-width:4;stroke-linecap:round;stroke-miterlimit:10;}
	.st34{fill:#FA9295;}
	.st35{fill:#DDDDDD;}
	.st36{fill:none;stroke:#FFB640;stroke-width:3;stroke-linecap:round;stroke-linejoin:round;stroke-miterlimit:10;}
	.st37{fill:#00214B;stroke:#19004A;stroke-miterlimit:10;}
	.st38{fill:none;stroke:#E8B691;stroke-width:2;stroke-linecap:round;stroke-miterlimit:10;}
	.st39{fill:#FFFFFF;stroke:#FFFFFF;stroke-width:2;stroke-linecap:round;stroke-linejoin:round;stroke-miterlimit:10;}
	.st40{opacity:0.5;}
	.st41{fill:#6AA0EF;}
	.st42{fill:#FB7268;}
	.st43{fill:none;stroke:#EF5854;stroke-linecap:round;stroke-miterlimit:10;}
	.st44{fill:#00214B;stroke:#00214B;stroke-miterlimit:10;}
	.st45{fill:#3A3ACC;}
	.st46{fill:#F7F7F7;}
	.st47{fill:#CDD6E1;}
	.st48{fill:#EAEAEA;}
	.st49{fill:#C6C6C6;}
	.st50{fill:#A0A0A0;}
	.st51{fill:#E2E2E2;}
	.st52{fill:#D3D3D3;}
	.st53{fill:none;stroke:#FFFFFF;stroke-width:2;stroke-miterlimit:10;}
	.st54{fill:none;stroke:#F4BACD;stroke-width:3.5;stroke-linecap:round;stroke-miterlimit:10;}
	.st55{fill:#BCBCBC;}
	.st56{opacity:0.68;}
	.st57{fill:url(#SVGID_00000026883538653345957390000004826568161357128104_);}
	.st58{opacity:0.79;}
	.st59{opacity:0.81;fill:url(#SVGID_00000158751106237096709950000000512044891887918475_);}
	.st60{opacity:0.35;}
	.st61{fill:url(#SVGID_00000057116646235149415730000018297863027443255725_);}
</style>
<g>
	<path class="st0" d="M44.89,447.6c-2.86-2.95-9.68-19.55-3.25-24.83c6.43-5.28,12.98,10.58,12.98,10.58s1.92-7.92,3.49-7.3
		c1.57,0.63,0.58,3.17-0.46,16.07c-1.05,12.91,1.62,27.17,12.2,45.39c10.58,18.22,30.81,18.9,30.81,18.9
		c6.04,0.15,36.04-3.88,37.21-4.03c0.16-0.59,1.86-7.43-0.39-12.46c-0.76,0.23-1.54,0.44-2.35,0.65
		c-24.77,6.45-18.84-43.12-18.84-43.12s-10.46-1.92-8.72-5.43c1.74-3.51,7.32-5.77,7.32-5.77s-9.65-2.83-9.18-5.77
		c0.26-1.62,7.48-3.99,15.67-5.75c6.7-1.43,14.04-2.44,18.74-2.29c10.47,0.34,23.26,9.85,23.26,9.85s1.74-5.32,3.95-6
		c2.21-0.68-0.7,7.69-0.7,7.69s4.07-1.03,3.72,0.96c-0.34,1.99-4.3,5.04-4.3,5.04c19.91,3.76,43.07,4.18,68.04-2.81
		c-0.45-6.84-1.92-9.95-1.92-9.95s-8.84-14.78-6.98-16.14c1.86-1.36,5.73,4.22,5.73,4.22s0.63-14.63,6.67-14.03
		c6.05,0.6,8.37,11.47,7.44,19.16c-0.23,1.91,0.02,6.79,0.21,13.28c0.56,19.68,0.61,54.1-14.78,64.89
		c-18.27,12.8-19.69,13.68-19.79,13.72c0,0.01,0,0.01,0,0.01c1.04,1.74,1.82,3.26,2.12,4.38c1.39,5.28-18.61,12.82-18.61,12.82
		s20.2,61.19,18.33,121.18c0,0-1.72-0.15-4.5-0.27c4.09,52.18,30.53,93.69,45.34,116.88c6.85,10.71,11.21,17.51,9.74,19.65
		c-0.38,0.56-0.84,1.1-1.35,1.62l5.77,7.43l7.44,10.87c0,0-11.41,11.25-21.6,17.84c-7.8,5.05-14.9,7.37-15.6-0.19
		c-0.86-9.22,7.52-16.67,15.6-21.63v-2.02l-4.12-5.16c-2.98,1.09-5.21,1.65-5.21,1.65s-45.81-44.37-61.62-86.24
		c-15.81-41.88-24.88-41.88-24.88-41.88c-17.67,49.8-0.93,150.07-8.6,151.66c-0.8,0.16-1.69,0.29-2.64,0.39v23.15
		c0,0-46.51,11.32-39.53-2.11c3.76-7.25,14.97-10.5,24.49-11.95v-9.01c-3.77-0.21-6.51-0.47-6.51-0.47s-15.91-89.57-6.16-167.67
		c0.26-2.03,0.53-4.05,0.81-6.05c0,0,1.86-88.51-2.2-106.61c0,0-13.73-4.08-16.75-6.68c-0.94-0.81-1.27-3.77-1.28-7.47
		c-55.35-12.22-51.74-73-51.74-73S47.76,450.54,44.89,447.6z"/>
	<polygon class="st0" points="84.58,403.15 43.87,359.84 44.13,359.86 133.64,363.78 112.36,380.94 111.46,396.42 100.59,390.58 	
		"/>
	<path class="st0" d="M224.54,133.36c-0.74-0.72-1.44-1.45-2.13-2.19C223.1,131.9,223.8,132.64,224.54,133.36z"/>
	<path class="st0" d="M1920.15,0v1837.93H0.15v-378.95c1.71-5.36,19.81-54.41,117.07-86.18c34.49-11.26,78.93-20.35,136.13-24.56
		c228-16.76,210.57-231.75,210.57-231.75c-2.25-17.53,5.6-37.48,14.75-53.94c5.08-9.14,10.56-17.2,14.94-23.17
		c4.08-5.56,7.19-9.31,8.13-10.42c0.14-0.16,0.23-0.27,0.27-0.32c0.02-0.02,0.03-0.03,0.03-0.03
		c91.1-100.68,157.55-73.27,182.83-118.62c7.7-13.8,5.5-33.89-1.71-55.72c-344.53-0.04-620.54-1.14-620.54-2.47
		s275.1-2.41,618.84-2.45c-19.51-54.3-67.15-117.11-69.93-120.76c-0.08-0.11-0.13-0.17-0.13-0.17c-1-1.21-2-2.42-2.99-3.64
		c0.34,26.77-1.51,61.6-7.79,95.94c0,0-2.38,0.23-5.75,0.41v8.9c10.84,1.08,23.55,3.8,25.23,10.61c2.99,12.15-41.05,4.7-41.05,4.7
		v-24.31c-0.76-0.08-1.47-0.18-2.14-0.31c0,0-4.28-57.96-18.84-94.46c-3.5,6.53-12.61,15.23-23.92,24.22
		c-28.1,22.33-69.79,46.43-72.78,43.52c-0.63-0.6-1.21-1.33-1.74-2.13c-0.14,0.02-0.28,0.04-0.43,0.06l-4.57,3.37
		c6.87,8.97,15.71,22.97,9.86,29.41c-8.99,9.88-28.45-27.69-28.45-27.69l4.07-3.41c-0.56,0.03-1.07,0.06-1.52,0.08
		c-1.35,0-2.12,0-2.65-0.87l-3.08-10.48l-0.91-3.61c-0.86-0.07-1.34-0.15-1.34-0.15c-2.2-5.41-5.5-13.13-9.14-21.59
		c0-0.01-0.01-0.01-0.01-0.02c-6.94-16.12-15.12-34.93-19.31-45.68h-3.01c-1.56,21.27-8.72,70.52-8.72,70.52
		c-2.3,0.84-4.65,1.32-6.91,1.57v5.48c8.03,1.28,17.37,3.19,22.73,5.8c0.93,0.45,1.74,0.92,2.4,1.42c0.76,0.55,1.33,1.15,1.67,1.77
		c3.99,7.46-41.79,4.94-43.28,4.84c-1.5-0.09,1.55-15.73,1.55-15.73s0.03,0.01,0.1,0.01c0.11,0.01,0.29,0.03,0.54,0.06
		c-0.14-0.03-0.24-0.05-0.31-0.06l-0.09-4.79c-0.84-0.21-1.31-0.37-1.31-0.37s-0.69-27.3,1.36-53.93c0.59-7.66,0.08-12.95-1.7-16.59
		h-70.85v-12.33h13.14c-1.76-1.23-3.25-2.63-4.49-4.11h-8.46l-11.43-38.18h-54.41c-2.21,0-4-1.79-4-4v-5.98c0-2.21,1.79-4,4-4h50.23
		l-4.41-14.74c-0.01,0-0.01,0-0.01-0.01c-3.42-3.66-4.63-8.93-4.46-14.93l-14.16-47.31h30.08c0.55-1.09,1.03-2.02,1.41-2.78
		c6.84-13.65,41.56-16.26,41.56-16.26s0.09-1.7,0.12-4.02c-1.57,0.03-3.17-0.06-4.79-0.31c-20.75-3.09-14.14-43.22-13.21-48.3
		c0,0-14.48,1.92-12.26-7.07c2.22-8.99,8.04-12.23,14.36-10.91c6.33,1.34-0.05-7.4,11.07-6.41c11.11,1.01,17.36,1.26,23.65-0.07
		c6.29-1.33,4.27,2.98,13.68,5.15c9.4,2.16,16.76,8.52,15.39,19.32c-1.37,10.81,6.77,2.16,2.59,17.69
		c-0.27,0.99-3.4,9.71-7.83,11.38c-4.44,1.66-0.35,4.68-7.19,5.93c-3.83,0.7-6.4-0.89-6.4-0.89c-1.83,1.82-4.14,3.93-6.86,5.96
		c-0.06,0.05-0.12,0.09-0.18,0.13c-0.36,0.27-0.74,0.55-1.13,0.81v0.01c-0.38,1.05-0.63,2.36-0.8,3.73c-0.45,3.8-0.2,7.98-0.2,7.98
		s0,0,0.01,0.01c0.52,0.25,20.68,10.4,35.97,23.73c11,9.6,34.25-19.65,34.25-19.65s0.01,0,0.02,0c-0.04-3.48-0.01-14.68,2.1-19.62
		c0.31-0.71,0.66-1.29,1.06-1.7c3.7-3.76,3.03,8.42,3.03,8.42s3.51-5.33,7.67-8.13c0.83-0.56,1.68-1.02,2.54-1.31
		c2.69-0.93,5.42-0.27,7.51,3.9c3.29,6.58,0.09,10.99-4.3,14.64c-0.01,0.01-0.02,0.01-0.03,0.02c-2.9,2.4-6.31,4.48-8.69,6.65
		c-0.09,0.09-0.19,0.18-0.28,0.27c0.29,0.19,0.59,0.39,0.89,0.59c7.45,5.13-21.41,37.39-38.98,45.6
		c-9.02,4.21-23.55-2.05-23.55-2.05s2.6,25.72,6.15,44.55h113.64c0.39-0.88,0.64-1.38,0.64-1.38s8.38-44.69,26.32-62.68
		c-1-1.59-1.53-2.6-1.53-2.6c5.82-11.1,12.61-18.77,19.3-24.07c-1.66-13.59-2.52-27.42-2.52-41.45c0-8.18,0.29-16.3,0.87-24.34
		c-9.08,1.87-24.3,1.6-23.65-14.92c0.64-15.99,15.19-16.47,26.74-12.59c3.66,1.24,7.01,2.91,9.53,4.66
		c10.49,7.29,20.13,4.86,23.29,3.08c2.45-1.38,14.04,0.01,13.89,4.96c4.09-1.83,9.14-2.96,15.4-3.02c6.27-0.06,11.22,0.74,15.12,2.1
		c0.13-0.76,0.26-1.51,0.39-2.26c0.01-0.06,0.02-0.12,0.03-0.17c0.14-0.76,0.29-1.51,0.43-2.27c0.3-1.56,0.61-3.11,0.94-4.67
		c0.32-1.52,0.66-3.04,1.01-4.55c0.18-0.79,0.37-1.59,0.57-2.38c0.38-1.54,0.77-3.07,1.17-4.59c0.2-0.76,0.41-1.52,0.62-2.28
		c0.21-0.76,0.42-1.51,0.64-2.27c0.21-0.76,0.43-1.51,0.66-2.26c0.22-0.75,0.45-1.5,0.68-2.25c0.46-1.5,0.94-2.99,1.43-4.48
		c0.24-0.74,0.49-1.48,0.75-2.22c0.25-0.74,0.51-1.48,0.77-2.22c0.26-0.74,0.52-1.47,0.79-2.21c0.26-0.73,0.53-1.46,0.81-2.19
		c0.27-0.73,0.54-1.46,0.83-2.19c0.28-0.73,0.56-1.45,0.85-2.17c0.55-1.39,1.12-2.77,1.69-4.15c1.26-3,2.58-5.98,3.97-8.93
		c0.29-0.62,0.59-1.25,0.89-1.87c0.33-0.7,0.67-1.4,1.01-2.09c0.34-0.7,0.69-1.39,1.04-2.09c1.04-2.07,2.11-4.13,3.22-6.17
		c0.37-0.69,0.74-1.36,1.11-2.04s0.75-1.35,1.13-2.03c1-1.75,2.01-3.49,3.04-5.22c1.34-2.25,2.73-4.48,4.15-6.68
		c0.83-1.3,1.68-2.59,2.55-3.87c0.43-0.64,0.86-1.28,1.3-1.92c3.48-5.09,7.16-10.05,11.03-14.86c0.48-0.6,0.97-1.2,1.46-1.8
		c1.95-2.39,3.94-4.74,6-7.05c0.51-0.58,1.02-1.16,1.54-1.73c0.21-0.25,0.44-0.5,0.66-0.74c0.33-0.37,0.67-0.74,1.01-1.1
		c1.8-1.97,3.63-3.9,5.51-5.81c0.57-0.59,1.15-1.17,1.73-1.75c8.64-8.65,17.93-16.67,27.81-23.99c0.68-0.51,1.37-1.02,2.06-1.52
		c1.44-1.04,2.89-2.07,4.36-3.09c0.43-0.3,0.86-0.6,1.3-0.89c4.19-2.87,8.47-5.62,12.85-8.24c0.67-0.4,1.34-0.8,2.02-1.2
		c3.37-1.98,6.8-3.88,10.27-5.7c0.69-0.36,1.37-0.72,2.06-1.07c0.02-0.02,0.04-0.03,0.06-0.03c0.61-0.32,1.22-0.63,1.83-0.94
		c0.52-0.25,1.04-0.51,1.56-0.77c0.52-0.26,1.05-0.52,1.58-0.78c0.45-0.21,0.9-0.43,1.35-0.64c0.71-0.34,1.42-0.68,2.13-1.01
		c1.13-0.53,2.27-1.05,3.41-1.56c0.4-0.18,0.8-0.36,1.21-0.54c0.81-0.36,1.63-0.72,2.45-1.07c1.78-0.77,3.57-1.51,5.37-2.23
		c0.69-0.29,1.39-0.56,2.08-0.83c0.83-0.33,1.67-0.65,2.51-0.97c0.35-0.14,0.71-0.27,1.06-0.4c0.55-0.21,1.09-0.41,1.64-0.61
		c2.48-0.91,4.97-1.78,7.47-2.61c0.86-0.29,1.72-0.57,2.58-0.84c0.56-0.18,1.13-0.36,1.69-0.54c0.52-0.16,1.05-0.33,1.58-0.49
		c0.64-0.19,1.28-0.38,1.91-0.57c0.68-0.2,1.36-0.4,2.04-0.6c4.56-1.31,9.17-2.5,13.84-3.56c0.88-0.2,1.76-0.39,2.65-0.58
		c0.89-0.2,1.79-0.39,2.69-0.57c0.8-0.17,1.6-0.33,2.41-0.48c1-0.2,2-0.39,3-0.57c0,0,4.9,0.1,13.89-2.14
		c17.87-4.43,51.91-18.04,95.7-59.72c0.76-0.72,1.5-1.44,2.22-2.17c10.82-10.85,17.55-21.95,22.38-32.42
		C991.48,80.19,917.81,0,917.81,0H1920.15z"/>
	<g class="st1">
		<g>
			<linearGradient id="SVGID_1_" gradientUnits="userSpaceOnUse" x1="1184.8762" y1="437.5286" x2="1193.9287" y2="437.5286">
				<stop  offset="0" style="stop-color:#0097FF;stop-opacity:0.2"/>
				<stop  offset="0.9944" style="stop-color:#0097FF"/>
			</linearGradient>
			<path class="st2" d="M1189.37,442.03c-2.09,0-3.97-1.47-4.4-3.6c-0.5-2.43,1.07-4.81,3.5-5.31c2.43-0.5,4.86,1.06,5.36,3.49
				s-1.02,4.8-3.46,5.3l-0.1,0.02C1189.98,442,1189.67,442.03,1189.37,442.03z"/>
		</g>
		<g>
			
				<linearGradient id="SVGID_00000166676431912863935550000001907543150824154531_" gradientUnits="userSpaceOnUse" x1="841.1301" y1="473.2628" x2="1185.9846" y2="473.2628">
				<stop  offset="0" style="stop-color:#0097FF;stop-opacity:0.2"/>
				<stop  offset="0.9944" style="stop-color:#0097FF"/>
			</linearGradient>
			<path style="fill:url(#SVGID_00000166676431912863935550000001907543150824154531_);" d="M845.63,511.89
				c-2.1,0-3.97-1.47-4.4-3.6c-0.5-2.44,1.08-4.81,3.51-5.31l335.85-68.26c2.44-0.5,4.81,1.08,5.31,3.51
				c0.5,2.44-1.08,4.81-3.51,5.31L846.53,511.8C846.22,511.86,845.92,511.89,845.63,511.89z"/>
		</g>
		<g>
			
				<linearGradient id="SVGID_00000174571657743328307210000007330421442957319608_" gradientUnits="userSpaceOnUse" x1="837.0855" y1="508.2051" x2="846.1855" y2="508.2051">
				<stop  offset="0" style="stop-color:#0097FF;stop-opacity:0.2"/>
				<stop  offset="0.9944" style="stop-color:#0097FF"/>
			</linearGradient>
			<path style="fill:url(#SVGID_00000174571657743328307210000007330421442957319608_);" d="M841.58,512.72
				c-2.1,0-3.98-1.48-4.41-3.62c-0.48-2.44,1.1-4.81,3.54-5.29l0.1-0.02c2.44-0.48,4.81,1.1,5.29,3.54c0.48,2.44-1.1,4.81-3.54,5.29
				l-0.1,0.02C842.17,512.69,841.87,512.72,841.58,512.72z"/>
		</g>
	</g>
	<path class="st5" d="M1439.52,1062.64h-2.83c0.9-0.12,1.79-0.23,2.69-0.34c0,0,0,0.01,0.01,0.02
		C1439.48,1062.54,1439.52,1062.64,1439.52,1062.64z"/>
	<path class="st6" d="M1260.09,810.1c-0.36,0.14-0.76,0.26-1.15,0.37c0,0,0,0,0,0.01c-4.71,1.37-11.14,1.04-15.73,0.51
		c-3.37-0.4-5.75-0.89-5.75-0.89c-4.87-30.17-48.75-178.61-48.75-178.61s-8.35,175.88-12.88,179.62c-0.59,0.49-1.45,0.85-2.5,1.1
		c-4.75,1.17-13.38,0.22-18.37-0.49c-2.32-0.33-3.85-0.61-3.85-0.61s-11.83-177.58-10.44-194.87c1.4-17.29,0.64-31.18,18.68-51.45
		c0,0,5.71,3.1,15.19,4.64c1.31,1.82,3.46,3.01,5.91,3.01c2.02,0,3.85-0.82,5.16-2.13c9.03-0.04,19.87-1.89,31.66-7.61
		c2.62,2.1,5.2,5.97,7.73,11.25c-1.16,1.91-2.05,3.46-2.6,4.51c-4.26,8.22-6.44,18.64-3.48,18.39c2.96-0.25,4.26-8.3,4.26-8.3
		c2.53,2.54,3.48,8.05,4.19,12.54c0.65,4.21,2.83,11.11,8.24,4.32C1254.19,676.43,1266.24,807.76,1260.09,810.1z"/>
	<path class="st7" d="M1260.96,492.47c-1.74,6.04-12.45,14.06-17.85,17.81c-1.89,1.3-3.13,2.09-3.13,2.09
		c-4.44-2.36-11.92-11.01-11.92-11.01c-8.29,18.59-10.24,42.3-10.68,54.05c-11.5,5.14-22.03,6.56-30.85,6.26
		c-1.28-1.96-3.53-3.27-6.09-3.27c-1.92,0-3.67,0.74-4.97,1.94c-9.71-2.04-15.53-5.61-15.53-5.61c0.44-15.68-1.17-32.36-1.17-32.36
		s-6.16-0.98-9.34-7.4c-0.56-1.13-1.03-2.45-1.36-3.96c-0.45-2.07-0.38-4.06,0.01-5.92c-7.05-3.06-13.16-10.01-13.16-10.01
		s4-10,11.93-19.49c2.28-2.74,5.62-4.71,9.23-6.13c8.91-3.52,19.41-3.7,19.41-3.7c15.23,9.57,21.24-2.8,21.24-2.8
		s22.02-3.22,33.34,2.21c8.03,3.85,20.23,15.99,26.64,22.7C1259.31,490.63,1260.96,492.47,1260.96,492.47z"/>
	<path class="st8" d="M1148.1,505.11c-0.01,0-0.02-0.01-0.03-0.01"/>
	<path d="M1173.24,565.42c0,1.49,0.48,2.88,1.3,4.01c-9.48-1.55-15.19-4.64-15.19-4.64l0.3-3.78c0.14-2.04,0.24-4.16,0.3-6.28
		c0,0,5.82,3.58,15.53,5.62C1174.11,561.63,1173.24,563.44,1173.24,565.42z"/>
	<path class="st9" d="M1156.08,492.63c0,0-6.48,5.21-8,12.47"/>
	<path class="st10" d="M1196.72,462.98c0,0-6.01,12.37-21.24,2.8c0,0,2.89-12.67,2.23-19.04c12.11,9.33,20.83-2.82,21.22-3.39
		C1195.17,452.28,1196.72,462.98,1196.72,462.98z"/>
	<path class="st11" d="M1214.3,429.6c-0.26,5.42-8.27,4.91-8.27,4.91c-3.41,2.21-5.64,5.39-7.08,8.82c0,0,0,0.01-0.01,0.01
		c0,0,0,0-0.01,0.01c-0.39,0.56-9.11,12.71-21.22,3.39c-0.16-0.12-0.33-0.25-0.49-0.38c-12.65-10.28-10.1-28.7-10.1-28.7
		s0.18-14.34,8.47-14.97c8.3-0.62,14.51-5.45,14.51-5.45s2.86,6.61,9.23,14.49c6.35,7.87,7.14,15.08,7.14,15.08
		S1214.57,424.18,1214.3,429.6z"/>
	<path class="st12" d="M1256.7,487.89c-6.41-6.71-18.6-18.85-26.64-22.7c-11.32-5.43-33.34-2.21-33.34-2.21s-1.55-10.7,2.22-19.63
		c0.01-0.01,0.01-0.01,0.01-0.01c0.01,0,0.01-0.01,0.01-0.01c1.44-3.43,3.67-6.61,7.08-8.82c0,0,8.01,0.51,8.27-4.91
		c0.27-5.42-7.83-2.8-7.83-2.8s-0.78-7.21-7.14-15.08c-6.36-7.88-9.23-14.49-9.23-14.49s-6.21,4.82-14.51,5.45
		c-8.29,0.62-8.47,14.97-8.47,14.97s-2.55,18.42,10.1,28.7c0.16,0.13,0.33,0.26,0.49,0.38c0.66,6.37-2.23,19.04-2.23,19.04
		s-10.5,0.17-19.41,3.7c0,0-0.61-18.44-9.84-27.26c-9.23-8.81-4.48-26.62,5.75-31.52c11.49-5.5,13.23-18.98,13.23-18.98
		s2.44-14.23,29.76-9.83c20.19,3.25,26.46,7.97,31.86,21.01c5.13,12.39,2.61,22.37,15.49,30.84c12.88,8.47,10.45,20.3,9.4,28.29
		C1250.68,470.01,1264.46,481.03,1256.7,487.89z"/>
	<g class="st13">
		
			<radialGradient id="SVGID_00000119812158233472718060000009087826679055779986_" cx="1204.3429" cy="432.416" r="35.1794" gradientUnits="userSpaceOnUse">
			<stop  offset="0" style="stop-color:#0097FF"/>
			<stop  offset="0.9944" style="stop-color:#0097FF;stop-opacity:0"/>
		</radialGradient>
		<circle style="fill:url(#SVGID_00000119812158233472718060000009087826679055779986_);" cx="1204.34" cy="432.42" r="35.18"/>
	</g>
	<path class="st10" d="M1274.94,533.11c-9.97,10.84-40.27,46.65-40.27,46.65s8.36,14.74,2.09,24.06c-0.4,0.58-0.78,1.11-1.15,1.58
		c-5.41,6.78-7.59-0.12-8.24-4.32c-0.71-4.49-1.66-10-4.19-12.54c0,0-1.3,8.05-4.26,8.3c-2.96,0.25-0.78-10.16,3.48-18.39
		c0.55-1.05,1.44-2.6,2.6-4.51c7.78-12.84,27.38-41.86,32.13-45.99l-14.02-17.68c5.41-3.75,16.11-11.78,17.85-17.81
		C1260.96,492.47,1284.92,522.26,1274.94,533.11z"/>
	<path class="st8" d="M1242.55,510.67"/>
	<path class="st10" d="M1172.93,838c-26.46,7.69-30.21-3.47-30.21-3.47c6.51-2.68,12.24-4.67,12.24-4.67v-18.13
		c4.99,0.71,13.62,1.65,18.37,0.49C1173.66,813.72,1173.26,827.96,1172.93,838z"/>
	<path class="st12" d="M1172.93,838c-0.19,5.63-0.35,9.93-0.35,9.93s-21.01,2.82-42.59,0.45c-14.01-1.54,0.69-8.89,12.73-13.86
		C1142.72,834.53,1146.47,845.69,1172.93,838z"/>
	<path class="st10" d="M1261.71,832.64c-19.71,14.82-27.05,3.39-27.05,3.39c4.68-2.7,8.55-4.66,8.55-4.66v-20.37
		c4.59,0.54,11.02,0.87,15.73-0.51C1258.96,810.98,1259.77,830.12,1261.71,832.64z"/>
	<line class="st8" x1="1243.21" y1="810.99" x2="1243.21" y2="810.98"/>
	<path class="st12" d="M1264.62,842.71c0,0-3.66,5.59-35.08,8.56c-22.22,2.1-6.17-8.73,5.12-15.25c0,0,7.34,11.44,27.05-3.39
		C1263.67,835.17,1264.62,842.71,1264.62,842.71z"/>
	<path d="M1217.27,562.7c-11.79,5.72-22.63,7.57-31.66,7.61c1.26-1.26,2.05-2.99,2.05-4.89c0-1.38-0.41-2.67-1.12-3.75
		c8.81,0.3,19.34-1.13,30.84-6.26C1217.21,559.94,1217.27,562.7,1217.27,562.7z"/>
	<path class="st8" d="M1186.53,561.68c-4.08-0.14-7.79-0.64-11.06-1.33"/>
	<path class="st8" d="M1174.54,569.44c3.27,0.55,6.98,0.89,11.07,0.87"/>
	<g>
		<path class="st15" d="M1186.54,561.68c-1.29-1.96-3.54-3.26-6.09-3.26c-1.92,0-3.68,0.73-4.97,1.94
			c-1.37,1.28-2.24,3.09-2.24,5.07c0,1.49,0.48,2.88,1.3,4.01c1.31,1.82,3.46,3.01,5.91,3.01c2.02,0,3.85-0.82,5.16-2.13
			c1.26-1.26,2.05-2.99,2.05-4.89C1187.66,564.04,1187.25,562.76,1186.54,561.68z M1184.1,565.42c0,1.96-1.64,3.55-3.65,3.55
			c-2.01,0-3.65-1.6-3.65-3.55s1.64-3.54,3.65-3.54C1182.46,561.88,1184.1,563.47,1184.1,565.42z"/>
		<path d="M1184.09,565.43c0,1.96-1.64,3.55-3.65,3.55s-3.65-1.59-3.65-3.55s1.64-3.55,3.65-3.55S1184.09,563.47,1184.09,565.43z"/>
	</g>
	<path class="st9" d="M1182.45,512.09c0,0,16.6,18.87,31.22-2.6"/>
	
		<ellipse transform="matrix(0.1999 -0.9798 0.9798 0.1999 518.8955 1505.3846)" class="st0" cx="1181.2" cy="434.97" rx="2.47" ry="6.06"/>
	<path class="st16" d="M1181.2,427.76c0,0-2.52,1.1-3.26-0.62s2.25-6.72,2.25-6.72"/>
	<g>
		<path class="st17" d="M1212.19,434.33c-0.55,0.14-1.12-0.18-1.26-0.72c-0.14-0.54,0.19-1.09,0.74-1.23
			c0.2-0.05,2.05-0.66,1.57-3.54c-0.1-0.58-0.35-0.98-0.79-1.25c-0.96-0.59-2.58-0.49-3.71-0.3l0.64,2.38
			c0.57,0.28,0.95,0.85,0.95,1.51c0,0.93-0.78,1.69-1.74,1.69c-0.28,0-0.54-0.07-0.77-0.17c-2.38,1.09-7.54,3.21-13.33,4.07
			c-0.06,0.01-0.1,0.01-0.16,0.01c-0.5,0-0.94-0.36-1.02-0.85c-0.08-0.55,0.3-1.07,0.87-1.15c5.45-0.81,10.43-2.85,12.71-3.89
			c0.06-0.33,0.21-0.62,0.44-0.86l-0.87-3.22c-0.14-0.53,0.17-1.07,0.7-1.22c0.41-0.12,4.05-1.11,6.38,0.3
			c0.94,0.58,1.54,1.49,1.74,2.64C1215.91,432.33,1213.54,433.98,1212.19,434.33z"/>
	</g>
	<ellipse class="st18" cx="852.5" cy="507.32" rx="98.26" ry="95.65"/>
	<path class="st5" d="M805.89,944.07c0.12-1.41,0.29-2.82,0.49-4.22C806.18,941.24,806.02,942.66,805.89,944.07z"/>
	<path class="st5" d="M812.09,919.06c0.49-1.15,1.02-2.3,1.57-3.44C813.11,916.76,812.59,917.91,812.09,919.06z"/>
	<path class="st19" d="M947.76,174.97c-4.83,10.47-11.56,21.57-22.38,32.42c-0.72,0.73-1.46,1.45-2.22,2.17
		c-43.79,41.68-77.83,55.29-95.7,59.72c-8.99,2.24-13.89,2.14-13.89,2.14c-1,0.18-2,0.37-3,0.57c-0.81,0.15-1.61,0.31-2.41,0.48
		c-0.9,0.18-1.8,0.37-2.69,0.57c-0.89,0.19-1.77,0.38-2.65,0.58c-4.67,1.06-9.28,2.25-13.84,3.56c-0.68,0.2-1.36,0.4-2.04,0.6
		c-0.63,0.19-1.27,0.38-1.91,0.57c-0.53,0.16-1.05,0.33-1.58,0.49c-0.56,0.18-1.13,0.36-1.69,0.54c-0.86,0.27-1.72,0.55-2.58,0.84
		c-2.5,0.83-4.99,1.7-7.47,2.61c-0.55,0.2-1.09,0.4-1.64,0.61c-0.35,0.13-0.71,0.26-1.06,0.4c-0.84,0.32-1.68,0.64-2.51,0.97
		c-0.69,0.27-1.39,0.55-2.08,0.83c-1.8,0.72-3.59,1.46-5.37,2.23c-0.82,0.35-1.63,0.71-2.45,1.07c-0.4,0.18-0.81,0.36-1.21,0.54
		c-1.14,0.51-2.28,1.03-3.41,1.56c-0.71,0.33-1.42,0.66-2.13,1.01c-0.45,0.21-0.9,0.42-1.35,0.64c-0.53,0.26-1.06,0.52-1.58,0.78
		c-0.52,0.26-1.04,0.52-1.56,0.77c-0.61,0.31-1.22,0.62-1.83,0.94c-0.02,0-0.04,0.01-0.06,0.03c-0.69,0.35-1.37,0.7-2.06,1.07
		c-3.47,1.82-6.9,3.72-10.27,5.7c-0.68,0.39-1.35,0.79-2.02,1.2c-4.38,2.62-8.66,5.37-12.85,8.24c-0.44,0.29-0.87,0.59-1.3,0.89
		c-1.47,1.02-2.92,2.05-4.36,3.09c-0.69,0.51-1.38,1.01-2.06,1.52c-9.88,7.32-19.17,15.34-27.81,23.99
		c-0.58,0.58-1.16,1.16-1.73,1.75c-1.88,1.91-3.71,3.84-5.51,5.81c-0.34,0.37-0.67,0.73-1.01,1.1c-0.22,0.24-0.45,0.49-0.66,0.74
		c-0.53,0.57-1.04,1.15-1.54,1.73c-2.06,2.31-4.05,4.66-6,7.05c-0.49,0.59-0.98,1.2-1.46,1.8c-3.87,4.81-7.55,9.77-11.03,14.86
		c-0.44,0.63-0.88,1.27-1.3,1.92c-0.87,1.28-1.72,2.57-2.55,3.87c-1.42,2.2-2.81,4.43-4.15,6.68c-1.04,1.73-2.05,3.47-3.04,5.22
		c-0.38,0.68-0.76,1.35-1.13,2.03c-0.38,0.68-0.75,1.36-1.11,2.04c-1.11,2.04-2.18,4.1-3.22,6.17c-0.36,0.69-0.7,1.39-1.04,2.09
		c-0.35,0.69-0.69,1.39-1.01,2.09c-0.31,0.62-0.6,1.25-0.89,1.87c-1.39,2.95-2.71,5.93-3.97,8.93c-0.58,1.38-1.14,2.76-1.69,4.15
		c-0.29,0.72-0.57,1.44-0.85,2.17c-0.29,0.73-0.56,1.46-0.83,2.19c-0.28,0.73-0.55,1.46-0.81,2.19c-0.27,0.74-0.54,1.47-0.79,2.21
		c-0.27,0.74-0.53,1.48-0.77,2.22c-0.26,0.74-0.51,1.48-0.75,2.22c-0.5,1.48-0.97,2.98-1.43,4.48c-0.24,0.75-0.46,1.5-0.68,2.25
		c-0.23,0.75-0.45,1.5-0.66,2.26c-0.22,0.75-0.44,1.51-0.64,2.27c-0.22,0.76-0.42,1.52-0.62,2.28c-0.41,1.52-0.8,3.06-1.17,4.59
		c-0.2,0.79-0.39,1.59-0.57,2.38c-0.35,1.51-0.69,3.03-1.01,4.55c-0.34,1.55-0.65,3.11-0.94,4.67c-0.15,0.75-0.29,1.51-0.43,2.27
		c-0.01,0.05-0.02,0.11-0.03,0.17c-0.14,0.75-0.27,1.5-0.39,2.26c-3.9-1.36-8.85-2.16-15.12-2.1c-6.26,0.06-11.31,1.19-15.4,3.02
		c0.15-4.95-11.44-6.34-13.89-4.96c-3.16,1.78-12.8,4.21-23.29-3.08c-2.52-1.75-5.87-3.42-9.53-4.66
		c8.37-54.23,29.66-104.35,60.72-147.29c0,0,0.01-0.01,0.03-0.04c4.18-5.78,8.54-11.44,13.08-16.95
		c21.88-31.31,57.35-97.88-8.44-130.15c-87.77-43.05-216.49,40.96-336.44-6.02c-0.79-0.31-1.57-0.62-2.34-0.94
		c-0.53-0.21-1.05-0.43-1.57-0.65c-0.48-0.2-0.96-0.41-1.44-0.61c-0.04-0.02-0.07-0.03-0.11-0.05c-0.78-0.34-1.55-0.68-2.3-1.02
		c-0.54-0.24-1.06-0.48-1.58-0.72c-1-0.46-1.98-0.93-2.94-1.4c-0.62-0.31-1.24-0.62-1.85-0.93c-0.51-0.25-1.01-0.51-1.51-0.78
		c-6.69-3.51-12.5-7.28-17.51-11.24c-0.24-0.18-0.48-0.37-0.71-0.57c-0.25-0.19-0.49-0.39-0.73-0.59c-2.12-1.75-4.09-3.53-5.92-5.35
		c-0.74-0.72-1.44-1.46-2.13-2.19c-0.68-0.74-1.35-1.48-1.99-2.23c-0.28-0.32-0.56-0.65-0.83-0.98c-0.97-1.17-1.89-2.36-2.77-3.55
		c-0.28-0.38-0.55-0.76-0.82-1.15c-0.26-0.38-0.53-0.76-0.78-1.15c-0.22-0.32-0.42-0.63-0.62-0.95c-0.3-0.46-0.59-0.92-0.87-1.38
		c-0.19-0.31-0.38-0.63-0.57-0.95c-0.27-0.46-0.53-0.93-0.79-1.39c-0.22-0.39-0.43-0.79-0.64-1.18c-0.21-0.4-0.41-0.79-0.61-1.19
		c-0.2-0.39-0.4-0.79-0.58-1.19c-0.23-0.47-0.45-0.95-0.66-1.42c-0.14-0.32-0.29-0.65-0.42-0.97c-0.19-0.45-0.38-0.89-0.55-1.34
		c-0.15-0.35-0.29-0.7-0.41-1.05c-1.97-5.17-3.2-10.42-3.83-15.7c-0.05-0.42-0.1-0.84-0.14-1.26C199.9,46.55,239.34,0,239.34,0
		h678.47C917.81,0,991.48,80.19,947.76,174.97z"/>
	<path class="st19" d="M224.54,133.36c-0.74-0.72-1.44-1.45-2.13-2.19C223.1,131.9,223.8,132.64,224.54,133.36z"/>
	<path class="st19" d="M866,1470.12c-15.59,4.64-30.82,8.81-45.69,12.54c-306.93,77.05-460.34-27.39-475.46,231.99
		c-0.03,0.52-0.06,1.02-0.09,1.53c-16.79,266.12-336.74,13.97-344.61,7.73c-0.1-0.08-0.15-0.12-0.15-0.12v-264.33
		c0,0,0.04-0.16,0.15-0.48c1.71-5.36,19.81-54.41,117.07-86.18c34.49-11.26,78.93-20.35,136.13-24.56
		c228-16.76,210.57-231.75,210.57-231.75c-2.25-17.53,5.6-37.48,14.75-53.94c5.08-9.14,10.56-17.2,14.94-23.17
		c4.08-5.56,7.19-9.31,8.13-10.42c0.14-0.16,0.23-0.27,0.27-0.32c0.02-0.02,0.03-0.03,0.03-0.03
		c91.1-100.68,157.55-73.27,182.83-118.62c7.7-13.8,5.5-33.89-1.71-55.72c-0.54-1.63-1.1-3.27-1.7-4.92
		c-19.51-54.3-67.15-117.11-69.93-120.76c-0.08-0.11-0.13-0.17-0.13-0.17c-1-1.21-2-2.42-2.99-3.64
		c-18.92-23.34-34.82-49.11-47.12-76.76c-13.37-30.05-22.49-62.31-26.63-96.06c-1.66-13.59-2.52-27.42-2.52-41.45
		c0-8.18,0.29-16.3,0.87-24.34c0.66-9.28,1.69-18.45,3.09-27.51c3.66,1.24,7.01,2.91,9.53,4.66c10.49,7.29,20.13,4.86,23.29,3.08
		c2.45-1.38,14.04,0.01,13.89,4.96c4.09-1.83,9.14-2.96,15.4-3.02c6.27-0.06,11.22,0.74,15.12,2.1c-0.18,1.02-0.35,2.05-0.51,3.08
		c-0.15,0.95-0.3,1.91-0.43,2.86c-0.02,0.12-0.04,0.25-0.06,0.38c-0.14,0.99-0.27,1.97-0.4,2.96c-0.14,1.03-0.27,2.07-0.39,3.11
		v0.01c-0.33,2.8-0.6,5.61-0.83,8.44c-0.05,0.63-0.1,1.27-0.15,1.91c-0.03,0.46-0.07,0.92-0.09,1.39c-0.05,0.63-0.09,1.27-0.12,1.91
		c-0.01,0.15-0.02,0.29-0.03,0.44c-0.05,0.83-0.09,1.65-0.12,2.48c-0.04,0.68-0.07,1.37-0.09,2.06c-0.08,2.03-0.13,4.07-0.16,6.11
		v0.19c-0.01,0.94-0.02,1.89-0.02,2.84c0,1.23,0.01,2.46,0.03,3.69c0,0.41,0.01,0.81,0.02,1.21c0.02,1.13,0.05,2.25,0.1,3.37
		c0.03,1.26,0.09,2.52,0.16,3.77c0.02,0.58,0.05,1.17,0.09,1.76c0.04,0.71,0.08,1.42,0.13,2.13c0.03,0.43,0.06,0.87,0.09,1.3
		c0.04,0.5,0.08,1.01,0.12,1.52c0.04,0.63,0.1,1.25,0.15,1.88c0.07,0.76,0.14,1.51,0.21,2.27c0.16,1.67,0.34,3.34,0.53,5.01
		c0.05,0.5,0.11,1,0.18,1.5c0.09,0.73,0.19,1.47,0.29,2.2c0.02,0.24,0.06,0.49,0.1,0.74c0.11,0.85,0.23,1.7,0.35,2.54
		c0.23,1.53,0.47,3.06,0.73,4.59c0.13,0.8,0.26,1.59,0.41,2.38c0.07,0.41,0.14,0.82,0.22,1.24c0.23,1.24,0.46,2.47,0.71,3.7v0.01
		c0.53,2.63,1.1,5.24,1.71,7.84c0.3,1.3,0.62,2.6,0.95,3.89c0.19,0.78,0.4,1.55,0.61,2.32c0.19,0.75,0.39,1.5,0.6,2.25
		c0.33,1.21,0.67,2.42,1.03,3.62c0.16,0.57,0.33,1.14,0.51,1.71c0.21,0.71,0.42,1.42,0.64,2.12c0.24,0.78,0.49,1.55,0.74,2.31
		c0.14,0.46,0.29,0.93,0.45,1.39c0.25,0.77,0.51,1.54,0.77,2.31c0.11,0.34,0.23,0.69,0.35,1.03c0.06,0.16,0.11,0.32,0.17,0.48
		c0.27,0.8,0.56,1.59,0.85,2.39c0.05,0.16,0.11,0.33,0.17,0.49c0.34,0.95,0.69,1.89,1.05,2.84c0.94,2.5,1.92,4.98,2.95,7.44
		c0.4,0.98,0.82,1.96,1.24,2.94c0.05,0.12,0.1,0.24,0.16,0.37c0.52,1.21,1.05,2.41,1.6,3.6c0.56,1.25,1.14,2.5,1.73,3.74
		c0.49,1.03,0.99,2.06,1.49,3.08c0.34,0.7,0.69,1.4,1.04,2.09c0.22,0.44,0.44,0.88,0.67,1.31c0.25,0.49,0.5,0.98,0.75,1.46
		c0.37,0.71,0.75,1.42,1.13,2.13c0.28,0.54,0.57,1.08,0.87,1.62c0.51,0.96,1.04,1.91,1.58,2.86c0.39,0.7,0.79,1.4,1.19,2.1
		c0.17,0.31,0.34,0.61,0.52,0.9c0.52,0.89,1.03,1.77,1.56,2.64c0.54,0.93,1.11,1.86,1.69,2.79v0.01c0.73,1.18,1.47,2.36,2.22,3.53
		c0.75,1.17,1.51,2.34,2.28,3.5c0.77,1.16,1.55,2.32,2.34,3.46c0.79,1.15,1.59,2.29,2.4,3.42s1.62,2.26,2.45,3.38
		c0.83,1.11,1.67,2.23,2.51,3.33c0.85,1.1,1.71,2.2,2.57,3.29c0.82,1.03,1.65,2.06,2.49,3.08c0.08,0.11,0.17,0.21,0.27,0.32
		c0.81,0.99,1.64,1.98,2.49,2.97c0.02,0.04,0.06,0.09,0.1,0.13c0.89,1.04,1.78,2.08,2.69,3.1c0.92,1.05,1.85,2.08,2.79,3.11
		c0.93,1.03,1.88,2.05,2.84,3.06c0.95,1.02,1.91,2.02,2.89,3.02c0.91,0.94,1.84,1.87,2.77,2.8c0.1,0.1,0.2,0.2,0.3,0.29
		c0.95,0.94,1.9,1.87,2.87,2.79c0.8,0.77,1.6,1.53,2.42,2.28c0.3,0.3,0.6,0.58,0.9,0.85c0.87,0.8,1.75,1.61,2.64,2.39
		c0.09,0.1,0.18,0.17,0.26,0.24c0.9,0.81,1.82,1.62,2.74,2.41c0.14,0.14,0.29,0.26,0.43,0.39c0.96,0.83,1.93,1.65,2.91,2.46
		c0.09,0.09,0.17,0.16,0.25,0.22c0.88,0.74,1.77,1.47,2.66,2.19c0.21,0.18,0.42,0.35,0.63,0.51c1,0.81,2,1.6,3.01,2.39
		c0.06,0.06,0.13,0.11,0.2,0.16c1.09,0.85,2.18,1.69,3.28,2.52c1.12,0.84,2.25,1.68,3.38,2.5c1.13,0.83,2.27,1.65,3.42,2.45
		c1.15,0.81,2.31,1.61,3.47,2.4c1.16,0.78,2.33,1.56,3.51,2.33c1.17,0.77,2.36,1.53,3.55,2.28c0.92,0.59,1.85,1.16,2.78,1.73
		c1.47,0.91,2.96,1.79,4.45,2.66c1.2,0.71,2.41,1.4,3.63,2.09c2.48,1.39,4.98,2.74,7.51,4.05c0,0,0.01,0.01,0.02,0.02
		c0.32,0.25,4.77,3.8,11.6,9.79c4.8,4.22,10.78,9.66,17.33,16.03c0.49,0.47,0.99,0.95,1.49,1.44c8.59,8.44,18.06,18.39,27.09,29.24
		l0.01,0.01c1.61,1.94,3.2,3.9,4.77,5.89c0.52,0.66,1.05,1.32,1.56,1.99c1.64,2.11,3.26,4.25,4.83,6.41
		c0.42,0.57,0.84,1.15,1.25,1.73c0.99,1.37,1.96,2.75,2.91,4.14c1.01,1.47,2,2.95,2.96,4.43c0.5,0.77,1,1.55,1.49,2.32
		c1.97,3.12,3.84,6.27,5.58,9.43c0.21,0.38,0.42,0.77,0.62,1.15c1.35,2.48,2.61,4.98,3.78,7.48c0.13,0.28,0.26,0.55,0.38,0.83
		c0.55,1.19,1.08,2.38,1.58,3.57c0.17,0.4,0.34,0.79,0.5,1.19c0.23,0.56,0.46,1.13,0.68,1.7c0.28,0.71,0.55,1.42,0.81,2.13
		c0.26,0.7,0.52,1.41,0.76,2.12c0.18,0.52,0.35,1.04,0.52,1.57c0.09,0.27,0.18,0.54,0.26,0.8c0.14,0.44,0.27,0.87,0.41,1.31
		c0.1,0.36,0.21,0.71,0.31,1.07c0.34,1.18,0.65,2.36,0.94,3.54c0.08,0.3,0.15,0.6,0.21,0.89c0.13,0.53,0.24,1.07,0.36,1.6
		c0.33,1.61,0.62,3.22,0.85,4.83c0.1,0.69,0.18,1.37,0.26,2.06c1.67,14.86-1.74,29.06-12.86,41.36c-1.87,2.06-3.59,4.17-5.17,6.33
		c-0.79,1.07-1.54,2.16-2.26,3.26c-1.81,2.75-3.4,5.55-4.79,8.39c-0.55,1.14-1.08,2.29-1.57,3.44c-0.3,0.7-0.59,1.41-0.87,2.12
		c-0.14,0.36-0.28,0.72-0.41,1.08c-0.07,0.18-0.14,0.36-0.2,0.54c-0.19,0.5-0.36,1-0.54,1.5c-0.15,0.44-0.3,0.88-0.44,1.32
		c-0.12,0.36-0.24,0.73-0.34,1.09c-0.06,0.17-0.1,0.32-0.15,0.48c-0.12,0.36-0.22,0.73-0.32,1.09c-0.26,0.89-0.5,1.79-0.72,2.69
		c-0.1,0.37-0.19,0.75-0.28,1.13c-0.01,0.04-0.02,0.08-0.03,0.12c-0.01,0.06-0.02,0.13-0.04,0.19c-0.1,0.41-0.19,0.83-0.28,1.25
		c-0.1,0.45-0.19,0.9-0.28,1.35c-0.11,0.54-0.21,1.08-0.3,1.62c-0.04,0.21-0.08,0.42-0.11,0.63c-0.06,0.33-0.11,0.66-0.16,0.99
		c-0.06,0.32-0.11,0.65-0.15,0.98c-0.03,0.2-0.06,0.41-0.09,0.61c-0.2,1.4-0.37,2.82-0.49,4.23c-0.08,0.76-0.14,1.52-0.19,2.27
		c-0.05,0.62-0.08,1.22-0.11,1.83c0,0.08-0.01,0.15-0.01,0.23c0,0.15-0.01,0.31-0.02,0.48c0,0.05,0,0.11-0.01,0.17
		c-0.09,2.19-0.11,4.4-0.06,6.6v0.13c0.02,1.11,0.07,2.23,0.13,3.34c0.01,0.01,0.01,0.01,0,0.02c0.06,1.11,0.13,2.22,0.23,3.32
		c0.04,0.58,0.09,1.14,0.15,1.71c0.1,1.14,0.23,2.27,0.37,3.39c0.06,0.57,0.14,1.13,0.22,1.7c0.05,0.38,0.11,0.76,0.16,1.13
		c0.05,0.38,0.1,0.75,0.17,1.13c0.09,0.64,0.2,1.29,0.31,1.93c0.12,0.67,0.23,1.34,0.35,2c0.12,0.63,0.24,1.26,0.36,1.9
		c0.12,0.63,0.25,1.25,0.39,1.89c0.17,0.85,0.36,1.7,0.56,2.55c0.19,0.84,0.39,1.69,0.6,2.53c0.2,0.84,0.41,1.68,0.64,2.52
		c0.21,0.83,0.44,1.67,0.68,2.51c0.22,0.83,0.46,1.65,0.71,2.48c0.1,0.35,0.2,0.69,0.3,1.03c0.15,0.48,0.29,0.95,0.44,1.42
		c0.13,0.42,0.26,0.83,0.39,1.25c0.39,1.23,0.79,2.44,1.2,3.65c0.54,1.61,1.11,3.2,1.69,4.78c0.28,0.79,0.58,1.58,0.88,2.35
		c0.29,0.78,0.59,1.55,0.9,2.32c0.3,0.77,0.61,1.54,0.92,2.3c0.31,0.77,0.62,1.52,0.94,2.27c0.31,0.75,0.62,1.5,0.95,2.23
		c0.16,0.37,0.32,0.74,0.48,1.11c0.16,0.36,0.32,0.73,0.48,1.09c0.32,0.73,0.65,1.46,0.98,2.17c0.32,0.72,0.65,1.42,0.98,2.12
		c0.3,0.66,0.61,1.31,0.92,1.95c0.31,0.66,0.62,1.29,0.93,1.92c0.14,0.3,0.29,0.61,0.44,0.9c0.31,0.64,0.63,1.27,0.94,1.9
		c0.25,0.48,0.49,0.97,0.74,1.46c0,0,0,0,0.01,0.01c0,0.01,0.01,0.01,0.01,0.02c0.24,0.38,2.35,3.86,5.99,9.3
		c3.96,5.91,9.71,14.14,16.81,23.26c11.85,15.23,27.43,32.93,44.62,46.42c0,0,67.34,56.78,104.81,127.56
		c10.01,18.9,17.88,38.8,21.78,58.89C1033.81,1361.3,1003.83,1429.05,866,1470.12z"/>
	<path class="st20" d="M806.38,939.84c-0.2,1.4-0.36,2.81-0.49,4.22C806.01,942.66,806.18,941.24,806.38,939.84z"/>
	<path class="st20" d="M813.66,915.62c-0.55,1.14-1.07,2.29-1.57,3.44C812.58,917.91,813.11,916.76,813.66,915.62z"/>
	<g class="st21">
		<line class="st22" x1="1165.96" y1="437.81" x2="1165.86" y2="437.83"/>
		<line class="st23" x1="1158.03" y1="439.42" x2="824.92" y2="507.12"/>
		<line class="st22" x1="821.01" y1="507.92" x2="820.91" y2="507.94"/>
	</g>
	<path class="st24" d="M668.59,275.2C668.58,275.21,668.58,275.21,668.59,275.2"/>
	<line class="st24" x1="846.72" y1="1062.54" x2="846.65" y2="1062.54"/>
	<path class="st25" d="M683.16,854.27c-344.53-0.04-620.54-1.14-620.54-2.47s275.1-2.41,618.84-2.45
		c-19.51-54.3-67.15-117.11-69.93-120.76c-0.08-0.11-0.13-0.17-0.13-0.17c-1-1.21-2-2.42-2.99-3.64c0.34,26.77-1.51,61.6-7.79,95.94
		c0,0-2.38,0.23-5.75,0.41v8.9c10.84,1.08,23.55,3.8,25.23,10.61c2.99,12.15-41.05,4.7-41.05,4.7v-24.31
		c-0.76-0.08-1.47-0.18-2.14-0.31c0,0-4.28-57.96-18.84-94.46c-3.5,6.53-12.61,15.23-23.92,24.22
		c-28.1,22.33-69.79,46.43-72.78,43.52c-0.63-0.6-1.21-1.33-1.74-2.13c-0.14,0.02-0.28,0.04-0.43,0.06l-4.57,3.37
		c6.87,8.97,15.71,22.97,9.86,29.41c-8.99,9.88-28.45-27.69-28.45-27.69l4.07-3.41c-0.56,0.03-1.07,0.06-1.52,0.08
		c-1.35,0-2.12,0-2.65-0.87l-3.08-10.48l-0.91-3.61c-0.86-0.07-1.34-0.15-1.34-0.15c-2.2-5.41-5.5-13.13-9.14-21.59v-0.01
		c-6.94-16.12-15.13-34.94-19.32-45.69h-3.01c-1.56,21.27-8.72,70.52-8.72,70.52c-2.3,0.84-4.65,1.32-6.91,1.57v5.48
		c8.03,1.28,17.37,3.19,22.73,5.8c0.93,0.45,1.74,0.92,2.4,1.42c0.76,0.55,1.33,1.15,1.67,1.77c3.99,7.46-41.79,4.94-43.28,4.84
		c-1.5-0.09,1.55-15.73,1.55-15.73s0.03,0.01,0.1,0.01c0.11,0.01,0.29,0.03,0.54,0.06c-0.14-0.03-0.24-0.05-0.31-0.06l-0.09-4.79
		c-0.84-0.21-1.31-0.37-1.31-0.37s-0.69-27.3,1.36-53.93c0.59-7.66,0.08-12.95-1.7-16.59h-70.85v-12.33h13.14
		c-1.76-1.23-3.25-2.63-4.49-4.11h-8.46l-11.43-38.18h-54.41c-2.21,0-4-1.79-4-4v-5.98c0-2.21,1.79-4,4-4h50.23l-4.41-14.74
		c-0.01,0-0.01,0-0.01-0.01c-3.42-3.66-4.63-8.93-4.46-14.93l-14.16-47.31h30.08c0.55-1.09,1.03-2.02,1.41-2.78
		c6.84-13.65,41.56-16.26,41.56-16.26s0.09-1.7,0.12-4.02c-1.57,0.03-3.17-0.06-4.79-0.31c-20.75-3.09-14.14-43.22-13.21-48.3
		c0,0-14.48,1.92-12.26-7.07c2.22-8.99,8.04-12.23,14.36-10.91c6.33,1.34-0.05-7.4,11.07-6.41c11.11,1.01,17.36,1.26,23.65-0.07
		c6.29-1.33,4.27,2.98,13.68,5.15c9.4,2.16,16.76,8.52,15.39,19.32c-1.37,10.81,6.77,2.16,2.59,17.69
		c-0.27,0.99-3.4,9.71-7.83,11.38c-4.44,1.66-0.35,4.68-7.19,5.93c-3.83,0.7-6.4-0.89-6.4-0.89c-1.83,1.82-4.14,3.93-6.86,5.96
		c-0.06,0.05-0.12,0.09-0.18,0.13c-0.36,0.27-0.74,0.55-1.13,0.81v0.01c-0.38,1.05-0.63,2.36-0.8,3.73c-0.45,3.8-0.2,7.98-0.2,7.98
		s0,0,0.01,0.01c0.52,0.25,20.68,10.4,35.97,23.73c11,9.6,34.25-19.65,34.25-19.65s0.01,0,0.02,0c-0.04-3.48-0.01-14.68,2.1-19.62
		c0.31-0.71,0.66-1.29,1.06-1.7c3.7-3.76,3.03,8.42,3.03,8.42s3.51-5.33,7.67-8.13c0.83-0.56,1.68-1.02,2.54-1.31
		c2.69-0.93,5.42-0.27,7.51,3.9c3.29,6.58,0.09,10.99-4.3,14.64c-0.01,0.01-0.02,0.01-0.03,0.02c-2.9,2.4-6.31,4.48-8.69,6.65
		c-0.09,0.09-0.19,0.18-0.28,0.27c0.29,0.19,0.59,0.39,0.89,0.59c7.45,5.13-21.41,37.39-38.98,45.6
		c-9.02,4.21-23.55-2.05-23.55-2.05s2.6,25.72,6.15,44.55h113.64c0.39-0.88,0.64-1.38,0.64-1.38s8.38-44.69,26.32-62.68
		c-1-1.59-1.53-2.6-1.53-2.6c5.82-11.1,12.61-18.77,19.3-24.07c-1.66-13.59-2.52-27.42-2.52-41.45c0-8.18,0.29-16.3,0.87-24.34
		c-9.08,1.87-24.3,1.6-23.65-14.92c0.64-15.99,15.19-16.47,26.74-12.59c8.37-54.23,29.66-104.35,60.72-147.29
		c0,0,0.01-0.01,0.03-0.04c4.18-5.78,8.54-11.44,13.08-16.95c21.88-31.31,57.35-97.88-8.44-130.15
		c-87.77-43.05-216.49,40.96-336.44-6.02c-0.79-0.31-1.57-0.62-2.34-0.94c-0.53-0.21-1.05-0.43-1.57-0.65
		c-0.48-0.2-0.96-0.41-1.44-0.61c-0.04-0.02-0.07-0.03-0.11-0.05c-0.78-0.34-1.55-0.68-2.3-1.02c-0.54-0.24-1.06-0.48-1.58-0.72
		c-1-0.46-1.98-0.93-2.94-1.4c-0.63-0.31-1.24-0.62-1.85-0.93c-0.51-0.26-1.01-0.52-1.51-0.78c-6.69-3.51-12.5-7.28-17.51-11.24
		c-0.24-0.18-0.48-0.37-0.71-0.57c-0.25-0.19-0.49-0.39-0.73-0.59c-2.12-1.75-4.09-3.53-5.92-5.35c-0.74-0.72-1.44-1.46-2.13-2.19
		c-0.68-0.74-1.35-1.48-1.99-2.23c-0.28-0.32-0.56-0.65-0.83-0.98c-0.97-1.17-1.89-2.36-2.77-3.55c-0.28-0.38-0.55-0.76-0.82-1.15
		c-0.26-0.38-0.53-0.76-0.78-1.15c-0.22-0.32-0.42-0.63-0.62-0.95c-0.3-0.46-0.59-0.92-0.87-1.38c-0.19-0.31-0.38-0.63-0.57-0.95
		c-0.27-0.46-0.53-0.93-0.79-1.39c-0.22-0.39-0.43-0.79-0.64-1.18c-0.21-0.4-0.41-0.79-0.61-1.19c-0.2-0.39-0.4-0.79-0.58-1.19
		c-0.23-0.47-0.45-0.95-0.66-1.42c-0.14-0.32-0.29-0.65-0.42-0.97c-0.19-0.45-0.38-0.89-0.55-1.34c-0.15-0.35-0.29-0.7-0.41-1.05
		c-1.97-5.17-3.2-10.42-3.83-15.7c-0.05-0.42-0.1-0.84-0.14-1.26C199.9,46.55,239.34,0,239.34,0H0.15v1458.98
		c1.71-5.36,19.81-54.41,117.07-86.18c34.49-11.26,78.93-20.35,136.13-24.56c228-16.76,210.57-231.75,210.57-231.75
		c-2.25-17.53,5.6-37.48,14.75-53.94c5.08-9.14,10.56-17.2,14.94-23.17c4.08-5.56,7.19-9.31,8.13-10.42
		c0.14-0.16,0.23-0.27,0.27-0.32c0.02-0.02,0.03-0.03,0.03-0.03c91.1-100.68,157.55-73.27,182.83-118.62
		C692.57,896.19,690.37,876.1,683.16,854.27z M44.13,359.86l89.51,3.92l-21.28,17.16l-0.9,15.48l-10.87-5.84l-16.01,12.57
		l-40.71-43.31L44.13,359.86z M44.89,447.6c-2.86-2.95-9.68-19.55-3.25-24.83c6.43-5.28,12.98,10.58,12.98,10.58s1.92-7.92,3.49-7.3
		c1.57,0.63,0.58,3.17-0.46,16.07c-1.05,12.91,1.62,27.17,12.2,45.39c10.58,18.22,30.81,18.9,30.81,18.9
		c6.04,0.15,36.04-3.88,37.21-4.03c0.16-0.59,1.86-7.43-0.39-12.46c-0.76,0.23-1.54,0.44-2.35,0.65
		c-24.77,6.45-18.84-43.12-18.84-43.12s-10.46-1.92-8.72-5.43c1.74-3.51,7.32-5.77,7.32-5.77s-9.65-2.83-9.18-5.77
		c0.26-1.62,7.48-3.99,15.67-5.75c6.7-1.43,14.04-2.44,18.74-2.29c10.47,0.34,23.26,9.85,23.26,9.85s1.74-5.32,3.95-6
		c2.21-0.68-0.7,7.69-0.7,7.69s4.07-1.03,3.72,0.96c-0.34,1.99-4.3,5.04-4.3,5.04c19.91,3.76,43.07,4.18,68.04-2.81
		c-0.45-6.84-1.92-9.95-1.92-9.95s-8.84-14.78-6.98-16.14c1.86-1.36,5.73,4.22,5.73,4.22s0.63-14.63,6.67-14.03
		c6.05,0.6,8.37,11.47,7.44,19.16c-0.23,1.91,0.02,6.79,0.21,13.28c0.56,19.68,0.61,54.1-14.78,64.89
		c-18.27,12.8-19.69,13.68-19.79,13.72c0,0.01,0,0.01,0,0.01c1.04,1.74,1.82,3.26,2.12,4.38c1.39,5.28-18.61,12.82-18.61,12.82
		s20.2,61.19,18.33,121.18c0,0-1.72-0.15-4.5-0.27c4.09,52.18,30.53,93.69,45.34,116.88c6.85,10.71,11.21,17.51,9.74,19.65
		c-0.38,0.56-0.84,1.1-1.35,1.62l5.77,7.43l7.44,10.87c0,0-11.41,11.25-21.6,17.84c-7.8,5.05-14.9,7.37-15.6-0.19
		c-0.86-9.22,7.52-16.67,15.6-21.63v-2.02l-4.12-5.16c-2.98,1.09-5.21,1.65-5.21,1.65s-45.81-44.37-61.62-86.24
		c-15.81-41.88-24.88-41.88-24.88-41.88c-17.67,49.8-0.93,150.07-8.6,151.66c-0.8,0.16-1.69,0.29-2.64,0.39v23.15
		c0,0-46.51,11.32-39.53-2.11c3.76-7.25,14.97-10.5,24.49-11.95v-9.01c-3.77-0.21-6.51-0.47-6.51-0.47s-15.91-89.57-6.16-167.67
		c0.26-2.03,0.53-4.05,0.81-6.05c0,0,1.86-88.51-2.2-106.61c0,0-13.73-4.08-16.75-6.68c-0.94-0.81-1.27-3.77-1.28-7.47
		c-55.35-12.22-51.74-73-51.74-73S47.76,450.54,44.89,447.6z"/>
	<path class="st25" d="M0,1459.46L0.15,0v1458.98C0.04,1459.3,0,1459.46,0,1459.46z"/>
	<path class="st25" d="M47.41,453.44c0,0,0.35-2.9-2.52-5.84c-2.86-2.95-9.68-19.55-3.25-24.83c6.43-5.28,12.98,10.58,12.98,10.58
		s1.92-7.92,3.49-7.3c1.57,0.63,0.58,3.17-0.46,16.07c-1.05,12.91,1.62,27.17,12.2,45.39c10.58,18.22,30.81,18.9,30.81,18.9
		c6.04,0.15,36.04-3.88,37.21-4.03c0.16-0.59,1.86-7.43-0.39-12.46c-0.76,0.23-1.54,0.44-2.35,0.65
		c-24.77,6.45-18.84-43.12-18.84-43.12s-10.46-1.92-8.72-5.43c1.74-3.51,7.32-5.77,7.32-5.77s-9.65-2.83-9.18-5.77
		c0.26-1.62,7.48-3.99,15.67-5.75c6.7-1.43,14.04-2.44,18.74-2.29c10.47,0.34,23.26,9.85,23.26,9.85s1.74-5.32,3.95-6
		c2.21-0.68-0.7,7.69-0.7,7.69s4.07-1.03,3.72,0.96c-0.34,1.99-4.3,5.04-4.3,5.04c19.91,3.76,43.07,4.18,68.04-2.81
		c-0.45-6.84-1.92-9.95-1.92-9.95s-8.84-14.78-6.98-16.14c1.86-1.36,5.73,4.22,5.73,4.22s0.63-14.63,6.67-14.03
		c6.05,0.6,8.37,11.47,7.44,19.16c-0.23,1.91,0.02,6.79,0.21,13.28c0.56,19.68,0.61,54.1-14.78,64.89
		c-18.27,12.8-19.69,13.68-19.79,13.72c0,0.01,0,0.01,0,0.01c1.04,1.74,1.82,3.26,2.12,4.38c1.39,5.28-18.61,12.82-18.61,12.82
		s20.2,61.19,18.33,121.18c0,0-1.72-0.15-4.5-0.27c4.09,52.18,30.53,93.69,45.34,116.88c6.85,10.71,11.21,17.51,9.74,19.65
		c-0.38,0.56-0.84,1.1-1.35,1.62l5.77,7.43l7.44,10.87c0,0-11.41,11.25-21.6,17.84c-7.8,5.05-14.9,7.37-15.6-0.19
		c-0.86-9.22,7.52-16.67,15.6-21.63v-2.02l-4.12-5.16c-2.98,1.09-5.21,1.65-5.21,1.65s-45.81-44.37-61.62-86.24
		c-15.81-41.88-24.88-41.88-24.88-41.88c-17.67,49.8-0.93,150.07-8.6,151.66c-0.8,0.16-1.69,0.29-2.64,0.39v23.15
		c0,0-46.51,11.32-39.53-2.11c3.76-7.25,14.97-10.5,24.49-11.95v-9.01c-3.77-0.21-6.51-0.47-6.51-0.47s-15.91-89.57-6.16-167.67
		c0.26-2.03,0.53-4.05,0.81-6.05c0,0,1.86-88.51-2.2-106.61c0,0-13.73-4.08-16.75-6.68c-0.94-0.81-1.27-3.77-1.28-7.47
		C43.8,514.22,47.41,453.44,47.41,453.44z"/>
	<polygon class="st25" points="84.58,403.15 43.87,359.84 44.13,359.86 133.64,363.78 112.36,380.94 111.46,396.42 100.59,390.58 	
		"/>
	<path class="st25" d="M272.02,613.01l-14.16-47.31h30.08c0.55-1.09,1.03-2.02,1.41-2.78c6.84-13.65,41.56-16.26,41.56-16.26
		s0.09-1.7,0.12-4.02c-1.57,0.03-3.17-0.06-4.79-0.31c-20.75-3.09-14.14-43.22-13.21-48.3c0,0-14.48,1.92-12.26-7.07
		c2.22-8.99,8.04-12.23,14.36-10.91c6.33,1.34-0.05-7.4,11.07-6.41c11.11,1.01,17.36,1.26,23.65-0.07
		c6.29-1.33,4.27,2.98,13.68,5.15c9.4,2.16,16.76,8.52,15.39,19.32c-1.37,10.81,6.77,2.16,2.59,17.69
		c-0.27,0.99-3.4,9.71-7.83,11.38c-4.44,1.66-0.35,4.68-7.19,5.93c-3.83,0.7-6.4-0.89-6.4-0.89c-1.83,1.82-4.14,3.93-6.86,5.96
		c-0.06,0.05-0.12,0.09-0.18,0.13c-0.36,0.27-0.74,0.55-1.13,0.81v0.01c-0.38,1.05-0.63,2.36-0.8,3.73c-0.45,3.8-0.2,7.98-0.2,7.98
		s0,0,0.01,0.01c0.52,0.25,20.68,10.4,35.97,23.73c11,9.6,34.25-19.65,34.25-19.65s0.01,0,0.02,0c-0.04-3.48-0.01-14.68,2.1-19.62
		c0.31-0.71,0.66-1.29,1.06-1.7c3.7-3.76,3.03,8.42,3.03,8.42s3.51-5.33,7.67-8.13c0.83-0.56,1.68-1.02,2.54-1.31
		c2.69-0.93,5.42-0.27,7.51,3.9c3.29,6.58,0.09,10.99-4.3,14.64c-0.01,0.01-0.02,0.01-0.03,0.02c-2.9,2.4-6.31,4.48-8.69,6.65
		c-0.09,0.09-0.19,0.18-0.28,0.27c0.29,0.19,0.59,0.39,0.89,0.59c7.45,5.13-21.41,37.39-38.98,45.6
		c-9.02,4.21-23.55-2.05-23.55-2.05s2.6,25.72,6.15,44.55h113.64c0.39-0.88,0.64-1.38,0.64-1.38s8.38-44.69,26.32-62.68
		c-1-1.59-1.53-2.6-1.53-2.6c5.82-11.1,12.61-18.77,19.3-24.07c4.14,33.75,13.26,66.01,26.63,96.06
		c12.3,27.65,28.2,53.42,47.12,76.76c0.34,26.77-1.51,61.6-7.79,95.94c0,0-2.38,0.23-5.75,0.41v8.9
		c10.84,1.08,23.55,3.8,25.23,10.61c2.99,12.15-41.05,4.7-41.05,4.7v-24.31c-0.76-0.08-1.47-0.18-2.14-0.31
		c0,0-4.28-57.96-18.84-94.46c-3.5,6.53-12.61,15.23-23.92,24.22c-28.1,22.33-69.79,46.43-72.78,43.52
		c-0.63-0.6-1.21-1.33-1.74-2.13c-0.14,0.02-0.28,0.04-0.43,0.06l-4.57,3.37c6.87,8.97,15.71,22.97,9.86,29.41
		c-8.99,9.88-28.45-27.69-28.45-27.69l4.07-3.41c-0.56,0.03-1.07,0.06-1.52,0.08c-1.35,0-2.12,0-2.65-0.87l-3.08-10.48l-0.91-3.61
		c-0.86-0.07-1.34-0.15-1.34-0.15c-2.2-5.41-5.5-13.13-9.14-21.59c-6.94-16.12-15.13-34.95-19.32-45.7h-3.01
		c-1.56,21.27-8.72,70.52-8.72,70.52c-2.3,0.84-4.65,1.32-6.91,1.57v5.48c8.03,1.28,17.37,3.19,22.73,5.8
		c0.93,0.45,1.74,0.92,2.4,1.42c0.76,0.55,1.33,1.15,1.67,1.77c3.99,7.46-41.79,4.94-43.28,4.84c-1.5-0.09,1.55-15.73,1.55-15.73
		s0.03,0.01,0.1,0.01c0.11,0.01,0.29,0.03,0.54,0.06c-0.14-0.03-0.24-0.05-0.31-0.06l-0.09-4.79c-0.84-0.21-1.31-0.37-1.31-0.37
		s-0.69-27.3,1.36-53.93c0.59-7.66,0.08-12.95-1.7-16.59h-70.85v-12.33h13.14c-1.76-1.23-3.25-2.63-4.49-4.11h-8.46l-11.43-38.18
		h-54.41c-2.21,0-4-1.79-4-4v-5.98c0-2.21,1.79-4,4-4h50.23l-4.41-14.74c-0.01,0-0.01,0-0.01-0.01
		C273.06,624.28,271.85,619.01,272.02,613.01z"/>
	<path class="st25" d="M509.36,471.25c0.64-15.99,15.19-16.47,26.74-12.59c-1.4,9.06-2.43,18.23-3.09,27.51
		C523.93,488.04,508.71,487.77,509.36,471.25z"/>
	<path class="st25" d="M683.16,854.27c-344.53-0.04-620.54-1.14-620.54-2.47s275.1-2.41,618.84-2.45
		C682.06,851,682.62,852.64,683.16,854.27z"/>
	<path class="st26" d="M1152.08,1262.16c-50.56,2.26-93.33,14.39-131.03,33.35c-3.9-20.09-11.77-39.99-21.78-58.89
		c-37.47-70.78-104.81-127.56-104.81-127.56c-17.19-13.49-32.77-31.19-44.62-46.42c-7.1-9.12-12.85-17.35-16.81-23.26
		c-3.64-5.44-5.75-8.92-5.99-9.3c0-0.01-0.01-0.01-0.01-0.02c-0.01-0.01-0.01-0.01-0.01-0.01c-0.25-0.49-0.49-0.98-0.74-1.46
		c-0.31-0.63-0.63-1.26-0.94-1.9c-0.15-0.29-0.3-0.6-0.44-0.9c-0.31-0.63-0.62-1.26-0.93-1.92c-0.31-0.64-0.62-1.29-0.92-1.95
		c-0.33-0.7-0.66-1.4-0.98-2.12c-0.33-0.71-0.66-1.44-0.98-2.17c-0.16-0.36-0.32-0.73-0.48-1.09c-0.16-0.37-0.32-0.74-0.48-1.11
		c-0.33-0.73-0.64-1.48-0.95-2.23c-0.32-0.75-0.63-1.5-0.94-2.27c-0.31-0.76-0.62-1.53-0.92-2.3c-0.31-0.77-0.61-1.54-0.9-2.32
		c-0.3-0.77-0.59-1.56-0.88-2.35c-0.58-1.58-1.15-3.17-1.69-4.78c-0.41-1.21-0.81-2.42-1.2-3.65c-0.13-0.42-0.26-0.83-0.39-1.25
		c-0.15-0.47-0.29-0.94-0.44-1.42c-0.1-0.34-0.2-0.68-0.3-1.03c-0.24-0.83-0.48-1.65-0.71-2.48c-0.23-0.84-0.46-1.68-0.68-2.51
		c-0.22-0.84-0.43-1.68-0.64-2.52c-0.21-0.84-0.41-1.69-0.6-2.53c-0.19-0.85-0.38-1.71-0.56-2.55c-0.14-0.64-0.27-1.26-0.39-1.89
		c-0.12-0.64-0.24-1.27-0.36-1.9c-0.12-0.66-0.23-1.33-0.35-2c-0.11-0.64-0.22-1.29-0.31-1.93c-0.07-0.38-0.12-0.75-0.17-1.13
		c-0.05-0.37-0.11-0.75-0.16-1.13c-0.07-0.57-0.15-1.13-0.22-1.7c-0.13-1.12-0.26-2.26-0.37-3.39c-0.06-0.57-0.11-1.13-0.15-1.71
		c-0.09-1.11-0.16-2.22-0.23-3.32c0.01-0.01,0.01-0.01,0-0.02c-0.06-1.11-0.11-2.23-0.13-3.34c0.01-0.05,0.01-0.09,0-0.13
		c-0.02-0.9-0.02-1.8-0.02-2.7c0.01-1.3,0.03-2.6,0.08-3.9c0.01-0.06,0.01-0.12,0.01-0.17c0.01-0.17,0.02-0.33,0.02-0.48
		c0-0.08,0.01-0.15,0.01-0.23c0.03-0.61,0.06-1.21,0.11-1.83c0.06-0.75,0.12-1.51,0.19-2.27c0.13-1.41,0.29-2.83,0.49-4.23
		c0.03-0.2,0.06-0.41,0.09-0.61c0.04-0.33,0.09-0.66,0.15-0.98c0.05-0.33,0.1-0.66,0.16-0.99c0.03-0.21,0.07-0.42,0.11-0.63
		c0.09-0.54,0.19-1.08,0.3-1.62c0.09-0.45,0.18-0.9,0.28-1.35c0.09-0.42,0.18-0.84,0.28-1.25c0.02-0.06,0.03-0.13,0.04-0.19
		c0.01-0.04,0.02-0.08,0.03-0.12c0.09-0.38,0.18-0.76,0.28-1.13c0.22-0.9,0.46-1.8,0.72-2.69c0.1-0.36,0.21-0.72,0.32-1.09
		c0.05-0.16,0.09-0.31,0.15-0.48c0.11-0.36,0.22-0.73,0.34-1.09c0.14-0.44,0.29-0.88,0.44-1.32c0.18-0.5,0.35-1,0.54-1.5
		c0.06-0.18,0.13-0.36,0.2-0.54c0.13-0.36,0.27-0.72,0.41-1.08c0.28-0.71,0.57-1.42,0.87-2.12c0.5-1.15,1.02-2.3,1.57-3.44
		c1.39-2.84,2.98-5.64,4.79-8.39c0.72-1.1,1.47-2.19,2.26-3.26c1.58-2.16,3.3-4.27,5.17-6.33c11.12-12.3,14.53-26.5,12.86-41.36
		c-0.08-0.69-0.16-1.37-0.26-2.06c-0.23-1.61-0.52-3.22-0.85-4.83c-0.12-0.53-0.23-1.07-0.36-1.6c-0.06-0.29-0.13-0.59-0.21-0.89
		c-0.29-1.18-0.6-2.36-0.94-3.54c-0.1-0.36-0.21-0.71-0.31-1.07c-0.14-0.44-0.27-0.87-0.41-1.31c-0.08-0.26-0.17-0.53-0.26-0.8
		c-0.17-0.53-0.34-1.05-0.52-1.57c-0.25-0.71-0.5-1.41-0.76-2.12s-0.53-1.42-0.81-2.13c-0.22-0.57-0.45-1.14-0.68-1.7
		c-0.16-0.4-0.33-0.79-0.5-1.19c-0.5-1.19-1.03-2.38-1.58-3.57c-0.12-0.28-0.25-0.55-0.38-0.83c-1.17-2.5-2.43-5-3.78-7.48
		c-0.2-0.38-0.41-0.77-0.62-1.15c-1.74-3.16-3.61-6.31-5.58-9.43c-0.49-0.77-0.99-1.55-1.49-2.32c-0.96-1.48-1.95-2.96-2.96-4.43
		c-0.95-1.39-1.92-2.77-2.91-4.14c-0.41-0.58-0.83-1.16-1.25-1.73c-1.57-2.16-3.19-4.3-4.83-6.41c-0.51-0.67-1.03-1.33-1.56-1.99
		c-1.57-1.99-3.16-3.95-4.77-5.89l-0.01-0.01c-9.03-10.85-18.5-20.8-27.09-29.24c-0.5-0.49-1-0.97-1.49-1.44
		c-6.55-6.37-12.53-11.81-17.33-16.03c-6.83-5.99-11.28-9.54-11.6-9.79c-0.01-0.01-0.02-0.02-0.02-0.02
		c-2.53-1.31-5.03-2.66-7.51-4.05c-1.22-0.69-2.43-1.38-3.63-2.09c-1.49-0.87-2.98-1.75-4.45-2.66c-0.93-0.57-1.86-1.14-2.78-1.73
		c-1.19-0.75-2.38-1.51-3.55-2.28c-1.18-0.77-2.35-1.55-3.51-2.33c-1.16-0.79-2.32-1.59-3.47-2.4c-1.15-0.8-2.29-1.62-3.42-2.45
		c-1.13-0.82-2.26-1.66-3.38-2.5c-1.1-0.83-2.19-1.67-3.28-2.52c-0.07-0.05-0.14-0.1-0.2-0.16c-1.01-0.79-2.01-1.58-3.01-2.39
		c-0.21-0.16-0.42-0.33-0.63-0.51c-0.89-0.72-1.78-1.45-2.66-2.19c-0.08-0.06-0.16-0.13-0.25-0.22c-0.98-0.81-1.95-1.63-2.91-2.46
		c-0.14-0.13-0.29-0.25-0.43-0.39c-0.92-0.79-1.84-1.6-2.74-2.41c-0.08-0.07-0.17-0.14-0.26-0.24c-0.89-0.78-1.77-1.59-2.64-2.39
		c-0.3-0.27-0.6-0.55-0.9-0.85c-0.81-0.73-1.62-1.5-2.42-2.28c-0.97-0.92-1.92-1.85-2.87-2.79c-0.1-0.09-0.2-0.19-0.3-0.29
		c-0.93-0.93-1.86-1.86-2.77-2.8c-0.98-1-1.94-2-2.89-3.02c-0.96-1.01-1.91-2.03-2.84-3.06c-0.94-1.03-1.87-2.06-2.79-3.11
		c-0.91-1.02-1.8-2.06-2.69-3.1c-0.04-0.04-0.08-0.09-0.1-0.13c-0.85-0.99-1.68-1.98-2.49-2.97c-0.1-0.11-0.19-0.21-0.27-0.32
		c-0.84-1.02-1.67-2.05-2.49-3.08c-0.86-1.09-1.72-2.19-2.57-3.29c-0.84-1.1-1.68-2.22-2.51-3.33c-0.83-1.12-1.64-2.25-2.45-3.38
		s-1.61-2.27-2.4-3.42c-0.79-1.14-1.57-2.3-2.34-3.46c-0.77-1.16-1.53-2.33-2.28-3.5c-0.75-1.17-1.49-2.35-2.22-3.53v-0.01
		c-0.57-0.92-1.13-1.85-1.69-2.79c-0.53-0.87-1.04-1.75-1.56-2.64c-0.18-0.29-0.35-0.59-0.52-0.9c-0.4-0.7-0.8-1.4-1.19-2.1
		c-0.54-0.95-1.07-1.9-1.58-2.86c-0.3-0.54-0.59-1.08-0.87-1.62c-0.39-0.71-0.76-1.42-1.13-2.13c-0.25-0.48-0.5-0.97-0.75-1.46
		c-0.23-0.43-0.45-0.87-0.67-1.31c-0.35-0.69-0.7-1.39-1.04-2.09c-0.5-1.02-1-2.05-1.49-3.08c-0.59-1.24-1.17-2.48-1.73-3.74
		c-0.55-1.19-1.08-2.4-1.6-3.6c-0.06-0.13-0.11-0.25-0.16-0.37c-0.42-0.98-0.84-1.95-1.24-2.94c-1.03-2.46-2.01-4.94-2.95-7.44
		c-0.36-0.95-0.71-1.89-1.05-2.84c-0.06-0.16-0.12-0.33-0.17-0.49c-0.29-0.8-0.58-1.59-0.85-2.39c-0.06-0.16-0.12-0.32-0.16-0.48
		h-0.01c-0.12-0.34-0.24-0.69-0.35-1.03c-0.26-0.77-0.52-1.54-0.77-2.31c-0.16-0.46-0.31-0.93-0.45-1.39
		c-0.25-0.76-0.5-1.53-0.74-2.31c-0.22-0.7-0.44-1.41-0.64-2.12c-0.18-0.57-0.35-1.14-0.51-1.71c-0.36-1.2-0.7-2.41-1.03-3.62
		c-0.21-0.74-0.41-1.5-0.6-2.25c-0.21-0.77-0.42-1.54-0.61-2.32c-0.33-1.29-0.65-2.59-0.95-3.89c-0.61-2.6-1.18-5.21-1.71-7.84
		v-0.01c-0.25-1.23-0.49-2.46-0.71-3.7c-0.08-0.42-0.15-0.83-0.22-1.24c-0.15-0.79-0.29-1.58-0.41-2.38
		c-0.26-1.53-0.5-3.06-0.73-4.59c-0.12-0.84-0.24-1.69-0.35-2.54c-0.04-0.25-0.08-0.5-0.1-0.74c-0.1-0.73-0.2-1.47-0.29-2.2
		c-0.07-0.5-0.13-1-0.18-1.5c-0.19-1.67-0.37-3.34-0.53-5.01c-0.07-0.76-0.14-1.51-0.21-2.27c-0.06-0.62-0.11-1.25-0.15-1.88
		c-0.04-0.51-0.08-1.02-0.12-1.52c-0.03-0.43-0.06-0.87-0.09-1.3c-0.05-0.71-0.09-1.42-0.13-2.13c-0.04-0.59-0.07-1.18-0.09-1.76
		c-0.07-1.25-0.13-2.51-0.16-3.77c-0.05-1.12-0.08-2.25-0.1-3.37c-0.01-0.4-0.02-0.8-0.02-1.21c-0.02-1.23-0.03-2.46-0.03-3.69
		c0-0.95,0.01-1.9,0.02-2.84v-0.19c0.02-2.05,0.08-4.08,0.16-6.11c0.02-0.69,0.05-1.38,0.09-2.06c0.03-0.83,0.07-1.66,0.12-2.48
		c0.01-0.15,0.02-0.29,0.03-0.44c0.03-0.64,0.07-1.28,0.12-1.91c0.02-0.47,0.06-0.93,0.09-1.39c0.05-0.64,0.1-1.28,0.15-1.91
		c0.23-2.83,0.5-5.64,0.83-8.44v-0.01c0.12-1.04,0.25-2.08,0.39-3.11c0.13-0.99,0.26-1.97,0.4-2.96c0.02-0.13,0.04-0.26,0.06-0.38
		c0.13-0.95,0.28-1.91,0.43-2.86c0.16-1.03,0.33-2.06,0.51-3.08c0.13-0.76,0.26-1.51,0.39-2.26c0.01-0.06,0.02-0.12,0.03-0.17
		c0.14-0.76,0.29-1.51,0.43-2.27c0.3-1.56,0.61-3.11,0.94-4.67c0.32-1.52,0.66-3.04,1.01-4.55c0.18-0.79,0.37-1.59,0.57-2.38
		c0.38-1.54,0.77-3.07,1.17-4.59c0.2-0.76,0.41-1.52,0.62-2.28c0.21-0.76,0.42-1.51,0.64-2.27c0.21-0.76,0.43-1.51,0.66-2.26
		c0.22-0.75,0.45-1.5,0.68-2.25c0.46-1.5,0.94-2.99,1.43-4.48c0.24-0.74,0.49-1.48,0.75-2.22c0.25-0.74,0.51-1.48,0.77-2.22
		c0.26-0.74,0.52-1.47,0.79-2.21c0.26-0.73,0.53-1.46,0.81-2.19c0.27-0.73,0.54-1.46,0.83-2.19c0.28-0.73,0.56-1.45,0.85-2.17
		c0.55-1.39,1.12-2.77,1.69-4.15c1.26-3,2.58-5.98,3.97-8.93c0.29-0.62,0.59-1.25,0.89-1.87c0.33-0.7,0.67-1.4,1.01-2.09
		c0.34-0.7,0.69-1.39,1.04-2.09c1.04-2.07,2.11-4.13,3.22-6.17c0.37-0.69,0.74-1.36,1.11-2.04s0.75-1.35,1.13-2.03
		c1-1.75,2.01-3.49,3.04-5.22c1.34-2.25,2.73-4.48,4.15-6.68c0.83-1.3,1.68-2.59,2.55-3.87c0.43-0.64,0.86-1.28,1.3-1.92
		c3.48-5.09,7.16-10.05,11.03-14.86c0.48-0.6,0.97-1.2,1.46-1.8c1.95-2.39,3.94-4.74,6-7.05c0.51-0.58,1.02-1.16,1.54-1.73
		c0.21-0.25,0.44-0.5,0.66-0.74c0.33-0.37,0.67-0.74,1.01-1.1c1.8-1.97,3.63-3.9,5.51-5.81c0.57-0.59,1.15-1.17,1.73-1.75
		c8.64-8.65,17.93-16.67,27.81-23.99c0.68-0.51,1.37-1.02,2.06-1.52c1.44-1.04,2.89-2.07,4.36-3.09c0.43-0.3,0.86-0.6,1.3-0.89
		c4.19-2.87,8.47-5.62,12.85-8.24c0.67-0.4,1.34-0.8,2.02-1.2c3.37-1.98,6.8-3.88,10.27-5.7c0.69-0.36,1.37-0.72,2.06-1.07
		c0.02-0.02,0.04-0.03,0.06-0.03c0.61-0.32,1.22-0.63,1.83-0.94c0.52-0.25,1.04-0.51,1.56-0.77c0.52-0.26,1.05-0.52,1.58-0.78
		c0.45-0.21,0.9-0.43,1.35-0.64c0.71-0.34,1.42-0.68,2.13-1.01c1.13-0.53,2.27-1.05,3.41-1.56c0.4-0.18,0.8-0.36,1.21-0.54
		c0.81-0.36,1.63-0.72,2.45-1.07c1.78-0.77,3.57-1.51,5.37-2.23c0.69-0.29,1.39-0.56,2.08-0.83c0.83-0.33,1.67-0.65,2.51-0.97
		c0.35-0.14,0.71-0.27,1.06-0.4c0.55-0.21,1.09-0.41,1.64-0.61c2.48-0.91,4.97-1.78,7.47-2.61c0.86-0.29,1.72-0.57,2.58-0.84
		c0.56-0.18,1.13-0.36,1.69-0.54c0.52-0.16,1.05-0.33,1.58-0.49c0.64-0.19,1.28-0.38,1.91-0.57c0.68-0.2,1.36-0.4,2.04-0.6
		c4.56-1.31,9.17-2.5,13.84-3.56c0.88-0.2,1.76-0.39,2.65-0.58c0.89-0.2,1.79-0.39,2.69-0.57c0.8-0.17,1.6-0.33,2.41-0.48
		c1-0.2,2-0.39,3-0.57c0,0,4.9,0.1,13.89-2.14c17.87-4.43,51.91-18.04,95.7-59.72c0.76-0.72,1.5-1.44,2.22-2.17
		c10.87-10.83,18.01-21.76,22.38-32.42C991.48,80.19,917.81,0,917.81,0h194.17c0,0,114.26,67.56,65.84,146.78
		c-29.91,48.94-117,45.87-132.82,68.04c-14.76,20.67-14.14,49.1-4.08,80.53c4.86,15.21-1.1,26.51-13.1,34.9
		c-39.39,27.56-143.83,23.73-143.83,23.73c-7.85-1.13-15.87-1.71-24.04-1.71c-89.84,0-162.68,70.89-162.68,158.34
		c0,55.69,29.54,104.66,74.2,132.9c4.62,2.92,9.41,5.62,14.34,8.08c0,0,0.01,0,0.01,0.01c2.21,1.1,4.43,2.15,6.7,3.15
		c2.36,1.05,4.77,2.05,7.2,2.99c0.42,0.17,0.84,0.33,1.26,0.48c0,0,0.03,0.01,0.08,0.03c5.95,2.26,12.06,4.17,18.32,5.74
		c3.16,1.08,6.66,2.32,10.46,3.72c0.04,0.02,0.1,0.04,0.15,0.06c6.42,2.39,13.68,5.23,21.51,8.57c2.26,0.96,4.56,1.97,6.91,3.01
		h0.01c6.55,2.92,13.43,6.16,20.51,9.73c7.06,3.57,14.31,7.47,21.62,11.71c6.72,3.88,13.5,8.07,20.23,12.56
		c7.49,4.98,14.92,10.34,22.17,16.09c0,0.01,0,0.01,0,0.01h0.01c3.06,2.43,6.09,4.93,9.07,7.49h0.01
		c26.59,22.89,49.62,51.32,61.72,85.99c2.97,8.53,5.29,17.43,6.83,26.73c0.24,1.42,0.46,2.84,0.65,4.28
		c0.68,4.85,1.15,9.81,1.39,14.87c7.31,153.77,179.92,75.46,282.32,92.54c67.57,11.28,104.57,51.79,121.91,78.03
		c7.97,12.05,11.79,21.09,12.52,22.92c-0.9,0.11-1.79,0.23-2.69,0.34h2.83c0,0-0.04-0.1-0.13-0.32
		C1440.8,1064.43,1560.08,1243.98,1152.08,1262.16z"/>
	<path class="st27" d="M1344.29,851.8c0,0.92-130.05,1.72-323.05,2.14c-56.14,0.13-117.62,0.22-182.76,0.28
		c-43.53,0.03-88.71,0.05-135.03,0.05h-20.29c-344.53-0.04-620.54-1.14-620.54-2.47s275.1-2.41,618.84-2.45
		c7.3-0.01,14.63-0.01,21.99-0.01c46.02,0,90.91,0.02,134.18,0.05c65.21,0.06,126.75,0.15,182.96,0.27
		c77.75,0.17,145.31,0.4,198.31,0.68c6.27,0.03,12.34,0.06,18.2,0.1C1304.82,850.83,1344.29,851.3,1344.29,851.8z"/>
	<g class="st21">
		<line class="st22" x1="1168.8" y1="441.42" x2="1168.7" y2="441.44"/>
		<line class="st28" x1="1160.81" y1="443.04" x2="824.96" y2="511.3"/>
		<line class="st22" x1="821.01" y1="512.11" x2="820.91" y2="512.13"/>
	</g>
	<g class="st21">
		<line class="st22" x1="1171.67" y1="445.16" x2="1171.58" y2="445.18"/>
		<line class="st29" x1="1163.67" y1="446.79" x2="827.05" y2="515.21"/>
		<line class="st22" x1="823.09" y1="516.01" x2="822.99" y2="516.03"/>
	</g>
	<line class="st30" x1="754.24" y1="655.27" x2="754.24" y2="846.87"/>
	<path class="st31" d="M859.45,678.66c-1.22,0.87-2.6,1.65-4.1,2.36c0.59,0.94,1.05,1.91,1.33,2.86c0.88,3-0.08,5.92-5.01,7.88
		c-7.79,3.12-12.62-0.67-16.5-5.7c-14.95,1.81-29.85,0.87-29.85,0.87c0.64,2.92,1.79,6.39,3.85,9.69h-9.88l-11.63-38.87l-4.26-14.23
		l-23.46-78.38h81.9l4.33,14.46l5.31,17.75l1.35,4.49v0.01l1.11,3.72l0.2,0.67l11.16,37.27l4.26,14.23l4.03,13.47
		C869.7,672.68,865.04,674.68,859.45,678.66z"/>
	<path class="st31" d="M872.61,713.35h-73.52v-12.56h13.32c4.54,4.7,11.68,8.26,22.9,8.03
		C855.05,708.39,866.95,707.45,872.61,713.35z"/>
	<path class="st32" d="M907.39,713.35c0.13-2.35,0.15-4.18,0.05-5.33c0.11,0.86,0.35,2.72,0.68,5.33H907.39z"/>
	<line class="st33" x1="810.85" y1="713.35" x2="790.07" y2="846.87"/>
	<line class="st33" x1="861" y1="713.35" x2="871" y2="846.87"/>
	<polyline class="st33" points="931.55,790.61 932.67,797.39 934.96,811.31 940.82,846.87 	"/>
	<path class="st11" d="M864.21,540.73c-2.07,0.31-4.11,0.38-6.09,0.26c-8.24-0.48-15.56-4.32-21.2-8.5
		c-0.06-0.04-0.12-0.09-0.18-0.13c-7.22-5.4-11.64-11.29-11.64-11.29s-9.55,0.26-11.81-3.3c-0.74-1.15-0.49-2.56,0.38-3.88
		c1.82-2.75,6.38-5.09,10.5-3.83c0,0,9.66-9.07,7.66-17.8c0,0,11.31,5.93,19.15,5.17c7.83-0.76,11.66-3.67,9.48-6.41
		c-1.49-1.87,8.92-0.03,17.19,0.54C878.6,496.73,885.33,537.58,864.21,540.73z"/>
	<path class="st12" d="M886.4,491.03c-1.52,0.79-4.9,0.81-8.75,0.54c-8.27-0.56-18.68-2.41-17.19-0.54
		c2.18,2.74-1.65,5.65-9.48,6.41c-7.84,0.76-19.15-5.17-19.15-5.17c2,8.73-7.66,17.8-7.66,17.8c-4.12-1.26-8.68,1.07-10.5,3.83
		c-7.59-4.93-4.01-7.5-5.4-17.44c-1.4-9.94,6.61-4.07,3.59-14.35c-3.02-10.28,14.74-11.18,14.74-11.18s6.61-5.2,31.56-8.02
		c24.96-2.82,27.19,7.34,24.41,9.97c-2.78,2.62-0.27,3.56-0.27,3.56C889.45,479.98,891.19,488.54,886.4,491.03z"/>
	<path class="st8" d="M877.65,491.56c-0.06-0.35-0.1-0.54-0.1-0.54"/>
	<path class="st7" d="M835.17,686.05c-14.95,1.81-29.85,0.87-29.85,0.87c-0.91-4.07-0.82-7.08-0.82-7.08l-1.25-13.24
		c4.68,3.95,10.29,7.52,16.99,10.6c0.51,0.23,1.04,0.47,1.57,0.7c0.32,0.14,0.65,0.27,0.97,0.42c0,0,0.3-0.32,0.8-0.91
		c0.63-0.73,1.56-1.88,2.58-3.3c0.67,0.55,1.32,1.23,1.96,1.99c2.33,2.74,4.47,6.6,7.03,9.92
		C835.16,686.03,835.16,686.04,835.17,686.05z"/>
	<path class="st7" d="M943.07,623.09c0,0-22.15-5.36-41.62-31.56c-0.14-0.18-0.28-0.36-0.41-0.55c-0.74-1.01-1.48-2.04-2.21-3.11
		v-0.01c-0.75-1.09-1.48-2.21-2.21-3.36c-0.78-1.23-1.54-2.48-2.3-3.79c-5.55-9.53-10.72-16.25-15.33-20.96
		c-12.57-12.89-20.87-10.89-20.87-10.89s-3.48,9.43-20.37-0.12c0,0-35.06,2.64-42.22,16.38c-0.03,0.06-0.06,0.11-0.09,0.17
		c-1.49,2.98-4.06,8.61-6.54,15.9c0,0-0.01,0.01-0.01,0.02c-0.42,1.23-0.84,2.51-1.25,3.84c-0.07,0.22-0.14,0.46-0.21,0.7
		c-4.88,16.07-8.43,38.14-0.8,57.75c1.92,4.94,4.56,9.73,8.07,14.23c2.41,3.11,5.25,6.08,8.55,8.87c4.68,3.95,10.29,7.52,16.99,10.6
		c0.51,0.23,1.04,0.47,1.57,0.7c0.05-0.01,0.1-0.03,0.16-0.04c0.42-0.12,0.85-0.23,1.29-0.36c0.1-0.03,0.21-0.06,0.32-0.09
		c0.63-0.73,1.56-1.88,2.58-3.3c0.21-0.29,0.42-0.6,0.64-0.92c0.02-0.03,0.05-0.07,0.08-0.11c1.58-2.38,3.22-5.36,4.04-8.44
		c0-0.01,0-0.01,0-0.02c0.03-0.07,0.04-0.14,0.06-0.2c0,0,17.01,0.55,23.58,3.7c0.8,0.39,1.44,0.81,1.87,1.28
		c4.06,4.29-9.86,2.72-9.86,2.72s5.86,4.18,8.78,8.9c1.5-0.7,2.88-1.49,4.1-2.36c5.59-3.97,10.25-5.98,14.14-7.45
		c6.62-2.5,11.01-3.44,13.93-9.83l0.01-0.01l-0.27-3.63l-1.05-14.23l-1.37-18.51c14.96,21.47,53.99,18.3,57.7,14.13
		c0.8-0.9,1.28-2.14,1.54-3.54C945.04,630.42,943.07,623.09,943.07,623.09z M809.34,629.31c-0.01,0.03-0.02,0.05-0.02,0.05
		L809.34,629.31L809.34,629.31z"/>
	<path class="st34" d="M809.34,629.3c-0.01,0.03-0.02,0.05-0.02,0.05L809.34,629.3L809.34,629.3z"/>
	<path class="st34" d="M809.34,629.3c-0.01,0.03-0.02,0.05-0.02,0.05L809.34,629.3L809.34,629.3z"/>
	<path class="st34" d="M809.34,629.3c-0.01,0.03-0.02,0.05-0.02,0.05L809.34,629.3L809.34,629.3z"/>
	<path class="st6" d="M940.45,789.93c-2.18,0.39-4.44,0.58-6.7,0.65c-0.74,0.03-1.47,0.04-2.2,0.03c-0.67,0-1.34-0.01-2-0.04
		c-4.3-0.16-8.31-0.66-11.27-1.15c-0.62-0.11-1.21-0.2-1.75-0.3c-0.27-0.05-0.53-0.1-0.76-0.14c-0.19-0.05-0.39-0.08-0.57-0.12
		c-0.24-0.05-0.47-0.1-0.66-0.14c-0.8-0.18-1.24-0.27-1.24-0.27c1.4-18.31-3.3-59.76-5.18-75.12c-0.33-2.62-0.57-4.48-0.68-5.33
		c0.1,1.16,0.08,2.99-0.05,5.33c-1.03,19.56-9.07,74.77-9.07,74.77c-2.34,0.86-4.72,1.35-7.02,1.6c-6.51,0.7-12.41-0.55-14.96-1.22
		c-0.86-0.21-1.34-0.38-1.34-0.38s-0.7-27.79,1.39-54.9c0.79-10.22-0.35-16.3-3.78-19.88c-5.66-5.9-17.56-4.95-37.3-4.53
		c-11.22,0.23-18.36-3.33-22.9-8.03c-1.27-1.32-2.35-2.74-3.24-4.19c-2.06-3.3-3.21-6.76-3.85-9.69c0,0,14.9,0.94,29.85-0.87
		c3.88,5.03,8.71,8.83,16.5,5.7c4.93-1.97,5.89-4.89,5.01-7.88c-0.28-0.95-0.74-1.92-1.33-2.86c1.5-0.7,2.88-1.49,4.1-2.36
		c5.59-3.97,10.25-5.98,14.14-7.45c6.62-2.5,11.01-3.44,13.93-9.83l0.01-0.01c0,0,40.04-0.33,50.14,26.45
		C947.77,714.58,940.45,789.93,940.45,789.93z"/>
	<path class="st8" d="M907.38,707.46c0,0,0.01,0.04,0.02,0.14c0.01,0.05,0.02,0.1,0.02,0.16c0.01,0.01,0.01,0.01,0,0.02"/>
	<line class="st8" x1="968.01" y1="640.93" x2="965.13" y2="636.27"/>
	<line class="st8" x1="956.86" y1="622.86" x2="945.39" y2="604.27"/>
	<path class="st10" d="M965.13,636.27l-8.27-13.42c1.75,0.31,3.29,0.83,4.31,1.66C965.19,627.81,973.36,636.15,965.13,636.27z"/>
	<path class="st8" d="M944.07,635.58c-0.27,0.03-0.4,0.04-0.4,0.04"/>
	<path class="st10" d="M965.13,636.27c-0.68,0.01-1.48-0.03-2.39-0.15c-10.36-1.24-17.03-0.72-18.67-0.55
		c0.96-5.16-1.01-12.5-1.01-12.5s8.06-1.25,13.79-0.23L965.13,636.27z"/>
	<path class="st10" d="M856.68,683.87c0.88,3-0.08,5.92-5.01,7.88c-7.79,3.12-12.62-0.67-16.5-5.7c-0.01-0.01-0.01-0.02-0.02-0.03
		c-2.56-3.32-4.7-7.17-7.03-9.92c-0.64-0.76-1.29-1.43-1.96-1.99c0.21-0.29,0.42-0.6,0.64-0.92c0.02-0.03,0.05-0.07,0.08-0.11
		c1.58-2.38,3.22-5.36,4.04-8.44c0-0.01,0-0.01,0-0.02c0.03-0.07,0.04-0.14,0.06-0.2c0,0,17.01,0.55,23.58,3.7
		c0.8,0.39,1.44,0.81,1.87,1.28c4.06,4.29-9.86,2.72-9.86,2.72s5.86,4.18,8.78,8.9C855.94,681.96,856.4,682.92,856.68,683.87z"/>
	<path class="st8" d="M836.91,532.49c-0.05-0.15-0.12-0.29-0.18-0.41"/>
	<path class="st10" d="M858.11,540.99c0,1.33,0,7.87,0,7.87s-3.48,9.44-20.37-0.11c0,0,0.62-12.37-0.84-16.26
		C842.55,536.67,849.87,540.5,858.11,540.99z"/>
	<path class="st8" d="M858.11,540.99c0-0.08,0-0.13,0-0.17"/>
	<path class="st12" d="M873.31,809.17c-1.51-0.23,3.02-15.81,3.02-15.81s0.04,0.01,0.11,0.02c0.9,0.16,7.32,1.35,14.86,3.21
		c8.03,1.99,17.32,4.75,22.52,7.86c0.9,0.54,1.67,1.08,2.3,1.65c0.72,0.63,1.25,1.29,1.53,1.95
		C921,815.96,874.81,809.4,873.31,809.17z"/>
	<path class="st35" d="M891.3,789.72v6.87c-7.54-1.86-13.96-3.05-14.86-3.21l-0.1-4.88C878.89,789.17,884.79,790.42,891.3,789.72z"
		/>
	<line class="st8" x1="876.34" y1="788.5" x2="876.34" y2="788.49"/>
	<line class="st8" x1="891.29" y1="796.88" x2="891.29" y2="796.59"/>
	<path class="st12" d="M916.11,806.1c-0.62-0.56-1.4-1.11-2.3-1.65l0.39-11.09c0,0,0.93,0.13,2.36,0.36
		c0.35,0.06,0.73,0.12,1.15,0.19c0.18,0.03,0.36,0.06,0.56,0.1c0.39,0.06,0.8,0.14,1.23,0.22c0.42,0.08,0.85,0.16,1.3,0.24
		c0.49,0.09,0.99,0.19,1.49,0.29c2.11,0.41,4.48,0.9,6.98,1.49c1.36,0.32,2.76,0.67,4.16,1.04c9.32,2.49,18.96,6.13,21,10.91
		C958.03,816.63,925.25,808.51,916.11,806.1z"/>
	<path class="st35" d="M929.55,790.58l-0.28,5.67c-2.5-0.58-4.88-1.08-6.98-1.49c-0.5-0.09-1-0.19-1.49-0.28
		c-0.45-0.09-0.88-0.18-1.3-0.24c-0.43-0.08-0.84-0.16-1.23-0.21c-0.19-0.04-0.38-0.07-0.56-0.1c-0.41-0.08-0.79-0.14-1.15-0.19
		c-1.43-0.23-2.35-0.36-2.35-0.36l0.33-4.62c0.19,0.04,0.42,0.09,0.66,0.14c0.18,0.04,0.38,0.07,0.57,0.12
		c0.23,0.04,0.49,0.09,0.76,0.14c0.54,0.1,1.13,0.19,1.75,0.3C921.24,789.91,925.25,790.42,929.55,790.58z"/>
	<line class="st8" x1="933.75" y1="790.59" x2="933.75" y2="790.58"/>
	<path class="st10" d="M835.17,686.05c7.29-0.88,14.59-2.42,20.18-5.04L835.17,686.05z"/>
	<polyline class="st36" points="956.98,630.09 948.56,616.29 965.16,643.51 963.05,640.05 	"/>
	<path class="st9" d="M822.74,678.06c0,0,8.27-8.39,8.27-14.6s-9.07-17.99-23.9-37.28"/>
	<path class="st9" d="M809.35,629.1c0,0,7.91-31.02,4.6-42.12"/>
	<path class="st9" d="M822.54,678.06c0,0-10.07-3.21-19.02-11.14"/>
	<path class="st37" d="M1063.65,643.51H732.19c-2.21,0-4,1.79-4,4v6.23c0,2.21,1.79,4,4,4h331.46c2.21,0,4-1.79,4-4v-6.23
		C1067.65,645.3,1065.86,643.51,1063.65,643.51z"/>
	<line class="st30" x1="1041.19" y1="657.74" x2="1041.19" y2="846.87"/>
	<path class="st38" d="M864.24,510.08c0,0,6.62,5.42,1.39,7.63"/>
	<path class="st39" d="M850.4,526.88l21.59-3.05C871.98,523.83,866.24,537.39,850.4,526.88z"/>
	<path class="st17" d="M835.03,510.45c0,7.2-5.38,13.03-12.01,13.03c-6.64,0-12.01-5.83-12.01-13.03c0-5.4,3.03-10.03,7.34-12.01
		c1.44-0.65,3.02-1.01,4.67-1.01c0.72,0,1.41,0.07,2.1,0.2C830.75,498.7,835.03,504.04,835.03,510.45z"/>
	<path class="st8" d="M822.67,498.6c0,0,0-0.16,0.01-0.48"/>
	<path class="st17" d="M856.29,463.14c-29.34,5.91-31.08,30.72-31.17,34.48c-0.69-0.13-1.38-0.2-2.1-0.2
		c-1.65,0-3.23,0.36-4.67,1.01C818.3,493.79,819.58,465.68,856.29,463.14z"/>
	<path class="st8" d="M815.93,499.59c0,0-0.02-0.23-0.02-0.65"/>
	<g class="st40">
		<g>
			<path class="st11" d="M161.63,470.88c0,0-0.77,5.85-8.55,11.66c-3.55,2.65-8.55,5.3-15.6,7.38c-0.76,0.23-1.54,0.44-2.35,0.65
				c-24.77,6.45-18.84-43.12-18.84-43.12c21.04,2.15,33.83-3.17,33.83-3.17c1.28,7.7,9.89,19.58,9.89,19.58s3.52-2.52,6.46-1.74
				c1.1,0.28,2.11,1.03,2.84,2.54C171.98,470.2,161.63,470.88,161.63,470.88z"/>
			<path class="st12" d="M170.35,434.94c-0.34,1.99-4.3,5.04-4.3,5.04s2.27,13.85,0.42,22.14c-2.94-0.78-6.46,1.74-6.46,1.74
				s-8.61-11.88-9.89-19.58c0,0-12.79,5.32-33.83,3.17c0,0-10.46-1.92-8.72-5.43c1.74-3.51,7.32-5.77,7.32-5.77
				s-9.65-2.83-9.18-5.77c0.26-1.62,7.48-3.99,15.67-5.75c6.7-1.43,14.04-2.44,18.74-2.29c10.47,0.34,23.26,9.85,23.26,9.85
				s1.74-5.32,3.95-6c2.21-0.68-0.7,7.69-0.7,7.69S170.7,432.95,170.35,434.94z"/>
			<path class="st6" d="M263.09,786.97c-0.38,0.56-0.84,1.1-1.35,1.62c-2.18,2.23-5.34,4.06-8.39,5.45
				c-1.43,0.66-2.85,1.22-4.12,1.69c-2.98,1.09-5.21,1.65-5.21,1.65s-45.81-44.37-61.62-86.24c-15.81-41.88-24.88-41.88-24.88-41.88
				c-17.67,49.8-0.93,150.07-8.6,151.66c-0.8,0.16-1.69,0.29-2.64,0.39c-4.51,0.48-10.52,0.32-15.04,0.08
				c-3.77-0.21-6.51-0.47-6.51-0.47s-15.91-89.57-6.16-167.67c15.93,7.92,42.67,5.38,56.51,0.4c10.1-3.64,25.41-3.53,32.93-3.21
				c4.09,52.18,30.53,93.69,45.34,116.88C260.2,778.03,264.56,784.83,263.09,786.97z"/>
			<path class="st7" d="M194.18,529.53c0,0,20.2,61.19,18.33,121.18c0,0-1.72-0.15-4.5-0.27c-7.52-0.32-22.83-0.43-32.93,3.21
				c-13.84,4.98-40.58,7.52-56.51-0.4c0.26-2.03,0.53-4.05,0.81-6.05c0,0,1.86-88.51-2.2-106.61c0,0-13.73-4.08-16.75-6.68
				c-0.94-0.81-1.27-3.77-1.28-7.47c-0.03-8.2,1.51-20.03,1.51-20.03c6.04,0.15,36.04-3.88,37.21-4.03
				c0.03-0.01,0.04-0.01,0.04-0.01s10.38,7.09,19.38-2.41c0,0,19.73-1.59,41.85-3.32c0,0,1.91,2.3,4.3,5.41
				c2.4,3.11,5.28,7.03,7.23,10.27c0,0.01,0,0.01,0,0.01c1.04,1.74,1.82,3.26,2.12,4.38C214.18,521.99,194.18,529.53,194.18,529.53z
				"/>
			<path class="st8" d="M208.01,650.44c-0.01-0.14-0.02-0.27-0.03-0.41"/>
			<path class="st10" d="M100.66,506.41c0,0-1.54,11.83-1.51,20.03c-55.35-12.22-51.74-73-51.74-73s0.35-2.9-2.52-5.84
				c-2.86-2.95-9.68-19.55-3.25-24.83c6.43-5.28,12.98,10.58,12.98,10.58s1.92-7.92,3.49-7.3c1.57,0.63,0.58,3.17-0.46,16.07
				c-1.05,12.91,1.62,27.17,12.2,45.39C80.43,505.73,100.66,506.41,100.66,506.41z"/>
			<path class="st10" d="M230.46,498.6c-18.27,12.8-19.69,13.68-19.79,13.72c-1.95-3.24-4.83-7.16-7.23-10.27
				c-2.39-3.11-4.3-5.41-4.3-5.41s26.36-7.25,32.25-32.9c2.74-11.91,3.1-20.64,2.7-26.57c-0.45-6.84-1.92-9.95-1.92-9.95
				s-8.84-14.78-6.98-16.14c1.86-1.36,5.73,4.22,5.73,4.22s0.63-14.63,6.67-14.03c6.05,0.6,8.37,11.47,7.44,19.16
				c-0.23,1.91,0.02,6.79,0.21,13.28C245.8,453.39,245.85,487.81,230.46,498.6z"/>
			<path class="st8" d="M137.41,489.75c0.03,0.06,0.05,0.11,0.07,0.17h0"/>
			<path class="st8" d="M137.87,502.38c-0.01,0.03-0.01,0.04-0.01,0.04"/>
			<path class="st10" d="M157.29,499.96c-9,9.5-19.38,2.41-19.38,2.41s-0.01,0-0.04,0.01c0.16-0.59,1.86-7.43-0.39-12.46
				c7.05-2.08,12.05-4.73,15.6-7.38C152.47,487.63,157.29,499.96,157.29,499.96z"/>
			<path class="st8" d="M153.08,482.5c0,0.01,0,0.03,0,0.04"/>
			<path class="st12" d="M146.28,829.22v15.24c0,0-46.51,11.32-39.53-2.11c3.76-7.25,14.97-10.5,24.49-11.95
				C139.37,829.16,146.28,829.22,146.28,829.22z"/>
			<path class="st12" d="M274.95,806.89c0,0-11.41,11.25-21.6,17.84c-7.8,5.05-14.9,7.37-15.6-0.19
				c-0.86-9.22,7.52-16.67,15.6-21.63c0.36-0.23,0.73-0.45,1.09-0.66c6.79-4.01,13.07-6.23,13.07-6.23L274.95,806.89z"/>
			<line class="st8" x1="146.28" y1="821.31" x2="146.28" y2="821.31"/>
			<path class="st35" d="M146.28,821.31v7.91c0,0-6.91-0.06-15.04,1.18v-9.01C135.76,821.63,141.77,821.79,146.28,821.31z"/>
			<path class="st35" d="M267.51,796.02c0,0-6.28,2.22-13.07,6.23l-1.09-1.36l-4.12-5.16c1.27-0.47,2.69-1.03,4.12-1.69
				c3.05-1.39,6.21-3.22,8.39-5.45L267.51,796.02z"/>
			<path class="st38" d="M132.55,465.57c0,0-6.5,5.33-1.37,7.49"/>
		</g>
		<g>
			<path class="st7" d="M629.65,585.58l-3.92,1.53l-2.82,1.1l-11.56,4.5c-0.26,0.8-0.35,6.15-0.37,13.16
				c-0.03,15.69,0.37,39.71,0.37,39.71c-2.92,0.56-5.78,1.03-8.56,1.43c-16.33,2.36-30.24,2.22-41.5,1.01
				c-0.39-0.04-0.77-0.09-1.15-0.13c-10.43-1.21-18.51-3.33-24.07-5.2c-1.44-0.48-2.72-0.95-3.82-1.38
				c-1.69-0.66-2.97-1.23-3.83-1.63c-0.86-0.41-1.29-0.65-1.29-0.65c5.11-20.41,10.85-47.13,10.85-47.13
				c-1.33,0.97-5.82,3.4-5.82,3.4c-7.18-4.66-12.73-12.58-15.27-16.67c-1-1.59-1.53-2.6-1.53-2.6c5.82-11.1,12.61-18.77,19.3-24.07
				c16.03-12.69,31.44-11.72,31.44-11.72c13.31,16.19,27.95,4.54,27.95,4.54s11.58,3.79,20.5,12.64c1.66,1.66,3.23,3.48,4.62,5.49
				C627.99,575.71,629.65,585.58,629.65,585.58z"/>
			<path class="st6" d="M600.62,820.72c0,0-2.38,0.23-5.75,0.41c-4.58,0.25-11.01,0.43-15.82-0.1c-0.76-0.08-1.47-0.18-2.14-0.31
				c0,0-4.28-57.96-18.84-94.46c-3.37-8.45-7.3-15.76-11.85-20.92c-5.73-6.49-9.55-13.39-12.05-20.17
				c-0.01-0.02-0.01-0.04-0.02-0.06c-3.84-10.42-4.54-20.55-4.18-28.44c0.29-6.63,1.35-11.68,1.91-13.98
				c0.21-0.86,0.36-1.33,0.37-1.38c1.1,0.43,2.38,0.9,3.82,1.38c5.56,1.87,13.64,3.99,24.07,5.2c0.38,0.04,0.76,0.09,1.15,0.13
				c11.26,1.21,25.17,1.35,41.5-1.01c0,0-3.17,19.95,1.32,31.85c2.09,5.53,4.02,22.69,4.3,45.92
				C608.75,751.55,606.9,786.38,600.62,820.72z"/>
			<path class="st41" d="M558.07,726.26c-3.5,6.53-12.61,15.23-23.92,24.22c-28.1,22.33-69.79,46.43-72.78,43.52
				c-0.63-0.6-1.21-1.33-1.74-2.13c-0.04-0.05-0.08-0.11-0.12-0.17c-2.38-3.59-3.98-8.59-4.59-10.74c-0.08-0.28-0.15-0.52-0.2-0.69
				c-0.06-0.23-0.09-0.36-0.09-0.36c42.85-34.04,78.6-93.18,79.52-94.71c0.01-0.02,0.02-0.03,0.02-0.03
				c2.5,6.78,6.32,13.68,12.05,20.17C550.77,710.5,554.7,717.81,558.07,726.26z"/>
			<path class="st10" d="M499.9,642.69c-0.01,0.02-0.02,0.04-0.02,0.06c0,0,2.35,8.2,3.09,13.92c0.39,2.97,0.34,5.27-0.68,5.43
				c-2.99,0.49-3.24-5.42-3.24-5.42s-3.66,17-12.31,13.6c-3.87-1.52-3.51-7.49-1.93-13.61c1.46-5.64,3.95-11.41,5.12-13.98
				c0.39-0.88,0.64-1.38,0.64-1.38s8.38-44.69,26.32-62.68c2.54,4.09,8.09,12.01,15.27,16.67
				C532.16,595.3,506.24,616.49,499.9,642.69z"/>
			<path class="st10" d="M682.35,648.01c-6.99,5.1-27.35-7.16-27.35-7.16s-30.53-14.94-44.01-34.98c0.01-7.01,0.11-12.36,0.37-13.16
				l14.38-5.6c1.05,2.21,16.86,35.07,32.29,46.57c0,0,19.46-2.79,20.59-1.33c1.12,1.46-3.87,3.89-3.87,3.89
				S689.34,642.91,682.35,648.01z"/>
			<line class="st8" x1="610.98" y1="605.87" x2="610.98" y2="605.87"/>
			<path class="st8" d="M625.73,587.11c-0.04-0.08-0.06-0.12-0.06-0.12"/>
			<path class="st11" d="M608.19,533.76c-4.74,0.07-9.02-0.79-12.84-2.19c-7.88-2.88-13.79-8.09-17.62-12.38
				c-3.45-3.86-5.22-6.98-5.22-6.98s-8.73-4.86-7.4-9.07c0.14-0.44,0.33-0.84,0.55-1.2c1.94-3.09,6.88-3.18,10.76,0.88
				c0,0,19.47-23.65,29.45-21.86c9.98,1.78,21.29,12.96,21.29,12.96S631.48,533.44,608.19,533.76z"/>
			<path class="st12" d="M627.15,493.93c0,0-7.46-7.37-15.61-11.09v-0.01c-1.88-0.86-3.81-1.53-5.68-1.86
				c-9.98-1.78-29.45,21.86-29.45,21.86c-3.87-4.06-8.81-3.96-10.75-0.87c0,0-0.96-15.61,9.53-25.55c0.56-0.53,1.16-1.05,1.79-1.55
				c1.69-1.33,3.62-2.52,5.83-3.5c4.09-1.83,9.14-2.96,15.4-3.02c6.27-0.06,11.22,0.74,15.12,2.1
				C630.94,476.56,627.15,493.93,627.15,493.93z"/>
			<path class="st12" d="M582.81,471.36c-0.05,1.45-1.1,3.2-3.67,5.28c0,0-1.7-0.33-3.95-0.23c-2.56,0.11-5.84,0.77-8.07,3.1
				c-4.18,4.37-5.18,5.83-10.84,4.37c-5.66-1.45-12.48-1.98-17.63,0.55c-1.11,0.55-3.15,1.22-5.64,1.74
				c-9.08,1.87-24.3,1.6-23.65-14.92c0.64-15.99,15.19-16.47,26.74-12.59c3.66,1.24,7.01,2.91,9.53,4.66
				c10.49,7.29,20.13,4.86,23.29,3.08C571.37,465.02,582.96,466.41,582.81,471.36z"/>
			<path class="st10" d="M594.05,544.78c0,0-14.64,11.66-27.95-4.53c0,0,12.66-9.42,11.62-21.04c3.83,4.29,9.74,9.49,17.62,12.38
				C592.9,539.9,594.05,544.78,594.05,544.78z"/>
			<path class="st8" d="M595.45,531.21c-0.04,0.12-0.07,0.25-0.11,0.37"/>
			<path class="st8" d="M577.72,519.2c-0.02-0.22-0.04-0.44-0.07-0.66"/>
			<path class="st12" d="M579.05,845.34v-15.99c0,0,7.34-0.17,15.82,0.68c10.84,1.08,23.55,3.8,25.23,10.61
				C623.09,852.79,579.05,845.34,579.05,845.34z"/>
			<path class="st12" d="M464.49,824.71c-8.99,9.88-28.45-27.69-28.45-27.69l4.07-3.41l7.74-6.47c0,0,2.03,2.19,4.74,5.56
				c0.65,0.81,1.34,1.68,2.04,2.6C461.5,804.27,470.34,818.27,464.49,824.71z"/>
			<path class="st34" d="M446.64,785.75L446.64,785.75z"/>
			<path class="st35" d="M459.51,791.7l-0.31,0.23l-4.57,3.37c-0.7-0.92-1.39-1.79-2.04-2.6c-2.71-3.37-4.74-5.56-4.74-5.56
				l7.07-6.18C455.53,783.11,457.13,788.11,459.51,791.7z"/>
			<line class="st8" x1="579.05" y1="821.03" x2="579.05" y2="821.03"/>
			<path class="st35" d="M594.87,821.13v8.9c-8.48-0.85-15.82-0.68-15.82-0.68v-8.32C583.86,821.56,590.29,821.38,594.87,821.13z"/>
			<line class="st8" x1="594.87" y1="821.13" x2="594.87" y2="821.13"/>
			<path class="st38" d="M609.93,507.75c0,0,6.5,5.33,1.37,7.49"/>
		</g>
		<g>
			<path class="st10" d="M440.78,547.06c-0.01,0.01-0.02,0.01-0.03,0.02c-2.9,2.4-6.31,4.48-8.69,6.65
				c-0.09,0.09-0.19,0.18-0.28,0.27c-0.55,0.51-1.03,1.02-1.42,1.55c-2.47-1.45-5.79-3.04-9.16-3.63c0,0-0.01-0.38-0.03-1.06
				c-0.04-3.48-0.01-14.68,2.1-19.62c0.31-0.71,0.66-1.29,1.06-1.7c3.7-3.76,3.03,8.42,3.03,8.42s3.51-5.33,7.67-8.13
				c0.83-0.56,1.68-1.02,2.54-1.31c2.69-0.93,5.42-0.27,7.51,3.9C448.37,539,445.17,543.41,440.78,547.06z"/>
			<path class="st12" d="M459.63,791.87c-0.14,0.02-0.28,0.04-0.43,0.06c-2.19,0.3-4.43,0.55-6.61,0.77
				c-4.85,0.47-9.41,0.75-12.48,0.91c-0.56,0.03-1.07,0.06-1.52,0.08c-1.35,0-2.12,0-2.65-0.87l-3.08-10.48c0,0,0.91-0.15,2.32-0.36
				c0.34-0.04,0.72-0.1,1.13-0.16c0.18-0.02,0.36-0.05,0.56-0.07c0.38-0.06,0.79-0.11,1.21-0.16c0.41-0.06,0.85-0.11,1.29-0.16
				c0.48-0.06,0.98-0.11,1.48-0.16c2.09-0.24,4.47-0.48,6.99-0.66c1.37-0.1,2.78-0.19,4.21-0.25c0.89-0.04,1.78-0.07,2.67-0.09
				c8.65-0.19,17.27,0.61,20.34,4.12C478.38,788.17,469.65,790.49,459.63,791.87z"/>
			<path class="st35" d="M447.84,780.61c-2.52,0.18-4.9,0.42-6.99,0.66c-0.5,0.05-1,0.1-1.48,0.16c-0.44,0.05-0.88,0.1-1.29,0.16
				c-0.42,0.05-0.83,0.1-1.21,0.16c-0.2,0.02-0.38,0.05-0.56,0.07c-0.41,0.05-0.78,0.11-1.13,0.16c-1.41,0.21-2.32,0.36-2.32,0.36
				l-0.91-3.61l-0.21-0.81c0.19-0.02,0.42-0.05,0.66-0.07c0.18-0.02,0.37-0.05,0.57-0.06c0.23-0.03,0.48-0.07,0.75-0.1
				c0.54-0.07,1.12-0.14,1.73-0.23c2.92-0.41,6.82-1.11,10.9-2.24l0.65,2.35L447.84,780.61z"/>
			<path class="st31" d="M376.96,694.85h-80.45l-11.43-38.18l-4.18-13.98l-4.41-14.74c-0.01,0-0.01,0-0.01-0.01l-4.46-14.93
				l-14.16-47.31h80.45l10.85,36.27l4.39,14.65l7.8,26.07l4.18,13.98l2.84,9.46L376.96,694.85z"/>
			<rect x="296.32" y="698.96" class="st31" width="121.63" height="12.33"/>
			<line class="st33" x1="307.87" y1="711.29" x2="286.77" y2="846.87"/>
			<line class="st33" x1="357.13" y1="711.29" x2="367.28" y2="846.87"/>
			<line class="st33" x1="436.31" y1="847.09" x2="413.94" y2="711.29"/>
			<path class="st8" d="M313.13,493.51c0,0-0.03,0.19-0.1,0.53"/>
			<path class="st8" d="M350.91,539.04c0-0.08,0-0.13,0-0.17c0.07-0.03,0.14-0.06,0.21-0.09"/>
			<path class="st7" d="M432.67,554.59c-0.3-0.2-0.6-0.4-0.89-0.59c-0.55,0.51-1.03,1.02-1.42,1.55c-2.47-1.45-5.79-3.04-9.16-3.63
				c0,0-0.01-0.38-0.03-1.06c-0.01,0-0.02,0-0.02,0s-23.25,29.25-34.25,19.65c-15.29-13.33-35.45-23.48-35.97-23.73
				c-0.01-0.01-0.01-0.01-0.01-0.01s-3.42,9.28-20.01-0.11c0,0-34.72,2.61-41.56,16.26c-0.38,0.76-0.86,1.69-1.41,2.78
				c-4.85,9.61-15.46,31.11-15.92,47.31c-0.17,6,1.04,11.27,4.46,14.93c0,0.01,0,0.01,0.01,0.01c2.82,3.03,7.16,4.97,13.45,5.31
				c0.11,0.01,0.22,0.03,0.34,0.05l1.68,9.38l2.5,13.98l4.08,22.84l0.51,2.88c0,0,14.64,0.93,29.33-0.85
				c7.16-0.87,14.33-2.38,19.82-4.95c1.48-0.69,2.83-1.46,4.03-2.31c6.61-4.7,11.9-6.6,16.14-8.15c5.27-1.93,8.91-3.31,11.44-8.83
				c-0.07-0.2-0.14-0.41-0.21-0.63c-0.38-1.16-0.77-2.48-1.14-3.92c-0.44-1.71-0.87-3.59-1.29-5.6c-0.3-1.43-0.6-2.92-0.88-4.46
				c-3.55-18.83-6.15-44.55-6.15-44.55s14.53,6.26,23.55,2.05C411.26,591.98,440.12,559.72,432.67,554.59z M351.97,602.34
				c3.03,0.81,5.06,3.07,4.24,8.11c-0.44,2.67-1.37,4.67-2.66,6.17c-2.55,2.98-6.49,3.99-10.69,4.4h-0.04
				c-4.16,0.39-8.59,0.18-12.14,0.67c-0.87,0.13-1.7,0.28-2.45,0.51c-0.09,0.03-0.18,0.05-0.26,0.08c0,0,0-0.01-0.01-0.02
				c-0.15-0.33-0.32-0.68-0.49-1.03c0-0.01,0-0.01,0-0.01c-1.28-2.59-3.07-5.55-5.4-7.83c0,0,0.02-0.03,0.06-0.09
				c0.02-0.03,0.04-0.06,0.07-0.1c1.12-1.64,9.45-13.69,15.11-17.18c0.74-0.45,1.43-0.76,2.05-0.88c5.64-1.1-2.31,8.96-2.68,9.43
				c0.34-0.13,5.06-1.97,9.8-2.48c0.78-0.08,1.57-0.13,2.34-0.13c0.11,0,0.23,0,0.34,0.01C350.16,601.98,351.1,602.1,351.97,602.34z
				"/>
			<path class="st42" d="M299.05,682.39c-0.24-1.05-0.4-2.02-0.52-2.88L299.05,682.39z"/>
			<path class="st7" d="M351.97,602.34c-0.97-0.26-2.03-0.37-3.15-0.37c-5.38-0.03-11.75,2.46-12.14,2.61
				c0.37-0.48,8.32-10.53,2.68-9.44c-0.62,0.12-1.31,0.43-2.05,0.88c-6.08,3.75-15.24,17.36-15.24,17.36
				c2.66,2.59,4.61,6.07,5.89,8.87c0.01,0.01,0.01,0.02,0.01,0.02c0.82-0.26,1.74-0.45,2.72-0.59c3.55-0.49,7.97-0.28,12.14-0.67
				h0.03c6.32-0.6,12.05-2.61,13.35-10.57C357.03,605.41,355,603.15,351.97,602.34z"/>
			<path class="st6" d="M451.71,776.08c-1.59,0.62-3.17,1.11-4.71,1.49c-6.64,1.66-12.51,1.4-15.05,1.16
				c-0.86-0.07-1.34-0.15-1.34-0.15c-2.2-5.41-5.5-13.13-9.14-21.59c-6.94-16.12-15.13-34.95-19.32-45.7
				c-1.6-4.09-2.62-7.02-2.77-8.18c0.14,1.59,0.04,4.46-0.24,8.18c-1.56,21.27-8.72,70.52-8.72,70.52c-2.3,0.84-4.65,1.32-6.91,1.57
				c-6.39,0.69-12.19-0.54-14.69-1.2c-0.84-0.21-1.31-0.37-1.31-0.37s-0.69-27.3,1.36-53.93c0.59-7.66,0.08-12.95-1.7-16.59
				c-4.38-9-16.48-7.86-38.65-7.38c-8.53,0.18-14.66-1.87-19.06-4.95c-1.76-1.23-3.25-2.63-4.49-4.11
				c-3.41-4.03-5.09-8.71-5.92-12.46c0,0,14.64,0.93,29.33-0.85c7.16-0.87,14.33-2.38,19.82-4.95c1.48-0.69,2.83-1.46,4.03-2.31
				c6.61-4.7,11.9-6.6,16.14-8.15c5.27-1.93,8.91-3.31,11.44-8.83c0,0,0.16,0,0.45,0c4.03,0,33.65,0.84,42.89,25.33
				C433.07,708.93,451.71,776.08,451.71,776.08z"/>
			<path class="st8" d="M399.31,702.57c0,0,0.01,0.04,0.02,0.14c0.01,0.05,0.02,0.1,0.02,0.16c0.01,0.01,0.01,0.01,0,0.02"/>
			<path class="st8" d="M375.08,652.02c-0.26,0.03-0.39,0.04-0.39,0.04"/>
			<path class="st10" d="M345.47,597.63c2.96,7.52-0.97,12.05-6.14,15.64l-0.03,0.02c-3.41,2.37-7.35,4.33-10.17,6.49
				c-0.78,0.59-1.48,1.2-2.05,1.83c0,0,0.56-0.56,0.55-0.56c-1.98-4.12-4.66-8.92-9.78-9.42c0,0,0.5-11.1,3.85-17.31
				c0.41-0.75,0.85-1.36,1.32-1.77c4.32-3.69,2.59,8.89,2.52,9.48c0.26-0.32,4.5-5.57,9.17-8.17c0.97-0.54,1.94-0.96,2.92-1.21
				C340.68,591.89,343.6,592.86,345.47,597.63z"/>
			<path class="st8" d="M330.09,534.24c-0.05-0.14-0.11-0.28-0.17-0.4"/>
			<path class="st10" d="M352.27,534.24c-0.13,0.25-0.24,0.51-0.35,0.81v0.01c-0.38,1.05-0.63,2.36-0.8,3.73
				c-0.45,3.8-0.2,7.98-0.2,7.98s-3.42,9.28-20.01-0.11c0,0,0.09-1.7,0.12-4.02c0.04-3.09-0.01-7.28-0.48-10.08
				c-0.13-0.73-0.28-1.37-0.46-1.87c0.79,0.58,1.64,1.07,2.54,1.46C338.05,534.53,345.33,533.83,352.27,534.24z"/>
			<path class="st35" d="M383.51,783.38v6.75c-6.75-1.67-12.6-2.79-14.24-3.1h-0.05c-0.14-0.03-0.24-0.05-0.31-0.06l-0.09-4.79
				C371.32,782.84,377.12,784.07,383.51,783.38z"/>
			<line class="st8" x1="368.82" y1="782.18" x2="368.82" y2="782.17"/>
			<line class="st8" x1="383.51" y1="790.41" x2="383.51" y2="790.13"/>
			<line class="st8" x1="450.71" y1="780.68" x2="450.71" y2="780.67"/>
			<path class="st43" d="M297.29,662.74"/>
			<path class="st43" d="M315.97,673.69"/>
			<path class="st44" d="M560.14,646.69v5.98c0,2.21-1.79,4-4,4H230.67c-2.21,0-4-1.79-4-4v-5.98c0-2.21,1.79-4,4-4h325.47
				C558.35,642.69,560.14,644.48,560.14,646.69z"/>
			<polyline class="st30" points="253.35,847.09 253.35,824.73 253.35,802.91 			"/>
			<polyline class="st30" points="253.35,800.89 253.35,794.04 253.35,767.32 253.35,656.67 			"/>
			<line class="st30" x1="534.15" y1="656.67" x2="534.15" y2="847.09"/>
			<path class="st8" d="M243.45,449.37c-2.96,0.2-5.7,0.56-8.22,1.08"/>
			<path class="st8" d="M316.1,500.95c0,0,0-0.16,0.01-0.47"/>
			<path class="st8" d="M235.41,450.44c-0.06,0-0.12,0.01-0.18,0.02"/>
			<path class="st8" d="M309.47,501.92c0,0-0.02-0.23-0.02-0.64"/>
			<path class="st12" d="M367.03,802.69c-1.5-0.09,1.55-15.73,1.55-15.73s0.03,0.01,0.1,0.01c0.11,0.01,0.29,0.03,0.54,0.06h0.05
				c1.93,0.19,7.64,0.8,14.24,1.83c8.03,1.28,17.37,3.19,22.73,5.8c0.93,0.45,1.74,0.92,2.4,1.42c0.76,0.55,1.33,1.15,1.67,1.77
				C414.3,805.31,368.52,802.79,367.03,802.69z"/>
			<path class="st45" d="M431.78,554c-0.54,0.51-1.02,1.02-1.42,1.55c-2.47-1.45-5.79-3.05-9.16-3.63c0,0-0.01-0.38-0.03-1.05
				C421.55,550.8,425.94,550.3,431.78,554z"/>
			<path class="st9" d="M290.21,633.21c0,0,26.58-4.77,38.03-10.98c0,0-1.36-4.58-5.9-8.89c-4.54-4.31-33.04-1.65-33.04-1.65"/>
			<path class="st9" d="M293.63,611.35c0,0,10.47-21.64,9.63-32.4"/>
			<path class="st12" d="M381.51,511.73c-0.27,0.99-3.4,9.71-7.83,11.38c-4.44,1.66-0.35,4.68-7.19,5.93
				c-3.83,0.7-6.4-0.89-6.4-0.89c2.92-2.93,4.57-5.13,4.57-5.13s9.38,0.26,11.6-3.24c0.72-1.13,0.48-2.52-0.38-3.81
				c-1.78-2.71-6.26-5.01-10.31-3.76c0,0-9.49-8.91-7.53-17.49c0,0-11.11,5.83-18.81,5.08c-7.69-0.75-11.45-3.6-9.31-6.29
				c1.46-1.84-8.76-0.03-16.89,0.52c0,0-14.48,1.92-12.26-7.07c2.22-8.99,8.04-12.23,14.36-10.91c6.33,1.34-0.05-7.4,11.07-6.41
				c11.11,1.01,17.36,1.26,23.65-0.07c6.29-1.33,4.27,2.98,13.68,5.15c9.4,2.16,16.76,8.52,15.39,19.32
				C377.55,504.85,385.69,496.2,381.51,511.73z"/>
			<path class="st11" d="M376.26,519.78c-2.22,3.5-11.6,3.24-11.6,3.24s-1.65,2.2-4.57,5.13c-1.83,1.82-4.14,3.93-6.86,5.96
				c-0.06,0.05-0.12,0.09-0.18,0.13c-0.36,0.27-0.74,0.55-1.13,0.81v0.01c-5.37,3.77-12.14,7.09-19.7,7.53
				c-0.39,0.02-0.79,0.04-1.19,0.05c-1.57,0.03-3.17-0.06-4.79-0.31c-20.75-3.09-14.14-43.22-13.21-48.3
				c8.13-0.55,18.35-2.36,16.89-0.52c-2.14,2.69,1.62,5.54,9.31,6.29c7.7,0.75,18.81-5.08,18.81-5.08
				c-1.96,8.58,7.53,17.49,7.53,17.49c4.05-1.25,8.53,1.05,10.31,3.76C376.74,517.26,376.98,518.65,376.26,519.78z"/>
			<path class="st38" d="M326.2,512.22c0,0-6.5,5.33-1.37,7.49"/>
		</g>
		<g>
			<polygon class="st46" points="96.89,382.48 96.86,382.53 84.58,403.15 43.87,359.84 			"/>
			<polygon class="st0" points="100.24,390.39 100.49,390.53 84.58,403.15 96.86,382.53 105.72,386.37 			"/>
			<polygon class="st47" points="105.96,386.18 105.73,386.37 100.49,390.53 100.24,390.39 105.72,386.37 96.86,382.53 
				96.89,382.48 43.87,359.84 96.96,382.36 97.36,382.54 			"/>
			<polygon class="st46" points="133.64,363.78 100.03,377.21 100.02,377.22 43.87,359.84 44.13,359.86 			"/>
			<polygon class="st48" points="133.64,363.78 112.36,380.94 100.02,377.22 100.03,377.21 			"/>
			<polygon class="st49" points="112.36,380.94 111.46,396.42 106.03,386.3 			"/>
			<polygon class="st47" points="112.36,380.94 106.03,386.3 105.96,386.18 			"/>
			<polygon class="st50" points="111.46,396.42 100.59,390.58 100.5,390.52 105.72,386.37 105.73,386.37 105.88,386.43 
				106.02,386.3 106.03,386.3 			"/>
			<polygon class="st47" points="106.03,386.3 105.88,386.43 105.73,386.37 100.49,390.52 100.25,390.39 105.72,386.36 
				105.96,386.18 			"/>
			<polygon class="st51" points="100.02,377.22 96.96,382.36 43.87,359.84 			"/>
			<polygon class="st47" points="100.02,377.22 97.36,382.54 97.3,382.66 96.89,382.48 43.87,359.84 96.96,382.36 			"/>
			<polygon class="st52" points="112.36,380.94 105.96,386.18 97.37,382.54 100.02,377.21 			"/>
			<polygon class="st47" points="112.36,380.94 106.02,386.3 105.88,386.43 105.73,386.37 105.73,386.36 105.72,386.37 
				96.86,382.53 96.89,382.48 96.96,382.36 100.02,377.22 97.36,382.54 105.96,386.18 			"/>
			<polygon class="st48" points="105.88,386.43 100.59,390.58 84.58,403.15 96.86,382.53 96.89,382.48 97.3,382.66 105.71,386.37 
				105.73,386.37 			"/>
		</g>
		<path class="st53" d="M427.13,431.65c-27.99-26.91-103.15-23.02-181.89,2.06c-1.53,0.48-3.07,0.98-4.6,1.48
			c-2.2,0.72-4.38,1.38-6.55,1.98"/>
		<path class="st53" d="M166.05,439.98c-17.84-3.37-33.08-9.42-44.67-15.25c-15.52-7.79-24.52-15.18-24.52-15.18"/>
		<path class="st53" d="M142.61,367.07c0,0,63.38,52.03,143.78,25.63c80.4-26.39,157.96-30.96,186.48-3.54"/>
	</g>
	<line class="st54" x1="948.56" y1="616.16" x2="949.75" y2="618.11"/>
	<rect x="935.34" y="641.4" class="st55" width="45.7" height="1.62"/>
	<path class="st10" d="M1149.43,514.98c0,0-14.59,17.05-28.26,14.59c-13.67-2.45-32.87-33.82-40.38-42.45c0,0-8.71-5.59-11.32-9.48
		c-2.62-3.89-3.57-12.62-0.35-14.91c0.29-0.21,0.64-0.37,1.02-0.47c3.7-1,10.45,3.47,4.75,17.47l17.73,13.49l8.41-1.91
		c0,0,19.27,16.57,21.8,16.31c2.51-0.26,12.09-12.54,12.09-12.54s6.11,6.95,13.16,10.01c-0.39,1.86-0.47,3.84-0.01,5.92
		C1148.4,512.53,1148.87,513.84,1149.43,514.98z"/>
	<path class="st12" d="M1129.87,484.75l-28.84,6.57l-8.41,1.91l-17.73-13.49c5.7-14-1.05-18.47-4.75-17.47l-2.76-23.77l18.1,15.08
		l36.56-8.47L1129.87,484.75z"/>
	<path class="st26" d="M820.31,1482.66c-103.83,124.01-218.66,250.82-475.55,233.52c0.03-0.51,0.06-1.01,0.09-1.53
		C359.97,1455.27,513.38,1559.71,820.31,1482.66z"/>
	<path class="st0" d="M1439.52,1062.64h-1l0.86-0.34c0,0,0,0.01,0.01,0.02C1439.48,1062.54,1439.52,1062.64,1439.52,1062.64z"/>
	<g class="st56">
		
			<linearGradient id="SVGID_00000020362333929661326130000004031308738139183494_" gradientUnits="userSpaceOnUse" x1="-2882.7354" y1="7142.7612" x2="-2993.6477" y2="6984.3618" gradientTransform="matrix(-0.9982 0.0593 -0.0593 -0.9982 -1661.712 7732.4526)">
			<stop  offset="0" style="stop-color:#FFFFFF;stop-opacity:0.2"/>
			<stop  offset="1" style="stop-color:#FFFFFF"/>
		</linearGradient>
		<path style="fill:url(#SVGID_00000020362333929661326130000004031308738139183494_);" d="M846.87,411.62
			c18.94-1.1,37.81,3.2,54.64,12.63c22.74,12.74,39.02,33.34,45.84,58c6.82,24.66,3.37,50.43-9.72,72.57
			c-13.09,22.13-34.25,37.98-59.59,44.62c-25.34,6.64-51.81,3.28-74.55-9.46c-22.74-12.74-39.02-33.34-45.84-58
			c-6.82-24.66-3.37-50.43,9.72-72.57c13.09-22.13,34.25-37.98,59.59-44.62C833.55,413.05,840.22,412,846.87,411.62z M858.07,598.8
			c6.29-0.36,12.64-1.35,18.96-3.01c50.24-13.17,80.1-63.66,66.58-112.56c-6.55-23.69-22.19-43.47-44.03-55.71
			c-21.84-12.24-47.27-15.47-71.61-9.09c-24.34,6.38-44.66,21.6-57.24,42.86s-15.89,46.01-9.34,69.7
			C773.22,573.73,814.35,601.32,858.07,598.8z"/>
	</g>
	<g class="st58">
		<path class="st0" d="M793.04,451.19c-0.68,0-1.36-0.26-1.87-0.78c-0.99-1.01-0.95-2.6,0.08-3.56
			c7.15-6.64,15.34-11.97,24.35-15.85c1.31-0.56,2.83,0.01,3.41,1.29c0.58,1.27-0.01,2.76-1.32,3.32
			c-8.46,3.64-16.16,8.65-22.87,14.88C794.33,450.96,793.69,451.19,793.04,451.19z"/>
	</g>
	<g class="st58">
		<path class="st0" d="M776.42,472.89c-0.4,0-0.8-0.09-1.18-0.28c-1.27-0.63-1.78-2.15-1.12-3.39c1.98-3.77,4.28-7.42,6.82-10.85
			c0.84-1.13,2.45-1.38,3.61-0.57c1.16,0.81,1.42,2.39,0.58,3.52c-2.39,3.22-4.55,6.65-6.41,10.19
			C778.27,472.39,777.36,472.89,776.42,472.89z"/>
	</g>
	
		<linearGradient id="SVGID_00000095335183211942392230000000501756064162563997_" gradientUnits="userSpaceOnUse" x1="806.6882" y1="487.3224" x2="958.4855" y2="487.3224" gradientTransform="matrix(0.9793 -0.2023 0.2023 0.9793 -95.4944 209.184)">
		<stop  offset="0" style="stop-color:#FFFFFF;stop-opacity:0"/>
		<stop  offset="1" style="stop-color:#FFFFFF;stop-opacity:0.5"/>
	</linearGradient>
	<path style="opacity:0.81;fill:url(#SVGID_00000095335183211942392230000000501756064162563997_);" d="M869.43,421.9
		c19.16,12.22,33.52,31.56,38.52,55.12c9.97,47.01-21.09,92.98-69.38,102.69c-11.46,2.3-22.87,2.35-33.73,0.47
		c19.07,12.16,42.89,17.25,66.97,12.41c48.29-9.71,79.35-55.68,69.38-102.69C933.6,454.05,904.32,427.96,869.43,421.9z"/>
	<g class="st60">
		
			<radialGradient id="SVGID_00000124860129521447829680000007254213263412971434_" cx="835.03" cy="510.0771" r="44.9509" gradientTransform="matrix(0.7729 0 0 1 183.2404 0)" gradientUnits="userSpaceOnUse">
			<stop  offset="0" style="stop-color:#0097FF"/>
			<stop  offset="0.9944" style="stop-color:#0097FF;stop-opacity:0"/>
		</radialGradient>
		
			<ellipse style="fill:url(#SVGID_00000124860129521447829680000007254213263412971434_);" cx="828.64" cy="510.08" rx="34.74" ry="44.95"/>
	</g>
</g>
</svg>
