<?xml version="1.0" encoding="UTF-8"?><svg xmlns="http://www.w3.org/2000/svg" xmlns:xlink="http://www.w3.org/1999/xlink" viewBox="0 0 765.54 1182"><defs><style>.cls-1{opacity:.39;}.cls-1,.cls-2,.cls-3,.cls-4,.cls-5,.cls-6,.cls-7,.cls-8,.cls-9,.cls-10,.cls-11,.cls-12,.cls-13,.cls-14,.cls-15,.cls-16{fill:none;}.cls-1,.cls-5,.cls-9{isolation:isolate;}.cls-17{fill:#ddd;}.cls-18{fill:url(#Ikke-navngivet_forløb_21);}.cls-2{clip-path:url(#clippath-2);}.cls-19{fill:#19004a;}.cls-20{fill:#fff;}.cls-21{fill:#eef6ff;}.cls-3{opacity:.19;}.cls-22{fill:#f4caa6;}.cls-23{fill:url(#Ikke-navngivet_forløb_23);}.cls-24{fill:#f6fbff;}.cls-25{fill:#e2e2e2;}.cls-26{fill:#78acff;}.cls-4{opacity:.35;}.cls-27{fill:#00214b;}.cls-28{fill:#a0a0a0;}.cls-29{fill:#f4bacd;}.cls-5{opacity:.68;}.cls-6{opacity:.79;}.cls-6,.cls-8,.cls-30{mix-blend-mode:hard-light;}.cls-31{fill:#0b0754;}.cls-7{opacity:.4;}.cls-32{fill:#e8b691;}.cls-33{fill:#6aa0ef;}.cls-34{fill:#6666d8;}.cls-35{fill:#ffd9b6;}.cls-36{fill:#fa9295;}.cls-8{opacity:.68;}.cls-37{fill:#dbebfe;}.cls-38{fill:#eaeaea;}.cls-39{fill:#99afc1;}.cls-40{fill:#cdd6e1;}.cls-41{fill:#fb7268;}.cls-10{opacity:.24;}.cls-11{opacity:.6;}.cls-12{clip-path:url(#clippath-3);}.cls-13{opacity:.5;}.cls-42{fill:#d3d3d3;}.cls-43,.cls-44{fill:#0097ff;}.cls-45{fill:#3d5676;}.cls-30{fill:url(#Ikke-navngivet_forløb_510);opacity:.81;}.cls-46{fill:#bcbcbc;}.cls-15{clip-path:url(#clippath);}.cls-47{fill:#f7f7f7;}.cls-16{clip-path:url(#clippath-1);}.cls-44{opacity:.22;}.cls-48{fill:#c6c6c6;}.cls-49{fill:#5454c6;}.cls-50{fill:#c4c4c4;}.cls-51{fill:#e7f2ff;}.cls-52{fill:#ffb640;}</style><clipPath id="clippath"><path class="cls-14" d="m646.43,407.7c-1.05,0-1.98-.73-2.2-1.8-.25-1.22.54-2.41,1.75-2.66,1.22-.25,2.43.53,2.68,1.75.25,1.22-.51,2.4-1.73,2.65h-.05c-.15.04-.3.06-.45.06Z"/></clipPath><clipPath id="clippath-1"><path class="cls-14" d="m474.59,442.63c-1.05,0-1.99-.74-2.2-1.8-.25-1.22.54-2.41,1.76-2.65l167.9-34.13c1.22-.25,2.41.54,2.65,1.76.25,1.22-.54,2.41-1.76,2.65l-167.9,34.13c-.15.03-.3.05-.45.05Z"/></clipPath><clipPath id="clippath-2"><path class="cls-14" d="m472.57,443.04c-1.05,0-1.99-.74-2.2-1.81-.24-1.22.55-2.4,1.77-2.65h.05c1.22-.25,2.4.54,2.65,1.76.24,1.22-.55,2.4-1.77,2.65h-.05c-.15.04-.3.05-.44.05Z"/></clipPath><radialGradient id="Ikke-navngivet_forløb_21" cx="653.92" cy="402.9" fx="653.92" fy="402.9" r="17.59" gradientUnits="userSpaceOnUse"><stop offset="0" stop-color="#0097ff"/><stop offset=".02" stop-color="#0097ff" stop-opacity=".96"/><stop offset=".18" stop-color="#0097ff" stop-opacity=".71"/><stop offset=".34" stop-color="#0097ff" stop-opacity=".49"/><stop offset=".49" stop-color="#0097ff" stop-opacity=".32"/><stop offset=".64" stop-color="#0097ff" stop-opacity=".18"/><stop offset=".77" stop-color="#0097ff" stop-opacity=".08"/><stop offset=".89" stop-color="#0097ff" stop-opacity=".02"/><stop offset=".99" stop-color="#0097ff" stop-opacity="0"/></radialGradient><clipPath id="clippath-3"><path class="cls-14" d="m475.21,392.5c9.47-.55,18.9,1.6,27.32,6.31,11.37,6.37,19.51,16.67,22.92,29,3.41,12.33,1.68,25.21-4.86,36.28-6.54,11.07-17.12,18.99-29.79,22.31-12.67,3.32-25.9,1.64-37.27-4.73-11.37-6.37-19.51-16.67-22.92-29-3.41-12.33-1.68-25.21,4.86-36.28,6.54-11.07,17.12-18.99,29.79-22.31,3.29-.86,6.63-1.39,9.95-1.58Zm5.6,93.58c3.15-.18,6.32-.68,9.48-1.5,25.11-6.58,40.04-31.82,33.28-56.27-3.28-11.84-11.09-21.73-22.01-27.85-10.92-6.12-23.63-7.73-35.8-4.54-12.17,3.19-22.33,10.8-28.61,21.43-6.29,10.63-7.94,23-4.67,34.84,5.91,21.37,26.47,35.16,48.33,33.9Z"/></clipPath><linearGradient id="Ikke-navngivet_forløb_510" x1="403.94" y1="409.57" x2="479.83" y2="409.57" gradientTransform="translate(-30.12 128.92) rotate(-11.67)" gradientUnits="userSpaceOnUse"><stop offset="0" stop-color="#fff" stop-opacity="0"/><stop offset="1" stop-color="#fff" stop-opacity=".5"/></linearGradient><radialGradient id="Ikke-navngivet_forløb_23" cx="471.74" cy="441.72" fx="471.74" fy="441.72" r="22.47" gradientTransform="translate(101.48) scale(.77 1)" gradientUnits="userSpaceOnUse"><stop offset="0" stop-color="#0097ff"/><stop offset=".09" stop-color="#0097ff" stop-opacity=".95"/><stop offset=".25" stop-color="#0097ff" stop-opacity=".82"/><stop offset=".47" stop-color="#0097ff" stop-opacity=".6"/><stop offset=".74" stop-color="#0097ff" stop-opacity=".31"/><stop offset=".99" stop-color="#0097ff" stop-opacity="0"/></radialGradient></defs><g class="cls-9"><g id="Lag_1"><rect class="cls-20" width="765.54" height="1182"/><g id="Rectangle_566" class="cls-5"><polygon class="cls-37" points="0 154.93 .08 154.93 0 970.51 0 154.93"/><path class="cls-37" d="m333.52,328.93c-.72.98-1.42,1.97-2.11,2.98.68-1.01,1.38-2,2.09-2.98h.01Z"/><path class="cls-37" d="m392.76,510.86c-3.5,2.56-13.68-3.58-13.68-3.58,0,0-15.28-7.47-22.03-17.5-.01,4.41.06,10.14.11,14.32-7.21-13.14-12.25-27.58-14.67-42.85-.74-4.67-1.24-9.41-1.49-14.2-.11-2.25-.17-4.49-.17-6.76,0-1.12.01-2.23.04-3.35.11-4.16.4-8.29.88-12.36.06-.52.12-1.06.19-1.58.08-.63.18-1.28.28-1.92.47.39.76.85.74,1.42,2.04-.91,4.56-1.47,7.69-1.52,17.32-.15,14.49,12.8,14.49,12.8,0,0,2.16,19.77-9.49,19.94-2.19.03-4.37-.34-6.42-1.09-1.23,4.16-.65,6.6-.65,6.6,0,0,8.16,2.67,12.57,9.08,4.41,6.39,5.24,11.34,5.24,11.34l-1.96.76c.52,1.1,8.43,17.54,16.15,23.3,0,0,9.74-1.41,10.31-.68.56.74-1.94,1.96-1.94,1.96,0,0,7.3,3.33,3.82,5.88Z"/></g><g class="cls-9"><path class="cls-21" d="m530.74,250.12c-.12.33-.26.65-.41.96-.22.54-.47,1.09-.72,1.63-2.18,5.3-5.57,10.73-10.59,16.13-.98,1.07-2.03,2.14-3.14,3.2-24.47,23.3-43.5,30.9-53.49,33.37-5.03,1.25-7.76,1.2-7.76,1.2-3.03.55-6.03,1.2-9,1.94-1.98.5-3.94,1.03-5.88,1.61-1.94.58-3.86,1.18-5.77,1.85-1.9.66-3.79,1.35-5.65,2.08-1.86.73-3.71,1.5-5.54,2.31-1.36.59-2.73,1.23-4.06,1.87-1.35.65-2.69,1.31-4,2-.88.45-1.75.92-2.62,1.41-1.74.95-3.46,1.94-5.14,2.96-1.69,1.02-3.36,2.07-5,3.16-1.64,1.09-3.25,2.22-4.85,3.36-1.58,1.16-3.14,2.34-4.68,3.55-26.67,21.12-45.19,51.64-50.22,86.36-1.58-1.31-5.26-1.6-6.21-1.06-1.57.9-6.41,2.11-11.64-1.54-5.25-3.64-17.73-6.56-18.15,3.97-.43,10.54,12.07,7.87,14.65,6.6s5.99-1.01,8.82-.28c2.84.73,3.33,0,5.43-2.19,1.12-1.17,2.76-1.5,4.02-1.54-5.24,4.97-4.75,12.77-4.75,12.77-.12.19-.22.39-.29.61-.66,2.11,3.71,4.53,3.71,4.53.76,1.24,1.64,2.41,2.62,3.49.51,5.81-5.81,10.53-5.81,10.53,0,0-15.49-.96-25.39,17.91,0,0,.28.5.77,1.3-2.69,2.69-4.95,6.6-6.79,10.73-.11-.41-.22-.83-.32-1.25-.28-1.12-.55-2.23-.8-3.35-.01-.04-.01-.08-.03-.12-.29-1.25-.55-2.51-.81-3.76-.06-.25-.1-.5-.15-.74-.25-1.2-.47-2.41-.69-3.62-.22-1.2-.43-2.41-.62-3.64-.22-1.3-.41-2.6-.59-3.93-.1-.63-.18-1.28-.26-1.93-.15-1.16-.29-2.31-.41-3.49-.14-1.23-.26-2.45-.37-3.69v-.08c-.11-1.17-.21-2.36-.29-3.54-.04-.51-.07-1.02-.11-1.54-.07-1.12-.12-2.25-.18-3.36-.06-1.35-.11-2.7-.12-4.05-.01-.15-.03-.3-.01-.47-.04-1.36-.06-2.73-.06-4.09,0-1.46.01-2.91.06-4.35.03-1.32.07-2.65.12-3.95.01-.45.04-.9.07-1.35.04-.96.1-1.92.17-2.87.03-.44.06-.9.1-1.34.05-.92.14-1.85.22-2.76.03-.4.07-.8.11-1.21.1-1.07.21-2.15.33-3.22.03-.3.07-.62.11-.95.11-1.02.23-2.05.39-3.07.03-.29.07-.58.11-.88.12-.95.28-1.92.43-2.87.45-3.02.99-6.03,1.6-9.01.25-1.23.51-2.44.79-3.66.17-.73.33-1.47.51-2.2.21-.91.43-1.8.66-2.7.01-.07.03-.14.06-.21.25-1.01.51-2,.79-2.99.18-.7.37-1.39.58-2.09.11-.43.23-.85.36-1.28.26-.87.52-1.74.79-2.6.5-1.6,1.01-3.18,1.54-4.77.28-.84.56-1.69.87-2.54.41-1.16.83-2.31,1.25-3.46,1.3-3.44,2.69-6.85,4.17-10.21,1.27-2.88,2.62-5.72,4.05-8.53.33-.68.68-1.35,1.02-2.01.43-.83.85-1.65,1.3-2.47.06-.11.12-.23.21-.36.5-.94,1.01-1.87,1.53-2.8,1.23-2.18,2.49-4.34,3.8-6.46.51-.85,1.05-1.68,1.58-2.52.54-.88,1.12-1.76,1.69-2.63.48-.74.98-1.47,1.47-2.2.4-.61.81-1.2,1.23-1.79.69-1.01,1.39-2,2.11-2.98,0,0,0-.01.01-.01,2.33-3.24,4.77-6.39,7.3-9.47,12.23-17.51,32.05-54.71-4.71-72.73-49.05-24.07-120.98,22.88-188.01-3.38-1.63-.63-3.18-1.3-4.68-1.97-59.81-27.27-9.69-86.44-9.69-86.44,0,0,97.45-100.05-19.66-100.52C-3.03,53.95,53.91,0,53.91,0h156.61c49.63,29.75,66.9,61.7,71.37,90.64,9.99,64.8-44.31,114.53,56.16,90.84,110.07-25.97,135.48-7.36,135.48-7.36,0,0,77.9,24.79,57.22,76Z"/></g><g class="cls-9"><path class="cls-21" d="m483.93,976.46c-8.71,2.59-17.22,4.93-25.53,7.01-171.52,43.06-257.24-15.31-265.69,129.63-.03.29-.04.58-.06.85-3.22,51.16-26.49,68.03-55.83,68.03-56.98,0-136.83-63.78-136.83-63.78v-147.71s7.95-29.64,65.5-48.43c19.27-6.3,44.1-11.38,76.07-13.72,127.42-9.37,117.68-129.51,117.68-129.51-1.25-9.8,3.13-20.94,8.24-30.15,2.52-4.48,5.3-8.8,8.35-12.95,2.29-3.1,4.02-5.19,4.55-5.81.08-.1.12-.15.15-.18h.01c50.91-56.28,88.04-40.96,102.18-66.31,2.11-3.79,2.89-8.43,2.66-13.61-.01-.43-.04-.87-.08-1.31-.03-.41-.07-.81-.11-1.23-.03-.32-.07-.65-.11-.96-.18-1.46-.43-2.96-.73-4.49-.1-.48-.21-.96-.32-1.46-.12-.56-.26-1.13-.4-1.69-.03-.1-.06-.19-.07-.28-.12-.48-.26-.96-.39-1.45-2.03-7.34-5.24-15.18-9.01-22.93-.4-.83-.8-1.64-1.21-2.47-.76-1.5-1.54-3-2.33-4.49-.72-1.38-1.46-2.74-2.22-4.09-4.68-8.46-9.67-16.42-14.07-23.04-2.15-3.25-4.16-6.17-5.92-8.67-.28-.4-.55-.8-.83-1.17-3.22-4.57-5.44-7.48-5.86-8.03-.04-.07-.07-.1-.07-.1-1.75-2.09-3.46-4.23-5.1-6.41-.81-1.05-1.61-2.11-2.4-3.18-.68-.92-1.35-1.86-2.01-2.81-.65-.91-1.28-1.82-1.9-2.74-.36-.51-.7-1.03-1.05-1.56-.08-.11-.15-.22-.23-.34-.56-.85-1.13-1.72-1.68-2.59-.62-.95-1.23-1.93-1.82-2.89-.21-.33-.41-.66-.59-.99-.61-.96-1.18-1.94-1.75-2.92-.06-.1-.11-.19-.17-.29-.43-.73-.85-1.47-1.25-2.22-.47-.81-.92-1.63-1.35-2.44-.61-1.09-1.2-2.19-1.75-3.29-.47-.87-.91-1.72-1.34-2.6t-.01-.03c-.52-1.05-1.05-2.11-1.56-3.18-.62-1.28-1.21-2.59-1.79-3.9-.36-.8-.7-1.6-1.05-2.4-.47-1.03-.91-2.08-1.32-3.13-.1-.21-.19-.41-.26-.63-.44-1.07-.87-2.16-1.28-3.24-.85-2.18-1.65-4.38-2.41-6.6-.33-.95-.66-1.92-.96-2.88-.14-.4-.26-.81-.39-1.21-.61-1.85-1.16-3.71-1.68-5.58-.23-.79-.45-1.57-.66-2.37-.25-.9-.48-1.78-.7-2.67,1.85-4.13,4.11-8.05,6.79-10.73-.5-.8-.77-1.3-.77-1.3,9.91-18.88,25.39-17.91,25.39-17.91,0,0,6.32-4.71,5.81-10.53-.98-1.07-1.86-2.25-2.62-3.49,0,0-4.37-2.42-3.71-4.53.07-.22.17-.41.29-.61,0,0-.48-7.8,4.75-12.77-1.27.04-2.91.37-4.02,1.54-2.09,2.19-2.59,2.92-5.43,2.19-2.82-.73-6.24-.99-8.82.28s-15.07,3.94-14.65-6.6c.41-10.53,12.9-7.61,18.15-3.97,5.24,3.65,10.07,2.44,11.64,1.54.95-.54,4.63-.25,6.21,1.06-.1.63-.19,1.28-.28,1.92-.07.52-.14,1.06-.19,1.58-.48,4.06-.77,8.2-.88,12.36-.03,1.12-.04,2.23-.04,3.35,0,2.27.06,4.52.17,6.76.25,4.79.74,9.53,1.49,14.2,2.42,15.27,7.47,29.7,14.67,42.85,13.07,23.92,33.26,43.56,57.82,56.3h.01c.18.15,2.66,2.14,6.48,5.48,2.07,1.82,4.53,4.05,7.25,6.63,5.59,5.28,12.19,12,18.42,19.48.66.8,1.32,1.61,1.98,2.42,4.37,5.46,8.47,11.26,11.78,17.19.47.8.9,1.6,1.31,2.41,3.4,6.48,5.79,13.05,6.49,19.43.92,8.31-.98,16.24-7.19,23.11-1.02,1.13-1.98,2.31-2.89,3.54-.44.61-.85,1.21-1.25,1.82-.74,1.13-1.43,2.3-2.07,3.49-.22.4-.43.81-.62,1.21-.04.1-.08.18-.12.28-.04.1-.08.18-.12.28-.22.45-.43.91-.62,1.36-.17.4-.33.79-.48,1.18-.08.21-.17.41-.23.61-.04.1-.08.21-.11.3-.11.28-.21.55-.3.84-.08.23-.17.48-.25.73-.07.21-.12.41-.19.62-.03.08-.06.18-.08.26-.06.21-.12.41-.18.61-.14.5-.28,1.01-.4,1.5-.06.21-.11.43-.15.63l-.03.07s0,.07-.01.11c-.06.22-.11.47-.17.69-.06.26-.1.51-.15.76-.06.3-.11.61-.17.91-.03.12-.04.23-.06.36-.04.18-.07.36-.1.54-.03.18-.06.37-.08.55l-.06.34c-.11.79-.19,1.57-.28,2.37-.03.41-.07.84-.1,1.27-.03.34-.06.68-.07,1.02v.12c0,.08-.01.18-.01.28v.1c-.03.65-.06,1.31-.06,1.96v.22c0,.5,0,1.01.01,1.5v.08c.01.61.04,1.24.07,1.86h0c.04.63.08,1.25.14,1.87.01.32.04.63.08.95.06.62.14,1.27.21,1.89.04.32.08.63.12.95.03.22.06.43.08.63.03.22.06.43.1.63.06.36.11.72.18,1.09.07.36.12.74.19,1.1l.19,1.06c.07.36.15.7.22,1.06.11.47.21.95.32,1.42.11.48.22.95.33,1.42.12.47.23.94.36,1.41s.26.94.39,1.41c.12.47.26.92.4,1.39.06.19.11.39.17.58l.25.79c.07.23.14.47.21.7.22.69.45,1.36.68,2.04.3.9.62,1.79.95,2.67.15.44.32.88.48,1.31.17.44.33.87.51,1.3.17.44.34.87.51,1.28.18.44.34.85.52,1.27.18.43.34.84.54,1.25l.26.62c.1.21.18.41.28.61.18.41.36.81.54,1.21.1.19.18.4.28.59.1.21.18.4.28.59.17.37.34.74.52,1.1.17.36.34.72.51,1.06.08.17.17.34.25.51.18.36.36.7.52,1.06.14.26.28.54.41.81h.01c.14.23,1.31,2.18,3.35,5.21,2.22,3.31,5.43,7.91,9.4,13.01,6.63,8.5,15.32,18.41,24.94,25.94,0,0,37.63,31.73,58.57,71.27,5.59,10.57,9.99,21.69,12.17,32.91,7.14,36.76-9.62,74.62-86.65,97.57Z"/></g><g class="cls-5"><path class="cls-37" d="m333.52,328.93c-.72.98-1.42,1.97-2.11,2.98.68-1.01,1.38-2,2.09-2.98h.01Z"/></g><path class="cls-51" d="m382.72,663.45c-14.14,25.35-51.27,10.03-102.18,66.3h-.01s-.07.1-.15.19c-.52.62-2.26,2.71-4.55,5.81-3.04,4.15-5.83,8.47-8.35,12.95-5.11,9.2-9.49,20.35-8.24,30.15,0,0,9.74,120.14-117.68,129.51-31.96,2.34-56.79,7.43-76.07,13.72C7.95,940.88,0,970.51,0,970.51L.08,154.93h-.08V0h53.91S-3.03,53.95,114.08,54.41c117.11.47,19.66,100.52,19.66,100.52,0,0-50.12,59.18,9.69,86.44,1.5.68,3.06,1.34,4.68,1.97,67.03,26.26,138.96-20.69,188.01,3.38,36.76,18.02,16.95,55.22,4.71,72.73-2.54,3.07-4.97,6.23-7.3,9.47-.01,0-.01.01-.01.01h-.01c-.72.98-1.42,1.97-2.09,2.98-.41.59-.83,1.18-1.23,1.79-.51.73-1.01,1.46-1.47,2.2-.58.87-1.16,1.75-1.69,2.63-.54.84-1.07,1.67-1.58,2.52-1.31,2.12-2.58,4.28-3.8,6.46-.52.92-1.03,1.86-1.53,2.8-.08.12-.15.25-.21.36-.44.81-.87,1.64-1.3,2.47-.36.66-.7,1.34-1.02,2.01-1.43,2.81-2.78,5.65-4.05,8.53-1.49,3.36-2.88,6.76-4.17,10.21-.43,1.14-.84,2.3-1.25,3.46-.3.84-.59,1.69-.87,2.54-.54,1.58-1.05,3.17-1.54,4.77-.26.87-.52,1.74-.79,2.6-.12.43-.25.85-.36,1.28-.21.7-.4,1.39-.58,2.09-.28.99-.54,1.98-.79,2.99-.03.07-.04.14-.06.21-.23.9-.45,1.79-.66,2.7-.18.73-.34,1.47-.51,2.2-.28,1.23-.54,2.44-.79,3.66-.61,2.98-1.14,5.99-1.6,9.01-.17.95-.3,1.9-.43,2.87-.04.3-.08.59-.11.88-.15,1.02-.28,2.05-.39,3.07-.04.33-.08.65-.11.95-.12,1.07-.23,2.15-.33,3.22-.04.41-.08.81-.11,1.21-.08.91-.17,1.83-.22,2.76-.04.44-.07.9-.1,1.34-.07.95-.12,1.9-.17,2.87-.03.45-.06.9-.07,1.35-.06,1.31-.1,2.63-.12,3.95-.04,1.45-.06,2.89-.06,4.35,0,1.36.01,2.73.06,4.09-.01.17,0,.32.01.47.01,1.35.07,2.7.12,4.05.06,1.12.11,2.25.18,3.36.04.52.07,1.03.11,1.54.08,1.18.18,2.37.29,3.54v.08c.11,1.24.23,2.47.37,3.69.12,1.17.26,2.33.41,3.49.08.65.17,1.3.26,1.93.18,1.32.37,2.63.59,3.93.19,1.23.4,2.44.62,3.64.22,1.21.44,2.42.69,3.62.06.25.1.5.15.74.26,1.25.52,2.51.81,3.76.01.04.01.08.03.12.25,1.12.52,2.23.8,3.35.1.43.21.84.32,1.25.22.9.45,1.78.7,2.67.21.8.43,1.58.66,2.37.52,1.87,1.07,3.73,1.68,5.58.12.4.25.81.39,1.21.3.96.63,1.93.96,2.88.76,2.22,1.56,4.42,2.41,6.6.4,1.09.83,2.16,1.28,3.24.07.22.17.43.26.63.41,1.05.85,2.09,1.32,3.13.33.8.68,1.6,1.05,2.4.58,1.31,1.17,2.62,1.79,3.9.51,1.07,1.03,2.14,1.56,3.18t.01.03c.43.88.87,1.74,1.34,2.6.55,1.1,1.14,2.2,1.75,3.29.43.81.88,1.63,1.35,2.44.4.74.83,1.49,1.25,2.22.06.1.11.19.17.29.56.98,1.14,1.96,1.75,2.92.18.33.39.66.59.99.59.96,1.2,1.94,1.82,2.89.55.87,1.12,1.74,1.68,2.59.08.12.15.23.23.34.34.52.69,1.05,1.05,1.56.62.92,1.25,1.83,1.9,2.74.66.95,1.34,1.89,2.01,2.81.79,1.07,1.58,2.14,2.4,3.18,1.64,2.18,3.35,4.31,5.1,6.41,0,0,.03.03.07.1.41.55,2.63,3.46,5.86,8.03.28.37.55.77.83,1.17,1.76,2.49,3.78,5.41,5.92,8.67,4.4,6.61,9.38,14.58,14.07,23.04.74,1.35,1.49,2.71,2.22,4.09.79,1.49,1.57,2.99,2.33,4.49.41.83.81,1.64,1.21,2.47,3.78,7.74,6.99,15.58,9.01,22.93.12.48.26.96.39,1.45.01.08.04.18.07.28.14.56.28,1.13.4,1.69.11.5.22.98.32,1.46.3,1.53.55,3.03.73,4.49.04.32.08.65.11.96.04.41.08.81.11,1.23.04.44.07.88.08,1.31.23,5.18-.55,9.82-2.66,13.61Z"/><path class="cls-37" d="m333.52,328.93c-.72.98-1.42,1.97-2.11,2.98.68-1.01,1.38-2,2.09-2.98h.01Z"/><g class="cls-9"><path class="cls-24" d="m658.19,236.96c-16.73,27.35-65.39,25.63-74.22,38.01-8.25,11.56-7.91,27.45-2.29,45.01,2.71,8.5-.62,14.81-7.32,19.5-22.02,15.4-80.38,13.27-80.38,13.27-4.45-.65-8.94-.96-13.43-.96-50.21,0-90.91,39.62-90.91,88.49,0,27.51,12.91,52.12,33.18,68.34h-5.8c-.73,0-1.34.59-1.34,1.32v4.46c0,.73.61,1.32,1.34,1.32h11.7v56.78c-2.71-2.58-5.18-4.81-7.25-6.63-3.82-3.35-6.3-5.33-6.48-5.47h-.01c-24.57-12.74-44.75-32.39-57.82-56.31-.06-4.17-.12-9.91-.11-14.32,6.75,10.03,22.03,17.5,22.03,17.5,0,0,10.18,6.14,13.68,3.58,3.49-2.55-3.82-5.88-3.82-5.88,0,0,2.51-1.21,1.94-1.96-.56-.73-10.31.68-10.31.68-7.72-5.76-15.62-22.2-16.15-23.3l1.96-.76s-.83-4.95-5.24-11.34c-4.41-6.41-12.57-9.08-12.57-9.08,0,0-.58-2.44.65-6.6,2.05.74,4.23,1.12,6.42,1.09,11.66-.17,9.49-19.94,9.49-19.94,0,0,2.82-12.95-14.49-12.8-3.13.04-5.65.61-7.69,1.52.01-.56-.28-1.03-.74-1.42,5.03-34.72,23.55-65.24,50.22-86.36,1.54-1.21,3.1-2.4,4.68-3.55,1.6-1.14,3.21-2.27,4.85-3.36,1.64-1.09,3.31-2.14,5-3.16,1.68-1.02,3.4-2.01,5.14-2.96.87-.48,1.74-.95,2.62-1.41,1.31-.69,2.65-1.35,4-2,1.34-.65,2.7-1.28,4.06-1.87,1.83-.81,3.68-1.58,5.54-2.31,1.86-.73,3.75-1.42,5.65-2.08,1.92-.66,3.83-1.27,5.77-1.85,1.94-.58,3.9-1.12,5.88-1.61,2.96-.74,5.97-1.39,9-1.94,0,0,2.73.06,7.76-1.2,9.99-2.47,29.02-10.07,53.49-33.37,1.12-1.06,2.16-2.12,3.14-3.2,5.03-5.4,8.42-10.83,10.59-16.13.25-.54.5-1.09.72-1.63.15-.32.29-.63.41-.96,20.68-51.21-57.22-76-57.22-76,0,0-25.41-18.61-135.48,7.36-100.47,23.7-46.17-26.04-56.16-90.84-4.46-28.95-21.74-60.9-71.37-90.64h51.86c16.26,53.5,17.5,51.76,86.84,64.52,20.4,3.75,22.87,14.43,20.53,26.29-4.49,22.83-26.76,50.01,27.22,40.45,27.58-4.89,52.2-7.5,74.07-8.45,109.66-4.77,150.34,32.12,150.34,32.12,0,0,63.85,37.75,36.8,82.03Z"/></g><g class="cls-1"><path class="cls-37" d="m392.76,510.86c-3.5,2.56-13.68-3.58-13.68-3.58,0,0-15.28-7.47-22.03-17.5-.01,4.41.06,10.14.11,14.32-7.21-13.14-12.25-27.58-14.67-42.85-.74-4.67-1.24-9.41-1.49-14.2-.11-2.25-.17-4.49-.17-6.76,0-1.12.01-2.23.04-3.35.11-4.16.4-8.29.88-12.36.06-.52.12-1.06.19-1.58.08-.63.18-1.28.28-1.92.47.39.76.85.74,1.42,2.04-.91,4.56-1.47,7.69-1.52,17.32-.15,14.49,12.8,14.49,12.8,0,0,2.16,19.77-9.49,19.94-2.19.03-4.37-.34-6.42-1.09-1.23,4.16-.65,6.6-.65,6.6,0,0,8.16,2.67,12.57,9.08,4.41,6.39,5.24,11.34,5.24,11.34l-1.96.76c.52,1.1,8.43,17.54,16.15,23.3,0,0,9.74-1.41,10.31-.68.56.74-1.94,1.96-1.94,1.96,0,0,7.3,3.33,3.82,5.88Z"/></g><g class="cls-9"><path class="cls-24" d="m642.91,834.46c-43.36-4.68-72.33,44.43-72.33,44.43-2.18-11.23-6.57-22.35-12.17-32.91-20.94-39.54-58.57-71.27-58.57-71.27-9.62-7.54-18.31-17.44-24.94-25.94-3.97-5.1-7.18-9.7-9.4-13.01-2.04-3.03-3.21-4.97-3.35-5.19h0s-.01-.01-.01-.01c-.14-.28-.28-.55-.41-.81-.17-.36-.34-.7-.52-1.06-.08-.17-.17-.34-.25-.51-.17-.34-.34-.7-.51-1.06-.18-.36-.36-.73-.52-1.1-.1-.19-.18-.39-.28-.59-.1-.19-.18-.4-.26-.59-.19-.4-.37-.8-.55-1.21-.1-.19-.18-.4-.28-.61l-.26-.62c-.19-.41-.36-.83-.54-1.25-.18-.41-.34-.83-.52-1.27-.17-.41-.34-.84-.51-1.28-.18-.43-.34-.85-.51-1.3-.17-.43-.33-.87-.48-1.31-.33-.88-.65-1.78-.95-2.67-.22-.68-.45-1.35-.68-2.04-.07-.23-.14-.47-.21-.7l-.25-.79c-.06-.19-.11-.39-.17-.58-.14-.47-.28-.92-.4-1.39-.12-.47-.26-.94-.39-1.41s-.23-.94-.36-1.41c-.11-.47-.22-.94-.33-1.42-.11-.47-.21-.95-.32-1.42-.07-.36-.15-.7-.22-1.06l-.19-1.06c-.07-.36-.12-.74-.19-1.1-.07-.37-.12-.73-.18-1.09-.04-.21-.07-.41-.1-.63-.03-.21-.06-.41-.08-.63-.04-.32-.08-.63-.12-.95-.07-.62-.15-1.27-.21-1.89-.04-.32-.07-.63-.08-.95-.06-.62-.1-1.24-.14-1.86.01,0,.01-.01.01-.01h-.01c-.03-.62-.06-1.25-.07-1.86.01-.03.01-.04,0-.07h0c-.01-.51-.01-1.02-.01-1.52v-.22c.01-.66.03-1.31.06-1.96v-.1c0-.1.01-.19.01-.28v-.12c.01-.34.04-.68.07-1.02.03-.43.07-.85.1-1.27.08-.8.17-1.58.28-2.37l.06-.34c.03-.18.06-.37.08-.55.03-.18.06-.36.1-.54.01-.12.03-.23.06-.36.06-.3.11-.61.17-.91.06-.25.1-.5.15-.76.06-.22.11-.47.17-.69.01-.04.01-.07.01-.11l.03-.07c.04-.21.1-.43.15-.63.12-.5.26-1.01.4-1.5.06-.19.12-.4.18-.61.03-.08.06-.18.08-.26.07-.21.12-.41.19-.62.08-.25.17-.5.25-.73.1-.29.19-.56.3-.84.03-.1.07-.21.11-.3.07-.19.15-.4.23-.61.15-.4.32-.79.48-1.18.19-.45.4-.91.62-1.36.04-.1.08-.18.12-.28.04-.1.1-.18.14-.28.19-.4.4-.81.61-1.21.63-1.18,1.32-2.36,2.07-3.49.4-.61.81-1.21,1.25-1.82.91-1.23,1.87-2.41,2.89-3.54,6.21-6.86,8.12-14.8,7.19-23.11-.7-6.38-3.09-12.95-6.49-19.43-.41-.81-.84-1.61-1.31-2.41-3.31-5.94-7.41-11.74-11.78-17.19-.66-.81-1.32-1.63-1.98-2.42-6.23-7.48-12.83-14.2-18.42-19.48v-56.78h-11.7c-.73,0-1.34-.59-1.34-1.32v-4.46c0-.73.61-1.32,1.34-1.32h5.8c2.63,2.14,5.4,4.11,8.28,5.92.63.4,1.28.8,1.93,1.18,1.98,1.18,4.02,2.3,6.09,3.33,1.24.62,2.48,1.2,3.75,1.76,1.32.58,2.66,1.14,4.02,1.67.22.08.43.17.65.26.01,0,.04,0,.06.01,0,0,.01,0,.04.01,2,.76,4.01,1.45,6.05,2.04,1.38.43,2.78.81,4.19,1.17,1.78.59,3.73,1.3,5.86,2.08.01,0,.06.01.08.03,1.54.58,3.17,1.2,4.86,1.86.28.11.55.22.84.33h.01c2.01.8,4.11,1.67,6.3,2.6.17.07.34.14.51.22,1.1.47,2.22.95,3.36,1.46,3.66,1.63,7.51,3.43,11.46,5.43,3.94,2,7.99,4.17,12.08,6.54.59.34,1.18.69,1.78,1.06.43.23.84.48,1.25.73,2.76,1.65,5.52,3.4,8.27,5.24,2.88,1.92,5.75,3.93,8.57,6.05,1.28.95,2.56,1.94,3.83,2.95,1.71,1.35,3.4,2.76,5.07,4.19,7.43,6.39,14.37,13.56,20.28,21.55,5.3,7.15,9.8,14.98,13.09,23.49.28.66.52,1.34.77,2.03.11.33.23.65.34.98,2.89,8.27,4.56,16.91,4.96,25.64.94,19.63,6.7,32.5,15.71,40.77.01.01.03.01.03.03,43.56,54.71,108.77,55.04,130.2,90.23,21.42,35.2-15,69.43-74.48,62.99Z"/></g><g class="cls-9"><path class="cls-24" d="m458.4,983.48c-58.02,69.29-122.19,140.16-265.74,130.49.01-.28.03-.56.06-.85,8.45-144.94,94.17-86.58,265.69-129.63Z"/></g><polygon class="cls-20" points="94.12 388.27 73.77 366.62 73.9 366.63 118.65 368.59 108.01 377.16 107.56 384.9 102.13 381.98 94.12 388.27"/><g class="cls-10"><g class="cls-15"><rect class="cls-43" x="643.98" y="403" width=".2" height="4.7"/><rect class="cls-43" x="644.19" y="403" width="4.5" height="4.7"/><rect class="cls-43" x="648.69" y="403" width=".23" height="4.7"/></g><g class="cls-16"><rect class="cls-43" x="472.14" y="403.8" width=".2" height="38.83"/><rect class="cls-43" x="472.34" y="403.8" width="171.43" height="38.83"/><rect class="cls-43" x="643.77" y="403.8" width="1.17" height="38.83"/></g><g class="cls-2"><rect class="cls-43" x="470.12" y="438.33" width=".2" height="4.71"/><rect class="cls-43" x="470.32" y="438.33" width="4.52" height="4.71"/><rect class="cls-43" x="474.84" y="438.33" width=".22" height="4.71"/></g></g><path class="cls-26" d="m681.79,591.71c-.18.07-.38.13-.57.18h0c-2.35.69-5.57.53-7.86.26-1.68-.2-2.87-.44-2.87-.44-2.43-15.08-24.37-89.29-24.37-89.29,0,0-4.17,87.93-6.44,89.8-.29.24-.72.42-1.25.55-2.37.58-6.69.11-9.18-.24-1.16-.17-1.92-.31-1.92-.31,0,0-5.91-88.78-5.22-97.42.7-8.64.32-15.59,9.34-25.72,0,0,2.85,1.55,7.59,2.32.65.91,1.73,1.5,2.95,1.5,1.01,0,1.92-.41,2.58-1.07,4.51-.02,9.93-.94,15.83-3.81,1.31,1.05,2.6,2.98,3.86,5.63-.58.95-1.02,1.73-1.3,2.25-2.13,4.11-3.22,9.32-1.74,9.19s2.13-4.15,2.13-4.15c1.26,1.27,1.74,4.02,2.09,6.27.32,2.1,1.41,5.55,4.12,2.16,9.29,35.51,15.31,101.16,12.24,102.34Z"/><path class="cls-34" d="m682.22,432.92c-.87,3.02-6.22,7.03-8.92,8.91-.94.65-1.57,1.04-1.57,1.04-2.22-1.18-5.96-5.5-5.96-5.5-4.15,9.3-5.12,21.15-5.34,27.02-5.75,2.57-11.01,3.28-15.42,3.13-.64-.98-1.77-1.63-3.04-1.63-.96,0-1.84.37-2.49.97-4.85-1.02-7.76-2.81-7.76-2.81.22-7.84-.59-16.18-.59-16.18,0,0-3.08-.49-4.67-3.7-.28-.57-.52-1.23-.68-1.98-.23-1.03-.19-2.03,0-2.96-3.52-1.53-6.58-5.01-6.58-5.01,0,0,2-5,5.96-9.74,1.14-1.37,2.81-2.36,4.61-3.07,4.45-1.76,9.7-1.85,9.7-1.85,7.62,4.78,10.62-1.4,10.62-1.4,0,0,11.01-1.61,16.67,1.1,4.02,1.92,10.11,7.99,13.32,11.35,1.31,1.37,2.13,2.29,2.13,2.29Z"/><path class="cls-14" d="m625.8,439.24s0,0-.01,0"/><path d="m638.37,469.39c0,.74.24,1.44.65,2-4.74-.77-7.59-2.32-7.59-2.32l.15-1.89c.07-1.02.12-2.08.15-3.14,0,0,2.91,1.79,7.76,2.81-.68.64-1.12,1.54-1.12,2.54Z"/><path class="cls-49" d="m625.79,439.93s-.09,0-.14-.01c-.37-.08-.61-.44-.53-.82.8-3.83,4.1-6.52,4.24-6.63.3-.24.73-.19.97.1.24.3.19.73-.1.97-.03.02-3.06,2.51-3.76,5.84-.07.32-.35.55-.67.55Z"/><path class="cls-22" d="m650.11,418.18s-3,6.18-10.62,1.4c0,0,1.45-6.33,1.12-9.52,6.05,4.66,10.41-1.41,10.61-1.69-1.88,4.47-1.11,9.82-1.11,9.82Z"/><path class="cls-35" d="m658.9,401.49c-.13,2.71-4.13,2.45-4.13,2.45-1.7,1.1-2.82,2.69-3.54,4.41,0,0,0,0,0,0h0c-.2.29-4.55,6.36-10.61,1.7-.08-.06-.16-.13-.24-.19-6.33-5.14-5.05-14.35-5.05-14.35,0,0,.09-7.17,4.23-7.48,4.15-.31,7.25-2.72,7.25-2.72,0,0,1.43,3.3,4.61,7.24,3.18,3.94,3.57,7.54,3.57,7.54,0,0,4.05-1.31,3.91,1.4Z"/><path class="cls-27" d="m680.09,430.63c-3.2-3.36-9.3-9.43-13.32-11.35-5.66-2.71-16.67-1.1-16.67-1.1,0,0-.77-5.35,1.11-9.82h0s0,0,0,0c.72-1.71,1.84-3.3,3.54-4.41,0,0,4,.26,4.13-2.45.13-2.71-3.91-1.4-3.91-1.4,0,0-.39-3.6-3.57-7.54-3.18-3.94-4.61-7.24-4.61-7.24,0,0-3.1,2.41-7.25,2.72-4.15.31-4.23,7.48-4.23,7.48,0,0-1.28,9.21,5.05,14.35.08.06.16.13.24.19.33,3.19-1.12,9.52-1.12,9.52,0,0-5.25.09-9.7,1.85,0,0-.31-9.22-4.92-13.63-4.61-4.4-2.24-13.31,2.87-15.76,5.74-2.75,6.61-9.49,6.61-9.49,0,0,1.22-7.12,14.88-4.91,10.09,1.63,13.23,3.98,15.93,10.5,2.56,6.2,1.3,11.18,7.74,15.42,6.44,4.23,5.22,10.15,4.7,14.14-.52,3.99,6.36,9.49,2.48,12.92Z"/><g class="cls-7"><circle class="cls-18" cx="653.92" cy="402.9" r="17.59"/></g><path class="cls-22" d="m689.21,453.24c-4.98,5.42-20.13,23.32-20.13,23.32,0,0,4.18,7.37,1.04,12.03-.2.29-.39.55-.57.79-2.7,3.39-3.79-.06-4.12-2.16-.35-2.24-.83-5-2.09-6.27,0,0-.65,4.02-2.13,4.15s-.39-5.08,1.74-9.19c.27-.53.72-1.3,1.3-2.25,3.89-6.42,13.69-20.92,16.06-22.99l-7.01-8.84c2.7-1.87,8.05-5.89,8.92-8.91,0,0,11.98,14.9,6.99,20.32Z"/><path class="cls-22" d="m638.21,605.66c-13.23,3.84-15.1-1.73-15.1-1.73,3.25-1.34,6.12-2.34,6.12-2.34v-9.07c2.49.36,6.81.83,9.18.24.16.75-.03,7.87-.2,12.89Z"/><path class="cls-27" d="m638.21,605.66c-.09,2.81-.17,4.97-.17,4.97,0,0-10.5,1.41-21.29.23-7.01-.77.35-4.44,6.37-6.93,0,0,1.87,5.58,15.1,1.74Z"/><path class="cls-22" d="m682.6,602.98c-9.85,7.41-13.52,1.69-13.52,1.69,2.34-1.35,4.27-2.33,4.27-2.33v-10.18c2.29.27,5.51.43,7.86-.25,0,.25.41,9.82,1.38,11.08Z"/><path class="cls-27" d="m684.05,608.02s-1.83,2.79-17.54,4.28c-11.11,1.05-3.09-4.36,2.56-7.62,0,0,3.67,5.72,13.52-1.69.98,1.27,1.45,5.04,1.45,5.04Z"/><path d="m660.38,468.03c-5.89,2.86-11.31,3.79-15.83,3.81.63-.63,1.02-1.49,1.02-2.44,0-.69-.2-1.33-.56-1.87,4.4.15,9.67-.56,15.42-3.13-.09,2.26-.05,3.64-.05,3.64Z"/><path class="cls-14" d="m645.02,467.52c-2.04-.07-3.9-.32-5.53-.66"/><path class="cls-14" d="m639.02,471.4c1.63.27,3.49.45,5.53.44"/><path class="cls-50" d="m645.02,467.52c-.64-.98-1.77-1.63-3.04-1.63-.96,0-1.84.36-2.48.97-.68.64-1.12,1.54-1.12,2.54,0,.74.24,1.44.65,2,.65.91,1.73,1.5,2.95,1.5,1.01,0,1.92-.41,2.58-1.07.63-.63,1.02-1.49,1.02-2.44,0-.69-.2-1.33-.56-1.87Zm-1.22,1.87c0,.98-.82,1.78-1.82,1.78s-1.82-.8-1.82-1.78.82-1.77,1.82-1.77,1.82.79,1.82,1.77Z"/><path d="m643.8,469.39c0,.98-.82,1.78-1.82,1.78s-1.82-.8-1.82-1.78.82-1.78,1.82-1.78,1.82.8,1.82,1.78Z"/><path class="cls-49" d="m650.68,447.25c-4.59,0-8.07-3.89-8.22-4.07-.25-.29-.22-.72.06-.97.29-.25.72-.22.97.06.03.04,3.43,3.85,7.61,3.59,2.52-.16,4.85-1.78,6.91-4.82.21-.31.64-.4.96-.18.31.21.4.64.18.96-2.32,3.41-5.01,5.23-7.98,5.42-.17.01-.33.02-.5.02Z"/><ellipse class="cls-20" cx="642.35" cy="404.17" rx="1.23" ry="3.03" transform="translate(117.93 952.77) rotate(-78.47)"/><path class="cls-32" d="m641.54,401.26c-.61,0-1.08-.28-1.3-.79-.44-1.02.77-3.19,1.15-3.83.14-.24.46-.33.71-.18.25.15.33.46.18.71-.71,1.19-1.23,2.57-1.09,2.89.03.07.09.19.44.17.26-.02.51-.13.51-.13.26-.11.57,0,.68.27.11.26,0,.57-.27.68-.04.02-.41.17-.84.21-.06,0-.12,0-.17,0Z"/><path class="cls-43" d="m657.84,403.85c-.28.07-.56-.09-.63-.36-.07-.27.09-.55.37-.62.1-.03,1.02-.33.79-1.77-.05-.29-.18-.49-.4-.62-.48-.3-1.29-.24-1.85-.15l.32,1.19c.28.14.48.43.48.75,0,.47-.39.85-.87.85-.14,0-.27-.03-.39-.09-1.19.54-3.77,1.61-6.66,2.04-.03,0-.05,0-.08,0-.25,0-.47-.18-.51-.43-.04-.28.15-.53.43-.57,2.72-.4,5.21-1.43,6.35-1.95.03-.16.11-.31.22-.43l-.43-1.61c-.07-.27.09-.53.35-.61.21-.06,2.03-.56,3.19.15.47.29.77.74.87,1.32.32,1.91-.87,2.73-1.54,2.91Z"/><ellipse class="cls-44" cx="478.02" cy="440.34" rx="49.12" ry="47.82"/><g class="cls-11"><path class="cls-43" d="m634.68,407.67c-.96,0-1.82-.67-2.02-1.65-.23-1.12.48-2.21,1.6-2.44,1.12-.24,2.24.48,2.47,1.6.23,1.12-.46,2.21-1.58,2.44h-.05c-.14.04-.28.05-.42.05Z"/><path class="cls-43" d="m468.14,440.34c-.42,0-.79-.29-.87-.71-.1-.48.21-.95.7-1.05l.12-.02c.48-.1.95.21,1.05.7.1.48-.21.95-.7,1.05l-.12.02c-.06.01-.12.02-.18.02Zm4.78-.97c-.42,0-.79-.29-.87-.72-.1-.48.21-.95.7-1.05l.12-.02c.48-.1.95.21,1.05.7s-.21.95-.7,1.05l-.12.02c-.06.01-.12.02-.18.02Zm4.78-.97c-.42,0-.79-.29-.87-.71-.1-.48.21-.95.7-1.05l.12-.02c.48-.1.95.21,1.05.7.1.48-.21.95-.7,1.05l-.12.02c-.06.01-.12.02-.18.02Zm4.78-.97c-.42,0-.79-.29-.87-.71-.1-.48.21-.95.7-1.05l.12-.02c.48-.1.95.21,1.05.7.1.48-.21.95-.7,1.05l-.12.02c-.06.01-.12.02-.18.02Zm4.78-.97c-.42,0-.79-.29-.87-.71-.1-.48.21-.95.7-1.05l.12-.02c.48-.1.95.21,1.05.7s-.21.95-.7,1.05l-.12.02c-.06.01-.12.02-.18.02Zm4.78-.97c-.42,0-.79-.29-.87-.72-.1-.48.21-.95.7-1.05l.12-.02c.48-.1.95.22,1.05.7.1.48-.21.95-.7,1.05l-.12.02c-.06.01-.12.02-.18.02Zm4.78-.97c-.42,0-.79-.29-.87-.71-.1-.48.21-.95.7-1.05l.12-.02c.48-.1.95.21,1.05.7.1.48-.21.95-.7,1.05l-.12.02c-.06.01-.12.02-.18.02Zm4.78-.97c-.42,0-.79-.29-.87-.71-.1-.48.21-.95.7-1.05l.12-.02c.48-.1.95.21,1.05.7.1.48-.21.95-.7,1.05l-.12.02c-.06.01-.12.02-.18.02Zm4.78-.97c-.42,0-.79-.29-.87-.71-.1-.48.21-.95.7-1.05l.12-.02c.48-.1.95.21,1.05.7s-.21.95-.7,1.05l-.12.02c-.06.01-.12.02-.18.02Zm4.78-.97c-.42,0-.79-.29-.87-.72-.1-.48.21-.95.7-1.05l.12-.02c.48-.1.95.21,1.05.7s-.21.95-.7,1.05l-.12.02c-.06.01-.12.02-.18.02Zm4.78-.97c-.42,0-.79-.29-.87-.71-.1-.48.21-.95.7-1.05l.12-.02c.48-.1.95.21,1.05.7.1.48-.21.95-.7,1.05l-.12.02c-.06.01-.12.02-.18.02Zm4.78-.97c-.42,0-.79-.29-.87-.71-.1-.48.21-.95.7-1.05l.12-.02c.49-.1.95.21,1.05.7s-.21.95-.7,1.05l-.12.02c-.06.01-.12.02-.18.02Zm4.78-.97c-.42,0-.79-.29-.87-.71-.1-.48.21-.95.7-1.05l.12-.02c.48-.1.95.21,1.05.7.1.48-.21.95-.7,1.05l-.12.02c-.06.01-.12.02-.18.02Zm4.78-.97c-.42,0-.79-.29-.87-.72-.1-.48.22-.95.7-1.05l.12-.02c.48-.1.95.22,1.05.7.1.48-.22.95-.7,1.05l-.12.02c-.06.01-.12.02-.18.02Zm4.78-.97c-.42,0-.79-.29-.87-.71-.1-.48.21-.95.7-1.05l.12-.02c.48-.1.95.21,1.05.7.1.48-.21.95-.7,1.05l-.12.02c-.06.01-.12.02-.18.02Zm4.78-.97c-.42,0-.79-.29-.87-.71-.1-.48.21-.95.7-1.05l.12-.02c.48-.1.95.21,1.05.7s-.21.95-.7,1.05l-.12.02c-.06.01-.12.02-.18.02Zm4.78-.97c-.42,0-.79-.29-.87-.71-.1-.48.21-.95.7-1.05l.12-.02c.48-.1.95.21,1.05.7.1.48-.21.95-.7,1.05l-.12.02c-.06.01-.12.02-.18.02Zm4.78-.97c-.42,0-.79-.29-.87-.72-.1-.48.21-.95.7-1.05l.12-.02c.48-.1.95.21,1.05.7s-.21.95-.7,1.05l-.12.02c-.06.01-.12.02-.18.02Zm4.78-.97c-.42,0-.79-.29-.87-.71-.1-.48.21-.95.7-1.05l.12-.02c.48-.1.95.21,1.05.7.1.48-.21.95-.7,1.05l-.12.02c-.06.01-.12.02-.18.02Zm4.78-.97c-.42,0-.79-.29-.87-.71-.1-.48.21-.95.7-1.05l.12-.02c.48-.1.95.21,1.05.7s-.21.95-.7,1.05l-.12.02c-.06.01-.12.02-.18.02Zm4.78-.97c-.42,0-.79-.29-.87-.71-.1-.48.21-.95.7-1.05l.12-.02c.48-.1.95.21,1.05.7.1.48-.21.95-.7,1.05l-.12.02c-.06.01-.12.02-.18.02Zm4.78-.97c-.42,0-.79-.29-.87-.72-.1-.48.22-.95.7-1.05l.12-.02c.48-.1.95.22,1.05.7s-.22.95-.7,1.05l-.12.02c-.06.01-.12.02-.18.02Zm4.78-.97c-.42,0-.79-.29-.87-.71-.1-.48.21-.95.7-1.05l.12-.02c.48-.1.95.21,1.05.7.1.48-.21.95-.7,1.05l-.12.02c-.06.01-.12.02-.18.02Zm4.78-.97c-.42,0-.79-.29-.87-.71-.1-.48.21-.95.7-1.05l.12-.02c.48-.1.95.21,1.05.7.1.48-.21.95-.7,1.05l-.12.02c-.06.01-.12.02-.18.02Zm4.78-.97c-.42,0-.79-.29-.87-.71-.1-.48.21-.95.7-1.05l.12-.02c.48-.1.95.21,1.05.7.1.48-.21.95-.7,1.05l-.12.02c-.06.01-.12.02-.18.02Zm4.78-.97c-.42,0-.79-.29-.87-.72-.1-.48.21-.95.7-1.05l.12-.02c.48-.1.95.21,1.05.7s-.21.95-.7,1.05l-.12.02c-.06.01-.12.02-.18.02Zm4.78-.97c-.42,0-.79-.29-.87-.71-.1-.48.21-.95.7-1.05l.12-.02c.48-.1.95.21,1.05.7.1.48-.21.95-.7,1.05l-.12.02c-.06.01-.12.02-.18.02Zm4.78-.97c-.42,0-.79-.29-.87-.71-.1-.48.21-.95.7-1.05l.12-.02c.48-.1.95.21,1.05.7.1.48-.21.95-.7,1.05l-.12.02c-.06.01-.12.02-.18.02Zm4.78-.97c-.42,0-.79-.29-.87-.71-.1-.48.21-.95.7-1.05l.12-.02c.48-.1.95.21,1.05.7.1.48-.21.95-.7,1.05l-.12.02c-.06.01-.12.02-.18.02Zm4.78-.97c-.42,0-.79-.29-.87-.72-.1-.48.22-.95.7-1.05l.12-.02c.48-.1.95.22,1.05.7.1.48-.22.95-.7,1.05l-.12.02c-.06.01-.12.02-.18.02Zm4.78-.97c-.42,0-.79-.29-.87-.71-.1-.48.21-.95.7-1.05l.12-.02c.48-.1.95.21,1.05.7.1.48-.21.95-.7,1.05l-.12.02c-.06.01-.12.02-.18.02Zm4.78-.97c-.42,0-.79-.29-.87-.71-.1-.48.21-.95.7-1.05l.12-.02c.48-.1.95.21,1.05.7.1.48-.21.95-.7,1.05l-.12.02c-.06.01-.12.02-.18.02Zm4.78-.97c-.42,0-.79-.29-.87-.71-.1-.48.21-.95.7-1.05l.12-.02c.48-.1.95.21,1.05.7.1.48-.21.95-.7,1.05l-.12.02c-.06.01-.12.02-.18.02Zm4.78-.97c-.42,0-.79-.29-.87-.72-.1-.48.21-.95.7-1.05l.12-.02c.48-.1.95.22,1.05.7.1.48-.21.95-.7,1.05l-.12.02c-.06.01-.12.02-.18.02Zm4.78-.97c-.42,0-.79-.29-.87-.71-.1-.48.21-.95.7-1.05l.12-.02c.48-.1.95.21,1.05.7.1.48-.21.95-.7,1.05l-.12.02c-.06.01-.12.02-.18.02Z"/><path class="cls-43" d="m462.23,442.72c-.96,0-1.82-.67-2.02-1.65-.23-1.12.49-2.21,1.61-2.44,1.12-.23,2.23.49,2.46,1.6.23,1.12-.47,2.21-1.58,2.44h-.05c-.14.04-.28.05-.42.05Z"/></g><polygon class="cls-31" points="386.56 324.79 385.59 323.82 386.57 324.79 386.56 324.79"/><polygon class="cls-37" points="94.12 388.27 73.77 366.62 73.9 366.63 118.65 368.59 108.01 377.16 107.56 384.9 102.13 381.98 94.12 388.27"/><g class="cls-3"><path class="cls-39" d="m690.43,612.56c0,.46-61.62.86-153.07,1.07-26.6.06-55.73.11-86.6.14-20.63.02-42.03.02-63.98.02h-9.61c-163.25-.02-294.03-.57-294.03-1.23s130.35-1.2,293.22-1.22c3.46,0,6.93,0,10.42,0,21.81,0,43.08.01,63.58.03,30.9.03,60.06.07,86.69.13,36.84.08,68.85.2,93.96.34,2.97.02,5.85.03,8.62.05,32.09.19,50.79.43,50.79.68Z"/></g><g class="cls-11"><path class="cls-43" d="m636.1,409.48c-.97,0-1.84-.69-2.03-1.68-.22-1.12.52-2.2,1.64-2.42,1.12-.22,2.23.51,2.44,1.64.21,1.12-.5,2.2-1.62,2.41h-.05c-.13.03-.26.05-.39.05Z"/><path class="cls-43" d="m468.19,442.43c-.42,0-.79-.29-.87-.71-.1-.48.21-.95.69-1.05l.12-.02c.48-.1.95.21,1.05.69s-.21.95-.69,1.05l-.12.02c-.06.01-.12.02-.18.02Zm4.82-.98c-.42,0-.79-.29-.87-.72-.1-.48.21-.95.7-1.05l.12-.02c.48-.1.95.21,1.05.7.1.48-.21.95-.7,1.05l-.12.02c-.06.01-.12.02-.18.02Zm4.82-.98c-.42,0-.79-.29-.87-.72-.1-.48.21-.95.7-1.05l.12-.02c.48-.1.95.21,1.05.7.1.48-.21.95-.7,1.05l-.12.02c-.06.01-.12.02-.18.02Zm4.82-.98c-.42,0-.79-.29-.87-.71-.1-.48.21-.95.69-1.05l.12-.02c.48-.1.95.21,1.05.69.1.48-.21.95-.69,1.05l-.12.02c-.06.01-.12.02-.18.02Zm4.82-.98c-.42,0-.79-.29-.87-.72-.1-.48.21-.95.7-1.05l.12-.02c.48-.1.95.21,1.05.7s-.21.95-.7,1.05l-.12.02c-.06.01-.12.02-.18.02Zm4.82-.98c-.42,0-.79-.29-.87-.72-.1-.48.21-.95.7-1.05l.12-.02c.48-.1.95.21,1.05.7s-.21.95-.7,1.05l-.12.02c-.06.01-.12.02-.18.02Zm4.82-.98c-.42,0-.79-.29-.87-.71-.1-.48.21-.95.69-1.05l.12-.02c.48-.1.95.21,1.05.69s-.21.95-.69,1.05l-.12.02c-.06.01-.12.02-.18.02Zm4.82-.98c-.42,0-.79-.29-.87-.72-.1-.48.21-.95.7-1.05l.12-.02c.48-.1.95.21,1.05.7s-.21.95-.7,1.05l-.12.02c-.06.01-.12.02-.18.02Zm4.82-.98c-.42,0-.79-.29-.87-.72-.1-.48.21-.95.7-1.05l.12-.02c.49-.1.95.21,1.05.7.1.48-.21.95-.7,1.05l-.12.02c-.06.01-.12.02-.18.02Zm4.82-.98c-.42,0-.79-.29-.87-.72-.1-.48.21-.95.7-1.05l.12-.02c.48-.1.95.21,1.05.7.1.48-.21.95-.7,1.05l-.12.02c-.06.01-.12.02-.18.02Zm4.82-.98c-.42,0-.79-.29-.87-.72-.1-.48.21-.95.7-1.05l.12-.02c.48-.1.95.21,1.05.7.1.48-.21.95-.7,1.05l-.12.02c-.06.01-.12.02-.18.02Zm4.82-.98c-.42,0-.79-.29-.87-.72-.1-.48.21-.95.7-1.05l.12-.02c.48-.1.95.21,1.05.7s-.21.95-.7,1.05l-.12.02c-.06.01-.12.02-.18.02Zm4.82-.98c-.42,0-.79-.29-.87-.72-.1-.48.21-.95.7-1.05l.12-.02c.48-.1.95.21,1.05.7.1.48-.21.95-.7,1.05l-.12.02c-.06.01-.12.02-.18.02Zm4.82-.98c-.41,0-.79-.29-.87-.71-.1-.48.21-.95.69-1.05l.12-.02c.48-.1.95.21,1.05.69.1.48-.21.95-.69,1.05l-.12.02c-.06.01-.12.02-.18.02Zm4.82-.98c-.42,0-.79-.29-.87-.72-.1-.48.21-.95.7-1.05l.12-.02c.48-.1.95.21,1.05.7.1.48-.21.95-.7,1.05l-.12.02c-.06.01-.12.02-.18.02Zm4.82-.98c-.42,0-.79-.29-.87-.72-.1-.48.21-.95.7-1.05l.12-.02c.48-.1.95.21,1.05.7.1.48-.21.95-.7,1.05l-.12.02c-.06.01-.12.02-.18.02Zm4.82-.98c-.42,0-.79-.29-.87-.71-.1-.48.21-.95.69-1.05l.12-.02c.49-.1.95.21,1.05.69.1.48-.21.95-.69,1.05l-.12.02c-.06.01-.12.02-.18.02Zm4.82-.98c-.42,0-.79-.29-.87-.72-.1-.48.21-.95.7-1.05l.12-.02c.48-.1.95.21,1.05.7.1.48-.21.95-.7,1.05l-.12.02c-.06.01-.12.02-.18.02Zm4.82-.98c-.42,0-.79-.29-.87-.72-.1-.48.21-.95.7-1.05l.12-.02c.49-.1.95.21,1.05.7.1.48-.21.95-.7,1.05l-.12.02c-.06.01-.12.02-.18.02Zm4.82-.98c-.42,0-.79-.29-.87-.72-.1-.48.21-.95.7-1.05l.12-.02c.48-.1.95.21,1.05.7.1.48-.21.95-.7,1.05l-.12.02c-.06.01-.12.02-.18.02Zm4.82-.98c-.42,0-.79-.29-.87-.72-.1-.48.21-.95.7-1.05l.12-.02c.48-.1.95.21,1.05.7.1.48-.21.95-.7,1.05l-.12.02c-.06.01-.12.02-.18.02Zm4.82-.98c-.42,0-.79-.29-.87-.72-.1-.48.21-.95.7-1.05l.12-.02c.48-.1.95.21,1.05.7.1.48-.21.95-.7,1.05l-.12.02c-.06.01-.12.02-.18.02Zm4.82-.98c-.42,0-.79-.29-.87-.72-.1-.48.21-.95.7-1.05l.12-.02c.48-.1.95.21,1.05.7.1.48-.21.95-.7,1.05l-.12.02c-.06.01-.12.02-.18.02Zm4.82-.98c-.42,0-.79-.29-.87-.71-.1-.48.21-.95.69-1.05l.12-.02c.48-.1.95.21,1.05.69.1.48-.21.95-.69,1.05l-.12.02c-.06.01-.12.02-.18.02Zm4.82-.98c-.42,0-.79-.29-.87-.72-.1-.48.21-.95.7-1.05l.12-.02c.48-.1.95.21,1.05.7.1.48-.21.95-.7,1.05l-.12.02c-.06.01-.12.02-.18.02Zm4.82-.98c-.42,0-.79-.29-.87-.72-.1-.48.21-.95.7-1.05l.12-.02c.48-.1.95.21,1.05.7.1.48-.21.95-.7,1.05l-.12.02c-.06.01-.12.02-.18.02Zm4.82-.98c-.41,0-.79-.29-.87-.71-.1-.48.21-.95.69-1.05l.12-.02c.48-.1.95.21,1.05.69.1.48-.21.95-.69,1.05l-.12.02c-.06.01-.12.02-.18.02Zm4.82-.98c-.42,0-.79-.29-.87-.72-.1-.48.21-.95.7-1.05l.12-.02c.48-.1.95.21,1.05.7.1.48-.21.95-.7,1.05l-.12.02c-.06.01-.12.02-.18.02Zm4.82-.98c-.42,0-.79-.29-.87-.72-.1-.48.21-.95.7-1.05l.12-.02c.48-.1.95.21,1.05.7.1.48-.21.95-.7,1.05l-.12.02c-.06.01-.12.02-.18.02Zm4.82-.98c-.42,0-.79-.29-.87-.72-.1-.48.21-.95.7-1.05l.12-.02c.48-.1.95.21,1.05.7.1.48-.21.95-.7,1.05l-.12.02c-.06.01-.12.02-.18.02Zm4.82-.98c-.42,0-.79-.29-.87-.72-.1-.48.21-.95.7-1.05l.12-.02c.48-.1.95.21,1.05.7.1.48-.21.95-.7,1.05l-.12.02c-.06.01-.12.02-.18.02Zm4.82-.98c-.42,0-.79-.29-.87-.72-.1-.48.21-.95.7-1.05l.12-.02c.48-.1.95.21,1.05.7.1.48-.21.95-.7,1.05l-.12.02c-.06.01-.12.02-.18.02Zm4.82-.98c-.42,0-.79-.29-.87-.72-.1-.48.21-.95.7-1.05l.12-.02c.48-.1.95.21,1.05.7.1.48-.21.95-.7,1.05l-.12.02c-.06.01-.12.02-.18.02Zm4.82-.98c-.42,0-.79-.29-.87-.71-.1-.48.21-.95.69-1.05l.12-.02c.48-.1.95.21,1.05.69.1.48-.21.95-.69,1.05l-.12.02c-.06.01-.12.02-.18.02Zm4.82-.98c-.42,0-.79-.29-.87-.72-.1-.48.21-.95.7-1.05l.12-.02c.48-.1.95.21,1.05.7.1.48-.21.95-.7,1.05l-.12.02c-.06.01-.12.02-.18.02Z"/><path class="cls-43" d="m462.23,444.81c-.96,0-1.82-.67-2.02-1.65-.23-1.12.49-2.21,1.61-2.44,1.12-.23,2.23.49,2.46,1.6.23,1.12-.47,2.21-1.58,2.44h-.05c-.14.04-.28.05-.42.05Z"/></g><g class="cls-11"><path class="cls-43" d="m637.54,411.35c-.96,0-1.82-.67-2.02-1.65-.23-1.12.49-2.21,1.61-2.44,1.12-.23,2.23.49,2.46,1.6.23,1.12-.47,2.21-1.58,2.44h-.05c-.14.04-.28.05-.42.05Z"/><path class="cls-43" d="m469.24,444.38c-.42,0-.79-.29-.87-.72-.1-.48.21-.95.7-1.05l.12-.02c.48-.1.95.21,1.05.7.1.48-.21.95-.7,1.05l-.12.02c-.06.01-.12.02-.18.02Zm4.83-.98c-.42,0-.79-.29-.87-.72-.1-.48.21-.95.7-1.05l.12-.02c.48-.1.95.21,1.05.7s-.21.95-.7,1.05l-.12.02c-.06.01-.12.02-.18.02Zm4.83-.98c-.42,0-.79-.29-.87-.71-.1-.48.21-.95.69-1.05l.12-.02c.48-.1.95.21,1.05.69s-.21.95-.69,1.05l-.12.02c-.06.01-.12.02-.18.02Zm4.83-.98c-.42,0-.79-.29-.87-.71-.1-.48.21-.95.69-1.05l.12-.02c.48-.1.95.21,1.05.69s-.21.95-.69,1.05l-.12.02c-.06.01-.12.02-.18.02Zm4.83-.98c-.42,0-.79-.29-.87-.71-.1-.48.21-.95.7-1.05l.12-.02c.48-.1.95.21,1.05.7.1.48-.21.95-.7,1.05l-.12.02c-.06.01-.12.02-.18.02Zm4.83-.98c-.42,0-.79-.29-.87-.71-.1-.48.21-.95.69-1.05l.12-.02c.48-.1.95.21,1.05.69.1.48-.21.95-.69,1.05l-.12.02c-.06.01-.12.02-.18.02Zm4.83-.98c-.42,0-.79-.29-.87-.71-.1-.48.21-.95.69-1.05l.12-.02c.48-.1.95.21,1.05.69.1.48-.21.95-.69,1.05l-.12.02c-.06.01-.12.02-.18.02Zm4.83-.98c-.42,0-.79-.29-.87-.71-.1-.48.21-.95.7-1.05l.12-.02c.48-.1.95.21,1.05.7s-.21.95-.7,1.05l-.12.02c-.06.01-.12.02-.18.02Zm4.83-.98c-.42,0-.79-.29-.87-.71-.1-.48.21-.95.69-1.05l.12-.02c.48-.1.95.21,1.05.69.1.48-.21.95-.69,1.05l-.12.02c-.06.01-.12.02-.18.02Zm4.83-.98c-.42,0-.79-.29-.87-.71-.1-.48.21-.95.69-1.05l.12-.02c.48-.1.95.21,1.05.69.1.48-.21.95-.69,1.05l-.12.02c-.06.01-.12.02-.18.02Zm4.83-.98c-.42,0-.79-.29-.87-.71-.1-.48.21-.95.7-1.05l.12-.02c.48-.1.95.21,1.05.7s-.21.95-.7,1.05l-.12.02c-.06.01-.12.02-.18.02Zm4.83-.98c-.42,0-.79-.29-.87-.71-.1-.48.21-.95.69-1.05l.12-.02c.48-.1.95.21,1.05.69.1.48-.21.95-.69,1.05l-.12.02c-.06.01-.12.02-.18.02Zm4.83-.98c-.42,0-.79-.29-.87-.71-.1-.48.21-.95.69-1.05l.12-.02c.48-.1.95.21,1.05.69s-.21.95-.69,1.05l-.12.02c-.06.01-.12.02-.18.02Zm4.83-.98c-.42,0-.79-.29-.87-.71-.1-.48.21-.95.7-1.05l.12-.02c.48-.1.95.21,1.05.7.1.48-.21.95-.7,1.05l-.12.02c-.06.01-.12.02-.18.02Zm4.83-.98c-.42,0-.79-.29-.87-.71-.1-.48.21-.95.69-1.05l.12-.02c.48-.1.95.21,1.05.69.1.48-.21.95-.69,1.05l-.12.02c-.06.01-.12.02-.18.02Zm4.83-.98c-.42,0-.79-.29-.87-.71-.1-.48.21-.95.7-1.05l.12-.02c.48-.1.95.21,1.05.7.1.48-.21.95-.7,1.05l-.12.02c-.06.01-.12.02-.18.02Zm4.83-.98c-.42,0-.79-.29-.87-.71-.1-.48.21-.95.7-1.05l.12-.02c.48-.1.95.21,1.05.7s-.21.95-.7,1.05l-.12.02c-.06.01-.12.02-.18.02Zm4.83-.98c-.42,0-.79-.29-.87-.71-.1-.48.21-.95.69-1.05l.12-.02c.48-.1.95.21,1.05.69.1.48-.21.95-.69,1.05l-.12.02c-.06.01-.12.02-.18.02Zm4.83-.98c-.42,0-.79-.29-.87-.71-.1-.48.21-.95.7-1.05l.12-.02c.48-.1.95.21,1.05.7s-.21.95-.7,1.05l-.12.02c-.06.01-.12.02-.18.02Zm4.83-.98c-.42,0-.79-.29-.87-.71-.1-.48.21-.95.7-1.05l.12-.02c.48-.1.95.21,1.05.7s-.21.95-.7,1.05l-.12.02c-.06.01-.12.02-.18.02Zm4.83-.98c-.42,0-.79-.29-.87-.71-.1-.48.21-.95.69-1.05l.12-.02c.48-.1.95.21,1.05.69.1.48-.21.95-.69,1.05l-.12.02c-.06.01-.12.02-.18.02Zm4.83-.98c-.42,0-.79-.29-.87-.71-.1-.48.21-.95.7-1.05l.12-.02c.48-.1.95.21,1.05.7.1.48-.21.95-.7,1.05l-.12.02c-.06.01-.12.02-.18.02Zm4.83-.98c-.42,0-.79-.29-.87-.71-.1-.48.21-.95.7-1.05l.12-.02c.48-.1.95.21,1.05.7.1.48-.21.95-.7,1.05l-.12.02c-.06.01-.12.02-.18.02Zm4.83-.98c-.42,0-.79-.29-.87-.71-.1-.48.21-.95.69-1.05l.12-.02c.48-.1.95.21,1.05.69.1.48-.21.95-.69,1.05l-.12.02c-.06.01-.12.02-.18.02Zm4.83-.98c-.42,0-.79-.29-.87-.71-.1-.48.21-.95.7-1.05l.12-.02c.48-.1.95.21,1.05.7.1.48-.21.95-.7,1.05l-.12.02c-.06.01-.12.02-.18.02Zm4.83-.98c-.42,0-.79-.29-.87-.71-.1-.48.21-.95.7-1.05l.12-.02c.48-.1.95.21,1.05.7s-.21.95-.7,1.05l-.12.02c-.06.01-.12.02-.18.02Zm4.83-.98c-.42,0-.79-.29-.87-.71-.1-.48.21-.95.69-1.05l.12-.02c.48-.1.95.21,1.05.69.1.48-.21.95-.69,1.05l-.12.02c-.06.01-.12.02-.18.02Zm4.83-.98c-.42,0-.79-.29-.87-.71-.1-.48.21-.95.7-1.05l.12-.02c.48-.1.95.21,1.05.7s-.21.95-.7,1.05l-.12.02c-.06.01-.12.02-.18.02Zm4.83-.98c-.42,0-.79-.29-.87-.71-.1-.48.21-.95.7-1.05l.12-.02c.48-.1.95.21,1.05.7.1.48-.21.95-.7,1.05l-.12.02c-.06.01-.12.02-.18.02Zm4.83-.98c-.42,0-.79-.29-.87-.72-.1-.48.21-.95.7-1.05l.12-.02c.48-.1.95.21,1.05.7.1.48-.21.95-.7,1.05l-.12.02c-.06.01-.12.02-.18.02Zm4.83-.98c-.42,0-.79-.29-.87-.72-.1-.48.21-.95.7-1.05l.12-.02c.48-.1.95.22,1.05.7.1.48-.21.95-.7,1.05l-.12.02c-.06.01-.12.02-.18.02Zm4.83-.98c-.42,0-.79-.29-.87-.72-.1-.48.21-.95.7-1.05l.12-.02c.48-.1.95.21,1.05.7.1.48-.21.95-.7,1.05l-.12.02c-.06.01-.12.02-.18.02Zm4.83-.98c-.42,0-.79-.29-.87-.72-.1-.48.21-.95.7-1.05l.12-.02c.48-.1.95.21,1.05.7s-.21.95-.7,1.05l-.12.02c-.06.01-.12.02-.18.02Zm4.83-.98c-.42,0-.79-.29-.87-.72-.1-.48.21-.95.7-1.05l.12-.02c.48-.1.95.21,1.05.7s-.21.95-.7,1.05l-.12.02c-.06.01-.12.02-.18.02Zm4.83-.98c-.42,0-.79-.29-.87-.72-.1-.48.21-.95.7-1.05l.12-.02c.48-.1.95.21,1.05.7.1.48-.21.95-.7,1.05l-.12.02c-.06.01-.12.02-.18.02Z"/><path class="cls-43" d="m463.27,446.77c-.96,0-1.82-.67-2.02-1.65-.23-1.12.49-2.21,1.61-2.44,1.12-.23,2.23.49,2.46,1.6.23,1.12-.47,2.21-1.58,2.44h-.05c-.14.04-.28.05-.42.05Z"/></g><path class="cls-27" d="m428.9,612.16c-1.14,0-2.07-.93-2.07-2.07v-95.79c0-1.14.93-2.07,2.07-2.07s2.07.93,2.07,2.07v95.79c0,1.14-.93,2.07-2.07,2.07Z"/><path class="cls-45" d="m481.5,526c-.61.43-1.3.83-2.05,1.18.29.47.52.95.66,1.43.44,1.5-.04,2.96-2.5,3.94-3.89,1.56-6.31-.34-8.25-2.85-7.47.91-14.92.43-14.92.43.32,1.46.89,3.19,1.92,4.84h-4.94l-5.81-19.43-2.13-7.11-11.73-39.18h40.94l2.16,7.23,2.65,8.88.67,2.24h0s.55,1.86.55,1.86l.1.34,5.58,18.63,2.13,7.11,2.01,6.73c-1.94.73-4.27,1.74-7.07,3.72Z"/><path class="cls-45" d="m457.6,535.66h-6.69l-20.08-67.11h42.38l16.2,54.14-.6.23c-1.89.71-4.19,1.7-6.91,3.64h0c-.45.32-.96.63-1.49.91.16.32.28.63.37.94.36,1.21.45,3.44-2.91,4.78-4.33,1.74-6.98-.48-8.81-2.76-5.78.66-11.53.53-13.73.44.38,1.37.92,2.63,1.62,3.75l.66,1.05Zm-5.67-1.38h3.25c-.62-1.22-1.1-2.56-1.42-4.01l-.2-.89.91.06c.07,0,7.48.46,14.8-.43l.39-.05.24.31c2.35,3.05,4.51,3.81,7.45,2.63,2.42-.96,2.36-2.24,2.1-3.11-.12-.4-.32-.82-.59-1.26l-.41-.66.71-.33c.72-.34,1.37-.71,1.94-1.12h0c2.57-1.82,4.77-2.85,6.63-3.57l-15.54-51.93h-39.51l19.26,64.35Z"/><path class="cls-45" d="m488.08,543.34h-36.75v-6.28h6.66c2.27,2.35,5.84,4.13,11.45,4.01,9.87-.21,15.82-.69,18.65,2.26Z"/><path class="cls-45" d="m489.69,544.03h-39.06v-7.66h7.64l.2.21c2.53,2.62,6.2,3.89,10.94,3.8l2.74-.07c8.51-.22,13.65-.34,16.42,2.54l1.12,1.17Zm-37.68-1.38h33.88c-2.72-1.23-7.16-1.12-13.7-.95l-2.75.07c-5.01.09-8.95-1.25-11.75-4.01h-5.68v4.9Z"/><path class="cls-31" d="m505.46,543.34c.06-1.17.07-2.09.02-2.67.05.43.17,1.36.34,2.67h-.36Z"/><path class="cls-31" d="m506.61,544.03h-1.88l.04-.73c.06-1.15.07-2.03.03-2.57l1.37-.15.44,3.44Z"/><path class="cls-45" d="m446.82,611.47c-.07,0-.14,0-.21-.02-.75-.12-1.27-.82-1.15-1.57l10.39-66.75c.12-.75.82-1.26,1.57-1.15.75.12,1.27.82,1.15,1.57l-10.39,66.75c-.11.68-.69,1.17-1.36,1.17Z"/><path class="cls-45" d="m487.27,611.47c-.71,0-1.32-.55-1.37-1.27l-5-66.75c-.06-.76.51-1.42,1.27-1.48.76-.06,1.42.51,1.48,1.27l5,66.75c.06.76-.51,1.42-1.27,1.48-.03,0-.07,0-.1,0Z"/><path class="cls-45" d="m522.18,611.47c-.66,0-1.25-.48-1.36-1.15l-4.63-28.12c-.12-.75.38-1.46,1.13-1.58.76-.12,1.46.38,1.58,1.13l4.64,28.13c.12.75-.38,1.46-1.14,1.58-.08.01-.15.02-.23.02Z"/><path class="cls-35" d="m483.88,457.05c-1.04.16-2.06.19-3.05.13-4.12-.24-7.78-2.16-10.6-4.25-.03-.02-.06-.04-.09-.06-3.61-2.7-5.82-5.65-5.82-5.65,0,0-4.77.13-5.9-1.65-.37-.58-.24-1.28.19-1.94.91-1.38,3.19-2.55,5.25-1.91,0,0,4.83-4.53,3.83-8.9,0,0,5.65,2.97,9.57,2.58,3.91-.38,5.83-1.84,4.74-3.2-.74-.94,4.46-.01,8.59.27.47,2.58,3.84,23-6.72,24.58Z"/><path class="cls-27" d="m494.97,432.2c-.76.39-2.45.4-4.37.27-4.14-.28-9.34-1.2-8.59-.27,1.09,1.37-.83,2.82-4.74,3.2-3.92.38-9.57-2.58-9.57-2.58,1,4.36-3.83,8.9-3.83,8.9-2.06-.63-4.34.54-5.25,1.91-3.79-2.46-2.01-3.75-2.7-8.72-.7-4.97,3.3-2.03,1.8-7.17s7.37-5.59,7.37-5.59c0,0,3.3-2.6,15.78-4.01,12.48-1.41,13.59,3.67,12.2,4.98-1.39,1.31-.13,1.78-.13,1.78,3.57,1.78,4.44,6.06,2.05,7.3Z"/><path class="cls-14" d="m490.6,432.47c-.03-.17-.05-.27-.05-.27"/><path class="cls-34" d="m469.36,529.7c-7.47.91-14.92.43-14.92.43-.45-2.03-.41-3.54-.41-3.54l-.62-6.62c2.34,1.98,5.14,3.76,8.49,5.3.25.12.52.23.78.35.16.07.32.14.48.21,0,0,.15-.16.4-.45.31-.36.78-.94,1.29-1.65.33.28.66.61.98.99,1.16,1.37,2.23,3.3,3.51,4.96,0,0,0,0,.01.01Z"/><path class="cls-34" d="m523.3,498.22s-11.07-2.68-20.81-15.78c-.07-.09-.14-.18-.2-.27-.37-.51-.74-1.02-1.1-1.56h0c-.37-.55-.74-1.11-1.1-1.68-.39-.61-.77-1.24-1.15-1.89-2.77-4.76-5.36-8.12-7.66-10.48-6.28-6.44-10.43-5.45-10.43-5.45,0,0-1.74,4.72-10.18-.06,0,0-17.53,1.32-21.11,8.19-.01.03-.03.05-.04.08-.74,1.49-2.03,4.31-3.27,7.95,0,0,0,0,0,0-.21.61-.42,1.26-.62,1.92-.03.11-.07.23-.1.35-2.44,8.03-4.21,19.07-.4,28.87.96,2.47,2.28,4.87,4.03,7.11,1.2,1.56,2.62,3.04,4.27,4.43,2.34,1.98,5.14,3.76,8.49,5.3.25.12.52.23.78.35.02,0,.05-.01.08-.02.21-.06.42-.12.64-.18.05-.01.1-.03.16-.04.31-.36.78-.94,1.29-1.65.1-.15.21-.3.32-.46.01-.01.02-.03.04-.05.79-1.19,1.61-2.68,2.02-4.22h0s.02-.08.03-.11c0,0,8.5.27,11.79,1.85.4.19.72.4.93.64,2.03,2.15-4.93,1.36-4.93,1.36,0,0,2.93,2.09,4.39,4.45.75-.35,1.44-.74,2.05-1.18,2.79-1.99,5.12-2.99,7.07-3.72,3.31-1.25,5.5-1.72,6.96-4.91h0s-.13-1.82-.13-1.82l-.52-7.11-.68-9.26c7.48,10.73,26.99,9.15,28.85,7.07.4-.45.64-1.07.77-1.77.48-2.58-.5-6.25-.5-6.25Zm-66.85,3.11s0,.02,0,.02v-.03s0,0,0,0Z"/><path class="cls-36" d="m456.45,501.33s0,.03,0,.03v-.03s0,0,0,0Z"/><path class="cls-36" d="m456.45,501.33s0,.03,0,.03v-.03s0,0,0,0Z"/><path class="cls-36" d="m456.45,501.33s0,.03,0,.03v-.03s0,0,0,0Z"/><path class="cls-26" d="m521.99,581.63c-1.09.19-2.22.29-3.35.33-.37.01-.73.02-1.1.01-.33,0-.67,0-1-.02-2.15-.08-4.15-.33-5.63-.57-.31-.05-.6-.1-.87-.15-.13-.02-.26-.05-.38-.07-.09-.02-.19-.04-.28-.06-.12-.02-.23-.05-.33-.07-.4-.09-.62-.14-.62-.14.7-9.15-1.65-29.87-2.59-37.55-.16-1.31-.28-2.24-.34-2.67.05.58.04,1.49-.02,2.67-.51,9.78-4.53,37.38-4.53,37.38-1.17.43-2.36.68-3.51.8-3.25.35-6.2-.27-7.48-.61-.43-.11-.67-.19-.67-.19,0,0-.35-13.89.69-27.45.39-5.11-.17-8.15-1.89-9.94-2.83-2.95-8.78-2.48-18.65-2.26-5.61.12-9.18-1.66-11.45-4.01-.63-.66-1.17-1.37-1.62-2.09-1.03-1.65-1.6-3.38-1.92-4.84,0,0,7.45.47,14.92-.43,1.94,2.52,4.35,4.41,8.25,2.85,2.46-.98,2.94-2.44,2.5-3.94-.14-.48-.37-.96-.66-1.43.75-.35,1.44-.74,2.05-1.18,2.79-1.99,5.12-2.99,7.07-3.72,3.31-1.25,5.5-1.72,6.96-4.91h0s20.02-.17,25.07,13.22c5.05,13.38,1.39,51.05,1.39,51.05Z"/><path class="cls-14" d="m505.46,540.4s0,.02,0,.07c0,.03,0,.05,0,.08t0,0"/><line class="cls-14" x1="535.77" y1="507.14" x2="534.33" y2="504.81"/><line class="cls-14" x1="530.2" y1="498.1" x2="524.46" y2="488.81"/><path class="cls-22" d="m534.33,504.81l-4.14-6.71c.88.16,1.65.42,2.15.83,2.01,1.65,6.1,5.81,1.98,5.88Z"/><path class="cls-14" d="m523.8,504.46c-.13.01-.2.02-.2.02"/><path class="cls-22" d="m534.33,504.81c-.34,0-.74-.02-1.2-.07-5.18-.62-8.51-.36-9.33-.27.48-2.58-.5-6.25-.5-6.25,0,0,4.03-.62,6.89-.11l4.14,6.71Z"/><path class="cls-22" d="m480.11,528.61c.44,1.5-.04,2.96-2.5,3.94-3.89,1.56-6.31-.34-8.25-2.85,0,0,0,0-.01-.01-1.28-1.66-2.35-3.59-3.51-4.96-.32-.38-.64-.72-.98-.99.1-.15.21-.3.32-.46.01-.01.02-.03.04-.05.79-1.19,1.61-2.68,2.02-4.22h0s.02-.08.03-.11c0,0,8.5.27,11.79,1.85.4.19.72.4.93.64,2.03,2.15-4.93,1.36-4.93,1.36,0,0,2.93,2.09,4.39,4.45.29.47.52.95.66,1.43Z"/><path class="cls-14" d="m470.23,452.93c-.03-.07-.06-.14-.09-.2"/><path class="cls-22" d="m480.83,457.18v3.94s-1.74,4.72-10.18-.06c0,0,.31-6.18-.42-8.13,2.82,2.09,6.48,4,10.6,4.25Z"/><path class="cls-27" d="m488.43,591.25c-.76-.11,1.51-7.91,1.51-7.91,0,0,.02,0,.05,0,.45.08,3.66.68,7.43,1.61,4.01,1,8.66,2.38,11.26,3.93.45.27.84.54,1.15.82.36.32.62.65.77.97,1.68,3.95-21.41.68-22.16.56Z"/><path class="cls-17" d="m497.42,581.52v3.44c-3.77-.93-6.98-1.52-7.43-1.61l-.05-2.44c1.27.34,4.22.96,7.48.61Z"/><path class="cls-27" d="m509.82,589.71c-.31-.28-.7-.55-1.15-.82l.2-5.55s.46.06,1.18.18c.17.03.36.06.57.1.09.01.18.03.28.05.2.03.4.07.61.11.21.04.43.08.65.12.24.04.49.1.74.14,1.05.2,2.24.45,3.49.74.68.16,1.38.33,2.08.52,4.66,1.24,9.48,3.07,10.5,5.46,1.81,4.22-14.58.16-19.15-1.05Z"/><path class="cls-17" d="m516.54,581.95l-.14,2.83c-1.25-.29-2.44-.54-3.49-.74-.25-.04-.5-.1-.74-.14-.22-.04-.44-.09-.65-.12-.21-.04-.42-.08-.61-.11-.09-.02-.19-.03-.28-.05-.2-.04-.39-.07-.57-.1-.71-.12-1.17-.18-1.17-.18l.16-2.31c.09.02.21.04.33.07.09.02.19.03.28.06.11.02.24.04.38.07.27.05.56.1.87.15,1.48.24,3.48.5,5.63.57Z"/><path class="cls-22" d="m469.36,529.7c3.64-.44,7.29-1.21,10.09-2.52l-10.09,2.52Z"/><path class="cls-52" d="m534.35,509.46c-.35,0-.69-.18-.88-.5l-.02-.03-8.28-13.57c-.3-.49-.14-1.12.34-1.42.49-.3,1.12-.14,1.42.34l4.21,6.9s.01.02.01.02l3.01,4.93s.01.02.02.03l1.05,1.73c.3.49.14,1.12-.34,1.42-.17.1-.35.15-.54.15Z"/><path class="cls-49" d="m463.15,526.39c-.17,0-.35-.07-.48-.2-.27-.27-.27-.7,0-.97,1.09-1.11,3.94-4.5,3.94-6.82,0-2.86-4.66-8.92-11.72-18.1l-.09-.12c-.23-.3-.18-.73.13-.97s.73-.17.97.13l.09.12c7.74,10.07,12,15.61,12,18.94s-4.16,7.6-4.33,7.78c-.13.14-.31.21-.49.21Z"/><path class="cls-49" d="m456.45,501.91c-.06,0-.11,0-.17-.02-.37-.09-.59-.47-.5-.84.04-.15,3.89-15.39,2.31-20.69-.11-.36.1-.75.46-.86.37-.11.75.1.86.46,1.69,5.67-2.13,20.78-2.29,21.42-.08.31-.36.52-.67.52Z"/><path class="cls-49" d="m463.05,526.39c-.07,0-.14-.01-.21-.03-.21-.07-5.22-1.7-9.76-5.71-.28-.25-.31-.69-.06-.97.25-.28.69-.31.97-.06,4.3,3.81,9.21,5.41,9.26,5.43.36.12.56.5.45.87-.09.29-.36.48-.66.48Z"/><rect class="cls-27" x="415.88" y="508.43" width="169.7" height="7.12" rx=".6" ry=".6"/><path class="cls-19" d="m582.1,516.23h-162.74c-2.3,0-4.17-1.87-4.17-4.17v-.15c0-2.3,1.87-4.17,4.17-4.17h162.74c2.3,0,4.17,1.87,4.17,4.17v.15c0,2.3-1.87,4.17-4.17,4.17Zm-162.74-7.12c-1.54,0-2.79,1.25-2.79,2.79v.15c0,1.54,1.25,2.79,2.79,2.79h162.74c1.54,0,2.79-1.25,2.79-2.79v-.15c0-1.54-1.25-2.79-2.79-2.79h-162.74Z"/><path class="cls-27" d="m572.36,612.16c-1.14,0-2.07-.93-2.07-2.07v-94.55c0-1.14.93-2.07,2.07-2.07s2.07.93,2.07,2.07v94.55c0,1.14-.93,2.07-2.07,2.07Z"/><path class="cls-32" d="m484.59,446.05c-.2,0-.39-.12-.48-.32-.11-.26.01-.57.28-.68.62-.26.67-.56.68-.65.1-.71-.97-1.84-1.5-2.28-.22-.18-.25-.51-.07-.73.18-.22.51-.25.73-.07.21.18,2.09,1.76,1.87,3.23-.06.44-.34,1.05-1.3,1.46-.07.03-.13.04-.2.04Z"/><path class="cls-20" d="m476.97,450.12l10.79-1.52s-2.87,6.78-10.79,1.52Z"/><path class="cls-20" d="m482.47,453.5c-1.93,0-4.02-.74-6.26-2.23-.48-.32-.71-.89-.58-1.45.13-.56.58-.98,1.15-1.06l10.79-1.53c.49-.07.98.13,1.29.52.3.39.37.92.18,1.38-.05.13-1.35,3.11-4.54,4.07-.65.2-1.33.29-2.02.29Zm-.03-2.76c.42-.01.84-.05,1.23-.17.01,0,.03,0,.04-.01l-1.27.18Z"/><path class="cls-43" d="m469.29,441.91c0,3.6-2.69,6.51-6,6.51s-6-2.91-6-6.51c0-2.7,1.51-5.01,3.67-6.01.72-.32,1.51-.51,2.34-.51.36,0,.71.03,1.05.1,2.82.54,4.96,3.21,4.96,6.41Z"/><path class="cls-14" d="m463.11,435.99s0-.08,0-.24"/><path class="cls-43" d="m479.92,418.26c-14.67,2.95-15.54,15.36-15.58,17.24-.34-.06-.69-.1-1.05-.1-.83,0-1.61.18-2.34.51-.02-2.32.62-16.37,18.97-17.64Z"/><path class="cls-14" d="m459.74,436.48s0-.12,0-.32"/><g class="cls-13"><path class="cls-35" d="m132.64,422.13s-.38,2.92-4.27,5.83c-1.77,1.32-4.27,2.65-7.8,3.69-.38.11-.77.22-1.17.32-12.38,3.22-9.42-21.56-9.42-21.56,10.52,1.07,16.91-1.58,16.91-1.58.64,3.85,4.94,9.79,4.94,9.79,0,0,1.76-1.26,3.23-.87.55.14,1.05.51,1.42,1.27,1.33,2.77-3.84,3.11-3.84,3.11Z"/><path class="cls-27" d="m137,404.16c-.17.99-2.15,2.52-2.15,2.52,0,0,1.13,6.92.21,11.07-1.47-.39-3.23.87-3.23.87,0,0-4.3-5.94-4.94-9.79,0,0-6.39,2.66-16.91,1.58,0,0-5.23-.96-4.36-2.71.87-1.75,3.66-2.88,3.66-2.88,0,0-4.82-1.41-4.59-2.88.13-.81,3.74-1.99,7.83-2.87,3.35-.71,7.02-1.22,9.37-1.14,5.23.17,11.63,4.92,11.63,4.92,0,0,.87-2.66,1.97-3,1.1-.34-.35,3.84-.35,3.84,0,0,2.03-.51,1.86.48Z"/><path class="cls-26" d="m183.36,580.15c-.19.28-.42.55-.67.81-1.09,1.11-2.67,2.03-4.19,2.72-.71.33-1.42.61-2.06.84-1.49.54-2.6.82-2.6.82,0,0-22.9-22.18-30.81-43.11-7.9-20.94-12.44-20.94-12.44-20.94-8.83,24.9-.46,75.02-4.3,75.82-.4.08-.84.14-1.32.19-2.25.24-5.26.16-7.52.04-1.88-.1-3.25-.23-3.25-.23,0,0-7.95-44.78-3.08-83.82,7.96,3.96,21.33,2.69,28.25.2,5.05-1.82,12.7-1.76,16.46-1.6,2.04,26.09,15.26,46.84,22.67,58.43,3.42,5.35,5.6,8.75,4.87,9.82Z"/><path class="cls-34" d="m148.91,451.45s10.1,30.59,9.16,60.58c0,0-.86-.07-2.25-.13-3.76-.16-11.41-.21-16.46,1.6-6.92,2.49-20.29,3.76-28.25-.2.13-1.01.26-2.02.4-3.02,0,0,.93-44.25-1.1-53.3,0,0-6.86-2.04-8.37-3.34-.47-.4-.63-1.88-.64-3.73-.02-4.1.75-10.01.75-10.01,3.02.08,18.02-1.94,18.6-2.01.02,0,.02,0,.02,0,0,0,5.19,3.54,9.69-1.2,0,0,9.86-.79,20.92-1.66,0,0,.95,1.15,2.15,2.7,1.2,1.55,2.64,3.51,3.61,5.13h0c.52.87.91,1.63,1.06,2.19.69,2.64-9.3,6.41-9.3,6.41Z"/><path class="cls-14" d="m155.83,511.89c0-.07-.01-.14-.02-.21"/><path class="cls-22" d="m102.16,439.89s-.77,5.91-.75,10.01c-27.67-6.11-25.87-36.49-25.87-36.49,0,0,.17-1.45-1.26-2.92-1.43-1.47-4.84-9.77-1.62-12.41,3.21-2.64,6.49,5.29,6.49,5.29,0,0,.96-3.96,1.74-3.65.78.31.29,1.58-.23,8.03-.52,6.45.81,13.58,6.1,22.69,5.29,9.11,15.4,9.45,15.4,9.45Z"/><path class="cls-22" d="m167.05,435.98c-9.13,6.4-9.84,6.84-9.89,6.86-.97-1.62-2.41-3.58-3.61-5.13-1.19-1.55-2.15-2.7-2.15-2.7,0,0,13.18-3.62,16.12-16.45,1.37-5.95,1.55-10.32,1.35-13.28-.22-3.42-.96-4.97-.96-4.97,0,0-4.42-7.39-3.49-8.07.93-.68,2.86,2.11,2.86,2.11,0,0,.31-7.31,3.33-7.01,3.02.3,4.18,5.73,3.72,9.58-.12.95,0,3.39.1,6.64.28,9.84.3,27.05-7.39,32.44Z"/><path class="cls-14" d="m120.53,431.56s.03.06.04.09h0"/><path class="cls-14" d="m120.76,437.87s0,.02,0,.02"/><path class="cls-22" d="m130.47,436.66c-4.5,4.75-9.69,1.2-9.69,1.2,0,0,0,0-.02,0,.08-.29.93-3.71-.19-6.23,3.52-1.04,6.02-2.36,7.8-3.69-.3,2.54,2.1,8.71,2.1,8.71Z"/><path class="cls-14" d="m128.37,427.94s0,.01,0,.02"/><path class="cls-27" d="m124.97,601.27v7.62s-23.25,5.66-19.76-1.05c1.88-3.62,7.48-5.25,12.24-5.97,4.06-.62,7.52-.59,7.52-.59Z"/><path class="cls-27" d="m189.29,590.11s-5.7,5.62-10.8,8.92c-3.9,2.52-7.45,3.68-7.8-.09-.43-4.61,3.76-8.33,7.8-10.81.18-.11.36-.22.54-.33,3.39-2,6.53-3.11,6.53-3.11l3.72,5.43Z"/><path class="cls-17" d="m124.97,597.32v3.95s-3.45-.03-7.52.59v-4.5c2.26.12,5.26.2,7.52-.04Z"/><path class="cls-17" d="m185.57,584.67s-3.14,1.11-6.53,3.11l-.54-.68-2.06-2.58c.63-.23,1.34-.51,2.06-.84,1.52-.69,3.1-1.61,4.19-2.72l2.88,3.71Z"/><path class="cls-32" d="m117.42,423.73c-.07,0-.14-.01-.2-.04-.95-.4-1.22-1-1.29-1.44-.21-1.45,1.63-3.01,1.84-3.18.22-.18.55-.15.73.07.18.22.15.55-.07.73-.52.43-1.57,1.55-1.47,2.24.01.09.06.38.66.63.26.11.39.41.28.68-.08.2-.28.32-.48.32Z"/><path class="cls-34" d="m366.62,479.47l-1.96.77-7.19,2.8c-.12.4-.16,3.07-.18,6.57-.01,7.85.18,19.86.18,19.86-1.45.27-2.88.51-4.27.71-8.17,1.18-15.12,1.11-20.75.51-.19-.03-.38-.05-.58-.07-5.21-.6-9.25-1.66-12.04-2.61-.71-.23-1.36-.47-1.91-.69-.85-.33-1.48-.62-1.92-.81-.43-.21-.64-.33-.64-.33,2.55-10.2,5.43-23.56,5.43-23.56-.67.49-2.91,1.7-2.91,1.7-3.6-2.33-6.37-6.29-7.64-8.33-.49-.8-.77-1.3-.77-1.3,2.92-5.54,6.31-9.39,9.66-12.03,8.01-6.34,15.71-5.86,15.71-5.86,4.45,5.41,9.18,4.6,11.84,3.47,1.32-.55,2.13-1.19,2.13-1.19,0,0,5.79,1.89,10.25,6.31.82.84,1.62,1.74,2.31,2.74,4.42,6.39,5.24,11.34,5.24,11.34Z"/><path class="cls-26" d="m352.11,597.02s-1.19.11-2.88.21c-2.29.12-5.5.22-7.9-.05-.38-.04-.74-.08-1.07-.15,0,0-2.14-28.97-9.43-47.22-1.67-4.23-3.65-7.88-5.91-10.46-2.87-3.25-4.78-6.7-6.02-10.09t-.01-.03c-1.92-5.21-2.26-10.28-2.09-14.22.14-3.32.67-5.85.95-7,.11-.43.18-.66.19-.69.55.22,1.19.45,1.91.69,2.79.95,6.82,2,12.04,2.61.19.01.38.04.58.07,5.63.6,12.58.67,20.75-.51,0,0-1.59,9.98.66,15.92,1.04,2.77,2,11.35,2.14,22.96.18,13.38-.75,30.79-3.88,47.96Z"/><path class="cls-33" d="m330.83,549.8c-1.75,3.26-6.3,7.61-11.96,12.11-14.05,11.16-34.89,23.21-36.38,21.76-.31-.3-.6-.66-.87-1.06-.02-.02-.04-.05-.06-.08-1.19-1.79-1.99-4.29-2.29-5.37-.04-.14-.07-.26-.1-.34-.03-.11-.04-.18-.04-.18,21.42-17.02,39.29-46.58,39.75-47.35,0-.01,0-.02,0-.02,1.25,3.39,3.16,6.84,6.02,10.08,2.27,2.58,4.24,6.23,5.92,10.46Z"/><path class="cls-22" d="m301.75,508.01v.04s1.17,4.09,1.54,6.96c.19,1.48.18,2.63-.34,2.72-1.5.23-1.62-2.72-1.62-2.72,0,0-1.83,8.49-6.15,6.81-1.94-.77-1.76-3.75-.96-6.81.73-2.83,1.96-5.71,2.55-7,.19-.44.32-.69.32-.69,0,0,4.2-22.34,13.16-31.33,1.28,2.04,4.05,6,7.64,8.33,0,0-12.97,10.59-16.14,23.69Z"/><path class="cls-22" d="m392.96,510.68c-3.49,2.55-13.67-3.58-13.67-3.58,0,0-15.26-7.47-22-17.49,0-3.51.05-6.18.18-6.58l7.19-2.8c.52,1.1,8.43,17.53,16.14,23.28,0,0,9.73-1.4,10.29-.67.56.73-1.93,1.94-1.93,1.94,0,0,7.3,3.34,3.81,5.89Z"/><path class="cls-14" d="m357.28,489.61s0,0,0,0"/><path class="cls-14" d="m364.66,480.23s-.03-.06-.03-.06"/><path class="cls-35" d="m355.89,453.56c-2.37.03-4.51-.39-6.42-1.09-3.94-1.44-6.89-4.04-8.81-6.19-1.73-1.93-2.61-3.49-2.61-3.49,0,0-4.37-2.43-3.7-4.53.07-.22.16-.42.28-.6.97-1.54,3.44-1.59,5.38.44,0,0,9.73-11.82,14.72-10.93,4.99.89,10.65,6.48,10.65,6.48,0,0,2.16,19.75-9.48,19.92Z"/><path class="cls-27" d="m365.37,433.65s-3.73-3.68-7.8-5.54h0c-.94-.43-1.9-.77-2.84-.93-4.99-.89-14.72,10.93-14.72,10.93-1.93-2.03-4.4-1.98-5.37-.43,0,0-.48-7.8,4.76-12.77.28-.26.58-.52.89-.77.84-.66,1.81-1.26,2.91-1.75,2.04-.91,4.57-1.48,7.7-1.51,3.13-.03,5.61.37,7.56,1.05,8.8,3.06,6.91,11.74,6.91,11.74Z"/><path class="cls-27" d="m343.2,422.37c-.02.72-.55,1.6-1.83,2.64,0,0-.85-.16-1.97-.12-1.28.05-2.92.38-4.03,1.55-2.09,2.18-2.59,2.91-5.42,2.18-2.83-.72-6.24-.99-8.81.27-.55.27-1.57.61-2.82.87-4.54.93-12.15.8-11.82-7.46.32-7.99,7.59-8.23,13.37-6.29,1.83.62,3.5,1.45,4.76,2.33,5.24,3.64,10.06,2.43,11.64,1.54,1.22-.69,7.02,0,6.94,2.48Z"/><path class="cls-22" d="m348.82,459.07s-7.32,5.83-13.97-2.27c0,0,6.33-4.71,5.81-10.52,1.92,2.14,4.87,4.75,8.81,6.19-1.22,4.16-.65,6.6-.65,6.6Z"/><path class="cls-14" d="m349.52,452.29c-.02.06-.04.12-.05.18"/><path class="cls-14" d="m340.66,446.29c0-.11-.02-.22-.04-.33"/><path class="cls-27" d="m341.32,609.33v-7.99s3.67-.08,7.91.34c5.42.54,11.77,1.9,12.61,5.3,1.49,6.07-20.52,2.35-20.52,2.35Z"/><path class="cls-27" d="m284.05,599.02c-4.49,4.94-14.22-13.84-14.22-13.84l2.03-1.7,3.87-3.23s1.01,1.09,2.37,2.78c.32.4.67.84,1.02,1.3,3.43,4.48,7.85,11.48,4.93,14.7Z"/><path class="cls-17" d="m281.56,582.51l-.15.11-2.28,1.68c-.35-.46-.69-.89-1.02-1.3-1.35-1.68-2.37-2.78-2.37-2.78l3.53-3.09c.3,1.07,1.1,3.57,2.29,5.37Z"/><path class="cls-17" d="m349.23,597.23v4.45c-4.24-.42-7.91-.34-7.91-.34v-4.16c2.4.26,5.62.17,7.91.05Z"/><path class="cls-32" d="m357.44,444.82c-.2,0-.39-.12-.48-.32-.11-.26.01-.57.28-.68.61-.26.65-.54.66-.63.1-.69-.95-1.8-1.47-2.24-.22-.18-.25-.51-.07-.73s.51-.25.73-.07c.21.17,2.05,1.73,1.84,3.18-.06.44-.34,1.04-1.28,1.44-.07.03-.13.04-.2.04Z"/><path class="cls-22" d="m272.2,460.21s-.01,0-.02,0c-1.45,1.2-3.15,2.24-4.34,3.32-.05.05-.09.09-.14.13-.27.25-.51.51-.71.77-1.23-.72-2.89-1.52-4.58-1.81,0,0,0-.19-.02-.53-.02-1.74,0-7.34,1.05-9.81.15-.35.33-.64.53-.85,1.85-1.88,1.51,4.21,1.51,4.21,0,0,1.75-2.66,3.83-4.06.41-.28.84-.51,1.27-.65,1.34-.46,2.71-.13,3.75,1.95,1.64,3.29.04,5.49-2.15,7.32Z"/><path class="cls-27" d="m281.62,582.6c-.07.01-.14.02-.21.03-1.09.15-2.21.27-3.3.38-2.42.23-4.7.37-6.24.45-.28.02-.53.03-.76.04-.67,0-1.06,0-1.32-.43l-1.54-5.24s.45-.07,1.16-.18c.17-.02.36-.05.56-.08.09-.01.18-.03.28-.03.19-.03.39-.05.6-.08.2-.03.42-.05.64-.08.24-.03.49-.05.74-.08,1.04-.12,2.23-.24,3.49-.33.68-.05,1.39-.09,2.1-.12.44-.02.89-.03,1.33-.05,4.32-.09,8.63.3,10.17,2.06,1.66,1.89-2.7,3.05-7.71,3.74Z"/><path class="cls-17" d="m275.72,576.97c-1.26.09-2.45.21-3.49.33-.25.03-.5.05-.74.08-.22.02-.44.05-.64.08-.21.03-.41.05-.6.08-.1,0-.19.02-.28.03-.2.02-.39.05-.56.08-.7.1-1.16.18-1.16.18l-.45-1.8-.1-.4c.09-.01.21-.02.33-.03.09-.01.18-.02.28-.03.12-.01.24-.03.37-.05.27-.03.56-.07.86-.12,1.46-.2,3.41-.55,5.45-1.12l.32,1.17.42,1.52Z"/><path class="cls-45" d="m240.29,534.1h-40.22l-5.71-19.09-2.09-6.99-2.2-7.37s0,0,0,0l-2.23-7.46-7.08-23.65h40.22l5.42,18.13,2.19,7.32,3.9,13.03,2.09,6.99,1.42,4.73,4.29,14.36Z"/><path class="cls-45" d="m241.21,534.78h-41.66l-10.01-33.44h-.18v-.59s-9.55-31.91-9.55-31.91h41.66l19.73,65.94Zm-40.63-1.38h38.78l-18.91-63.19h-38.78l18.91,63.19Z"/><rect class="cls-45" x="199.98" y="536.15" width="60.81" height="6.16"/><path class="cls-45" d="m261.47,543h-62.18v-7.54h62.18v7.54Zm-60.81-1.38h59.43v-4.79h-59.43v4.79Z"/><path class="cls-45" d="m195.2,611.47c-.07,0-.14,0-.21-.02-.75-.12-1.27-.82-1.15-1.57l10.55-67.78c.12-.75.82-1.26,1.57-1.15.75.12,1.27.82,1.15,1.57l-10.55,67.78c-.11.68-.69,1.17-1.36,1.17Z"/><path class="cls-45" d="m235.45,611.47c-.71,0-1.32-.55-1.37-1.27l-5.07-67.78c-.06-.76.51-1.42,1.27-1.48.76-.07,1.42.51,1.48,1.27l5.07,67.78c.06.76-.51,1.42-1.27,1.48-.03,0-.07,0-.1,0Z"/><path class="cls-45" d="m269.96,611.58c-.66,0-1.25-.48-1.36-1.15l-11.18-67.89c-.12-.75.38-1.46,1.14-1.58.76-.13,1.46.39,1.58,1.14l11.18,67.89c.12.75-.38,1.46-1.14,1.58-.08.01-.15.02-.23.02Z"/><path class="cls-14" d="m208.38,433.44s-.02.09-.05.26"/><path class="cls-14" d="m227.27,456.2v-.09s.07-.03.1-.04"/><path class="cls-34" d="m268.14,463.98c-.15-.1-.3-.2-.44-.29-.27.25-.51.51-.71.77-1.23-.72-2.89-1.52-4.58-1.81,0,0,0-.19-.02-.53h0s-11.62,14.62-17.12,9.82c-7.64-6.66-17.72-11.74-17.98-11.86h0s-1.71,4.63-10-.06c0,0-17.36,1.3-20.78,8.13-.19.38-.43.84-.7,1.39-2.42,4.8-7.73,15.55-7.96,23.65-.09,3,.52,5.63,2.23,7.46t0,0c1.41,1.51,3.58,2.48,6.72,2.65.05,0,.11.01.17.02l.84,4.69,1.25,6.99,2.04,11.42.25,1.44s7.32.46,14.66-.42c3.58-.43,7.16-1.19,9.91-2.47.74-.34,1.41-.73,2.01-1.15,3.3-2.35,5.95-3.3,8.07-4.07,2.63-.96,4.45-1.65,5.72-4.41-.03-.1-.07-.2-.1-.31-.19-.58-.38-1.24-.57-1.96-.22-.85-.43-1.79-.64-2.8-.15-.71-.3-1.46-.44-2.23-1.77-9.41-3.07-22.27-3.07-22.27,0,0,7.26,3.13,11.77,1.02,8.78-4.1,23.21-20.23,19.49-22.8Zm-40.34,23.87c1.51.4,2.53,1.53,2.12,4.05-.22,1.33-.68,2.33-1.33,3.08-1.27,1.49-3.24,1.99-5.34,2.2h-.02c-2.08.19-4.29.09-6.07.33-.43.06-.85.14-1.22.25-.04.01-.09.02-.13.04,0,0,0,0,0,0-.08-.16-.16-.34-.24-.51h0c-.64-1.3-1.53-2.78-2.7-3.92,0,0,.01-.02.03-.05.01-.02.02-.03.03-.05.56-.82,4.72-6.84,7.55-8.59.37-.22.71-.38,1.02-.44,2.82-.55-1.15,4.48-1.34,4.71.17-.06,2.53-.98,4.9-1.24.39-.04.78-.06,1.17-.06.05,0,.11,0,.17,0,.5,0,.97.06,1.4.18Z"/><path class="cls-41" d="m201.34,527.87c-.12-.52-.2-1.01-.26-1.44l.26,1.44Z"/><path class="cls-34" d="m227.8,487.84c-.49-.13-1.01-.19-1.57-.19-2.69-.01-5.87,1.23-6.07,1.31.18-.24,4.16-5.27,1.34-4.72-.31.06-.66.22-1.03.44-3.04,1.88-7.62,8.68-7.62,8.68,1.33,1.3,2.3,3.03,2.94,4.44,0,0,0,0,0,0,.41-.13.87-.23,1.36-.29,1.77-.25,3.99-.14,6.07-.34h.02c3.16-.3,6.03-1.31,6.67-5.28.41-2.52-.6-3.65-2.12-4.06Z"/><path class="cls-26" d="m277.66,574.7c-.79.31-1.58.55-2.35.74-3.32.83-6.25.7-7.52.58-.43-.03-.67-.08-.67-.08-1.1-2.7-2.75-6.56-4.57-10.79-3.47-8.06-7.56-17.47-9.66-22.85-.8-2.04-1.31-3.51-1.38-4.09.07.79.02,2.23-.12,4.09-.78,10.63-4.36,35.25-4.36,35.25-1.15.42-2.32.66-3.45.78-3.19.34-6.09-.27-7.34-.6-.42-.1-.65-.18-.65-.18,0,0-.34-13.65.68-26.96.29-3.83.04-6.47-.85-8.29-2.19-4.5-8.24-3.93-19.32-3.69-4.26.09-7.33-.93-9.53-2.47-.88-.61-1.62-1.31-2.24-2.05-1.7-2.01-2.54-4.35-2.96-6.23,0,0,7.32.46,14.66-.42,3.58-.43,7.16-1.19,9.91-2.47.74-.34,1.41-.73,2.01-1.15,3.3-2.35,5.95-3.3,8.07-4.07,2.63-.96,4.45-1.65,5.72-4.41h.22c2.01,0,16.82.42,21.44,12.66,4.96,13.15,14.28,46.72,14.28,46.72Z"/><path class="cls-14" d="m251.46,537.96s0,.02,0,.07c0,.03,0,.05,0,.08t0,0"/><path class="cls-14" d="m239.35,512.69c-.13.01-.2.02-.2.02"/><path class="cls-22" d="m224.55,485.49c1.48,3.76-.49,6.02-3.07,7.82h-.02c-1.7,1.19-3.67,2.18-5.08,3.25-.39.3-.74.6-1.03.92,0,0,.28-.28.27-.28-.99-2.06-2.33-4.46-4.89-4.71,0,0,.25-5.55,1.92-8.65.21-.38.42-.68.66-.88,2.16-1.85,1.3,4.44,1.26,4.74.13-.16,2.25-2.79,4.59-4.08.48-.27.97-.48,1.46-.6,1.52-.38,2.98.1,3.92,2.48Z"/><path class="cls-14" d="m216.86,453.8c-.03-.07-.06-.14-.09-.2"/><path class="cls-22" d="m227.95,453.8c-.06.12-.12.25-.17.4h0c-.19.53-.31,1.18-.4,1.87-.22,1.9-.1,3.99-.1,3.99,0,0-1.71,4.64-10-.05,0,0,.05-.85.06-2.01.02-1.54,0-3.64-.24-5.04-.06-.36-.14-.68-.23-.93.39.29.82.53,1.27.73,2.71,1.19,6.35.84,9.82,1.04Z"/><path class="cls-17" d="m243.56,578.35v3.37c-3.37-.83-6.3-1.39-7.12-1.55h-.03c-.07-.01-.12-.02-.15-.03l-.04-2.39c1.25.33,4.15.94,7.34.6Z"/><path class="cls-27" d="m331.87,510.02v2.99c0,1.11-.89,2-2,2h-162.71c-1.1,0-1.99-.89-1.99-2v-2.99c0-1.1.89-2,1.99-2h162.71c1.11,0,2,.91,2,2Z"/><path class="cls-27" d="m329.86,515.7h-162.71c-1.48,0-2.68-1.21-2.68-2.69v-2.99c0-1.48,1.2-2.69,2.68-2.69h162.71c1.48,0,2.69,1.21,2.69,2.69v2.99c0,1.48-1.21,2.69-2.69,2.69Zm-162.71-7c-.72,0-1.3.59-1.3,1.31v2.99c0,.72.58,1.31,1.3,1.31h162.71c.72,0,1.31-.59,1.31-1.31v-2.99c0-.72-.59-1.31-1.31-1.31h-162.71Z"/><path class="cls-27" d="m178.49,613.65c-1.9,0-3.44-1.54-3.44-3.44v-22.09c0-1.9,1.54-3.44,3.44-3.44s3.44,1.54,3.44,3.44v22.09c0,1.9-1.54,3.44-3.44,3.44Z"/><path class="cls-27" d="m178.49,589.17c-1.14,0-2.07-.93-2.07-2.07v-72.1c0-1.14.93-2.07,2.07-2.07s2.07.93,2.07,2.07v72.1c0,1.14-.93,2.07-2.07,2.07Z"/><path class="cls-27" d="m318.87,612.27c-1.14,0-2.07-.93-2.07-2.07v-95.2c0-1.14.93-2.07,2.07-2.07s2.07.93,2.07,2.07v95.2c0,1.14-.93,2.07-2.07,2.07Z"/><path class="cls-14" d="m173.55,411.38c-1.48.1-2.85.28-4.11.54"/><path class="cls-14" d="m209.86,437.16s0-.08,0-.23"/><path class="cls-14" d="m169.53,411.91s-.06,0-.09,0"/><path class="cls-14" d="m206.55,437.64s0-.11,0-.32"/><path class="cls-27" d="m235.33,588.01c-.75-.05.77-7.86.77-7.86,0,0,.01,0,.05,0,.05,0,.14.02.27.03h.03c.96.09,3.82.4,7.12.91,4.01.64,8.68,1.59,11.36,2.9.46.22.87.46,1.2.71.38.27.66.57.83.88,1.99,3.73-20.89,2.47-21.64,2.42Z"/><path class="cls-34" d="m267.69,463.68c-.27.26-.51.51-.71.77-1.24-.72-2.89-1.52-4.58-1.82,0,0,0-.19-.01-.53.19-.03,2.38-.28,5.3,1.57Z"/><path class="cls-49" d="m196.92,503.8c-.25,0-.46-.18-.51-.43-.05-.28.14-.55.42-.6.13-.02,12.68-2.3,18.46-5.23-.29-.72-1.07-2.31-2.66-3.82-1.53-1.45-10.7-1.19-16.12-.69-.28.01-.54-.18-.56-.47-.03-.28.18-.54.47-.56,1.48-.14,14.55-1.29,16.92.97,2.34,2.23,3.06,4.58,3.09,4.67l.12.4-.37.2c-5.73,3.11-18.62,5.45-19.17,5.55-.03,0-.06,0-.09,0Z"/><path class="cls-49" d="m198.63,492.87c-.08,0-.15-.02-.22-.05-.26-.12-.36-.43-.24-.69.05-.11,5.17-10.75,4.76-15.93-.02-.28.19-.53.47-.56.28,0,.53.19.56.47.43,5.46-4.65,16.02-4.86,16.46-.09.18-.27.29-.47.29Z"/><path class="cls-27" d="m242.56,442.55c-.13.49-1.7,4.85-3.91,5.69-2.22.83-.17,2.34-3.59,2.96-1.91.35-3.2-.44-3.2-.44,1.46-1.46,2.28-2.56,2.28-2.56,0,0,4.69.13,5.8-1.62.36-.56.24-1.26-.19-1.9-.89-1.35-3.13-2.5-5.15-1.88,0,0-4.74-4.45-3.76-8.74,0,0-5.55,2.91-9.4,2.54-3.84-.37-5.72-1.8-4.65-3.14.73-.92-4.38-.02-8.44.26,0,0-7.24.96-6.13-3.53,1.11-4.49,4.02-6.11,7.18-5.45,3.16.67-.02-3.7,5.53-3.2,5.55.5,8.68.63,11.82-.03,3.14-.66,2.13,1.49,6.84,2.57,4.7,1.08,8.38,4.26,7.69,9.66-.68,5.4,3.38,1.08,1.29,8.84Z"/><path class="cls-35" d="m239.94,446.57c-1.11,1.75-5.8,1.62-5.8,1.62,0,0-.82,1.1-2.28,2.56-.91.91-2.07,1.96-3.43,2.98-.03.02-.06.05-.09.06-.18.13-.37.27-.56.4h0c-2.68,1.89-6.07,3.55-9.85,3.77-.19.01-.39.02-.59.03-.78.01-1.58-.03-2.39-.16-10.37-1.54-7.07-21.61-6.6-24.15,4.06-.27,9.17-1.18,8.44-.26-1.07,1.34.81,2.77,4.65,3.14,3.85.37,9.4-2.54,9.4-2.54-.98,4.29,3.76,8.74,3.76,8.74,2.02-.62,4.26.52,5.15,1.88.43.64.55,1.34.19,1.9Z"/><path class="cls-32" d="m214.23,447.06c-.07,0-.14-.01-.2-.04-.95-.4-1.22-1-1.28-1.44-.21-1.45,1.63-3.01,1.84-3.18.22-.18.55-.15.73.07.18.22.15.55-.07.73-.52.43-1.57,1.55-1.47,2.24.01.09.06.38.66.63.26.11.39.41.28.68-.08.2-.28.32-.48.32Z"/><polygon class="cls-47" points="100.28 377.93 100.26 377.96 94.12 388.27 73.77 366.62 100.28 377.93"/><polygon class="cls-20" points="101.95 381.89 102.08 381.96 94.12 388.27 100.26 377.96 104.69 379.88 101.95 381.89"/><polygon class="cls-40" points="104.81 379.79 104.7 379.88 102.08 381.96 101.95 381.89 104.69 379.88 100.26 377.96 100.28 377.94 73.77 366.62 100.31 377.88 100.51 377.96 104.81 379.79"/><polygon class="cls-47" points="118.65 368.59 101.85 375.3 101.84 375.3 73.77 366.62 73.9 366.63 118.65 368.59"/><polygon class="cls-38" points="118.65 368.59 108.01 377.16 101.84 375.3 101.85 375.3 118.65 368.59"/><polygon class="cls-48" points="108.01 377.16 107.56 384.9 104.85 379.84 108.01 377.16"/><polygon class="cls-40" points="108.01 377.16 104.84 379.84 104.81 379.79 108.01 377.16"/><polygon class="cls-28" points="107.56 384.9 102.13 381.98 102.08 381.95 104.69 379.88 104.7 379.88 104.77 379.91 104.84 379.84 104.85 379.84 107.56 384.9"/><polygon class="cls-40" points="104.84 379.84 104.77 379.91 104.7 379.88 102.08 381.96 101.95 381.89 104.69 379.87 104.81 379.79 104.84 379.84"/><polygon class="cls-25" points="101.84 375.3 100.31 377.88 73.77 366.62 101.84 375.3"/><polygon class="cls-40" points="101.84 375.3 100.51 377.96 100.48 378.03 100.28 377.94 73.77 366.62 100.31 377.88 101.84 375.3"/><polygon class="cls-42" points="108.01 377.16 104.81 379.79 100.51 377.96 101.84 375.3 108.01 377.16"/><polygon class="cls-40" points="108.01 377.16 104.84 379.85 104.77 379.91 104.7 379.88 104.69 379.88 104.69 379.88 100.26 377.96 100.28 377.94 100.31 377.88 101.84 375.3 100.51 377.96 104.81 379.79 108.01 377.16"/><polygon class="cls-38" points="104.77 379.91 102.13 381.98 94.12 388.27 100.26 377.96 100.28 377.93 100.48 378.02 104.69 379.88 104.7 379.88 104.77 379.91"/><path class="cls-20" d="m172.02,387.43c-28.6,0-49.07-16.46-49.32-16.67-.29-.24-.34-.68-.1-.97.24-.29.67-.34.97-.1.31.26,31.87,25.61,71.23,12.69,43.29-14.21,80.16-14.84,93.92-1.61.27.26.28.7.02.97-.26.27-.7.28-.97.02-13.19-12.69-50.38-11.91-92.54,1.93-8.13,2.67-15.93,3.73-23.21,3.73Z"/></g><path class="cls-29" d="m526.64,496.76c-.35,0-.69-.18-.88-.5l-.59-.97c-.3-.49-.14-1.12.34-1.42.49-.3,1.12-.14,1.42.34l.59.97c.3.49.14,1.12-.34,1.42-.17.1-.35.15-.54.15Z"/><rect class="cls-46" x="519.44" y="507.37" width="22.85" height=".81"/><path class="cls-22" d="m626.47,444.17s-7.29,8.53-14.13,7.29c-6.83-1.23-16.43-16.91-20.19-21.22,0,0-4.35-2.79-5.66-4.74-1.31-1.95-1.78-6.31-.17-7.45.14-.11.32-.18.51-.23,1.85-.5,5.22,1.74,2.37,8.73l8.86,6.74,4.2-.95s9.63,8.28,10.9,8.16c1.25-.13,6.04-6.27,6.04-6.27,0,0,3.05,3.47,6.58,5-.2.93-.24,1.92,0,2.96.16.75.4,1.41.68,1.98Z"/><path class="cls-27" d="m616.69,429.06l-14.42,3.28-4.2.95-8.86-6.74c2.85-7-.52-9.24-2.37-8.73l-1.38-11.88,9.05,7.54,18.28-4.23,3.91,19.82Z"/><g class="cls-8"><g class="cls-12"><polygon class="cls-20" points="460.17 392.72 429.2 417.26 429.2 392.72 460.17 392.72"/><polygon class="cls-20" points="505.02 392.72 530.33 424.66 530.33 460.46 496.41 487.34 445.81 487.34 429.2 466.39 429.2 417.26 460.17 392.72 505.02 392.72"/><polygon class="cls-20" points="496.41 487.34 530.33 460.46 530.33 487.34 496.41 487.34"/><polygon class="cls-20" points="461.13 391.95 427.19 418.85 427.19 391.95 461.13 391.95"/><polygon class="cls-20" points="506.92 391.95 528.85 419.62 528.85 461.63 493.42 489.71 450.07 489.71 427.19 460.85 427.19 418.85 461.13 391.95 506.92 391.95"/><polygon class="cls-20" points="493.42 489.71 528.85 461.63 528.85 489.71 493.42 489.71"/></g></g><g class="cls-6"><path class="cls-20" d="m448.3,412.29c-.34,0-.68-.13-.94-.39-.49-.5-.47-1.3.04-1.78,3.57-3.32,7.67-5.99,12.17-7.92.65-.28,1.42,0,1.71.64.29.64,0,1.38-.66,1.66-4.23,1.82-8.08,4.32-11.43,7.44-.25.23-.57.35-.89.35Z"/></g><g class="cls-6"><path class="cls-20" d="m439.99,423.13c-.2,0-.4-.04-.59-.14-.64-.32-.89-1.08-.56-1.69.99-1.88,2.14-3.71,3.41-5.42.42-.56,1.23-.69,1.81-.28.58.41.71,1.19.29,1.76-1.2,1.61-2.27,3.33-3.2,5.1-.23.44-.68.69-1.15.69Z"/></g><path class="cls-30" d="m486.49,397.64c9.58,6.11,16.76,15.78,19.26,27.56,4.99,23.5-10.54,46.48-34.68,51.34-5.73,1.15-11.43,1.18-16.86.23,9.53,6.08,21.44,8.62,33.48,6.2,24.14-4.85,39.67-27.84,34.68-51.34-3.8-17.92-18.44-30.96-35.88-33.99Z"/><g class="cls-4"><ellipse class="cls-23" cx="466.09" cy="441.72" rx="17.37" ry="22.47"/></g><g class="cls-13"><path class="cls-20" d="m151.15,408.91c-29.82,0-51.89-16.77-52.17-16.98-.3-.23-.36-.67-.12-.97.23-.3.67-.35.97-.12.35.27,35.23,26.74,76.33,12.49,39.75-13.78,72.74-14.25,88.23-1.25.29.24.33.68.09.97-.24.29-.68.33-.97.09-15.12-12.68-47.61-12.12-86.9,1.5-8.86,3.07-17.44,4.28-25.45,4.28Z"/></g></g></g></svg>