<?xml version="1.0" encoding="UTF-8"?>
<svg data-bbox="0 0 1418.75 358.6" viewBox="0 0 1418.74 358.6" xmlns="http://www.w3.org/2000/svg" data-type="color">
    <g>
        <path fill="#46607b" d="M0 212.49 256.53 358.6V136.47l-52.24 30.15v106.61L0 155.16v57.33z" data-color="1"/>
        <path fill="#6e8398" d="M260.94 0 5.17 147.43l191.64 112.33.4-60.32-91.97-53.91L310.41 28.99 260.94 0z" data-color="2"/>
        <path fill="#8b9bac" d="m314.37 330.03-1.13-295.21-192.6 110.66 52.18 30.27 92.43-53.11-.6 235.96 49.72-28.57z" data-color="3"/>
        <path d="M1230.72 295.49c-15.97 0-30.79.12-45.6-.2-1.44-.03-3.43-2.58-4.12-4.36-16.64-43.05-33.13-86.16-49.65-129.25-4.54-11.83-9.12-23.64-14.27-37.01-10.67 27.84-20.73 54.1-31.12 81.2 10.36 0 19.65.21 28.92-.1 3.91-.13 5.68 1.19 6.98 4.84 4 11.22 8.39 22.31 12.91 34.17-16.4 0-31.98.37-47.54-.19-6.17-.22-8.57 2.06-10.52 7.45-4.77 13.21-10.07 26.24-15.47 39.21-.74 1.8-3.26 4.03-4.99 4.06-16.54.29-33.09.15-49.64.11-.52 0-1.04-.29-2.21-.65 3.98-10.53 7.89-20.94 11.87-31.33 23.21-60.66 46.5-121.3 69.57-182.02 1.76-4.64 3.99-6.29 9.02-6.17 15.4.36 30.81.34 46.21 0 4.69-.1 6.66 1.66 8.21 5.77 25.02 66.06 50.17 132.08 75.28 198.11 1.94 5.1 3.84 10.2 6.16 16.37Z" fill="#123356" data-color="4"/>
        <path d="M700.42 183.88c-.04 33.85 0 67.69 0 101.54v9.66c-2.22.16-4.03.4-5.84.41-11.41.02-22.82-.26-34.22.08-4.81.15-7.49-1.69-10.19-5.47-29.44-41.32-59.06-82.52-88.63-123.74-.76-1.06-1.62-2.05-3.69-3.03v6.9c-.1 39.74-.27 79.48-.21 119.22 0 4.67-1.36 6.27-6.12 6.19-15.56-.25-31.12-.09-47.14-.09V75.41c2.21-.12 4.23-.31 6.25-.32 11.03-.04 22.06.18 33.08-.15 4.76-.14 7.53 1.64 10.23 5.46 29.26 41.46 58.7 82.79 88.1 124.15.96 1.35 2.02 2.64 3.04 3.95.38-.13.77-.26 1.15-.4V75.41c2.35-.14 4.38-.37 6.4-.37 13.88-.04 27.77.17 41.64-.13 4.87-.1 6.51 1.09 6.46 6.29-.31 34.23-.28 68.45-.31 102.68Z" fill="#123356" data-color="4"/>
        <path d="M1418.09 221.02c-1.84-17.88-11.94-29.47-28.58-35.67-1.18-.44-2.28-1.09-4.23-2.04 15.71-9.22 23.1-23.15 24.78-40.04 2-20.08-1.2-38.86-17.54-52.93-12.6-10.84-27.93-14.33-44.02-14.45-33.66-.26-67.32-.09-100.98-.08-1.29 0-2.59.13-4.39.23-.13 1.97-.3 3.29-.3 4.61-.01 56.86-.03 113.72.04 170.59 0 2.22.45 4.55 1.23 6.63 4.18 11.21 8.64 22.31 12.74 33.54 1.24 3.37 2.99 4.58 6.63 4.56 30.24-.18 60.48.1 90.71-.28 14.01-.18 27.65-3.06 39.46-11.22 22.5-15.53 27.05-38.22 24.46-63.42Zm-121.26-107.75c12.53 0 24.53-.59 36.45.14 15.6.95 23.25 9.97 23.39 25.94.13 15.37-7.59 24.43-23.01 25.63-10.96.85-22.02.59-33.03.52-1.27 0-3.61-1.91-3.63-2.96-.23-16.29-.16-32.59-.16-49.28Zm66.71 124.62c-1.43 11.02-8.29 18.07-19.08 18.74-15.66.97-31.43.25-47.76.25v-55.17c12.35 0 24.46-.16 36.57.08 4.72.09 9.52.64 14.09 1.77 9.5 2.36 14.93 9.01 16.3 18.45.75 5.19.56 10.66-.12 15.89Z" fill="#123356" data-color="4"/>
        <path d="M991.35 254.92c-5.26 13.57-9.9 25.78-14.84 37.87-.52 1.27-2.79 2.59-4.26 2.59-34.04.15-68.08.11-102.12.16-2.88 0-4.26-1.07-4.07-4 .07-1.14 0-2.28 0-3.42V82.75q0-7.36 7.49-7.37h45.59v179.54h72.19Z" fill="#123356" data-color="4"/>
        <path d="M809.47 75.37v220.12c-16.81 0-33.14.07-49.47-.14-1.17-.02-2.65-1.94-3.37-3.29-.55-1.04-.13-2.6-.13-3.94V82.75q0-7.36 7.48-7.38h45.48Z" fill="#123356" data-color="4"/>
        <path d="M448.24 223.24c0 20.13-.05 40.26-.09 60.4v11.44h-53.29V75h20.1c9.12.02 18.25.21 27.37 0 4.25-.09 5.99.97 5.98 5.69-.15 47.51-.07 95.03-.07 142.54Z" fill="#123356" data-color="4"/>
    </g>
</svg>
