<?xml version="1.0" encoding="UTF-8"?>
<svg data-bbox="0 0 1492.101 490.95" viewBox="0 0 1492.09 490.95" xmlns="http://www.w3.org/2000/svg" data-type="color">
    <g>
        <path fill="#60768e" d="m131.11 196.46-48.9 98.23H0l131.11-98.23z" data-color="1"/>
        <path fill="#8697a9" d="M131.11 196.46v163.57l-48.9-65.34 48.9-98.23z" data-color="2"/>
        <path fill="#60768e" d="m262.23 98.23-48.9 98.23h-82.22l131.12-98.23z" data-color="1"/>
        <path fill="#8697a9" d="M262.23 98.23v163.58l-48.9-65.35 48.9-98.23z" data-color="2"/>
        <path fill="#60768e" d="m393.34 0-48.9 98.23h-82.21L393.34 0z" data-color="1"/>
        <path fill="#8697a9" d="M393.34 0v163.58l-48.9-65.35L393.34 0z" data-color="2"/>
        <path fill="#60768e" d="m262.23 261.81-48.9 98.23h-82.21l131.11-98.23z" data-color="1"/>
        <path fill="#8697a9" d="M262.23 261.81v163.58l-48.9-65.35 48.9-98.23z" data-color="2"/>
        <path fill="#60768e" d="m393.34 163.59-48.9 98.23h-82.21l131.11-98.23z" data-color="1"/>
        <path fill="#8697a9" d="M393.34 163.59v163.57l-48.9-65.34 48.9-98.23z" data-color="2"/>
        <path fill="#60768e" d="m393.35 327.37-48.91 98.23h-82.21l131.12-98.23z" data-color="1"/>
        <path fill="#8697a9" d="M393.35 327.37v163.58l-48.91-65.35 48.91-98.23z" data-color="2"/>
        <path d="M677.17 271.11c-3.24 9.79-6.22 18.76-9.19 27.73-9.77 29.53-19.59 59.03-29.21 88.61-1.16 3.57-2.82 4.83-6.51 4.59-4.96-.32-9.96-.3-14.92 0-3.14.19-4.33-1.15-5.23-3.88-8.79-26.6-17.68-53.16-26.56-79.73-.5-1.49-1.14-2.93-2.14-5.47-1.38 3.68-2.47 6.37-3.4 9.12-8.59 25.3-17.2 50.6-25.66 75.95-1 2.99-2.37 4.19-5.58 4.01-5.11-.28-10.26-.31-15.36 0-3.46.22-4.79-1.21-5.8-4.29-10.75-32.75-21.64-65.45-32.48-98.17-1.97-5.93-3.91-11.87-6.07-18.44 7.5 0 14.46-.15 21.4.17 1.02.05 2.38 2.17 2.85 3.57 7.94 23.95 15.76 47.94 23.62 71.91 1.57 4.8 3.2 9.58 5.24 15.66 1.05-2.58 1.69-3.95 2.17-5.37 9.16-26.96 18.4-53.89 27.36-80.92 1.33-4.02 3.22-5.54 7.4-5.12 3.77.38 7.62.32 11.41 0 3.14-.26 4.32 1.1 5.22 3.85 9 27.48 18.11 54.93 27.19 82.39.49 1.48 1.03 2.94 2.01 5.73.96-2.56 1.53-3.93 2-5.33 9.12-27.24 18.28-54.46 27.27-81.73 1.16-3.53 2.61-5.27 6.66-4.93 5.07.43 10.21.1 16.33.1Z" fill="#123356" data-color="3"/>
        <path d="M1138.77 367.96c4.84-13.16 9.28-25.2 13.69-37.24 3.27-8.91 6.61-17.79 9.71-26.75 1-2.91 2.4-4.23 5.63-4.03 4.65.28 9.34.07 14.47.07-.35 1.44-.5 2.54-.87 3.55-10.35 28.07-20.78 56.11-30.99 84.23-1.23 3.39-2.91 4.73-6.35 4.19-.86-.14-1.75 0-2.63-.03-4.35-.16-9.77 1.17-12.75-.94-3-2.12-3.66-7.65-5.21-11.73-5.88-15.55-11.71-31.13-17.57-46.69-.35-.94-.78-1.86-1.54-3.64-.98 2.13-1.74 3.57-2.31 5.07-6.82 17.88-13.69 35.73-20.35 53.67-1.2 3.23-2.72 4.68-6.32 4.36-4.07-.36-8.2-.21-12.29-.04-2.53.1-3.9-.61-4.84-3.18-10.55-28.96-21.22-57.87-31.85-86.8-.14-.39-.16-.83-.37-1.95 6.24 0 12.3-.18 18.33.17 1.06.06 2.38 2.25 2.9 3.7 6.91 19.06 13.7 38.16 20.53 57.25.63 1.77 1.35 3.52 2.34 6.07.99-2.26 1.74-3.78 2.33-5.36 7.22-19.29 14.47-38.57 21.55-57.91 1.04-2.85 2.26-4.33 5.54-4.06 4.64.39 10.45-1.31 13.66.92 3.17 2.2 3.82 8.14 5.42 12.5 6.04 16.46 12.01 32.94 18.02 49.41.49 1.35 1.08 2.68 2.11 5.2Z" fill="#123356" data-color="3"/>
        <path d="M988.96 310.81v-47.19h21.24V391.7h-20.17v-11.32c-12.98 13.04-27.87 14.71-43.71 11.17-10.48-2.34-19.02-8.12-25.25-17.02-13.37-19.11-10.6-48.09 5.68-63.73 13.86-13.32 44.64-17.65 62.21 0Zm-27.23 6.39c-16.22.04-27.55 11.84-27.58 28.73-.03 16.66 11.62 28.89 27.56 28.91 16.17.02 27.58-11.78 27.71-28.67.13-17.15-11.21-29.02-27.7-28.97Z" fill="#123356" data-color="3"/>
        <path d="M1317.49 391.96v-11.78c-11.46 12.14-24.95 14.31-39.4 12.28-11.43-1.6-21.05-6.91-28.21-16.14-14.22-18.34-12.65-47.75 2.73-64.01 13.6-14.38 45.26-19.92 63.87-1.67v-47.01h20.94c.11 1.55.31 3.1.31 4.65.02 39.52-.03 79.04.09 118.56.01 3.87-.84 5.54-5.07 5.2-4.78-.39-9.61-.09-15.25-.09Zm-55.62-46.22c-.05 17.14 10.99 28.98 27.13 29.1 16.2.13 27.78-11.73 27.82-28.48.04-17.49-10.9-29.13-27.41-29.16-16.44-.03-27.49 11.42-27.54 28.54Z" fill="#123356" data-color="3"/>
        <path d="M572.06 218.88c4.07-9.05 7.84-17.39 11.59-25.73 13.66-30.38 27.35-60.75 40.91-91.17 1.31-2.93 2.79-4.29 6.16-4.07 4.96.32 9.96-.09 14.92.2 1.36.08 3.32 1.23 3.86 2.41 17.56 38.56 34.98 77.19 52.41 115.81.29.64.39 1.37.71 2.54-7.3 0-14.26.11-21.22-.12-.98-.03-2.29-1.55-2.8-2.68-3.26-7.19-6.47-14.41-9.41-21.73-1.1-2.75-2.58-3.69-5.53-3.66-17.57.14-35.14.14-52.71 0-2.98-.02-4.45.96-5.53 3.69-2.8 7.06-6.01 13.96-8.79 21.03-1.09 2.77-2.59 3.69-5.54 3.58-6.08-.24-12.18-.07-19.03-.07Zm88.12-45.57-22.34-51.76c-.38.02-.77.03-1.15.05-7.29 17.06-14.59 34.11-22.11 51.71h45.6Z" fill="#123356" data-color="3"/>
        <path d="M1453.02 352.51h-72.06c1.64 9.44 6.63 15.97 14.74 19.3 14.42 5.93 28.03 4.18 40.28-6.63 3.77 4.32 7.48 8.58 11.29 12.95-4.87 6.08-10.93 9.83-17.82 12.02-13.34 4.24-26.8 4.25-40-.54-19.86-7.21-30.94-25.06-30.04-46.16 1.18-27.58 23.54-44.78 48.35-44.51 28.5.31 48.99 23.27 45.26 53.57Zm-20.55-14.41c.38-11.44-10.72-21.33-24.22-22-14.2-.71-26.14 8.82-27.11 22h51.34Z" fill="#123356" data-color="3"/>
        <path d="M735.29 298.91c15.71-.55 34.55 13.39 40.13 32.72 9.21 31.94-12.51 61.09-45.7 61.38-18.26.16-33.53-5.72-43.36-21.56-9.67-15.6-10.04-32.35-1.46-48.47 9.06-17.03 24.55-23.72 50.39-24.08Zm-7.02 18.29c-16.25-.02-27.52 11.62-27.71 28.62-.19 16.57 11.52 28.95 27.47 29.03 16.24.08 28.01-12.17 27.87-29.01-.14-17.04-11.31-28.61-27.64-28.63Z" fill="#123356" data-color="3"/>
        <path d="M559.58 98.3c.07 1.65.19 3.08.19 4.51.01 25.76.06 51.53-.05 77.29-.02 4.07-.41 8.21-1.29 12.18-3.62 16.39-13.57 25.32-30.39 27.66-18.17 2.53-33.86-1.88-46.22-16.6 4.18-5.03 8.26-9.94 12.47-15.01 1.97 1.99 3.64 3.79 5.42 5.47 6.94 6.56 15.08 9.44 24.52 7.26 7.67-1.77 12.77-7.58 12.92-16.22.37-22.24.12-44.49.1-66.74 0-.25-.23-.5-.62-1.29h-16.29c-7.46 0-14.93-.07-22.39.04-2.52.04-3.77-.56-3.67-3.4.18-4.95.05-9.9.05-15.17h65.25Z" fill="#123356" data-color="3"/>
        <path d="M870.66 263.3c6.28 0 12.25-.13 18.21.13.99.04 2.09 1.68 2.78 2.79.4.63.09 1.71.09 2.59 0 39.21-.07 78.43.1 117.64.02 4.44-1.11 5.97-5.63 5.6-5.05-.41-10.17-.09-15.54-.09V263.3Z" fill="#123356" data-color="3"/>
        <path d="M798.54 391.62v-91.29h20.19v12.29c9.2-10.41 19.8-14.21 32.54-13.28v19.39c-3.98.22-7.82.02-11.49.71-12.25 2.32-19.71 12-19.88 25.8-.17 13.76-.05 27.52-.05 41.28v5.09h-21.31Z" fill="#123356" data-color="3"/>
        <path d="M1198.31 391.96v-91.55h21.12c.08 1.6.22 3.03.22 4.45.01 27.39-.06 54.78.09 82.17.02 3.72-.74 5.29-4.8 5.02-5.36-.36-10.77-.09-16.62-.09Z" fill="#123356" data-color="3"/>
        <path d="M1209.1 283.9c-8.13.02-13.66-5.08-13.69-12.62-.03-7.55 5.46-12.8 13.51-12.91 8.16-.12 13.55 4.91 13.52 12.62-.03 7.79-5.31 12.91-13.34 12.92Z" fill="#123356" data-color="3"/>
        <path d="M1471.47 304.23c-11.79 0-20.18-8.35-20.18-20.08 0-11.76 8.36-20.09 20.19-20.1 11.81-.01 20.53 8.36 20.62 19.8.09 11.55-8.84 20.38-20.62 20.38Zm-17.12-20.15c-.01 9.87 7.23 17.23 17.01 17.28 9.63.05 17.69-7.93 17.63-17.43-.06-9.67-7.57-16.93-17.48-16.9-9.97.03-17.15 7.16-17.16 17.06Z" fill="#123356" data-color="3"/>
        <path d="M1477.69 287.9c1.52 2.57 2.83 4.78 4.16 7.03-3.42 1.32-5.16-.34-6.48-2.93-1.47-2.87-3.45-4.74-7.36-3.02-.17 1.71-.37 3.69-.59 5.81-2.83 1.19-4.39.61-4.35-2.78.05-5.25.09-10.5-.01-15.74-.05-2.72 1.17-3.6 3.72-3.38 1.74.15 3.5.1 5.24.01 3.89-.2 7.62.54 9.15 4.44 1.55 3.93.79 7.76-3.48 10.57Zm-10.09-7.7c-.09 2.51-.5 5.12 3.27 4.77 3-.28 6.37-.5 6.34-4.45-.03-3.71-3.28-3.86-6.12-4.14-3.05-.29-3.92 1.25-3.49 3.82Z" fill="#123356" data-color="3"/>
    </g>
</svg>
