<?xml version="1.0" encoding="UTF-8"?>
<svg data-bbox="0.003 0 1444.727 281.298" viewBox="0 0 1444.72 281.28" xmlns="http://www.w3.org/2000/svg" data-type="color">
    <g>
        <path d="M77.21 280.94c5.03-39.11 9.98-77.59 15.11-117.46 2.19 2.47 3.6 4.02 4.96 5.6 19.27 22.52 38.57 45.01 57.76 67.6 2.16 2.54 4.21 3.43 7.67 3.11 11.91-1.12 23.87-1.84 35.82-2.47 3.98-.21 6.48-1.6 8.6-5.18 14.69-24.81 29.63-49.47 44.5-74.17 1.03-1.72 2.12-3.41 3.61-5.79 5.28 10.96 10.25 21.26 15.2 31.56 13.37 27.81 26.66 55.65 40.17 83.39 1.65 3.38 1.37 5.25-1.76 7.36-6.63 4.45-13.85 6.77-21.76 6.78-68.27.04-136.55.03-204.82.01-1.39 0-2.79-.18-5.06-.33Z" fill="#71859a" data-color="1"/>
        <path d="M529.14 44.14c1.71 40.79 3.39 80.9 5.09 121.43H507.7c-.59-21.47-1.17-42.92-1.76-64.38-.31-.08-.62-.17-.93-.25-1.48 3.53-3 7.04-4.45 10.59-4.77 11.66-9.61 23.28-14.19 35.01-1.09 2.79-2.46 3.86-5.48 3.73-5.51-.25-11.04-.27-16.55 0-3.19.16-4.67-.92-5.85-3.9-6.04-15.21-12.33-30.32-19.44-45.42-.63 21.5-1.27 43-1.91 64.75h-26.46c1.69-40.36 3.37-80.57 5.08-121.52 8.86 0 17.6-.1 26.34.16.87.03 1.97 2.1 2.47 3.41 8.56 22.51 17.04 45.05 25.55 67.58.66 1.74 1.42 3.43 2.43 5.87 8.19-21.67 16.08-42.58 24-63.47 1.67-4.41 2.27-10.55 5.49-12.7 3.42-2.28 9.37-.81 14.22-.89 4.07-.07 8.15-.01 12.87-.01Z" fill="#123356" data-color="2"/>
        <path d="M799.41 124.45c5 7.09 9.71 13.76 14.41 20.43l14.53 20.64c-1.7.2-2.84.45-3.97.45-7.57.03-15.16-.28-22.7.13-4.37.24-6.83-1.43-9.16-4.87-6.74-9.9-13.89-19.53-20.67-29.4-1.8-2.63-3.7-3.86-6.93-3.61-3.72.29-7.48.07-11.68.07v37.41h-27.11V44.74c.18-.13.44-.45.69-.45 20.32.2 40.7-.39 60.96.89 19.56 1.24 28.95 12.63 28.99 32.11 0 4.26-.17 8.53.03 12.78.69 14.62-2.28 27.4-17.38 34.37Zm-46.04-20.11c7.49 0 14.4.03 21.32-.02 1.73-.01 3.47-.16 5.18-.42 6.13-.93 9.03-3.84 9.36-9.94.27-5.03.26-10.1 0-15.13-.29-5.73-2.89-9.24-8.5-9.61-9.03-.6-18.13-.16-27.36-.16v35.28Z" fill="#123356" data-color="2"/>
        <path d="M933.19 105.2c0 8.36-.03 16.72 0 25.07.07 15.78-7.31 27.04-21.67 32.88-16.86 6.86-34.29 6.84-51.13-.16-14.17-5.89-21.29-17.18-21.33-32.68-.04-15.77.44-31.55-.11-47.3-.87-24.93 15.65-36.16 31.94-39.15 14.72-2.71 29.25-2.46 42.95 4.25 12.76 6.25 19.21 16.8 19.32 31.08.06 8.67.01 17.35.01 26.02Zm-66.56-.04c0 8.04-.07 16.08.02 24.11.07 6.23 3.27 10.42 9.06 12.47 6.9 2.45 13.91 2.44 20.83.03 5.97-2.08 9.15-6.51 9.17-12.87.06-15.76.06-31.52 0-47.28-.02-7.11-3.71-12.49-10.63-13.62-5.62-.91-11.62-.99-17.24-.11-7.57 1.19-11.15 6.34-11.21 14.09-.07 7.72-.01 15.44 0 23.17Z" fill="#123356" data-color="2"/>
        <path d="M103 .82h90.44l-19.03 166.83-.96.3C150.04 112.43 126.64 56.92 103 .82Z" fill="#71859a" data-color="1"/>
        <path d="M1281.91 44.15c11.61 0 22.8.11 33.98-.07 3.33-.05 3.33 2.3 3.93 4.27 10.9 35.53 21.75 71.06 32.62 106.6 1.04 3.41 2.05 6.84 3.22 10.71h-28.46c-1.73-6.21-3.67-12.63-5.28-19.14-.75-3.03-1.9-4.39-5.37-4.31-10.88.26-21.77.24-32.65.01-3.2-.07-4.4 1.15-5.11 4.01-1.39 5.66-2.94 11.28-4.69 16.84-.36 1.15-1.86 2.75-2.87 2.77-8.49.22-16.99.13-26.42.13 12.44-40.84 24.7-81.12 37.09-121.82Zm32.13 75.08c-4.6-16.78-8.99-32.8-13.38-48.82-.34.06-.67.13-1.01.19-4.42 16.09-8.83 32.19-13.34 48.63h27.73Z" fill="#123356" data-color="2"/>
        <path d="M1120.65 90.57v24.41h-44.8v26.66h48.49v24.06h-76.09V44.45h76.16v24.07h-48.62v22.05h44.87Z" fill="#123356" data-color="2"/>
        <path d="M1204.09 142.81v-37.83h25.68c.12 1.31.33 2.52.33 3.73.02 16.4.08 32.8-.09 49.2-.02 1.56-1.28 4.19-2.44 4.5-18.11 4.73-36.46 7.67-55.1 3.73-19.13-4.04-29.13-16.83-29.13-36.28V81.13c0-21.94 11.95-35.35 33.81-38.03 16.48-2.02 32.66.39 49.61 2.99-1.04 7.91-2.06 15.62-3.16 23.89-6.03-.59-11.9-1.35-17.79-1.71-7.06-.43-14.15-.93-21.2-.64-8.49.35-13.45 4.96-13.67 13.31-.42 15.91-.43 31.85.01 47.77.24 8.7 5.01 13.3 13.66 13.99 6.33.51 12.74.1 19.49.1Z" fill="#123356" data-color="2"/>
        <path d="M36.01.6C25.93 88.23 15.92 175.26 5.88 262.46 2.22 259.13.02 252.24.01 244.3c-.01-26.81 0-53.62 0-80.44 0-42.27-.02-84.54.01-126.81C.03 19.53 12.5 4.36 29.63.97c1.78-.35 3.66-.22 6.38-.36Z" fill="#71859a" data-color="1"/>
        <path d="M1444.72 44.43v24.18h-32.61v97.06h-27.14V68.76h-32.95V44.43h92.71Z" fill="#123356" data-color="2"/>
        <path d="M1031.11 141.52v24.11h-74.99V44.46h26.81v97.07h48.19Z" fill="#123356" data-color="2"/>
        <path d="M323.41 125.84C302.75 84.33 282.1 42.83 260.79 0c12.92.57 24.86-.19 36.28 1.91 15.45 2.84 26.92 17.5 27.09 32.93.32 30.27.1 60.54.1 90.82-.28.06-.56.13-.84.19Z" fill="#71859a" data-color="1"/>
        <path d="M708.85 165.98c-10.14 0-19.41.09-28.67-.11-1.22-.03-2.88-1.23-3.53-2.36-11.04-19.1-21.98-38.25-32.79-57.48-.67-1.18-.59-3.4.08-4.63a4320.28 4320.28 0 0 1 30.16-54.59c.73-1.29 2.83-2.51 4.32-2.55 8.98-.24 17.96-.12 27.7-.12-.76 1.59-1.26 2.79-1.89 3.91-9.85 17.23-19.65 34.49-29.66 51.63-1.71 2.94-1.86 5.08-.04 8.09 10.5 17.4 20.77 34.94 31.1 52.44.95 1.61 1.83 3.27 3.23 5.77Z" fill="#123356" data-color="2"/>
        <path d="M585.58 44.51v121.15h-26.86V44.51h26.86Z" fill="#123356" data-color="2"/>
        <path d="M638.66 165.72h-26.85V44.41h26.85v121.3Z" fill="#123356" data-color="2"/>
        <path d="M408.88 205.45h22.88v6h-15.45v9.5h11.84v5.89h-11.84v15.66h-7.43v-37.05Z" fill="#123356" data-color="2"/>
        <path d="M460.85 242.87c-10.46 0-19-7.86-19-19s8.55-18.95 19-18.95 18.95 7.86 18.95 18.95-8.44 19-18.95 19Zm0-6.64c6.69 0 11.31-4.83 11.31-12.37s-4.62-12.26-11.31-12.26-11.36 4.72-11.36 12.26 4.62 12.37 11.36 12.37Z" fill="#123356" data-color="2"/>
        <path d="M523.64 205.4v37.1h-7.43l-16.83-25.43v25.43h-7.43v-37.1h7.43l16.83 25.48V205.4h7.43Z" fill="#123356" data-color="2"/>
        <path d="M570.09 224.03c0 11.2-7.7 18.47-19.53 18.47h-12.95v-37.05h12.95c11.84 0 19.53 7.33 19.53 18.58Zm-19.8 12.16c7.8 0 12.21-4.46 12.21-12.16s-4.41-12.31-12.21-12.31h-5.26v24.47h5.26Z" fill="#123356" data-color="2"/>
        <path d="M603.79 211.45h-14.07v9.29h12.47v5.89h-12.47v9.82h14.07v6.05h-21.5v-37.1h21.5v6.05Z" fill="#123356" data-color="2"/>
        <path d="M648.86 205.4v37.1h-7.43l-16.83-25.43v25.43h-7.43v-37.1h7.43l16.83 25.48V205.4h7.43Z" fill="#123356" data-color="2"/>
        <path d="M682.09 205.45h22.88v6h-15.45v9.5h11.84v5.89h-11.84v15.66h-7.43v-37.05Z" fill="#123356" data-color="2"/>
        <path d="M734.06 242.87c-10.46 0-19-7.86-19-19s8.55-18.95 19-18.95 18.95 7.86 18.95 18.95-8.44 19-18.95 19Zm0-6.64c6.69 0 11.31-4.83 11.31-12.37s-4.62-12.26-11.31-12.26-11.36 4.72-11.36 12.26 4.62 12.37 11.36 12.37Z" fill="#123356" data-color="2"/>
        <path d="M779.07 205.45c8.92 0 13.38 5.15 13.38 11.36 0 4.51-2.49 9.08-8.44 10.67l8.86 15.02h-8.6l-8.17-14.44h-3.5v14.44h-7.43v-37.05h13.91Zm-.27 6.16h-6.21v10.88h6.21c4.14 0 6-2.18 6-5.52s-1.86-5.36-6-5.36Z" fill="#123356" data-color="2"/>
        <path d="M846.59 211.45h-14.07v9.29h12.47v5.89h-12.47v9.82h14.07v6.05h-21.5v-37.1h21.5v6.05Z" fill="#123356" data-color="2"/>
        <path d="M891.66 205.4v37.1h-7.43l-16.83-25.43v25.43h-7.43v-37.1h7.43l16.83 25.48V205.4h7.43Z" fill="#123356" data-color="2"/>
        <path d="M903.65 205.45h27.18v6h-9.87v31.05h-7.43v-31.05h-9.87v-6Z" fill="#123356" data-color="2"/>
        <path d="M956.79 205.45c8.92 0 13.38 5.15 13.38 11.36 0 4.51-2.49 9.08-8.44 10.67l8.86 15.02h-8.6l-8.17-14.44h-3.5v14.44h-7.43v-37.05h13.91Zm-.27 6.16h-6.21v10.88h6.21c4.14 0 6-2.18 6-5.52s-1.86-5.36-6-5.36Z" fill="#123356" data-color="2"/>
        <path d="M1005.04 211.45h-14.07v9.29h12.47v5.89h-12.47v9.82h14.07v6.05h-21.5v-37.1h21.5v6.05Z" fill="#123356" data-color="2"/>
        <path d="M1032.06 228.28h-6.21v14.23h-7.43v-37.05h13.64c8.92 0 13.38 5.04 13.38 11.47 0 5.63-3.82 11.36-13.38 11.36Zm-.32-6c4.19 0 6.05-2.07 6.05-5.36s-1.86-5.41-6.05-5.41h-5.89v10.78h5.89Z" fill="#123356" data-color="2"/>
        <path d="M1071.23 205.45c8.92 0 13.38 5.15 13.38 11.36 0 4.51-2.49 9.08-8.44 10.67l8.86 15.02h-8.6l-8.17-14.44h-3.5v14.44h-7.43v-37.05h13.91Zm-.27 6.16h-6.21v10.88h6.21c4.14 0 6-2.18 6-5.52s-1.86-5.36-6-5.36Z" fill="#123356" data-color="2"/>
        <path d="M1119.48 211.45h-14.07v9.29h12.47v5.89h-12.47v9.82h14.07v6.05h-21.5v-37.1h21.5v6.05Z" fill="#123356" data-color="2"/>
        <path d="M1164.55 205.4v37.1h-7.43l-16.83-25.43v25.43h-7.43v-37.1h7.43l16.83 25.48V205.4h7.43Z" fill="#123356" data-color="2"/>
        <path d="M1195.71 242.87c-4.3 0-8.28-1.33-11.47-3.66l-2.97 3.29h-5.15l5.31-5.84c-2.92-3.29-4.72-7.7-4.72-12.79 0-11.09 8.55-18.95 19-18.95 4.3 0 8.28 1.33 11.47 3.61l2.92-3.18h5.15l-5.25 5.79c2.92 3.24 4.67 7.64 4.67 12.74 0 11.15-8.44 19-18.95 19Zm-9.4-11.52 16.14-17.68c-1.8-1.33-4.14-2.07-6.74-2.07-6.74 0-11.36 4.72-11.36 12.26 0 2.97.69 5.47 1.96 7.48Zm20.7-7.48c0-2.92-.69-5.41-1.96-7.38l-16.14 17.68c1.86 1.33 4.14 2.07 6.79 2.07 6.69 0 11.31-4.83 11.31-12.37Z" fill="#123356" data-color="2"/>
        <path d="M1240.72 205.45c8.92 0 13.38 5.15 13.38 11.36 0 4.51-2.5 9.08-8.44 10.67l8.86 15.02h-8.6l-8.17-14.44h-3.5v14.44h-7.43v-37.05h13.91Zm-.27 6.16h-6.21v10.88h6.21c4.14 0 6-2.18 6-5.52s-1.86-5.36-6-5.36Z" fill="#123356" data-color="2"/>
        <path d="M1280.27 242.87c-7.7 0-13.64-4.03-13.75-11.04h7.96c.21 2.97 2.18 4.94 5.63 4.94s5.57-1.86 5.57-4.51c0-8.02-19.11-3.19-19.06-16.61 0-6.69 5.41-10.72 13.06-10.72s12.79 3.88 13.27 10.56h-8.17c-.16-2.44-2.12-4.35-5.31-4.41-2.92-.11-5.1 1.33-5.1 4.35 0 7.43 19 3.29 19 16.35 0 5.84-4.67 11.09-13.11 11.09Z" fill="#123356" data-color="2"/>
        <path d="M1313.87 226v16.51h-7.43v-37.05h7.43v16.61l13.48-16.61h8.97l-15.29 18.37 15.71 18.68h-9.4L1313.86 226Z" fill="#123356" data-color="2"/>
        <path d="M1370.98 235.44h-14.76l-2.44 7.06h-7.8l13.32-37.1h8.65l13.32 37.1h-7.86l-2.44-7.06ZM1363.6 214l-5.36 15.5h10.72l-5.36-15.5Z" fill="#123356" data-color="2"/>
        <path d="M1408.88 242.5h-15.98v-37.05h15.29c7.75 0 12.05 4.03 12.05 9.55 0 4.51-2.71 7.33-6.32 8.49 4.19.74 7.17 4.62 7.17 8.97 0 5.89-4.51 10.03-12.21 10.03Zm-1.75-31.05h-6.79v9.29h6.79c3.5 0 5.52-1.59 5.52-4.62s-2.02-4.67-5.52-4.67Zm.53 15.02h-7.33v9.98h7.48c3.61 0 5.73-1.75 5.73-4.88s-2.28-5.1-5.89-5.1Z" fill="#123356" data-color="2"/>
    </g>
</svg>
